<?xml version="1.0" encoding="UTF-8"?>
<svg width="115px" height="63px" viewBox="0 0 115 63" version="1.1" xmlns="http://www.w3.org/2000/svg" xmlns:xlink="http://www.w3.org/1999/xlink">
    <!-- Generator: Sketch 46 (44423) - http://www.bohemiancoding.com/sketch -->
    <title>Fintech</title>
    <desc>Created with Sketch.</desc>
    <defs></defs>
    <g id="Page-1" stroke="none" stroke-width="1" fill="none" fill-rule="evenodd">
        <path d="M56.211,14.33 C56.211,14.453 56.334,14.576 56.252,14.699 C56.211,14.74 56.17,14.74 56.129,14.74 C55.35,14.576 54.571,14.535 53.792,14.494 C53.054,14.453 52.316,14.371 51.578,14.33 L51.537,14.33 L48.462,14.207 C48.134,14.166 47.806,14.166 47.478,14.125 C46.904,14.125 46.289,14.125 45.674,14.084 C45.305,14.084 44.895,14.043 44.485,14.043 C44.239,14.043 43.952,14.002 43.665,14.002 C42.64,14.002 41.615,13.961 40.549,13.92 C39.442,13.879 38.335,13.92 37.228,13.879 C35.301,13.797 33.415,13.838 31.529,13.797 C27.552,13.633 23.575,13.715 19.598,13.715 C19.434,13.715 19.229,13.715 19.024,13.797 C19.106,13.797 19.188,13.838 19.27,13.838 L27.511,13.838 C29.233,13.879 30.955,13.879 32.677,13.92 C34.399,13.961 36.121,14.002 37.843,14.002 C38.048,14.043 38.294,14.002 38.499,14.043 C39.278,14.043 40.057,14.084 40.836,14.084 L41.164,14.084 L46.33,14.207 C46.494,14.207 46.617,14.248 46.781,14.248 C47.478,14.248 48.134,14.289 48.831,14.33 C48.995,14.33 49.159,14.371 49.323,14.412 C48.38,14.412 47.437,14.453 46.453,14.33 C46.289,14.289 46.125,14.33 45.92,14.33 C45.1,14.33 44.28,14.33 43.46,14.248 C43.05,14.207 42.64,14.248 42.189,14.207 C41.369,14.207 40.549,14.166 39.729,14.166 C39.647,14.166 39.565,14.166 39.483,14.207 C39.36,14.248 39.237,14.207 39.073,14.166 C38.909,14.125 38.704,14.125 38.54,14.125 C37.31,14.125 36.121,14.125 34.891,14.084 C34.563,14.084 34.235,14.043 33.866,14.043 C32.636,14.043 31.365,14.043 30.135,14.002 L25.338,14.002 C25.174,14.002 25.01,14.043 24.846,14.002 L23.288,14.002 C23.083,14.002 22.878,13.961 22.673,14.043 C22.632,14.084 22.509,14.084 22.468,14.043 C22.263,13.879 22.017,13.92 21.771,13.961 C20.992,14.043 20.172,14.002 19.352,14.002 C19.27,14.002 19.147,14.043 19.024,14.043 C18.778,14.043 18.614,14.166 18.532,14.412 C18.491,14.453 18.491,14.494 18.45,14.576 C18.245,15.437 17.835,16.257 17.671,17.159 C17.63,17.405 17.548,17.651 17.425,17.897 C16.851,19.619 16.236,21.341 15.662,23.022 L14.678,25.728 C14.555,25.974 14.391,26.261 14.268,26.507 L14.391,25.933 C14.186,26.138 14.145,26.384 14.104,26.671 L14.268,26.507 C14.186,26.794 14.104,27.122 14.022,27.45 C13.735,28.229 13.407,29.008 13.12,29.787 L12.382,31.837 C12.259,32.165 12.095,32.534 11.972,32.862 C11.849,33.231 11.931,33.395 12.341,33.395 C12.751,33.395 13.202,33.354 13.612,33.354 L18.163,33.231 C19.639,33.19 21.074,33.108 22.55,33.067 L24.19,33.067 C25.215,33.067 26.24,33.026 27.306,33.067 L31.324,33.19 C31.857,33.231 32.431,33.313 32.964,33.477 C33.128,33.559 33.292,33.6 33.456,33.805 C33.251,33.805 33.128,33.805 33.005,33.764 C32.677,33.682 32.39,33.6 32.062,33.559 C31.652,33.559 31.283,33.518 30.914,33.477 C30.299,33.354 29.684,33.395 29.069,33.395 C28.331,33.395 27.634,33.354 26.937,33.354 L26.199,33.354 C25.871,33.354 25.543,33.395 25.215,33.395 L20.705,33.395 C20.582,33.395 20.5,33.395 20.295,33.477 L22.837,33.6 L29.356,33.6 C29.766,33.641 30.217,33.641 30.627,33.682 C31.037,33.723 31.406,33.641 31.816,33.764 C32.226,33.846 32.636,33.764 33.005,33.764 L33.497,34.092 C33.579,34.133 33.702,34.174 33.661,34.338 L33.497,34.338 C32.923,34.256 32.349,34.174 31.734,34.092 C31.119,34.051 30.504,33.969 29.889,33.969 C27.019,33.969 24.149,33.969 21.279,34.01 C20.049,34.01 18.86,34.051 17.63,34.092 C16.359,34.133 15.047,34.215 13.776,34.256 C13.202,34.256 12.628,34.297 12.095,34.297 C11.972,34.297 11.849,34.256 11.808,34.461 L12.095,34.461 C12.71,34.461 13.366,34.42 13.981,34.379 C15.047,34.379 16.072,34.338 17.097,34.297 C18.45,34.215 19.803,34.256 21.156,34.174 C23.78,34.092 26.404,34.092 28.987,34.133 C29.93,34.133 30.873,34.215 31.775,34.297 C32.185,34.297 32.554,34.379 32.964,34.42 C33.046,34.42 33.128,34.461 33.251,34.502 C33.128,34.584 33.005,34.543 32.882,34.543 C32.718,34.543 32.554,34.543 32.39,34.502 C31.693,34.461 30.955,34.379 30.258,34.297 C29.725,34.256 29.192,34.256 28.659,34.256 C27.593,34.215 26.527,34.215 25.461,34.215 C25.338,34.215 25.174,34.256 25.01,34.297 C24.846,34.215 24.641,34.174 24.477,34.215 C24.067,34.297 23.657,34.297 23.247,34.297 C22.017,34.297 20.787,34.297 19.557,34.338 C19.147,34.338 18.737,34.379 18.286,34.379 C17.589,34.42 16.933,34.42 16.236,34.42 C16.072,34.42 15.908,34.461 15.744,34.502 L13.489,34.502 L11.89,34.625 C11.521,34.625 11.275,34.789 11.152,35.158 C10.701,36.388 10.209,37.618 9.758,38.889 C9.471,39.627 9.184,40.365 8.938,41.144 L7.995,43.563 C7.626,44.629 7.216,45.736 6.806,46.802 C6.56,47.499 6.273,48.155 6.027,48.852 C5.986,48.975 5.863,49.098 5.822,49.262 L5.945,48.77 C6.314,47.827 6.642,46.884 7.011,45.9 C7.626,44.219 8.241,42.538 8.897,40.857 L10.127,37.495 L10.988,35.158 C10.988,35.117 11.07,35.035 10.947,34.953 L10.824,35.158 C7.667,43.686 4.51,52.255 1.353,60.783 C1.353,60.824 1.394,60.865 1.394,60.906 L1.599,60.66 C1.558,60.824 1.517,60.947 1.476,61.111 C1.394,61.439 1.271,61.726 1.189,62.095 C1.107,62.382 0.943,62.546 0.615,62.546 L0.533,62.546 C0.369,62.423 0.205,62.3 4.4929338e-16,62.136 C-0.041,61.972 0.041,61.767 0.082,61.603 C0.123,61.316 0.246,61.029 0.287,60.783 C0.369,60.332 0.574,59.922 0.779,59.512 C0.984,59.143 1.148,58.774 1.312,58.405 C1.722,57.339 2.091,56.273 2.46,55.207 C2.911,53.977 3.321,52.747 3.772,51.558 L5.617,46.433 C5.904,45.572 6.273,44.711 6.56,43.809 C6.888,42.948 7.216,42.046 7.503,41.185 C7.708,40.693 7.872,40.201 8.077,39.709 L8.405,38.766 C8.856,37.659 9.266,36.511 9.717,35.363 C9.758,35.281 9.799,35.158 9.799,35.035 C9.881,34.871 9.717,34.707 9.512,34.707 L9.43,34.707 C9.102,34.83 8.815,34.789 8.487,34.789 C7.995,34.789 7.462,34.789 6.97,34.871 L6.478,34.871 C6.109,34.912 5.781,34.953 5.412,34.953 C4.346,34.953 3.28,35.117 2.132,35.076 C2.419,34.953 2.624,35.035 2.829,34.994 L3.526,34.912 L4.264,34.912 C4.469,34.871 4.715,34.871 4.92,34.871 C5.166,34.83 5.412,34.83 5.617,34.789 L6.314,34.789 C6.56,34.748 6.765,34.707 7.011,34.707 L7.708,34.707 C7.954,34.666 8.159,34.625 8.405,34.625 C8.651,34.625 8.897,34.625 9.102,34.584 C9.348,34.584 9.553,34.625 9.758,34.543 C9.758,34.42 9.676,34.42 9.635,34.42 C8.61,34.461 7.544,34.502 6.519,34.584 C5.535,34.625 4.51,34.707 3.485,34.789 C2.993,34.789 2.501,34.83 2.009,34.871 C1.722,34.912 1.435,34.912 1.189,35.076 C1.025,34.994 0.902,34.912 0.943,34.707 C0.943,34.502 0.984,34.42 1.23,34.379 C1.763,34.256 2.296,34.133 2.829,34.051 L6.355,33.682 C7.462,33.6 8.528,33.559 9.635,33.518 C9.799,33.518 9.963,33.477 10.127,33.477 C10.332,33.436 10.496,33.313 10.578,33.149 C10.578,33.067 10.619,33.026 10.619,32.985 C10.906,32.288 11.152,31.55 11.439,30.812 C11.603,30.443 11.726,30.074 11.89,29.705 C12.3,28.68 12.669,27.696 13.038,26.712 L13.653,25.154 C14.022,24.252 14.391,23.391 14.719,22.489 C15.252,21.095 15.744,19.701 16.318,18.307 C16.769,17.2 17.179,16.011 17.589,14.863 C17.671,14.699 17.712,14.576 17.753,14.412 C17.794,14.166 17.712,14.043 17.466,14.043 C17.097,14.002 16.728,14.002 16.359,14.002 C15.539,14.002 14.719,14.043 13.899,14.043 L13.571,14.043 C12.792,14.207 11.972,14.125 11.193,14.125 C10.455,14.125 9.676,14.125 8.938,14.207 C8.487,14.248 8.077,14.207 7.667,14.248 C7.093,14.289 6.519,14.33 5.986,14.33 C5.904,14.371 5.822,14.33 5.74,14.33 C5.74,14.207 5.822,14.248 5.863,14.207 C6.724,14.207 7.585,14.166 8.446,14.125 C9.389,14.043 10.332,14.084 11.275,14.002 C13.038,13.92 14.842,13.961 16.646,13.92 C17.015,13.879 17.384,13.879 17.753,13.838 C17.753,13.715 17.671,13.715 17.589,13.715 L16.318,13.715 C14.842,13.756 13.366,13.756 11.89,13.797 L8.938,13.92 C7.831,13.961 6.765,14.002 5.658,14.125 C4.756,14.207 3.854,14.33 2.993,14.412 C2.911,14.412 2.829,14.494 2.747,14.494 C2.542,14.494 2.337,14.494 2.173,14.617 C1.681,14.576 1.271,14.822 0.82,15.068 C0.779,15.068 0.738,15.109 0.697,15.15 C0.574,14.986 0.615,14.863 0.697,14.74 C0.779,14.576 0.943,14.494 1.107,14.412 C1.599,14.207 2.091,14.043 2.583,13.92 C4.059,13.633 5.535,13.387 7.011,13.305 C7.421,13.264 7.79,13.182 8.2,13.182 L10.168,13.059 C11.439,12.977 12.751,12.936 14.022,12.895 C14.678,12.854 15.334,12.854 15.99,12.854 C16.605,12.854 17.179,12.813 17.794,12.813 L17.958,12.813 C18.204,12.772 18.368,12.69 18.45,12.444 C18.532,12.198 18.614,11.911 18.737,11.665 C18.737,11.583 18.778,11.46 18.819,11.378 C18.901,11.214 18.983,11.132 19.024,11.173 C19.188,11.255 19.147,11.378 19.147,11.46 C19.106,11.788 19.065,12.116 19.065,12.444 C19.024,12.69 19.065,12.772 19.311,12.772 L23.616,12.772 C25.133,12.772 26.609,12.813 28.126,12.813 L33.21,12.936 C34.235,12.936 35.26,12.977 36.285,12.977 C36.531,12.977 36.818,13.018 37.105,13.018 C37.802,13.018 38.499,13.059 39.237,13.059 C39.688,13.059 40.139,13.1 40.59,13.141 L42.107,13.141 C43.214,13.182 44.28,13.223 45.346,13.264 C46.412,13.305 47.478,13.305 48.503,13.387 C49.241,13.428 49.938,13.428 50.676,13.469 C50.963,13.469 51.25,13.51 51.537,13.551 C52.152,13.592 52.726,13.592 53.3,13.674 C54.038,13.715 54.735,13.797 55.473,13.879 L55.76,13.92 C55.965,14.002 56.17,14.084 56.211,14.33 Z M30.217,13.223 L30.217,13.141 L25.912,13.141 C24.395,13.141 22.919,13.1 21.402,13.1 C20.705,13.1 20.008,13.141 19.311,13.141 C19.229,13.141 19.147,13.1 19.147,13.264 C19.229,13.264 19.311,13.305 19.434,13.305 L21.361,13.305 C21.566,13.305 21.771,13.264 21.976,13.264 L24.477,13.264 C24.969,13.264 25.502,13.223 25.994,13.264 C26.527,13.264 27.06,13.264 27.593,13.223 L30.217,13.223 Z M17.917,13.223 L17.917,13.141 L16.113,13.141 C15.949,13.141 15.826,13.1 15.662,13.141 C15.539,13.141 15.375,13.1 15.211,13.223 L17.917,13.223 Z M31.611,13.305 C32.185,13.469 32.8,13.346 33.374,13.264 C32.8,13.182 32.185,13.223 31.611,13.305 Z M11.931,13.264 C13.325,13.469 14.719,13.387 16.113,13.346 L14.227,13.223 L12.095,13.223 L11.931,13.264 Z M34.112,13.305 L34.235,13.305 L34.194,13.264 L34.112,13.264 L34.112,13.305 Z M34.973,13.346 C35.137,13.264 35.342,13.387 35.547,13.264 L34.932,13.264 C34.973,13.264 34.973,13.305 34.973,13.346 Z M11.89,13.51 C12.013,13.51 12.095,13.469 12.177,13.469 C11.808,13.387 11.398,13.346 11.029,13.346 C9.963,13.264 8.938,13.428 7.872,13.469 C7.585,13.469 7.298,13.51 7.011,13.51 L5.74,13.633 L5.74,13.756 C5.986,13.797 6.273,13.838 6.519,13.756 C6.806,13.674 7.052,13.674 7.298,13.674 C7.462,13.674 7.585,13.715 7.708,13.674 C8.077,13.551 8.446,13.592 8.815,13.592 C9.143,13.592 9.512,13.592 9.84,13.551 C10.168,13.551 10.455,13.51 10.783,13.51 L11.89,13.51 Z M35.342,13.428 C36.326,13.551 38.171,13.51 38.868,13.346 C37.638,13.264 36.49,13.387 35.342,13.428 Z M29.889,13.387 L29.889,13.346 C29.889,13.346 29.848,13.346 29.848,13.387 L29.889,13.387 Z M30.832,13.387 L30.832,13.346 L30.627,13.346 L30.627,13.387 L30.832,13.387 Z M45.715,13.633 C45.838,13.592 45.92,13.592 46.043,13.592 C45.715,13.51 45.428,13.551 45.1,13.51 C44.69,13.51 44.28,13.551 43.87,13.51 C43.255,13.428 42.64,13.428 42.025,13.428 C41.205,13.428 40.426,13.387 39.606,13.592 C39.893,13.592 40.18,13.551 40.426,13.551 C41.205,13.51 41.984,13.51 42.763,13.51 C42.968,13.51 43.214,13.592 43.419,13.592 C43.583,13.633 43.747,13.674 43.911,13.674 C44.362,13.674 44.854,13.633 45.346,13.633 L45.715,13.633 Z M47.642,13.715 C47.847,13.715 48.052,13.756 48.257,13.633 L47.068,13.633 L47.068,13.715 L47.642,13.715 Z M2.747,14.166 L5.289,13.838 C5.125,13.715 4.92,13.715 4.756,13.756 C4.141,13.838 3.526,13.961 2.87,14.043 C2.829,14.043 2.747,14.043 2.747,14.166 Z M53.751,14.125 C54.12,14.207 54.571,14.207 54.94,14.084 C54.858,14.084 54.694,14.043 54.571,14.002 L53.956,14.002 C53.792,13.92 53.587,13.92 53.382,13.92 L52.562,13.92 C52.398,13.879 52.193,13.838 51.988,13.838 C51.619,13.797 51.291,13.838 50.922,13.797 C50.84,13.797 50.758,13.756 50.676,13.756 L49.2,13.756 C49.159,13.756 49.118,13.756 49.036,13.797 C49.159,13.879 49.241,13.879 49.323,13.879 C49.856,13.838 50.389,13.838 50.922,13.797 L50.922,13.92 C51.004,13.961 51.086,14.002 51.168,13.961 C51.619,13.961 52.111,13.92 52.562,13.92 C52.644,14.043 52.767,14.084 52.89,14.084 C53.177,14.084 53.464,14.084 53.751,14.125 Z M55.719,14.33 C55.76,14.33 55.801,14.289 55.842,14.248 C55.596,14.043 55.309,14.125 55.022,14.125 C55.063,14.207 55.104,14.248 55.186,14.289 C55.35,14.289 55.555,14.33 55.719,14.33 Z M4.633,14.412 C4.838,14.412 4.92,14.412 5.125,14.371 C4.879,14.33 4.879,14.33 4.633,14.412 Z M3.813,14.453 C3.813,14.453 3.854,14.412 3.895,14.412 C3.936,14.412 4.018,14.412 4.059,14.453 C3.977,14.494 3.895,14.494 3.813,14.494 L3.813,14.453 Z M3.239,14.494 L2.747,14.494 C2.87,14.576 2.993,14.617 3.239,14.494 Z M2.378,14.617 L2.378,14.658 C2.296,14.658 2.255,14.617 2.173,14.617 L2.378,14.617 Z M13.735,27.655 C13.735,27.655 13.694,27.655 13.694,27.696 L13.735,27.737 L13.735,27.655 Z M13.284,28.762 C13.448,28.639 13.489,28.475 13.489,28.27 C13.325,28.393 13.325,28.598 13.284,28.762 Z M12.997,29.541 C13.161,29.418 13.161,29.254 13.202,29.09 C13.079,29.213 12.997,29.377 12.997,29.541 Z M12.505,31.017 C12.669,30.648 12.792,30.238 12.915,29.869 C12.833,29.992 12.751,30.074 12.71,30.197 C12.341,31.14 12.013,32.083 11.644,32.985 C11.603,33.067 11.644,33.108 11.603,33.19 C11.808,33.149 11.808,33.026 11.849,32.903 C12.054,32.288 12.3,31.673 12.505,31.017 Z M12.095,33.723 C12.054,33.723 12.054,33.764 12.054,33.764 C12.546,33.928 13.694,33.928 14.514,33.846 C14.186,33.805 13.899,33.723 13.571,33.682 C13.94,33.723 14.309,33.682 14.678,33.723 C15.744,33.846 16.81,33.764 17.917,33.764 C18.532,33.723 19.188,33.682 19.803,33.682 L21.32,33.682 C21.443,33.682 21.525,33.682 21.648,33.641 C21.402,33.6 21.156,33.6 20.91,33.6 C20.664,33.6 20.418,33.6 20.172,33.559 C19.475,33.477 18.778,33.477 18.081,33.477 L14.104,33.6 C13.94,33.641 13.776,33.682 13.571,33.682 C13.079,33.723 12.628,33.723 12.136,33.723 L12.095,33.723 Z M30.176,33.559 C30.217,33.559 30.217,33.518 30.258,33.518 L30.299,33.559 L30.176,33.559 Z M17.548,33.641 L17.015,33.641 C17.179,33.682 17.343,33.723 17.548,33.641 Z M9.512,33.928 C9.676,33.846 9.881,33.969 10.045,33.805 L9.594,33.805 C8.897,33.846 8.159,33.887 7.462,33.887 C7.339,33.928 7.257,33.928 7.134,33.928 C6.56,33.969 5.945,34.051 5.33,34.092 L3.69,34.215 C3.485,34.215 3.28,34.256 3.075,34.297 C2.952,34.297 2.829,34.338 2.665,34.379 C2.46,34.379 2.296,34.379 2.091,34.42 C1.968,34.42 1.845,34.461 1.722,34.584 C2.009,34.584 2.255,34.584 2.501,34.543 L2.747,34.543 C2.788,34.502 2.829,34.502 2.87,34.461 C3.075,34.461 3.239,34.502 3.444,34.461 C3.608,34.461 3.772,34.42 3.977,34.379 L4.592,34.379 C4.756,34.379 4.92,34.379 5.084,34.256 L5.125,34.297 C5.494,34.297 5.863,34.256 6.232,34.256 L6.273,34.215 L6.273,34.092 C6.765,34.174 7.298,34.215 7.872,34.174 C7.79,34.092 7.708,34.051 7.626,34.01 C8.323,34.051 8.938,34.133 9.594,34.051 L9.512,33.928 Z M5.002,34.256 L5.002,34.215 C5.043,34.215 5.043,34.256 5.084,34.256 L5.002,34.256 Z M5.125,34.256 L5.084,34.256 L5.125,34.256 Z M1.476,35.076 L1.476,35.117 C1.394,35.117 1.271,35.117 1.189,35.076 L1.476,35.076 Z M10.168,35.281 L10.168,35.24 L10.127,35.281 C10.127,35.363 10.086,35.445 10.045,35.568 L10.168,35.281 Z M9.061,38.397 C9.184,38.274 9.266,38.11 9.184,37.946 C9.307,37.823 9.43,37.659 9.348,37.495 C9.225,37.618 9.184,37.741 9.184,37.946 C9.02,38.069 8.979,38.233 8.979,38.397 L9.061,38.397 Z M8.159,40.57 C8.364,40.57 8.282,40.406 8.282,40.324 L8.159,40.57 Z M8.077,41.103 L8.077,41.062 L7.995,41.062 L7.995,41.103 L7.872,41.349 C7.954,41.349 7.995,41.308 8.077,41.267 C8.036,41.226 7.995,41.185 7.995,41.103 C7.995,41.103 7.995,41.062 8.036,41.062 C8.077,41.062 8.077,41.103 8.077,41.103 Z M7.708,41.964 L7.708,41.882 C7.708,41.923 7.708,41.923 7.667,41.964 L7.667,42.005 C7.667,41.964 7.667,41.964 7.708,41.964 Z M7.011,44.014 C7.134,43.891 7.175,43.727 7.093,43.563 C6.97,43.686 6.929,43.85 6.888,44.014 C6.888,44.137 6.847,44.219 6.806,44.301 C6.888,44.342 6.97,44.301 7.011,44.219 C6.97,44.178 6.929,44.096 6.888,44.014 L7.011,44.014 Z M6.724,44.588 C6.847,44.547 6.847,44.506 6.806,44.342 C6.765,44.424 6.724,44.506 6.724,44.588 Z M6.56,44.957 C6.724,44.916 6.724,44.916 6.724,44.834 C6.724,44.793 6.724,44.711 6.683,44.67 C6.601,44.752 6.56,44.834 6.56,44.957 Z M6.314,45.695 C6.519,45.654 6.396,45.531 6.396,45.408 C6.396,45.531 6.355,45.613 6.314,45.695 Z M5.33,48.36 C5.494,48.278 5.494,48.278 5.453,48.032 C5.33,48.114 5.33,48.237 5.33,48.36 Z M5.125,48.934 L5.248,48.688 L5.248,48.647 C5.248,48.77 5.33,48.893 5.125,48.934 Z M5.125,51.107 L5.494,50 C5.576,49.754 5.699,49.508 5.822,49.262 C5.822,49.303 5.822,49.426 5.781,49.467 L5.289,50.82 C5.248,50.943 5.166,51.025 5.125,51.107 Z M4.633,50.205 C4.715,50.164 4.797,50.041 4.797,49.877 C4.674,50 4.674,50.082 4.633,50.205 Z M4.223,51.312 C4.387,51.189 4.469,51.025 4.428,50.861 C4.305,51.025 4.264,51.148 4.223,51.312 Z M5.125,51.107 C4.961,51.353 4.838,51.599 4.838,51.927 C5.043,51.681 5.125,51.394 5.125,51.107 Z M3.936,52.091 C4.1,51.968 4.141,51.804 4.141,51.64 C4.1,51.763 4.018,51.927 3.936,52.091 Z M4.838,51.927 C4.633,52.132 4.592,52.419 4.551,52.706 C4.756,52.46 4.797,52.214 4.838,51.927 Z M4.551,52.706 C4.51,52.788 4.469,52.87 4.428,52.993 L4.551,52.706 Z M4.428,52.993 C4.305,53.116 4.264,53.28 4.264,53.444 C4.387,53.321 4.428,53.198 4.428,52.993 Z M4.264,53.485 C3.977,53.977 3.813,54.51 3.649,55.043 C3.977,54.592 4.141,54.059 4.264,53.485 Z M3.362,54.141 L3.362,53.772 C3.321,53.895 3.28,54.018 3.198,54.141 C3.198,54.141 3.239,54.182 3.28,54.182 C3.28,54.182 3.362,54.182 3.362,54.141 Z M3.075,54.551 L3.116,54.551 L3.034,54.551 L3.034,54.592 L3.075,54.551 Z M3.649,55.043 C3.608,55.166 3.567,55.248 3.567,55.371 L3.649,55.043 Z M2.65307217,55.6858316 L2.542,55.945 L2.583,55.945 C2.61958273,55.8718345 2.62352409,55.7660277 2.65307336,55.6858288 L2.65307217,55.6858316 Z M3.362,55.863 L3.362,55.822 C3.403,55.781 3.403,55.699 3.444,55.658 C3.444,55.699 3.403,55.781 3.362,55.863 Z M3.30136711,56.0044767 C3.31708675,55.9528265 3.33954338,55.9079132 3.362,55.863 L3.30136711,56.0044767 L3.30136711,56.0044767 Z M3.30136711,56.0044767 C3.28838675,56.0471265 3.28,56.0943699 3.28,56.15 L3.239,56.15 L3.30136711,56.0044767 L3.30136711,56.0044767 Z M3.28,56.15 C2.952,56.724 2.747,57.38 2.583,57.995 C2.952,57.421 3.116,56.806 3.28,56.15 Z M2.46,56.396 C2.46,56.396 2.501,56.355 2.46,56.355 L2.419,56.355 C2.46,56.355 2.46,56.396 2.46,56.396 Z M2.173,57.011 C2.214,56.929 2.255,56.847 2.255,56.724 C2.214,56.806 2.214,56.929 2.173,57.011 Z M1.763,58.077 C1.886,58.036 1.886,57.913 1.886,57.831 C1.845,57.913 1.804,57.954 1.763,58.077 Z M2.583,57.995 C2.378,58.241 2.337,58.487 2.296,58.733 C2.46,58.528 2.542,58.241 2.583,57.995 Z M1.476,58.897 C1.517,58.856 1.517,58.856 1.517,58.815 C1.517,58.856 1.476,58.856 1.476,58.856 L1.476,58.897 Z M1.886,59.881 C2.091,59.553 2.255,59.184 2.296,58.815 C2.05,59.143 1.927,59.512 1.886,59.881 Z M1.681,60.373 C1.804,60.25 1.886,60.045 1.886,59.881 C1.763,60.004 1.681,60.168 1.681,60.373 Z M1.599,60.66 C1.64,60.578 1.64,60.455 1.681,60.373 C1.64,60.455 1.599,60.578 1.599,60.66 Z M28.7409984,34.461 C28.5359984,34.502 28.3719984,34.502 28.2489984,34.338 C28.1259984,34.133 27.9619984,33.969 28.0439984,33.723 C28.0849984,33.518 28.1669984,33.354 28.2489984,33.19 C28.6589984,32.493 29.1919984,31.837 29.7249984,31.222 C29.8479984,31.058 30.0119984,30.935 30.1759984,30.812 C30.3399984,30.689 30.5039984,30.689 30.6679984,30.812 C30.7909984,30.935 30.9139984,31.017 31.0369984,31.099 C30.9139984,31.263 30.8319984,31.386 30.7089984,31.509 C30.5449984,31.591 30.4219984,31.673 30.3399984,31.878 C30.2579984,31.919 30.1349984,31.96 30.1349984,32.165 C30.2169984,32.001 30.2579984,31.96 30.3809984,31.878 C30.4629984,31.755 30.5859984,31.632 30.7089984,31.509 C30.8729984,31.468 30.9549984,31.427 31.1599984,31.386 C31.0369984,31.509 31.0369984,31.55 30.9959984,31.591 C30.6269984,31.796 30.2989984,32.124 30.0529984,32.493 C29.7659984,32.903 29.4789984,33.313 29.2739984,33.764 C29.1099984,34.01 28.9459984,34.256 28.7409984,34.461 Z M30.2169984,31.14 C30.1759984,31.181 30.1759984,31.222 30.1759984,31.263 L30.2169984,31.263 C30.2989984,31.304 30.4219984,31.222 30.4219984,31.099 L30.3809984,31.099 C30.2989984,31.058 30.2579984,31.058 30.2169984,31.14 Z M34.0709984,39.135 L34.1939984,39.217 C34.1939984,39.34 34.1529984,39.422 34.1119984,39.545 C34.1119984,39.586 34.0709984,39.627 34.0299984,39.668 C33.3739984,40.201 32.6769984,40.734 31.9799984,41.267 C31.0369984,42.005 30.0529984,42.743 29.1509984,43.481 C27.5519984,44.67 25.9939984,45.9 24.3949984,47.089 C23.9029984,47.458 23.4109984,47.786 22.8779984,48.073 C22.6319984,48.196 22.4269984,48.319 22.1399984,48.36 C21.8119984,48.401 21.5659984,48.36 21.3609984,48.155 L21.1559984,48.032 C20.7869984,47.786 20.6229984,47.417 20.7049984,46.925 C20.7869984,46.31 20.8689984,45.654 21.1559984,45.08 C21.3199984,44.834 21.4429984,44.588 21.5249984,44.301 C21.8939984,43.44 22.3859984,42.579 22.8779984,41.759 C23.3699984,40.857 23.8619984,39.996 24.3949984,39.135 C24.9689984,38.315 25.5429984,37.454 26.1989984,36.634 C26.2809984,36.552 26.3629984,36.429 26.5269984,36.388 C26.9779984,36.634 27.0599984,36.798 26.8549984,37.29 C26.6909984,37.782 26.4449984,38.274 26.1579984,38.766 C25.9529984,39.094 25.7889984,39.422 25.6249984,39.75 C25.5839984,39.791 25.5429984,39.873 25.5429984,39.914 L25.6249984,39.914 C25.5429984,39.996 25.5019984,40.037 25.5019984,40.119 C25.3379984,40.242 25.2559984,40.365 25.1329984,40.529 C25.0099984,40.857 24.8049984,41.185 24.5999984,41.513 C24.5589984,41.636 24.5179984,41.759 24.4359984,41.882 C24.3949984,41.964 24.3539984,42.005 24.3539984,42.046 C24.3949984,42.087 24.3949984,42.087 24.4359984,42.087 L24.3539984,42.087 C24.1079984,42.292 23.9849984,42.579 23.9029984,42.866 C23.7799984,43.03 23.6159984,43.235 23.6159984,43.481 C23.4519984,43.645 23.3289984,43.891 23.2879984,44.096 C23.0829984,44.383 22.9189984,44.629 22.8779984,44.957 C22.8779984,44.998 22.8779984,45.039 22.7959984,45.08 C22.4269984,45.572 22.3039984,46.146 22.0989984,46.679 C22.0579984,46.843 22.0579984,47.007 22.0579984,47.171 C22.0579984,47.253 22.1809984,47.294 22.2629984,47.294 C22.3449984,47.253 22.4269984,47.212 22.4679984,47.171 L23.2469984,46.679 C23.6159984,46.433 23.9439984,46.146 24.3129984,45.9 C25.1739984,45.244 26.0759984,44.588 26.9369984,43.973 C27.5929984,43.481 28.2489984,43.071 28.8639984,42.579 C29.8069984,41.882 30.7909984,41.185 31.7339984,40.447 L33.4559984,39.217 C33.6609984,39.053 33.8249984,39.012 34.0709984,39.135 Z M23.6159984,42.784 C23.6159984,42.825 23.5749984,42.907 23.5749984,42.989 C23.5749984,42.907 23.6159984,42.866 23.6159984,42.784 Z M23.1239984,43.727 C23.1239984,43.768 23.0829984,43.768 23.0829984,43.809 C23.1239984,43.809 23.1239984,43.809 23.1649984,43.768 C23.1649984,43.768 23.1239984,43.768 23.1239984,43.727 Z M22.8010286,44.4135045 C22.837073,44.335003 22.8387476,44.2565015 22.8779984,44.178 L22.8779984,44.219 C22.8387482,44.2582501 22.8370731,44.3350753 22.8010303,44.4135041 L22.8010286,44.4135045 Z M22.8010286,44.4135045 C22.7994223,44.417003 22.7977476,44.4205015 22.7959984,44.424 C22.7549984,44.506 22.7549984,44.547 22.6729984,44.629 L22.6729984,44.67 C22.7549984,44.588 22.7549984,44.506 22.7959984,44.424 C22.7977482,44.4205003 22.7994234,44.4170006 22.8010303,44.4135041 L22.8010286,44.4135045 Z M22.4679984,45.162 L22.4679984,45.121 L22.4679984,45.162 Z M52.7259968,40.365 C52.6849968,40.406 52.5619968,40.447 52.5619968,40.57 L52.7669968,40.57 C52.7259968,40.652 52.6439968,40.734 52.5619968,40.775 C52.3979968,40.898 52.2339968,40.98 52.0289968,41.103 C51.2089968,41.472 50.4299968,41.964 49.6509968,42.415 L49.1179968,42.702 C48.3389968,43.194 47.5189968,43.645 46.7399968,44.137 C46.2479968,44.424 45.7969968,44.67 45.3049968,44.916 C45.0179968,44.998 44.7719968,45.121 44.4849968,45.162 C43.8289968,45.326 43.2959968,45.162 42.8859968,44.629 C42.7629968,44.465 42.6399968,44.342 42.5579968,44.178 C42.3529968,43.85 42.2299968,43.563 42.3529968,43.153 C42.4759968,42.661 42.6399968,42.169 42.8859968,41.718 L43.1319968,41.062 C43.1729968,40.939 43.0909968,40.857 42.9269968,40.898 C42.8039968,40.939 42.6399968,40.98 42.4759968,41.062 C41.8609968,41.349 41.2459968,41.677 40.6309968,42.005 C40.3029968,42.251 39.9749968,42.456 39.6879968,42.62 C39.6059968,42.661 39.5239968,42.743 39.4829968,42.784 C39.2779968,42.907 39.0729968,43.071 38.8679968,43.235 L38.9089968,43.235 C38.2529968,43.768 37.5969968,44.301 36.8999968,44.793 C36.6539968,44.998 36.4079968,45.162 36.0799968,45.244 C35.7109968,45.449 34.9319968,45.285 34.7269968,44.916 L34.5219968,44.67 C34.2349968,44.383 34.1529968,44.096 34.2759968,43.727 C34.3989968,43.194 34.6449968,42.661 34.8909968,42.21 C35.1369968,41.8 35.3419968,41.431 35.5469968,41.021 C36.0799968,40.119 36.6949968,39.217 37.3509968,38.356 C37.8429968,37.7 38.4169968,37.044 38.9909968,36.388 C39.2369968,36.142 39.5239968,35.896 39.8109968,35.65 C39.9339968,35.568 40.0159968,35.527 40.1389968,35.691 C40.1799968,35.773 40.3439968,35.691 40.3439968,35.855 C40.3439968,35.978 40.3849968,36.101 40.3029968,36.265 L40.0569968,36.593 C39.4829968,37.454 38.9089968,38.233 38.3349968,39.094 C38.2119968,39.258 38.1299968,39.422 38.0889968,39.586 C37.6789968,40.078 37.3509968,40.611 37.0639968,41.185 C37.0639968,41.226 37.0639968,41.267 37.0229968,41.349 C36.9819968,41.431 36.9409968,41.431 36.8999968,41.513 L36.8999968,41.636 C36.8589968,41.718 36.7769968,41.8 36.7359968,41.882 C36.6539968,41.964 36.6129968,42.046 36.6539968,42.169 C36.5719968,42.251 36.5309968,42.333 36.4899968,42.415 C36.2849968,42.497 36.2439968,42.661 36.2849968,42.866 C36.3259968,42.948 36.4079968,42.989 36.4899968,42.948 C36.6539968,42.866 36.7769968,42.702 36.9819968,42.579 C37.8839968,41.8 38.8269968,41.103 39.8929968,40.529 C40.5079968,40.201 41.1639968,39.832 41.8609968,39.586 C42.1069968,39.463 42.3939968,39.34 42.6399968,39.299 C43.1729968,39.135 43.5829968,39.258 43.9929968,39.586 C44.2389968,39.832 44.5259968,40.119 44.6899968,40.406 C44.8129968,40.693 44.8539968,40.939 44.7719968,41.226 C44.7309968,41.677 44.5669968,42.087 44.4029968,42.497 C44.2799968,42.784 44.1979968,43.112 44.0339968,43.44 C44.0339968,43.481 44.0339968,43.522 44.0749968,43.563 L44.2389968,43.563 C44.3619968,43.522 44.4849968,43.44 44.6079968,43.399 C45.2229968,43.071 45.8379968,42.784 46.3709968,42.497 C47.4369968,41.964 48.5029968,41.472 49.4869968,40.898 C49.8969968,40.693 50.3479968,40.529 50.7169968,40.365 C50.9219968,40.242 51.1269968,40.16 51.2909968,40.078 C51.4549968,39.996 51.5779968,39.955 51.7009968,39.873 C52.1109968,39.709 52.4389968,39.873 52.6849968,40.16 C52.7669968,40.201 52.7669968,40.283 52.7259968,40.365 Z M51.5369968,41.062 C51.5369968,41.021 51.5369968,41.021 51.5779968,40.98 C51.5369968,40.98 51.5369968,41.021 51.4959968,41.021 L51.4549968,41.062 C51.4549968,41.103 51.4959968,41.103 51.5369968,41.062 Z M36.3669968,43.768 C36.4079968,43.727 36.4489968,43.686 36.4899968,43.686 C36.6949968,43.604 36.8179968,43.481 36.9409968,43.317 L37.0639968,43.317 C37.1049968,43.317 37.1049968,43.358 37.1049968,43.399 C37.1049968,43.358 37.1459968,43.317 37.1869968,43.317 L37.2689968,43.235 L37.1869968,43.235 L37.2689968,43.112 C37.2689968,43.153 37.2689968,43.194 37.3099968,43.235 C37.3099968,43.194 37.3919968,43.153 37.4329968,43.112 L37.2689968,43.112 C37.3099968,43.03 37.4329968,42.989 37.5559968,42.948 L37.5559968,43.03 C37.5969968,43.03 37.5969968,42.989 37.5969968,42.948 L37.5559968,42.948 C37.5969968,42.907 37.5969968,42.866 37.5969968,42.866 C37.6379968,42.825 37.6789968,42.784 37.7199968,42.784 L37.7199968,42.866 L37.6379968,42.866 L37.6379968,42.948 C37.6379968,42.907 37.6789968,42.907 37.7199968,42.866 C37.8429968,42.825 37.8839968,42.784 37.9659968,42.702 L37.8019968,42.702 C37.8429968,42.579 37.9659968,42.497 38.0889968,42.497 L38.0889968,42.579 C38.1299968,42.538 38.1299968,42.497 38.1299968,42.497 L38.0889968,42.497 C38.1299968,42.497 38.1299968,42.456 38.1709968,42.415 C38.2119968,42.333 38.2939968,42.251 38.3759968,42.21 C38.4169968,42.169 38.4579968,42.169 38.5399968,42.128 C38.6219968,42.046 38.6629968,41.964 38.7859968,41.964 L38.7859968,42.046 L38.8679968,41.964 L38.7859968,41.964 C38.8269968,41.964 38.8679968,41.923 38.8679968,41.882 L38.9909968,41.718 L39.1549968,41.718 C39.1959968,41.677 39.1959968,41.595 39.2369968,41.513 C39.3599968,41.513 39.4419968,41.431 39.4829968,41.349 C39.6059968,41.349 39.6879968,41.267 39.7289968,41.185 C39.6469968,41.185 39.5649968,41.226 39.4829968,41.349 C39.4009968,41.349 39.2779968,41.431 39.1959968,41.513 C39.1139968,41.513 38.9909968,41.595 38.9089968,41.677 C38.7039968,41.759 38.4989968,41.964 38.3349968,42.128 C37.8019968,42.456 37.3099968,42.825 36.8999968,43.276 C36.7359968,43.358 36.5719968,43.481 36.4899968,43.645 L36.3669968,43.768 Z M50.6349968,41.513 C50.6759968,41.472 50.7169968,41.472 50.7989968,41.431 C50.7169968,41.431 50.6759968,41.472 50.6349968,41.513 C50.4299968,41.554 50.3069968,41.636 50.1839968,41.8 C50.3479968,41.718 50.5119968,41.718 50.6349968,41.513 Z M40.0159968,41.964 C40.2209968,41.964 40.3439968,41.841 40.4669968,41.718 C40.2619968,41.718 40.1389968,41.8 40.0159968,41.964 C39.9339968,41.964 39.8109968,42.005 39.7289968,42.087 C38.7859968,42.661 37.9659968,43.399 37.1049968,44.096 C37.0639968,44.137 37.0639968,44.219 37.0229968,44.301 C36.8999968,44.301 36.8179968,44.383 36.7769968,44.424 C36.8589968,44.424 36.9409968,44.383 37.0229968,44.301 C37.2689968,44.219 37.4329968,44.014 37.5969968,43.85 C38.3759968,43.276 39.1139968,42.62 39.9339968,42.087 L40.0159968,41.964 Z M39.0319968,41.882 L38.9089968,41.882 L38.9089968,41.964 L39.0319968,41.882 Z M48.4209968,41.964 C48.4619968,41.964 48.5029968,41.964 48.5439968,41.882 L48.4209968,41.964 Z M49.8559968,41.964 C49.8559968,41.964 49.9379968,41.923 49.9789968,41.923 C49.9379968,41.923 49.8559968,41.923 49.8559968,41.964 Z M49.6509968,42.046 C49.7329968,42.046 49.7739968,42.005 49.8149968,41.964 C49.7739968,42.005 49.6919968,42.005 49.6509968,42.046 Z M49.1999968,42.292 C49.2819968,42.292 49.3229968,42.251 49.3229968,42.251 C49.3229968,42.251 49.2409968,42.251 49.1999968,42.292 Z M49.0359968,42.415 C49.0769968,42.415 49.1179968,42.374 49.1999968,42.333 C49.1179968,42.333 49.0359968,42.374 49.0359968,42.415 Z M48.5849968,42.702 C48.7489968,42.62 48.8719968,42.538 48.9949968,42.415 C48.8309968,42.497 48.6669968,42.497 48.5849968,42.702 Z M48.4209968,42.784 L48.5439968,42.702 C48.5029968,42.702 48.4619968,42.743 48.4209968,42.784 Z M48.2569968,42.825 C48.2569968,42.825 48.3389968,42.825 48.3799968,42.784 C48.2979968,42.784 48.2569968,42.825 48.2569968,42.825 Z M47.9699968,43.03 C48.0519968,42.989 48.1749968,42.989 48.2159968,42.866 C48.0929968,42.907 48.0109968,42.948 47.9699968,43.03 Z M47.6009968,43.194 C47.6829968,43.194 47.7239968,43.194 47.7239968,43.112 C47.7239968,43.153 47.6419968,43.194 47.6009968,43.194 Z M37.0639968,43.317 C37.1049968,43.276 37.1459968,43.276 37.1869968,43.235 L37.1869968,43.317 L37.0639968,43.317 Z M47.3139968,43.399 C47.4369968,43.358 47.5189968,43.317 47.5599968,43.235 C47.4779968,43.276 47.3959968,43.317 47.3139968,43.399 Z M47.2774812,43.4233437 L47.3139968,43.399 C47.3037468,43.40925 47.2909343,43.4169375 47.2774812,43.4233437 L47.2774812,43.4233437 Z M46.9039968,43.645 C46.9859968,43.604 47.0679968,43.563 47.1499968,43.481 C47.0269968,43.522 46.9449968,43.563 46.9039968,43.645 Z M100.080995,16.257 C100.162995,16.339 100.203995,16.421 100.162995,16.544 C100.039995,16.667 99.9169952,16.585 99.8349952,16.503 C99.1789952,16.175 98.4819952,16.093 97.7849952,16.011 C96.8419952,15.888 95.8989952,15.806 94.9559952,15.765 C92.0859952,15.601 89.2159952,15.56 86.3869952,15.601 L81.5899952,15.601 C79.8269952,15.642 78.0229952,15.683 76.2189952,15.724 C74.0459952,15.765 71.8319952,15.847 69.6589952,15.929 C69.0439952,15.929 68.3879952,15.97 67.7729952,15.97 C67.4449952,16.011 67.1989952,16.093 67.0349952,16.38 C66.6659952,17.036 66.3379952,17.692 65.9689952,18.389 L65.9689952,18.471 C65.9279952,18.553 65.8869952,18.594 65.8459952,18.676 L65.8869952,18.676 C65.8459952,18.758 65.8049952,18.799 65.7639952,18.881 C65.6819952,18.922 65.6819952,19.004 65.6409952,19.086 C65.5999952,19.127 65.5589952,19.209 65.5589952,19.291 C65.4769952,19.332 65.4769952,19.414 65.4359952,19.496 C65.3949952,19.537 65.3539952,19.619 65.3539952,19.701 L65.2309952,19.906 C65.1899952,19.947 65.1489952,20.029 65.1489952,20.111 C65.0669952,20.152 65.0669952,20.234 65.0259952,20.316 C65.0259952,20.398 64.9849952,20.48 64.9439952,20.521 C64.8619952,20.603 64.8619952,20.644 64.8209952,20.726 C64.7799952,20.767 64.7389952,20.849 64.7389952,20.931 L64.6159952,21.136 C64.6159952,21.218 64.5749952,21.3 64.5339952,21.341 C64.4929952,21.423 64.4519952,21.505 64.4109952,21.546 C64.2059952,21.792 64.0829952,22.079 64.0009952,22.366 C64.0009952,22.448 63.9599952,22.53 63.9189952,22.571 C63.6729952,22.94 63.5089952,23.309 63.3859952,23.719 C63.3449952,23.76 63.3039952,23.842 63.3039952,23.924 C63.2219952,23.965 63.2219952,24.047 63.1809952,24.129 C63.1809952,24.211 63.1399952,24.252 63.0989952,24.334 C62.9349952,24.539 62.8119952,24.826 62.7299952,25.072 C62.6479952,25.195 62.6069952,25.318 62.6889952,25.482 C62.6479952,25.523 62.6069952,25.605 62.5659952,25.687 L62.6069952,25.646 C62.5249952,25.769 62.4019952,25.81 62.3609952,25.974 C62.3609952,26.056 62.3199952,26.097 62.2789952,26.179 C62.1149952,26.384 61.9919952,26.63 61.9509952,26.917 L61.9509952,26.876 C61.9509952,26.958 61.9099952,26.999 61.8689952,27.081 C61.7459952,27.245 61.6639952,27.409 61.6639952,27.614 C61.5819952,27.655 61.5819952,27.737 61.5409952,27.819 C61.4589952,27.983 61.3359952,28.106 61.3769952,28.311 C61.2129952,28.434 61.1719952,28.639 61.1309952,28.844 L61.0489952,29.049 C60.8029952,29.459 60.5979952,29.91 60.5159952,30.402 C60.4749952,30.443 60.4749952,30.525 60.4339952,30.566 C60.4749952,30.566 60.5159952,30.566 60.5159952,30.607 L60.4339952,30.607 L60.3109952,30.853 C60.2289952,30.976 60.2699952,31.058 60.3519952,31.14 L60.1059952,31.386 C60.0239952,31.55 59.9419952,31.714 59.9419952,31.919 C59.8599952,32.001 59.8189952,32.083 59.8189952,32.206 C59.6959952,32.37 59.6139952,32.534 59.6139952,32.739 C59.5729952,32.821 59.5319952,32.862 59.5319952,32.944 C59.4089952,33.026 59.4089952,33.149 59.4089952,33.272 C59.3679952,33.313 59.3269952,33.395 59.2859952,33.477 C59.2449952,33.559 59.2039952,33.682 59.2039952,33.764 C59.0809952,33.928 58.9989952,34.133 58.9579952,34.297 C58.9169952,34.42 58.9579952,34.543 58.9989952,34.625 C58.9169952,34.707 58.8349952,34.789 58.7939952,34.912 C58.7529952,34.953 58.7529952,35.035 58.7939952,35.117 L58.6709952,35.404 C58.6299952,35.363 58.6299952,35.363 58.5889952,35.404 C58.4659952,35.609 58.3839952,35.814 58.3429952,36.019 L58.2609952,36.347 C58.3019952,36.429 58.3019952,36.47 58.2609952,36.511 L58.2609952,36.552 C58.2609952,36.716 58.0149952,36.757 58.0559952,36.962 C58.0149952,37.003 58.0149952,37.085 57.9739952,37.167 C57.9329952,37.249 57.8919952,37.331 57.8919952,37.454 C57.8509952,37.495 57.8099952,37.577 57.8099952,37.618 C57.8099952,37.823 57.7689952,38.028 57.6049952,38.192 C57.4819952,38.315 57.4409952,38.479 57.4409952,38.684 C57.1539952,39.217 56.9899952,39.832 56.8259952,40.447 C56.7029952,40.611 56.6209952,40.816 56.6209952,41.062 C56.5799952,41.226 56.4979952,41.39 56.4159952,41.554 C56.3339952,41.718 56.2929952,41.882 56.2519952,42.046 L56.1289952,42.497 C56.0059952,42.702 55.9239952,42.948 55.9239952,43.194 L55.9239952,43.317 C55.8829952,43.481 55.7189952,43.563 55.7189952,43.727 C55.5959952,43.932 55.5549952,44.137 55.5139952,44.342 C55.3089952,44.793 55.1859952,45.244 55.1039952,45.695 C54.9809952,45.818 54.8989952,45.982 54.8579952,46.187 L54.4889952,47.54 C54.4479952,47.622 54.4069952,47.745 54.3659952,47.827 C54.3249952,47.95 54.2839952,48.032 54.2839952,48.155 L54.1609952,48.442 C53.9969952,48.975 53.8329952,49.549 53.6689952,50.082 C53.5459952,50.287 53.4639952,50.533 53.4229952,50.82 L53.4639952,50.82 L53.3409952,51.148 L53.3409952,51.107 C53.2179952,51.312 53.1769952,51.517 53.1359952,51.722 C53.0129952,51.968 52.9309952,52.214 52.9309952,52.46 C52.8899952,52.542 52.8489952,52.665 52.8489952,52.747 C52.7669952,52.87 52.7259952,53.034 52.7259952,53.157 C52.6849952,53.28 52.6439952,53.362 52.6439952,53.485 L52.5209952,53.813 L52.5209952,53.772 C52.4389952,54.141 52.3159952,54.469 52.2339952,54.838 L52.2339952,54.797 C52.1109952,55.043 52.0289952,55.289 52.0289952,55.535 C51.9059952,55.781 51.8239952,55.986 51.8239952,56.273 C51.7009952,56.396 51.6599952,56.519 51.6189952,56.683 L51.4139952,57.503 C51.3319952,57.749 51.2909952,57.995 51.2909952,58.282 C51.2909952,58.569 51.2089952,58.897 51.1269952,59.184 C51.0859952,59.389 51.0039952,59.553 50.8399952,59.676 C50.7989952,59.717 50.7169952,59.717 50.6759952,59.635 C50.6349952,59.553 50.5939952,59.553 50.5529952,59.635 C50.3479952,59.799 50.3479952,59.799 50.1839952,59.676 C50.0609952,59.553 49.9789952,59.471 49.7739952,59.43 C49.5279952,59.43 49.4459952,59.266 49.5279952,58.979 C49.7329952,58.118 49.9379952,57.216 50.1839952,56.355 C50.5119952,55.248 50.7989952,54.1 51.1269952,52.993 C51.5369952,51.64 51.8649952,50.246 52.3569952,48.934 C52.4799952,48.483 52.5619952,48.073 52.7259952,47.622 C52.9309952,46.925 53.1769952,46.228 53.3819952,45.49 C53.5459952,44.834 53.7509952,44.178 53.9559952,43.522 C54.1609952,42.784 54.4479952,42.087 54.6529952,41.39 L55.5959952,38.479 C55.8419952,37.7 56.1289952,36.962 56.3749952,36.183 C56.8259952,34.953 57.3179952,33.723 57.7279952,32.534 C58.0149952,31.755 58.3429952,31.017 58.6299952,30.279 C58.9169952,29.623 59.1629952,28.967 59.4499952,28.27 L60.5569952,25.81 C60.9669952,24.744 61.5409952,23.719 62.0329952,22.653 C62.6889952,21.136 63.4679952,19.66 64.2469952,18.184 L65.0669952,16.626 C65.3129952,16.175 65.2309952,16.093 64.7799952,16.134 C63.8779952,16.134 62.9759952,16.216 62.1149952,16.257 L57.9329952,16.503 C57.3179952,16.544 56.7029952,16.626 56.1289952,16.667 L54.7349952,16.79 C53.4639952,16.913 52.1929952,16.995 50.9629952,17.118 C49.6099952,17.282 48.2569952,17.405 46.9449952,17.569 L44.1979952,17.938 C43.4189952,18.02 42.6399952,18.143 41.8609952,18.225 C41.1229952,18.348 40.3849952,18.43 39.6469952,18.553 C38.8269952,18.676 38.0069952,18.758 37.1869952,18.881 C36.2029952,19.004 35.2599952,19.127 34.3169952,19.291 C33.4149952,19.414 32.4719952,19.455 31.5699952,19.537 C31.1189952,19.578 30.6679952,19.537 30.2579952,19.455 C29.9299952,19.414 29.6429952,19.332 29.4789952,19.004 L29.4789952,18.84 C29.5199952,18.84 29.6019952,18.799 29.6429952,18.799 C29.9709952,18.922 30.3399952,18.922 30.7089952,18.881 C31.4469952,18.84 32.1849952,18.676 32.9229952,18.553 C34.3169952,18.348 35.7109952,18.102 37.0639952,17.856 C37.8839952,17.733 38.6629952,17.569 39.4419952,17.446 C41.2869952,17.118 43.1729952,16.831 45.0179952,16.544 C45.9609952,16.421 46.8629952,16.298 47.8059952,16.134 C48.5849952,16.011 49.4049952,15.929 50.1839952,15.847 L52.4799952,15.601 C53.0949952,15.519 53.6689952,15.478 54.2839952,15.437 L57.0719952,15.191 C57.8509952,15.109 58.5889952,15.068 59.3269952,15.027 C60.4339952,14.945 61.5409952,14.904 62.6069952,14.822 L63.4269952,14.822 C64.2059952,14.781 65.0259952,14.74 65.8049952,14.699 C66.0099952,14.699 66.1739952,14.617 66.2559952,14.453 C66.3789952,14.289 66.5429952,14.084 66.6249952,13.879 C66.8709952,13.387 67.1989952,12.936 67.4859952,12.444 C67.8549952,11.788 68.2649952,11.132 68.6749952,10.517 C69.0849952,9.861 69.4949952,9.164 69.9459952,8.508 C70.3559952,7.975 70.6839952,7.401 71.0529952,6.868 C71.6269952,6.048 72.2009952,5.269 72.8159952,4.449 C73.4309952,3.588 74.1279952,2.768 74.8249952,1.948 C75.1939952,1.497 75.6039952,1.046 76.0139952,0.595 C76.0549952,0.554 76.0959952,0.513 76.1779952,0.472 C76.2599952,0.39 76.3419952,0.308 76.4649952,0.39 C76.6289952,0.472 76.7109952,0.554 76.7109952,0.759 C76.7109952,0.882 76.6699952,0.964 76.6289952,1.087 C76.5059952,1.292 76.3829952,1.497 76.2189952,1.702 C75.5629952,2.686 74.8659952,3.629 74.1689952,4.654 C73.5539952,5.597 72.8979952,6.54 72.2829952,7.524 C72.2009952,7.647 72.1189952,7.852 72.0369952,8.016 L72.0369952,8.098 C71.8729952,8.262 71.7089952,8.426 71.6269952,8.631 C71.4629952,8.754 71.3809952,8.959 71.2989952,9.123 C71.0939952,9.287 71.0119952,9.533 70.8889952,9.738 C70.6429952,10.066 70.4379952,10.394 70.2739952,10.763 C70.0689952,11.05 69.9049952,11.337 69.7409952,11.624 C69.5769952,11.829 69.4539952,12.075 69.3719952,12.321 C69.3309952,12.362 69.2899952,12.444 69.2489952,12.526 C69.0849952,12.649 68.9619952,12.813 68.9619952,13.018 C68.7159952,13.223 68.6339952,13.51 68.5519952,13.756 L68.4289952,13.961 C68.3469952,14.002 68.3469952,14.084 68.3469952,14.166 C68.3059952,14.207 68.2649952,14.248 68.2239952,14.248 L68.2239952,14.289 C68.1829952,14.33 68.1829952,14.412 68.1419952,14.453 C68.1829952,14.453 68.1829952,14.494 68.2239952,14.494 C68.3469952,14.617 68.5109952,14.617 68.6339952,14.617 C69.4949952,14.576 70.3559952,14.576 71.2169952,14.576 C72.2829952,14.535 73.3079952,14.494 74.3739952,14.494 C77.1209952,14.412 79.8269952,14.412 82.5329952,14.371 C85.6489952,14.371 88.7239952,14.371 91.8399952,14.412 C93.1929952,14.453 94.5459952,14.535 95.9399952,14.617 C96.8009952,14.699 97.7029952,14.822 98.5639952,15.068 C99.1379952,15.232 99.6299952,15.601 99.9989952,16.052 C100.039995,16.134 100.080995,16.175 100.080995,16.257 Z M69.9049952,10.763 C69.9049952,10.804 69.9049952,10.804 69.8639952,10.845 C69.9049952,10.845 69.9049952,10.804 69.9459952,10.804 L69.9459952,10.763 C69.9459952,10.722 69.9049952,10.722 69.9049952,10.763 Z M69.7409952,11.624 L69.9049952,11.624 C69.8639952,11.583 69.7819952,11.583 69.7409952,11.624 Z M68.6339952,13.756 L68.5519952,13.961 L68.5519952,13.756 L68.6339952,13.756 Z M68.3469952,14.289 L68.2239952,14.453 L68.2239952,14.289 L68.3469952,14.289 Z M66.0099952,17.815 C66.2969952,17.364 66.5839952,16.872 66.7889952,16.339 C66.7889952,16.339 66.7889952,16.298 66.7479952,16.257 C66.6659952,16.421 66.5429952,16.585 66.4609952,16.708 C66.2559952,17.118 66.0099952,17.487 65.8869952,17.938 L66.0099952,17.815 Z M65.7639952,18.184 C65.8459952,18.143 65.8869952,18.061 65.8869952,17.979 C65.8049952,18.02 65.7639952,18.061 65.7639952,18.143 C65.6819952,18.225 65.6819952,18.307 65.6819952,18.389 C65.5999952,18.43 65.5589952,18.471 65.5589952,18.553 C65.3949952,18.676 65.3539952,18.84 65.2719952,19.004 C64.3699952,20.767 63.4679952,22.53 62.6479952,24.334 C61.7459952,26.261 60.9259952,28.229 60.1059952,30.238 C59.2039952,32.534 58.3019952,34.871 57.4819952,37.249 C56.6209952,39.668 55.8009952,42.128 55.0219952,44.588 C53.7919952,48.319 52.6029952,52.091 51.5369952,55.904 C51.4139952,56.273 51.2909952,56.683 51.2089952,57.093 C51.1679952,57.216 51.1679952,57.216 51.2089952,57.462 C51.3319952,57.216 51.4139952,57.011 51.4549952,56.765 C52.0289952,54.592 52.6849952,52.46 53.3409952,50.328 C53.9149952,48.524 54.5299952,46.72 55.1039952,44.916 C55.8419952,42.579 56.6209952,40.283 57.4409952,37.987 C58.1789952,35.773 58.9989952,33.518 59.9009952,31.304 C60.6389952,29.377 61.4179952,27.491 62.2789952,25.605 C62.7299952,24.539 63.2219952,23.555 63.7139952,22.53 C64.2059952,21.464 64.6979952,20.398 65.2309952,19.373 C65.3539952,19.127 65.5179952,18.881 65.5589952,18.594 C65.6409952,18.553 65.6819952,18.471 65.6819952,18.389 C65.7639952,18.348 65.7639952,18.266 65.7639952,18.184 Z M64.6569952,21.136 L64.6569952,21.341 C64.6569952,21.3 64.6569952,21.218 64.6159952,21.136 L64.6569952,21.136 Z M63.0989952,21.587 C63.0579952,21.628 63.0169952,21.669 63.0169952,21.71 L63.0989952,21.587 Z M64.0419952,22.571 L64.0419952,22.366 C64.0419952,22.366 64.0829952,22.407 64.1239952,22.407 C64.0829952,22.448 64.0419952,22.53 64.0419952,22.571 Z M63.2219952,24.334 L63.2219952,24.129 L63.3039952,24.129 C63.2629952,24.211 63.2219952,24.252 63.2219952,24.334 Z M61.7869952,24.457 C61.7459952,24.539 61.7049952,24.58 61.6639952,24.621 L61.7459952,24.621 C61.7459952,24.58 61.7869952,24.539 61.7869952,24.457 Z M61.6639952,24.662 C61.6229952,24.703 61.5819952,24.744 61.5819952,24.826 C61.6229952,24.785 61.6229952,24.703 61.6639952,24.662 Z M61.4589952,25.359 C61.4179952,25.318 61.3769952,25.318 61.3769952,25.359 L61.4589952,25.359 Z M61.3359952,25.359 C61.2949952,25.4 61.2539952,25.482 61.2539952,25.523 C61.2949952,25.482 61.3359952,25.441 61.3359952,25.359 Z M61.2539952,25.564 C61.2129952,25.605 61.1719952,25.687 61.1719952,25.728 C61.2129952,25.687 61.2129952,25.646 61.2539952,25.564 Z M62.4019952,26.179 L62.3609952,26.179 L62.3609952,25.974 C62.4019952,26.056 62.4019952,26.097 62.4019952,26.179 Z M62.3609952,26.179 L62.2789952,26.179 C62.3199952,26.22 62.3609952,26.22 62.3609952,26.179 Z M60.8849952,26.343 C60.8439952,26.384 60.8439952,26.425 60.8439952,26.466 L60.9259952,26.343 L60.9259952,26.261 C60.8849952,26.302 60.8849952,26.302 60.8849952,26.343 Z M60.4339952,27.409 C60.3109952,27.573 60.2289952,27.737 60.2289952,27.901 L60.3109952,27.901 C60.3519952,27.86 60.3519952,27.778 60.4339952,27.696 L60.4339952,27.409 L60.5159952,27.409 L60.5159952,27.204 L60.6389952,27.204 L60.6389952,27.409 L60.5569952,27.409 L60.5569952,27.696 C60.5569952,27.614 60.5979952,27.491 60.6389952,27.409 L60.7209952,27.204 L60.6389952,27.204 C60.6389952,27.122 60.6799952,27.04 60.7209952,26.999 L60.7209952,26.712 C60.5979952,26.835 60.5159952,26.999 60.5159952,27.204 C60.4749952,27.245 60.4339952,27.327 60.4339952,27.409 Z M60.5159952,27.737 L60.4339952,27.737 L60.4339952,27.901 C60.4749952,27.86 60.4749952,27.778 60.5159952,27.737 Z M60.2289952,27.942 C60.1469952,27.983 60.1059952,28.024 60.1059952,28.106 C60.1879952,28.065 60.2289952,28.024 60.2289952,27.942 Z M60.1059952,28.147 C59.9829952,28.27 59.9419952,28.434 59.9009952,28.598 C59.9829952,28.557 60.0649952,28.475 60.1469952,28.393 C60.1469952,28.311 60.1059952,28.229 60.1059952,28.147 Z M59.8189952,28.844 C59.6959952,29.008 59.6139952,29.172 59.6139952,29.336 C59.7369952,29.213 59.8189952,29.049 59.8189952,28.844 C59.9009952,28.803 59.9009952,28.721 59.9009952,28.639 C59.8599952,28.68 59.8189952,28.762 59.8189952,28.844 Z M61.1719952,29.049 L61.1719952,28.844 L61.2539952,28.844 C61.2129952,28.926 61.1719952,28.967 61.1719952,29.049 Z M58.9989952,30.894 C58.8759952,31.058 58.7939952,31.222 58.7939952,31.386 L58.9579952,31.222 C58.9579952,31.099 58.9989952,31.017 58.9989952,30.894 C59.0399952,30.812 59.1219952,30.771 59.1629952,30.689 C59.2039952,30.607 59.2039952,30.525 59.2039952,30.402 C59.2859952,30.32 59.3269952,30.238 59.3679952,30.197 C59.4089952,30.074 59.4089952,29.992 59.4089952,29.869 C59.4499952,29.787 59.5319952,29.746 59.6139952,29.664 C59.6549952,29.705 59.6959952,29.705 59.6959952,29.664 L59.6139952,29.664 L59.6139952,29.377 C59.4499952,29.5 59.4089952,29.664 59.4089952,29.869 C59.2859952,30.033 59.2039952,30.197 59.2039952,30.402 C59.0399952,30.525 58.9989952,30.689 58.9989952,30.894 Z M60.1469952,31.386 L60.1469952,31.427 L60.1059952,31.386 L60.1469952,31.386 Z M58.5889952,31.919 C58.4249952,32.042 58.4249952,32.247 58.3839952,32.411 C58.5069952,32.288 58.5889952,32.124 58.5889952,31.919 C58.6299952,31.837 58.7119952,31.796 58.7529952,31.714 C58.7939952,31.632 58.7939952,31.509 58.7939952,31.427 C58.6299952,31.55 58.5889952,31.714 58.5889952,31.919 Z M58.8759952,31.714 L58.7939952,31.714 C58.8349952,31.755 58.8759952,31.755 58.8759952,31.714 Z M58.3429952,32.452 C58.3019952,32.534 58.2609952,32.616 58.2609952,32.739 C58.3429952,32.657 58.3839952,32.534 58.3429952,32.452 Z M52.2339952,51.025 C52.1109952,51.107 52.1109952,51.189 52.1109952,51.312 L52.2339952,51.312 L52.2339952,51.394 C52.3159952,51.394 52.3159952,51.353 52.3159952,51.312 C52.3979952,51.23 52.4389952,51.107 52.3159952,51.025 L52.4389952,50.697 C52.4389952,50.615 52.4389952,50.533 52.5209952,50.492 C52.6029952,50.451 52.6029952,50.369 52.6439952,50.287 C52.6849952,50.205 52.6849952,50.082 52.6439952,50 C52.6439952,49.877 52.6849952,49.754 52.7259952,49.672 C52.7669952,49.549 52.7669952,49.467 52.8489952,49.385 L52.8489952,48.975 C52.9309952,48.893 52.9309952,48.77 52.9309952,48.647 L53.0539952,48.647 C53.0539952,48.524 53.0949952,48.442 53.1359952,48.36 L53.1359952,48.319 C53.1359952,48.237 53.1769952,48.114 53.2589952,48.032 C53.2589952,47.95 53.2589952,47.868 53.3409952,47.827 C53.4229952,47.786 53.4229952,47.704 53.4229952,47.622 L53.5459952,47.335 C53.6279952,47.212 53.6279952,47.13 53.5459952,47.007 C53.5869952,46.884 53.5869952,46.802 53.6689952,46.679 C53.6689952,46.597 53.7099952,46.474 53.7509952,46.392 C53.7919952,46.31 53.7919952,46.228 53.8739952,46.187 C53.9559952,46.146 53.9559952,46.064 53.9559952,45.982 C54.0379952,45.9 54.0379952,45.818 54.0789952,45.695 C54.1199952,45.572 54.1199952,45.49 54.0789952,45.367 C54.0789952,45.285 54.1199952,45.244 54.2019952,45.162 C54.3249952,45.08 54.4069952,44.916 54.2429952,44.752 L54.2839952,44.752 C54.2839952,44.629 54.3249952,44.547 54.3659952,44.424 C54.4069952,44.383 54.4069952,44.301 54.4889952,44.26 C54.5709952,44.219 54.5709952,44.096 54.5709952,44.055 C54.4889952,43.973 54.4889952,43.85 54.4889952,43.727 L54.5709952,43.727 L54.5709952,44.014 L54.6939952,43.727 C54.7349952,43.645 54.7759952,43.522 54.7759952,43.44 C54.6939952,43.317 54.6939952,43.235 54.6939952,43.112 L54.7759952,43.112 L54.7759952,43.399 C54.8579952,43.317 54.8579952,43.235 54.7759952,43.112 C54.7759952,42.989 54.8169952,42.907 54.8989952,42.825 C54.9399952,42.866 54.9399952,42.825 54.9809952,42.825 L54.8989952,42.825 C54.8989952,42.702 54.9399952,42.62 54.9809952,42.497 L54.9809952,42.784 C55.0629952,42.702 55.0629952,42.62 55.1039952,42.497 C55.1449952,42.415 55.1859952,42.292 55.1859952,42.21 L55.1039952,42.21 C55.1039952,42.087 55.1039952,41.964 55.1859952,41.882 L55.1859952,42.169 C55.2679952,42.087 55.2679952,42.005 55.3089952,41.882 C55.3499952,41.8 55.3909952,41.677 55.3909952,41.595 L55.3089952,41.595 C55.3089952,41.472 55.3499952,41.39 55.3909952,41.267 L55.3909952,41.554 C55.4729952,41.472 55.4729952,41.39 55.5139952,41.267 C55.5549952,41.144 55.5959952,41.062 55.5139952,40.98 L55.5139952,41.267 L55.3909952,41.267 C55.4319952,41.144 55.4319952,41.062 55.5139952,40.939 C55.5139952,40.898 55.5549952,40.816 55.5959952,40.775 C55.7599952,40.693 55.8009952,40.529 55.8009952,40.365 C55.9649952,40.037 56.0879952,39.75 56.1289952,39.422 C56.2109952,39.34 56.2109952,39.217 56.2109952,39.094 C56.2929952,39.012 56.3339952,38.93 56.3339952,38.807 C56.3749952,38.684 56.4159952,38.602 56.4159952,38.479 C56.4979952,38.397 56.5389952,38.315 56.5389952,38.192 C56.6209952,38.11 56.6209952,37.987 56.6209952,37.864 C56.7029952,37.782 56.7029952,37.659 56.7439952,37.577 C56.8259952,37.454 56.8259952,37.372 56.8259952,37.249 C56.9079952,37.167 56.9079952,37.044 56.9489952,36.962 L56.8259952,36.962 L56.8259952,36.634 C56.9079952,36.552 56.9899952,36.511 57.0309952,36.429 L57.0309952,36.716 C57.1129952,36.634 57.1539952,36.552 57.1539952,36.429 C57.1949952,36.347 57.2359952,36.224 57.2359952,36.142 C57.3179952,36.019 57.3589952,35.937 57.3589952,35.814 C57.4819952,35.65 57.6049952,35.527 57.4409952,35.322 L57.5639952,34.994 C57.6049952,35.076 57.6049952,35.076 57.6459952,34.994 C57.7279952,34.912 57.7689952,34.789 57.7689952,34.707 L57.6459952,34.707 L57.6459952,34.379 L57.7689952,34.379 L57.7689952,34.666 C57.8919952,34.543 57.9329952,34.379 57.9739952,34.174 C58.0559952,34.092 58.0559952,33.969 58.0559952,33.887 C58.1789952,33.723 58.2609952,33.559 58.2609952,33.354 L58.3839952,33.067 L58.2609952,33.067 L58.2609952,32.78 C58.2609952,32.78 58.2199952,32.78 58.2199952,32.821 C58.0149952,33.272 57.8509952,33.682 57.6869952,34.133 C57.6459952,34.215 57.6869952,34.297 57.6459952,34.379 C57.5639952,34.461 57.5639952,34.584 57.5639952,34.707 C57.4409952,34.789 57.3999952,34.871 57.3589952,34.994 C57.1949952,35.445 57.0309952,35.855 56.9079952,36.306 C56.8669952,36.388 56.8669952,36.511 56.8259952,36.634 C56.7439952,36.716 56.7439952,36.839 56.7439952,36.962 C56.6209952,37.044 56.5799952,37.167 56.5389952,37.29 L54.7759952,42.62 C54.7349952,42.784 54.6529952,42.948 54.6939952,43.112 C54.5299952,43.276 54.4479952,43.481 54.4889952,43.727 C54.2019952,44.26 54.0379952,44.793 53.9559952,45.367 C53.8739952,45.449 53.8329952,45.613 53.7919952,45.736 C53.6279952,46.146 53.5049952,46.556 53.3819952,46.966 C53.3819952,47.089 53.3819952,47.212 53.3409952,47.335 C53.1359952,47.745 53.0129952,48.196 52.9309952,48.647 C52.8489952,48.729 52.8489952,48.852 52.8489952,48.975 C52.6439952,49.303 52.5619952,49.631 52.5209952,50 C52.3569952,50.328 52.2339952,50.656 52.2339952,51.025 Z M58.2609952,33.354 L58.1789952,33.354 C58.1789952,33.231 58.1789952,33.149 58.2609952,33.067 L58.2609952,33.354 Z M59.4089952,33.477 L59.3269952,33.477 C59.3269952,33.518 59.3679952,33.477 59.4089952,33.477 Z M57.9739952,33.887 L58.0559952,33.887 C58.0149952,33.846 58.0149952,33.846 57.9739952,33.887 Z M57.8509952,34.174 L57.9739952,33.887 L57.9739952,34.174 L57.8509952,34.174 Z M57.5639952,34.994 L57.5639952,34.707 L57.6459952,34.707 L57.6459952,34.994 L57.5639952,34.994 Z M58.6709952,35.404 L58.5889952,35.404 C58.6299952,35.445 58.6299952,35.445 58.6709952,35.404 Z M57.2359952,35.814 L57.3589952,35.527 L57.3589952,35.814 L57.2359952,35.814 Z M57.1539952,36.142 C57.1539952,36.019 57.1539952,35.896 57.2359952,35.814 L57.2359952,36.142 L57.1539952,36.142 Z M58.3839952,36.019 C58.4249952,36.019 58.4659952,36.019 58.5069952,36.06 C58.4659952,36.06 58.4249952,36.06 58.3429952,36.019 L58.3839952,36.019 Z M57.0309952,36.429 C57.0719952,36.347 57.0719952,36.224 57.1539952,36.142 L57.1539952,36.429 L57.0309952,36.429 Z M56.8259952,37.249 L56.7439952,37.249 L56.7439952,36.962 L56.8259952,36.962 L56.8259952,37.249 Z M56.6209952,37.577 L56.7439952,37.249 L56.7439952,37.577 L56.6209952,37.577 Z M56.5389952,37.864 C56.5389952,37.782 56.5389952,37.659 56.6209952,37.577 L56.6209952,37.864 L56.5389952,37.864 Z M56.4159952,38.192 L56.5389952,37.864 L56.5389952,38.192 L56.4159952,38.192 Z M56.3339952,38.479 C56.3339952,38.397 56.3339952,38.274 56.4159952,38.192 L56.4159952,38.479 L56.3339952,38.479 Z M56.2109952,38.807 C56.2519952,38.684 56.2519952,38.602 56.3339952,38.479 L56.3339952,38.807 L56.2109952,38.807 Z M57.4819952,38.684 L57.4819952,38.725 L57.4409952,38.684 L57.4819952,38.684 Z M56.1289952,39.094 C56.1289952,39.012 56.1289952,38.889 56.2109952,38.807 L56.2109952,39.094 L56.1289952,39.094 Z M56.0059952,39.381 C56.0469952,39.299 56.0469952,39.176 56.1289952,39.094 L56.1289952,39.422 C56.0879952,39.422 56.0469952,39.422 56.0059952,39.381 Z M55.7599952,40.242 C55.8009952,40.242 55.8009952,40.324 55.8009952,40.365 C55.7599952,40.324 55.7189952,40.324 55.7189952,40.324 C55.7189952,40.283 55.7189952,40.242 55.7599952,40.242 Z M55.6779952,40.365 L55.6779952,40.324 L55.7189952,40.324 L55.6779952,40.365 Z M56.4569952,41.554 L56.4159952,41.595 L56.4159952,41.554 L56.4569952,41.554 Z M55.1859952,41.882 C55.2269952,41.8 55.2679952,41.677 55.3089952,41.595 L55.3089952,41.882 L55.1859952,41.882 Z M54.9809952,42.497 C55.0219952,42.415 55.0629952,42.292 55.1039952,42.21 L55.1039952,42.497 L54.9809952,42.497 Z M54.5709952,43.727 C54.6119952,43.686 54.6529952,43.645 54.6939952,43.727 L54.5709952,43.727 Z M52.0289952,51.763 C51.7829952,52.132 51.7009952,52.583 51.6189952,53.034 C51.6599952,52.952 51.7419952,52.87 51.8239952,52.747 C51.8239952,52.706 51.8239952,52.583 51.9059952,52.542 C51.9879952,52.501 51.9879952,52.419 52.0289952,52.378 L51.9879952,52.378 C52.1109952,52.173 52.2339952,51.968 52.1109952,51.763 L52.1109952,51.353 C52.0289952,51.476 52.0289952,51.599 52.0289952,51.763 Z M51.2909952,54.182 C51.2089952,54.305 51.2089952,54.387 51.2089952,54.51 C51.2499952,54.428 51.2909952,54.305 51.2909952,54.182 L51.4139952,54.182 C51.4139952,54.059 51.3729952,53.936 51.3729952,53.772 L51.4959952,53.772 C51.4959952,53.649 51.5369952,53.567 51.6189952,53.444 C51.6189952,53.321 51.5779952,53.198 51.5779952,53.075 C51.4959952,53.28 51.4139952,53.526 51.3729952,53.772 C51.3319952,53.936 51.3319952,54.059 51.2909952,54.182 Z M51.0859952,54.879 C51.1679952,54.797 51.1679952,54.674 51.2089952,54.551 C51.1269952,54.633 51.0859952,54.756 51.0859952,54.879 Z M51.0039952,55.248 C51.0449952,55.125 51.0859952,55.043 51.0859952,54.92 C51.0039952,55.002 51.0039952,55.125 51.0039952,55.248 C50.9219952,55.371 50.8809952,55.494 50.8809952,55.617 L51.0039952,55.617 L51.0039952,55.248 Z M50.7579952,56.027 C50.8809952,56.068 50.9219952,56.027 50.9219952,55.945 C50.8809952,55.822 50.8809952,55.74 50.8809952,55.658 C50.7989952,55.781 50.7989952,55.904 50.7579952,56.027 Z M50.7579952,56.355 L50.7579952,56.068 C50.7169952,56.15 50.7169952,56.232 50.6759952,56.314 C50.7169952,56.355 50.7579952,56.355 50.7579952,56.355 Z M78.3919936,39.504 C78.5559936,39.668 78.8019936,39.832 78.7609936,40.16 C77.7359936,40.529 76.7929936,41.103 75.8909936,41.718 C75.4809936,42.005 75.0299936,42.251 74.6199936,42.497 C73.8819936,43.071 73.0209936,43.522 72.2419936,44.055 C71.5449936,44.588 70.8069936,45.08 70.1099936,45.654 C69.7819936,45.9 69.4539936,46.187 69.1259936,46.474 L69.0849936,46.474 C68.5929936,46.843 68.1009936,47.171 67.6089936,47.499 C66.7889936,48.073 65.9279936,48.565 65.0669936,49.016 C64.5749936,49.262 64.0829936,49.426 63.5499936,49.467 C62.8939936,49.508 62.3609936,49.344 61.9099936,48.893 C61.2949936,48.237 61.0899936,47.458 61.2539936,46.515 C61.4179936,45.408 61.8279936,44.383 62.3199936,43.358 C62.7299936,42.497 63.2629936,41.677 63.8369936,40.857 C63.9189936,40.734 64.0009936,40.611 64.0419936,40.447 C64.2059936,40.037 64.4929936,39.709 64.8619936,39.463 C65.1079936,39.299 65.3129936,39.094 65.4769936,38.848 C65.9689936,38.315 66.5429936,37.864 67.1169936,37.413 C67.4039936,37.249 67.7319936,37.085 68.0189936,36.962 C68.5109936,36.798 68.9209936,36.839 69.2899936,37.208 C69.8639936,37.782 69.9049936,38.274 69.2079936,39.012 C68.6749936,39.586 68.1009936,40.16 67.4449936,40.611 C66.7889936,41.021 66.1739936,41.431 65.3949936,41.554 C65.1899936,41.554 65.0259936,41.677 64.8619936,41.882 C64.7389936,42.005 64.6159936,42.169 64.5339936,42.333 C64.0829936,43.112 63.6319936,43.891 63.3039936,44.67 C63.2629936,44.752 63.2629936,44.834 63.2219936,44.916 L63.2219936,45.039 C63.0169936,45.367 62.9759936,45.695 62.8939936,46.064 C62.7709936,46.474 62.6889936,46.884 62.6479936,47.335 C62.6069936,47.581 62.6069936,47.868 62.6479936,48.114 C62.6889936,48.319 62.8119936,48.36 62.9759936,48.319 C63.2629936,48.278 63.5499936,48.155 63.7959936,48.032 C64.4109936,47.745 64.9849936,47.417 65.5179936,47.048 C66.5019936,46.433 67.4449936,45.777 68.3879936,45.162 C69.8639936,44.178 71.2989936,43.194 72.7749936,42.251 C73.9229936,41.513 75.0709936,40.775 76.2599936,40.119 C76.5469936,39.955 76.8749936,39.791 77.2029936,39.627 C77.4079936,39.504 77.5719936,39.422 77.7769936,39.34 C78.0229936,39.299 78.2279936,39.299 78.3919936,39.504 Z M66.9529936,38.069 L66.8299936,38.151 L66.9529936,38.151 L66.9529936,38.274 C66.9529936,38.233 66.9939936,38.192 67.0349936,38.151 L67.1579936,38.069 C67.2809936,38.028 67.4039936,37.946 67.4859936,37.864 C67.6089936,37.782 67.7319936,37.741 67.8139936,37.659 C67.8139936,37.618 67.8139936,37.577 67.8549936,37.536 C67.8139936,37.495 67.8139936,37.454 67.8139936,37.454 C67.5269936,37.577 67.2809936,37.7 67.0759936,37.946 L66.9529936,38.069 Z M68.3469936,37.946 C67.8139936,38.069 67.1989936,38.52 66.8299936,39.053 C67.3629936,38.684 67.8139936,38.315 68.3469936,37.946 Z M67.0349936,38.151 L66.9529936,38.151 L66.9529936,38.069 L67.0349936,38.069 C67.0759936,38.028 67.0759936,37.987 67.0759936,37.946 L67.1579936,38.069 L67.0759936,38.069 C67.0759936,38.11 67.0349936,38.11 67.0349936,38.151 Z M66.8299936,38.192 C66.7889936,38.192 66.7479936,38.233 66.7069936,38.274 L66.8299936,38.274 L66.8299936,38.192 Z M67.0349936,39.217 C66.7069936,39.463 66.4199936,39.75 66.2149936,40.119 C66.5019936,40.078 66.7479936,39.955 66.9529936,39.75 C67.1579936,39.586 67.3629936,39.463 67.5269936,39.299 C67.8139936,39.053 68.0599936,38.766 68.3469936,38.479 C68.3879936,38.438 68.3879936,38.356 68.3469936,38.315 C68.3059936,38.274 68.2649936,38.274 68.2239936,38.315 C67.8139936,38.479 67.4039936,38.725 67.1579936,39.094 L67.1169936,39.094 C67.1169936,39.135 67.0759936,39.176 67.0349936,39.176 L67.0349936,39.217 Z M67.0759936,39.176 L67.1169936,39.217 C67.0759936,39.217 67.0349936,39.176 67.0349936,39.176 L67.0759936,39.176 Z M68.3059936,39.709 C68.3469936,39.668 68.3879936,39.668 68.3879936,39.627 C68.3469936,39.627 68.3059936,39.668 68.3059936,39.709 Z M67.2809936,39.996 C67.4039936,39.955 67.4449936,39.832 67.4449936,39.709 C67.2399936,39.873 66.9939936,39.996 66.7889936,40.201 C66.9939936,40.242 67.1579936,40.119 67.2809936,39.996 Z M68.0599936,39.914 C68.1009936,39.873 68.1419936,39.873 68.1419936,39.832 C68.1009936,39.832 68.0599936,39.873 68.0599936,39.873 C67.8549936,39.996 67.6499936,40.119 67.4859936,40.324 C67.4449936,40.365 67.4449936,40.406 67.4039936,40.406 C67.4449936,40.406 67.4859936,40.365 67.4859936,40.324 C67.7319936,40.283 67.9369936,40.119 68.0599936,39.914 Z M77.2439936,39.914 C77.2439936,39.955 77.2029936,39.996 77.2029936,39.996 L77.2849936,39.996 L77.3259936,39.955 C77.3259936,39.914 77.2849936,39.914 77.2439936,39.914 Z M77.1619936,40.037 C77.1209936,40.037 77.0389936,40.037 76.9979936,40.119 C77.0389936,40.119 77.1209936,40.078 77.1619936,40.037 Z M76.9569936,40.119 L76.7519936,40.201 C76.8339936,40.201 76.9159936,40.201 76.9569936,40.119 Z M67.6909936,46.146 C67.5269936,46.228 67.3629936,46.31 67.2809936,46.474 C67.3629936,46.433 67.4859936,46.392 67.5679936,46.392 C67.6089936,46.31 67.6909936,46.269 67.7319936,46.187 L67.8959936,46.187 L68.0189936,46.064 L68.0189936,46.146 C68.0599936,46.146 68.1009936,46.105 68.1419936,46.064 L68.0189936,46.064 C68.0599936,46.023 68.1009936,45.982 68.1419936,45.982 C68.1419936,45.941 68.1829936,45.941 68.1829936,45.9 L68.3469936,45.859 C68.3879936,45.818 68.4289936,45.818 68.4699936,45.777 L68.4699936,45.859 L68.5519936,45.777 L68.4699936,45.777 L68.4699936,45.736 C68.5109936,45.736 68.5519936,45.695 68.5929936,45.654 L68.5929936,45.736 C68.6339936,45.736 68.6339936,45.695 68.6749936,45.654 C68.7569936,45.613 68.8389936,45.572 68.8799936,45.572 L69.0029936,45.449 L68.9209936,45.449 L69.0439936,45.367 L69.0439936,45.449 C69.0439936,45.408 69.0849936,45.367 69.1259936,45.367 C69.2489936,45.326 69.3719936,45.244 69.4539936,45.162 L69.4539936,45.08 L69.4949936,45.121 L69.5359936,45.08 L69.5359936,45.039 L69.5769936,45.039 C69.6999936,44.998 69.8229936,44.957 69.9049936,44.834 L69.9049936,44.793 L69.9459936,44.793 L69.9459936,44.834 C69.9459936,44.793 69.9869936,44.752 70.0279936,44.752 L70.1509936,44.629 C70.2739936,44.629 70.3969936,44.547 70.4789936,44.424 C70.5199936,44.383 70.5609936,44.342 70.6019936,44.342 C70.7249936,44.301 70.8479936,44.219 70.9299936,44.137 L71.0529936,44.014 C71.1349936,43.973 71.1759936,43.932 71.2579936,43.932 L71.3809936,43.809 C71.4219936,43.768 71.4629936,43.727 71.5039936,43.727 C71.4629936,43.686 71.4219936,43.686 71.4219936,43.686 L71.4219936,43.645 C71.4629936,43.645 71.4629936,43.686 71.5039936,43.686 C71.5859936,43.686 71.6269936,43.645 71.7089936,43.604 L71.8319936,43.481 C71.9549936,43.44 72.0369936,43.358 72.1599936,43.317 L72.2829936,43.194 C72.4059936,43.153 72.5289936,43.071 72.6109936,42.989 C72.6519936,42.948 72.6929936,42.907 72.7339936,42.907 C72.6929936,42.866 72.6519936,42.866 72.6519936,42.866 L72.6519936,42.825 C72.6929936,42.825 72.6929936,42.866 72.7339936,42.866 C72.8159936,42.866 72.8569936,42.825 72.9389936,42.784 C72.9799936,42.743 73.0209936,42.702 73.0619936,42.702 L72.9389936,42.702 C72.9799936,42.661 72.9799936,42.62 72.9799936,42.579 C73.0209936,42.62 73.0209936,42.661 73.0619936,42.661 C73.1439936,42.62 73.2259936,42.538 73.2669936,42.456 L73.3899936,42.456 C73.5129936,42.415 73.5949936,42.333 73.7179936,42.292 L73.8409936,42.169 C73.9229936,42.087 74.0049936,42.046 74.0459936,41.964 C74.0869936,41.923 74.0869936,41.923 74.0869936,41.882 L74.1689936,41.964 C74.2509936,41.882 74.3329936,41.841 74.4149936,41.759 L74.4149936,41.677 C74.4559936,41.718 74.4969936,41.718 74.4969936,41.759 C74.6199936,41.677 74.7429936,41.595 74.8659936,41.554 L74.8249936,41.554 C74.9479936,41.472 75.0709936,41.39 75.1939936,41.349 L75.1529936,41.349 C75.2759936,41.267 75.3989936,41.226 75.4809936,41.144 L75.8499936,40.939 C75.9319936,40.857 76.0549936,40.816 76.1779936,40.734 C76.2599936,40.652 76.3419936,40.611 76.3829936,40.529 C76.4239936,40.488 76.4239936,40.488 76.4239936,40.447 L76.5059936,40.529 C76.5879936,40.447 76.6699936,40.406 76.7519936,40.324 C76.7109936,40.283 76.7109936,40.242 76.7109936,40.201 C76.6289936,40.242 76.5059936,40.283 76.4239936,40.406 C76.2599936,40.447 76.1779936,40.488 76.0549936,40.611 C75.9319936,40.652 75.8089936,40.693 75.7679936,40.816 C75.6039936,40.857 75.4809936,40.898 75.3989936,41.021 C75.0299936,41.185 74.7019936,41.349 74.4149936,41.636 C74.2919936,41.677 74.1689936,41.718 74.0869936,41.841 C73.9229936,41.882 73.8409936,41.923 73.7179936,42.046 C73.4309936,42.169 73.1849936,42.333 72.9389936,42.579 C72.8159936,42.579 72.7339936,42.661 72.6109936,42.784 C72.4469936,42.825 72.2829936,42.948 72.1599936,43.071 C71.8729936,43.194 71.6269936,43.358 71.3809936,43.604 C71.2169936,43.645 71.0529936,43.768 70.9299936,43.891 C70.7659936,43.932 70.6019936,44.055 70.4789936,44.178 C70.3149936,44.26 70.1509936,44.342 70.0279936,44.506 C69.7409936,44.67 69.4129936,44.875 69.1259936,45.121 C68.9209936,45.203 68.7569936,45.367 68.5519936,45.531 C68.3879936,45.613 68.2649936,45.695 68.1419936,45.818 C67.9779936,45.9 67.8139936,46.023 67.6909936,46.146 Z M77.7769936,40.324 C77.8179936,40.283 77.8999936,40.242 77.9409936,40.242 C77.8999936,40.242 77.8179936,40.242 77.7769936,40.324 Z M77.4489936,40.529 C77.5719936,40.488 77.6949936,40.447 77.7359936,40.324 C77.6129936,40.324 77.5309936,40.406 77.4489936,40.529 C77.3669936,40.529 77.2849936,40.529 77.2029936,40.611 C77.1209936,40.652 76.9979936,40.652 76.9159936,40.734 C76.0959936,41.226 75.2759936,41.677 74.5379936,42.251 C74.2509936,42.374 73.9639936,42.538 73.7179936,42.743 C73.5539936,42.866 73.3489936,42.948 73.1849936,43.071 C72.4469936,43.563 71.7089936,44.055 71.0529936,44.588 L70.6429936,44.834 C69.6999936,45.531 68.7569936,46.228 67.8139936,46.884 C67.6499936,47.007 67.4449936,47.13 67.3629936,47.294 C67.1989936,47.294 67.1169936,47.376 67.0349936,47.499 C66.9119936,47.54 66.7889936,47.622 66.7069936,47.704 C66.8299936,47.663 66.9529936,47.622 67.0349936,47.499 C67.1579936,47.499 67.2809936,47.417 67.3629936,47.294 C67.6089936,47.253 67.7729936,47.089 67.9779936,46.966 C68.5929936,46.556 69.1669936,46.105 69.7819936,45.695 C70.2329936,45.367 70.6429936,44.998 71.0939936,44.67 C72.0369936,44.096 72.8979936,43.481 73.7999936,42.825 C74.0869936,42.702 74.3329936,42.538 74.5789936,42.292 C74.6609936,42.251 74.7429936,42.251 74.8249936,42.169 C75.5219936,41.759 76.2599936,41.308 76.9569936,40.857 C77.0799936,40.775 77.1619936,40.734 77.2029936,40.652 L77.4489936,40.529 Z M67.0759936,40.611 C67.1989936,40.611 67.3219936,40.57 67.3629936,40.447 C67.2399936,40.447 67.1579936,40.529 67.0759936,40.611 Z M73.7179936,42.169 C73.7589936,42.128 73.7589936,42.128 73.7589936,42.087 L73.8409936,42.169 L73.7179936,42.169 Z M72.1599936,43.194 C72.2009936,43.153 72.2009936,43.153 72.2009936,43.112 L72.2829936,43.194 L72.1599936,43.194 Z M71.2579936,43.809 L71.3809936,43.727 L71.3809936,43.809 L71.2579936,43.809 Z M70.9299936,44.014 C70.9709936,44.014 70.9709936,43.973 70.9709936,43.932 L71.0529936,44.014 L70.9299936,44.014 Z M70.5199936,44.26 C70.5609936,44.26 70.5609936,44.301 70.6019936,44.342 C70.5609936,44.301 70.5199936,44.301 70.5199936,44.301 L70.5199936,44.26 Z M70.4789936,44.342 L70.4789936,44.424 C70.5199936,44.383 70.5199936,44.383 70.4789936,44.342 Z M70.1509936,44.629 C70.1099936,44.629 70.1099936,44.588 70.0689936,44.588 C70.1099936,44.629 70.1099936,44.629 70.1509936,44.629 Z M69.9459936,44.711 C69.9869936,44.711 69.9869936,44.67 70.0279936,44.67 L70.0279936,44.752 C69.9869936,44.711 69.9869936,44.711 69.9459936,44.711 Z M69.0439936,45.367 C69.0849936,45.326 69.1259936,45.285 69.1259936,45.244 L69.1259936,45.367 L69.0439936,45.367 Z M68.5929936,45.654 L68.6749936,45.654 C68.6749936,45.654 68.6339936,45.613 68.6339936,45.572 C68.6339936,45.613 68.5929936,45.654 68.5929936,45.654 Z M67.2399936,46.474 C67.1169936,46.515 67.0349936,46.556 66.9529936,46.679 C67.0759936,46.679 67.1989936,46.597 67.2399936,46.474 Z M66.7889936,46.802 C66.6659936,46.802 66.5839936,46.884 66.5019936,46.966 C66.6249936,46.966 66.7069936,46.925 66.7889936,46.802 Z M66.3789936,47.089 C66.3789936,47.048 66.4199936,47.048 66.4609936,47.007 C66.4199936,47.007 66.3789936,47.048 66.3789936,47.089 Z M93.0699919,41.062 C93.1109919,41.103 93.1929919,41.144 93.1929919,41.185 C93.1519919,41.267 93.1109919,41.349 93.0699919,41.349 C92.9059919,41.472 92.7419919,41.554 92.5369919,41.677 L89.7079919,43.44 C88.6829919,44.096 87.6169919,44.752 86.5919919,45.408 C85.9359919,45.777 85.3619919,46.228 84.7469919,46.597 C83.7629919,47.212 82.8199919,47.868 81.7539919,48.319 C81.3439919,48.483 80.8929919,48.647 80.4419919,48.729 C80.1549919,48.77 79.9089919,48.77 79.6219919,48.77 C79.4989919,48.77 79.3349919,48.729 79.2119919,48.647 C78.7199919,48.401 78.2689919,48.073 77.9819919,47.54 C77.7359919,47.089 77.7359919,46.597 77.7769919,46.105 C77.8589919,45.039 78.1869919,44.055 78.5559919,43.071 C78.8429919,42.374 79.2939919,41.759 79.5809919,41.103 C80.1549919,40.365 80.6059919,39.545 81.3029919,38.889 C81.6309919,38.561 81.9589919,38.233 82.3689919,37.946 L82.9019919,37.7 C83.3529919,37.495 83.8039919,37.536 84.2139919,37.782 C84.5009919,37.987 84.7469919,38.233 84.9929919,38.479 C85.2799919,38.807 85.4029919,39.217 85.4029919,39.668 C85.4439919,40.201 85.3209919,40.775 85.1569919,41.308 L84.9109919,41.677 C84.8289919,41.841 84.6649919,41.923 84.5009919,41.882 C84.3369919,41.8 84.2549919,41.718 84.2139919,41.554 C84.2139919,41.431 84.2139919,41.349 84.2549919,41.226 C84.2549919,40.775 84.2959919,40.283 84.3369919,39.791 C84.3369919,39.545 84.2959919,39.258 84.2549919,39.012 C84.2549919,38.93 84.2139919,38.889 84.1729919,38.807 C84.0499919,38.766 83.9269919,38.848 83.8039919,38.93 L83.1069919,39.299 C83.0659919,39.34 82.9839919,39.381 82.9429919,39.422 C82.3689919,39.955 81.8769919,40.57 81.4259919,41.185 C81.3849919,41.267 81.3849919,41.308 81.3439919,41.349 L81.2619919,41.554 C81.2209919,41.595 81.1799919,41.677 81.1389919,41.718 C80.8519919,42.046 80.6059919,42.456 80.4419919,42.907 C80.4009919,43.03 80.3189919,43.194 80.2369919,43.317 L80.2779919,43.317 L80.1549919,43.522 C80.1139919,43.604 80.1139919,43.686 80.0729919,43.768 L79.9499919,44.055 L79.9499919,44.014 C79.9499919,44.137 79.9089919,44.219 79.8679919,44.301 L79.7449919,44.588 C79.6629919,44.711 79.5809919,44.834 79.6629919,44.998 C79.7039919,45.121 79.6219919,45.203 79.5399919,45.285 C79.5809919,45.408 79.5809919,45.531 79.5399919,45.654 C79.4169919,46.146 79.3759919,46.638 79.4169919,47.13 C79.4169919,47.294 79.4169919,47.458 79.5399919,47.622 C79.6629919,47.581 79.7859919,47.581 79.8679919,47.54 C80.1959919,47.376 80.4829919,47.253 80.7699919,47.13 C81.5489919,46.679 82.3279919,46.31 83.1069919,45.777 C83.6399919,45.449 84.2139919,45.121 84.7879919,44.793 L86.6739919,43.645 L87.0429919,43.399 L90.4869919,41.39 L91.8399919,40.652 L92.1679919,40.529 C92.3729919,40.447 92.6189919,40.447 92.8239919,40.611 L93.1929919,40.816 L93.0699919,41.062 Z M81.6719919,39.135 C81.5899919,39.217 81.5489919,39.34 81.4259919,39.463 C81.6309919,39.34 81.7949919,39.299 81.9179919,39.217 C81.9179919,39.135 81.9589919,39.053 81.9589919,38.971 L82.2049919,38.971 C82.2459919,38.889 82.3279919,38.848 82.3689919,38.766 C82.5329919,38.725 82.5329919,38.725 82.4919919,38.602 L82.6149919,38.397 C82.2869919,38.52 82.2459919,38.561 81.9179919,38.93 L81.6719919,39.135 Z M83.3529919,38.766 L83.4349919,38.766 C83.4759919,38.766 83.4759919,38.725 83.4759919,38.725 C83.4759919,38.725 83.4349919,38.684 83.4349919,38.725 C83.3939919,38.725 83.3939919,38.766 83.3529919,38.766 Z M83.3529919,38.766 C83.2709919,38.807 83.1479919,38.848 83.0659919,38.93 C82.8609919,39.053 82.6969919,39.176 82.5739919,39.34 C81.9999919,39.832 81.5489919,40.447 81.1389919,41.062 C81.0569919,41.144 81.0569919,41.226 81.0159919,41.308 C81.1389919,41.226 81.2209919,41.144 81.3029919,41.021 C81.8359919,40.283 82.4099919,39.627 83.1069919,39.053 C83.2299919,38.971 83.2709919,38.848 83.3529919,38.766 Z M80.9339919,41.431 L80.9339919,41.472 C80.9339919,41.431 80.9749919,41.431 80.9749919,41.431 L80.9749919,41.39 C80.9339919,41.39 80.9339919,41.39 80.9339919,41.431 Z M81.3439919,41.554 C81.3029919,41.595 81.2619919,41.677 81.2619919,41.718 L81.2619919,41.554 L81.3439919,41.554 Z M81.1389919,41.882 L81.1389919,41.718 L81.2619919,41.718 L81.1389919,41.882 Z M80.6059919,42.005 C80.5649919,42.046 80.5239919,42.087 80.4829919,42.169 L80.6059919,42.005 Z M90.3229919,42.702 C90.4049919,42.661 90.5279919,42.62 90.5689919,42.538 L90.3229919,42.702 Z M80.6879919,42.743 L80.6469919,42.743 C80.6879919,42.743 80.6879919,42.702 80.6879919,42.702 L80.6879919,42.743 Z M80.3599919,43.358 L80.2779919,43.481 L80.2779919,43.317 C80.2779919,43.358 80.3189919,43.358 80.3599919,43.358 Z M89.2159919,43.399 L89.2979919,43.317 C89.2569919,43.358 89.2569919,43.358 89.2159919,43.358 L89.1749919,43.399 L89.2159919,43.399 Z M88.5599919,43.85 L88.5599919,43.809 L88.5189919,43.809 C88.5189919,43.85 88.5189919,43.85 88.4779919,43.891 C88.5189919,43.85 88.5189919,43.85 88.5599919,43.85 Z M87.6989919,44.301 C87.8219919,44.301 87.9449919,44.26 87.9859919,44.137 C87.9039919,44.219 87.8219919,44.26 87.6989919,44.301 Z M86.6329919,45.039 C86.7559919,44.957 86.9199919,44.957 87.0019919,44.752 C86.7969919,44.793 86.7149919,44.916 86.6329919,45.039 Z M114.26699,40.242 C114.34899,40.365 114.38999,40.488 114.30799,40.529 C114.26699,40.529 114.22599,40.57 114.18499,40.611 C113.77499,40.816 113.40599,41.021 112.99599,41.267 C112.29899,41.8 111.47899,42.292 110.74099,42.784 C109.42899,43.727 108.11699,44.711 106.84599,45.695 C106.10799,46.228 105.41099,46.761 104.67299,47.171 C104.38599,47.335 104.13999,47.499 103.77099,47.499 C103.36099,47.54 102.95099,47.458 102.58199,47.089 C102.41799,46.966 102.29499,46.884 102.17199,46.761 C101.84399,46.474 101.67999,46.187 101.59799,45.818 C101.51599,45.203 101.55699,44.588 101.67999,44.014 C101.80299,43.153 101.96699,42.21 102.04899,41.349 C102.08999,41.226 102.08999,41.062 102.04899,40.98 C102.04899,40.898 102.00799,40.857 101.96699,40.857 C101.84399,40.857 101.76199,40.898 101.67999,40.939 L100.98299,41.39 C100.44999,41.8 99.9169903,42.169 99.4249903,42.62 C98.3179903,43.481 97.3339903,44.465 96.3499903,45.49 C96.0219903,45.859 95.6939903,46.228 95.3659903,46.556 C95.2429903,46.679 95.1609903,46.761 94.9969903,46.843 C94.8329903,46.884 94.4229903,46.802 94.2179903,46.597 C94.0949903,46.433 93.8899903,46.392 93.7669903,46.269 C93.5209903,46.146 93.4389903,45.941 93.5209903,45.818 C93.7259903,45.244 93.8899903,44.67 94.1359903,44.137 C94.3409903,43.727 94.5049903,43.276 94.6279903,42.825 C94.7099903,42.538 94.8739903,42.292 94.9559903,42.046 L95.7759903,39.914 C95.9399903,39.504 96.1039903,39.135 96.2679903,38.725 C96.3089903,38.643 96.3499903,38.561 96.3499903,38.479 C96.4319903,38.11 96.5959903,37.741 96.7599903,37.413 C97.2519903,36.183 97.7439903,35.035 98.2769903,33.805 C98.7689903,32.739 99.2199903,31.714 99.6709903,30.648 C100.12199,29.623 100.61399,28.639 101.06499,27.614 C101.39299,26.999 101.63899,26.384 101.96699,25.769 C102.17199,25.277 102.45899,24.744 102.70499,24.211 L104.18099,21.382 C104.75499,20.357 105.28799,19.291 105.82099,18.266 C106.14899,17.651 106.47699,17.077 106.88699,16.462 C106.92799,16.339 107.05099,16.216 107.13299,16.093 C107.21499,16.052 107.29699,16.052 107.37899,16.093 L107.50199,16.093 C107.66599,16.175 107.70699,16.298 107.66599,16.421 C107.46099,16.954 107.29699,17.528 107.05099,18.02 C106.84599,18.553 106.68199,19.086 106.43599,19.578 C106.14899,20.357 105.82099,21.054 105.45199,21.792 C105.28799,22.161 105.12399,22.571 104.91899,22.981 C104.63199,23.555 104.34499,24.17 104.13999,24.785 L104.13999,24.744 C103.93499,25.113 103.68899,25.4 103.64799,25.851 C103.56599,25.933 103.52499,26.056 103.48399,26.22 C103.48399,26.261 103.44299,26.302 103.40199,26.343 C103.31999,26.384 103.31999,26.507 103.27899,26.63 C102.99199,27.163 102.66399,27.778 102.49999,28.434 C102.37699,28.516 102.33599,28.639 102.29499,28.803 L102.33599,28.803 C102.17199,28.967 102.08999,29.131 102.08999,29.377 C102.00799,29.459 101.92599,29.582 101.92599,29.746 C101.92599,29.787 101.88499,29.787 101.84399,29.828 C101.55699,30.238 101.43399,30.73 101.26999,31.181 L101.14699,31.468 C100.90099,31.837 100.73699,32.329 100.57299,32.821 C100.49099,32.903 100.44999,32.985 100.44999,33.108 C100.40899,33.19 100.40899,33.272 100.40899,33.395 L100.32699,33.477 C100.16299,33.641 100.12199,33.846 100.08099,34.051 C99.9989903,34.133 99.9579903,34.215 99.9579903,34.338 C99.9989903,34.338 100.03999,34.297 100.08099,34.338 L99.9579903,34.338 L99.9579903,34.379 C99.8759903,34.42 99.8759903,34.502 99.8759903,34.584 C99.8759903,34.625 99.8349903,34.666 99.8349903,34.707 C99.7119903,34.789 99.7119903,34.912 99.6709903,35.035 L99.7119903,35.035 C99.5889903,35.076 99.5889903,35.199 99.5889903,35.322 C99.3839903,35.486 99.3019903,35.732 99.3019903,35.978 C99.2199903,36.06 99.1789903,36.142 99.1789903,36.265 L99.0559903,36.552 L99.0969903,36.552 C99.0149903,36.634 98.9739903,36.675 98.9739903,36.798 C98.9739903,36.839 98.9329903,36.88 98.8919903,36.88 C98.8099903,37.044 98.7689903,37.208 98.7689903,37.372 C98.7689903,37.413 98.7279903,37.454 98.7279903,37.495 C98.5639903,37.659 98.5229903,37.864 98.4409903,38.069 C98.3589903,38.151 98.3589903,38.274 98.3179903,38.356 L98.3589903,38.356 C98.2769903,38.438 98.2359903,38.52 98.2359903,38.643 C98.1539903,38.725 98.1539903,38.848 98.1539903,38.93 C98.0719903,39.012 98.0719903,39.094 98.0309903,39.217 L98.0719903,39.217 C98.0309903,39.217 97.9899903,39.258 97.9899903,39.299 C97.8669903,39.381 97.8669903,39.463 97.8259903,39.586 C97.7849903,39.627 97.7849903,39.709 97.8259903,39.791 C97.7029903,39.832 97.7029903,39.914 97.7029903,40.037 C97.7029903,40.078 97.7029903,40.119 97.6619903,40.16 L97.5389903,40.488 C97.4979903,40.529 97.4569903,40.652 97.4159903,40.734 C97.3339903,40.816 97.3339903,40.939 97.2929903,41.021 C97.2519903,41.103 97.2109903,41.185 97.2109903,41.308 C97.1699903,41.349 97.1699903,41.349 97.1699903,41.39 C97.1699903,41.472 97.1289903,41.554 97.1289903,41.554 C97.0059903,41.636 97.0059903,41.759 97.0059903,41.882 L97.1289903,41.882 C97.0879903,41.923 97.0469903,41.923 97.0469903,41.964 C97.0059903,42.046 97.0059903,42.087 97.0059903,42.128 L96.9239903,42.251 C96.9239903,42.21 96.9239903,42.169 96.8829903,42.128 C96.8829903,42.169 96.8419903,42.21 96.8009903,42.251 L96.8009903,42.456 L96.8829903,42.456 C96.9239903,42.538 97.0059903,42.579 97.0469903,42.538 C97.1699903,42.497 97.2109903,42.456 97.2929903,42.374 C98.0719903,41.759 98.8099903,41.103 99.5889903,40.488 C99.9579903,40.201 100.40899,39.955 100.77799,39.709 C100.94199,39.586 101.14699,39.504 101.39299,39.463 C101.59799,39.381 101.88499,39.422 102.08999,39.545 C102.54099,39.75 102.95099,39.996 103.31999,40.365 C103.56599,40.57 103.68899,40.857 103.77099,41.144 C103.85299,41.595 103.85299,42.046 103.72999,42.415 C103.68899,42.62 103.64799,42.866 103.64799,43.153 C103.64799,43.235 103.64799,43.358 103.60699,43.481 L103.56599,43.481 C103.64799,43.645 103.64799,43.768 103.60699,43.891 L103.56599,44.055 C103.56599,44.137 103.52499,44.219 103.52499,44.26 C103.44299,44.424 103.31999,44.629 103.40199,44.875 C103.44299,45.039 103.36099,45.162 103.31999,45.326 C103.44299,45.449 103.31999,45.613 103.36099,45.777 C103.36099,45.859 103.48399,45.941 103.56599,45.9 C103.77099,45.9 103.93499,45.736 104.13999,45.613 C105.16499,44.875 106.23099,44.219 107.29699,43.481 C107.78899,43.153 108.28099,42.784 108.81399,42.456 C109.38799,42.046 110.04399,41.636 110.65899,41.267 C111.23299,40.898 111.84799,40.488 112.46299,40.119 C112.70899,39.955 112.91399,39.873 113.20099,39.791 C113.40599,39.791 113.52899,39.75 113.73399,39.873 C113.93899,39.914 114.18499,39.996 114.30799,40.242 L114.26699,40.242 Z M103.52499,26.343 C103.52499,26.302 103.48399,26.302 103.48399,26.302 L103.48399,26.22 C103.52499,26.261 103.52499,26.302 103.52499,26.343 Z M103.40199,26.343 L103.52499,26.343 C103.48399,26.302 103.44299,26.302 103.40199,26.343 Z M102.04899,28.598 C101.96699,28.68 101.88499,28.803 101.92599,29.008 C102.04899,28.926 102.04899,28.762 102.04899,28.598 C102.13099,28.557 102.17199,28.434 102.17199,28.311 C102.49999,28.024 102.58199,27.573 102.70499,27.163 C102.82799,27.122 102.82799,26.999 102.82799,26.917 C102.74599,26.958 102.66399,27.04 102.70499,27.163 C102.45899,27.491 102.29499,27.901 102.17199,28.311 C102.08999,28.393 102.04899,28.516 102.04899,28.598 Z M101.72099,29.377 C101.51599,29.582 101.43399,29.746 101.43399,30.033 C101.59799,29.869 101.67999,29.623 101.72099,29.377 C101.84399,29.254 101.92599,29.131 101.88499,29.008 C101.76199,29.09 101.72099,29.172 101.72099,29.377 Z M101.92599,29.746 C101.92599,29.787 101.92599,29.787 101.96699,29.828 C101.96699,29.787 101.96699,29.787 101.92599,29.746 Z M101.35199,30.156 C101.31099,30.197 101.26999,30.279 101.26999,30.402 C101.35199,30.361 101.39299,30.238 101.35199,30.156 Z M96.0219903,43.399 C96.2269903,43.317 96.2269903,43.112 96.3089903,42.948 C96.5959903,42.333 96.7599903,41.718 97.0469903,41.103 C97.2929903,40.324 97.6619903,39.545 97.9489903,38.807 C98.6049903,37.044 99.3019903,35.281 99.9989903,33.559 C100.24499,33.067 100.40899,32.575 100.61399,32.083 C100.73699,31.837 100.85999,31.673 100.90099,31.386 C100.94199,31.304 100.98299,31.222 100.98299,31.099 C101.10599,31.017 101.14699,30.853 101.14699,30.73 C101.22899,30.648 101.26999,30.566 101.26999,30.443 C101.14699,30.484 101.10599,30.607 101.14699,30.73 C100.98299,30.771 100.94199,30.894 100.94199,31.099 C100.85999,31.14 100.85999,31.263 100.85999,31.345 C100.65499,31.509 100.61399,31.796 100.53199,32.001 C100.40899,32.165 100.36799,32.329 100.28599,32.534 C99.6709903,33.969 99.0969903,35.363 98.5229903,36.757 C98.1129903,37.782 97.7029903,38.848 97.2519903,39.914 C96.8829903,40.898 96.5139903,41.882 96.1039903,42.907 C96.0629903,43.071 95.9809903,43.194 96.0219903,43.399 Z M99.8759903,31.386 C99.8759903,31.468 99.8349903,31.55 99.8349903,31.632 C99.8759903,31.55 99.8759903,31.468 99.8759903,31.386 Z M99.5069903,32.329 C99.4249903,32.37 99.3839903,32.493 99.3839903,32.616 L99.5069903,32.616 C99.5069903,32.575 99.5479903,32.534 99.5479903,32.493 C99.5889903,32.534 99.5889903,32.575 99.5889903,32.616 L99.5889903,32.493 C99.5479903,32.452 99.5479903,32.37 99.5069903,32.329 Z M99.0559903,33.395 C98.9329903,33.436 98.9329903,33.518 98.9329903,33.641 C98.9739903,33.641 99.0149903,33.682 99.0149903,33.682 C99.0559903,33.641 99.0969903,33.6 99.0969903,33.559 C99.1379903,33.6 99.1379903,33.641 99.1379903,33.641 C99.1789903,33.641 99.1789903,33.6 99.2199903,33.559 L99.0969903,33.559 C99.0969903,33.477 99.0559903,33.436 99.0559903,33.395 L99.2199903,33.272 C99.2609903,33.272 99.2609903,33.231 99.3019903,33.19 C99.2609903,33.108 99.2609903,33.067 99.2609903,32.985 L99.3429903,32.903 C99.3429903,32.862 99.3429903,32.78 99.3019903,32.739 C99.2609903,32.821 99.2609903,32.903 99.2609903,32.985 C99.0969903,33.067 99.0559903,33.231 99.0559903,33.395 Z M100.44999,33.395 C100.44999,33.436 100.40899,33.436 100.40899,33.436 L100.40899,33.395 L100.44999,33.395 Z M100.40899,33.477 L100.32699,33.477 C100.36799,33.436 100.40899,33.436 100.40899,33.436 L100.40899,33.477 Z M98.8509903,33.805 C98.8509903,33.846 98.8509903,33.887 98.8099903,33.969 L98.8919903,33.969 C98.8919903,33.928 98.8509903,33.846 98.8509903,33.805 Z M98.7689903,34.051 C98.6869903,34.133 98.6459903,34.215 98.6869903,34.338 C98.7279903,34.297 98.7689903,34.297 98.7689903,34.256 L98.7689903,34.051 Z M98.6459903,34.338 C98.5229903,34.42 98.4819903,34.543 98.4819903,34.707 L98.6459903,34.584 C98.6869903,34.584 98.6869903,34.543 98.7279903,34.502 C98.7279903,34.543 98.7689903,34.584 98.7689903,34.584 L98.7689903,34.502 L98.7279903,34.502 C98.6869903,34.461 98.6869903,34.42 98.6459903,34.338 Z M98.1129903,35.65 C97.9899903,35.732 97.9899903,35.814 97.9899903,35.937 C98.0309903,35.937 98.1129903,35.896 98.1539903,35.855 C98.1129903,35.773 98.1129903,35.732 98.1129903,35.65 L98.2359903,35.568 L98.3179903,35.486 L98.3179903,35.568 C98.3589903,35.568 98.3589903,35.527 98.3999903,35.486 L98.2769903,35.486 C98.2769903,35.445 98.2769903,35.363 98.2359903,35.281 C98.3179903,35.199 98.3589903,35.117 98.3589903,35.035 C98.2769903,35.076 98.2359903,35.158 98.2359903,35.281 C98.1539903,35.404 98.0719903,35.527 98.1129903,35.65 Z M98.3179903,35.609 L98.2359903,35.609 C98.2359903,35.609 98.2769903,35.691 98.2769903,35.732 C98.3179903,35.691 98.3179903,35.609 98.3179903,35.609 Z M97.8669903,36.224 C97.7849903,36.306 97.7439903,36.388 97.7439903,36.511 C97.8259903,36.511 97.8669903,36.47 97.9079903,36.429 C97.9079903,36.388 97.8669903,36.306 97.8669903,36.224 C97.9079903,36.183 97.9899903,36.142 98.0309903,36.142 C98.0719903,36.183 98.0719903,36.265 98.1129903,36.306 C98.1129903,36.265 98.1129903,36.183 98.1539903,36.142 L98.0309903,36.142 C98.0309903,36.101 97.9899903,36.019 97.9899903,35.978 C97.9079903,36.06 97.8669903,36.142 97.8669903,36.224 Z M97.5799903,36.921 C97.4979903,37.003 97.4569903,37.085 97.4979903,37.208 C97.5389903,37.167 97.5799903,37.126 97.6619903,37.126 C97.6619903,37.167 97.7029903,37.208 97.7029903,37.249 L97.7029903,37.126 L97.6619903,37.126 C97.6209903,37.044 97.6209903,36.962 97.5799903,36.921 Z M98.8919903,36.921 L99.0149903,36.921 C99.0149903,36.962 98.9739903,37.044 98.9739903,37.085 C98.9329903,37.044 98.9329903,36.962 98.8919903,36.921 Z M97.3339903,37.454 C97.2519903,37.536 97.2109903,37.659 97.2519903,37.741 C97.0879903,37.946 96.9649903,38.151 96.9649903,38.397 C97.0469903,38.397 97.0879903,38.356 97.1699903,38.315 L97.1699903,38.52 C97.1699903,38.438 97.2109903,38.397 97.2109903,38.315 C97.2519903,38.315 97.2519903,38.274 97.2929903,38.274 L97.2109903,38.274 L97.2109903,38.315 L97.1699903,38.315 L97.1699903,38.274 C97.2109903,38.192 97.2109903,38.11 97.2109903,38.069 C97.2519903,38.028 97.2929903,37.987 97.2929903,37.946 C97.3339903,37.987 97.3339903,38.028 97.3339903,38.028 C97.3749903,38.028 97.3749903,37.987 97.4159903,37.946 C97.4979903,37.864 97.5389903,37.782 97.4979903,37.7 L97.4159903,37.7 C97.4159903,37.618 97.4159903,37.577 97.3749903,37.495 C97.4569903,37.454 97.4979903,37.413 97.5389903,37.372 C97.5799903,37.454 97.5799903,37.495 97.5799903,37.577 C97.6209903,37.495 97.6209903,37.454 97.6209903,37.372 L97.5389903,37.372 C97.4979903,37.29 97.4979903,37.249 97.4569903,37.208 C97.3749903,37.249 97.3339903,37.331 97.3339903,37.454 Z M97.4159903,37.946 L97.2929903,37.946 C97.2929903,37.905 97.2519903,37.823 97.2519903,37.741 L97.3339903,37.741 C97.3749903,37.823 97.3749903,37.864 97.4159903,37.946 Z M98.6049903,38.028 L98.6049903,38.069 L98.5639903,38.069 L98.6049903,38.028 Z M97.3339903,38.069 L97.2519903,38.069 C97.2519903,38.11 97.2519903,38.192 97.2929903,38.233 L97.3339903,38.069 Z M98.4819903,38.315 L98.4819903,38.356 L98.3589903,38.356 C98.3999903,38.356 98.4409903,38.315 98.4819903,38.315 Z M95.8579903,41.431 L95.9809903,41.308 C96.0219903,41.349 96.0219903,41.431 96.0629903,41.513 L96.0629903,41.308 C96.0629903,41.267 96.1039903,41.226 96.1039903,41.185 L96.0629903,41.185 L96.0629903,41.021 C96.1039903,41.062 96.1039903,41.103 96.1449903,41.185 C96.1859903,41.144 96.1859903,41.062 96.1859903,41.021 C96.1859903,40.98 96.2269903,40.98 96.2269903,40.939 L96.1449903,40.939 C96.1449903,40.857 96.1859903,40.775 96.1859903,40.734 C96.2269903,40.775 96.2269903,40.857 96.2269903,40.898 C96.2679903,40.857 96.2679903,40.775 96.2679903,40.734 L96.1859903,40.734 C96.2269903,40.693 96.2269903,40.652 96.2679903,40.611 C96.2679903,40.652 96.2679903,40.693 96.3089903,40.693 C96.3089903,40.693 96.3499903,40.652 96.3499903,40.611 C96.3909903,40.529 96.3909903,40.488 96.3909903,40.447 L96.4729903,40.365 L96.3909903,40.365 C96.3909903,40.283 96.3909903,40.201 96.4319903,40.16 L96.4729903,40.324 C96.4729903,40.283 96.5139903,40.201 96.5139903,40.16 L96.4319903,40.16 C96.4319903,40.119 96.4729903,40.078 96.4729903,40.037 L96.4319903,39.873 C96.4729903,39.873 96.5139903,39.832 96.5959903,39.791 C96.5549903,39.709 96.5549903,39.668 96.5549903,39.586 L96.6779903,39.463 C96.6779903,39.422 96.6369903,39.381 96.6369903,39.34 C96.6779903,39.34 96.7189903,39.299 96.7189903,39.299 L96.8009903,39.463 C96.8829903,39.381 96.9239903,39.34 96.8829903,39.217 L96.8009903,39.217 L96.8009903,39.012 L96.9239903,38.889 C96.9239903,38.971 96.9649903,39.012 96.9649903,39.094 C97.0059903,39.012 97.0059903,38.971 97.0059903,38.889 L96.9239903,38.889 C96.8829903,38.848 96.8829903,38.807 96.8419903,38.725 C96.9239903,38.684 96.9649903,38.643 97.0469903,38.643 C97.0059903,38.561 97.0059903,38.479 96.9649903,38.438 C96.8829903,38.479 96.8829903,38.602 96.8419903,38.725 C96.7599903,38.807 96.7189903,38.848 96.7189903,38.971 C96.6369903,39.053 96.5959903,39.176 96.5959903,39.299 C96.5549903,39.381 96.5139903,39.422 96.5549903,39.586 C96.4319903,39.627 96.3909903,39.75 96.4319903,39.873 C96.2269903,39.996 96.1859903,40.201 96.1859903,40.447 C95.9809903,40.693 95.8579903,41.021 95.8169903,41.39 C95.7349903,41.472 95.6939903,41.554 95.6939903,41.677 C95.6119903,41.718 95.5709903,41.841 95.5709903,41.964 C95.5299903,42.046 95.4889903,42.087 95.4889903,42.21 C95.4069903,42.292 95.3659903,42.415 95.3659903,42.538 C95.2429903,42.661 95.1199903,42.866 95.1199903,43.112 C95.0379903,43.194 94.9969903,43.235 94.9969903,43.358 C94.9559903,43.44 94.9149903,43.563 94.9149903,43.686 C94.7509903,43.85 94.6689903,44.096 94.5869903,44.301 C94.5049903,44.465 94.4639903,44.588 94.4639903,44.793 C94.6689903,44.793 94.6279903,44.547 94.7509903,44.465 C94.7509903,44.465 94.7919903,44.465 94.7919903,44.424 C94.8329903,44.465 94.8739903,44.465 94.8739903,44.424 C94.9969903,44.342 94.9969903,44.26 94.9969903,44.178 C95.0789903,44.096 95.0789903,44.014 95.0789903,43.85 C95.1609903,43.768 95.2019903,43.727 95.2019903,43.604 C95.2839903,43.522 95.3249903,43.399 95.3249903,43.276 C95.4069903,43.194 95.4479903,43.153 95.4479903,43.03 C95.5299903,42.948 95.5299903,42.825 95.5299903,42.702 C95.6119903,42.62 95.6119903,42.579 95.6119903,42.456 L95.5299903,42.456 L95.5299903,42.251 C95.5299903,42.21 95.5709903,42.169 95.6529903,42.128 C95.6529903,42.21 95.6939903,42.251 95.6939903,42.333 C95.6939903,42.251 95.7349903,42.21 95.7349903,42.128 L95.6529903,42.128 C95.6119903,42.087 95.6119903,42.046 95.5709903,41.964 C95.6529903,41.923 95.6939903,41.882 95.7349903,41.882 C95.7349903,41.8 95.7349903,41.718 95.6939903,41.677 C95.7759903,41.636 95.8169903,41.595 95.8579903,41.554 L95.8579903,41.431 Z M98.2359903,38.889 C98.2359903,38.848 98.1949903,38.889 98.1539903,38.93 C98.1949903,38.93 98.2359903,38.93 98.2359903,38.889 Z M96.5959903,40.037 L96.5139903,40.037 L96.5139903,40.119 C96.5549903,40.119 96.5959903,40.078 96.5959903,40.037 Z M96.3089903,40.447 C96.3089903,40.406 96.3499903,40.406 96.3909903,40.365 L96.3909903,40.447 L96.3089903,40.447 Z M96.3499903,40.611 L96.2679903,40.611 C96.2269903,40.57 96.2269903,40.488 96.1859903,40.447 L96.3089903,40.447 C96.3089903,40.488 96.3499903,40.529 96.3499903,40.611 Z M97.6619903,40.447 L97.6619903,40.488 L97.5389903,40.488 C97.5799903,40.447 97.6209903,40.447 97.6619903,40.447 Z M96.0629903,41.021 L96.1449903,40.939 C96.1449903,40.98 96.1449903,40.98 96.1859903,41.021 L96.0629903,41.021 Z M96.0629903,41.308 L95.9809903,41.308 L96.0629903,41.185 L96.0629903,41.308 Z M97.3339903,41.308 C97.2929903,41.349 97.2519903,41.349 97.2519903,41.39 C97.2109903,41.349 97.2109903,41.349 97.2109903,41.308 L97.3339903,41.308 Z M97.2109903,41.554 C97.1699903,41.554 97.1699903,41.472 97.1699903,41.39 L97.2109903,41.39 L97.2109903,41.554 Z M100.40899,41.472 L100.40899,41.431 C100.40899,41.431 100.40899,41.472 100.36799,41.472 L100.40899,41.472 Z M95.9399903,41.759 C95.9399903,41.677 95.9399903,41.636 95.9809903,41.554 L95.8989903,41.554 C95.8989903,41.636 95.8989903,41.677 95.9399903,41.759 Z M95.8169903,42.046 L95.8579903,41.882 L95.7759903,41.882 L95.8169903,42.046 Z M99.4659903,42.128 C99.5889903,42.087 99.6709903,42.087 99.7119903,41.964 C99.5889903,42.005 99.5069903,42.087 99.4659903,42.128 Z M99.2609903,42.333 C99.3019903,42.292 99.4249903,42.251 99.4249903,42.128 C99.3429903,42.169 99.3019903,42.251 99.2609903,42.333 Z M96.8829903,42.415 C96.8419903,42.374 96.8419903,42.292 96.8419903,42.251 L96.9239903,42.251 C96.9239903,42.292 96.8829903,42.374 96.8829903,42.415 Z M99.0149903,42.538 C99.0969903,42.497 99.1789903,42.456 99.2199903,42.333 C99.1379903,42.374 99.0559903,42.456 99.0149903,42.538 Z M95.4069903,42.579 C95.4479903,42.579 95.4889903,42.579 95.4889903,42.538 C95.5299903,42.62 95.5299903,42.62 95.5299903,42.702 L95.4479903,42.702 C95.4479903,42.661 95.4479903,42.62 95.4069903,42.579 Z M98.7279903,42.825 C98.8509903,42.743 98.9329903,42.661 98.9739903,42.538 C98.8509903,42.62 98.7279903,42.62 98.7279903,42.825 Z M95.3249903,43.03 C95.3249903,42.948 95.3659903,42.866 95.3659903,42.825 C95.4069903,42.866 95.4069903,42.948 95.4479903,43.03 L95.3249903,43.03 Z M98.3179903,43.112 C98.3589903,43.112 98.3999903,43.071 98.4409903,43.03 L98.3179903,43.112 Z M95.1609903,43.153 C95.2019903,43.153 95.2429903,43.112 95.2429903,43.112 L95.3249903,43.276 L95.2019903,43.276 C95.2019903,43.235 95.2019903,43.194 95.1609903,43.153 Z M97.0879903,43.194 C97.0059903,43.235 96.9239903,43.276 96.8829903,43.399 C96.9649903,43.358 97.0469903,43.276 97.0879903,43.194 Z M98.0309903,43.399 C98.1129903,43.358 98.1949903,43.276 98.2359903,43.194 C98.1539903,43.235 98.0719903,43.276 98.0309903,43.399 Z M95.0789903,43.399 L95.1609903,43.399 C95.1609903,43.44 95.2019903,43.522 95.2019903,43.604 L95.0789903,43.604 L95.0789903,43.399 Z M97.7849903,43.563 C97.9079903,43.563 97.9489903,43.481 97.9899903,43.399 C97.9079903,43.44 97.8259903,43.481 97.7849903,43.563 Z M94.9969903,43.727 L95.0379903,43.686 C95.0379903,43.727 95.0789903,43.768 95.0789903,43.85 L94.9969903,43.85 L94.9969903,43.727 Z M97.4979903,43.85 C97.5799903,43.809 97.6619903,43.768 97.7029903,43.727 C97.6209903,43.727 97.5389903,43.768 97.4979903,43.85 Z M94.9149903,44.178 C94.9149903,44.096 94.9149903,44.014 94.9559903,43.973 C94.9559903,44.014 94.9969903,44.096 94.9969903,44.178 L94.9149903,44.178 Z M97.1699903,44.178 C97.2929903,44.137 97.3749903,44.096 97.4159903,43.973 C97.2929903,44.014 97.2109903,44.055 97.1699903,44.178 Z M94.7919903,44.424 L94.8329903,44.26 C94.8329903,44.301 94.8739903,44.383 94.8739903,44.424 L94.7919903,44.424 Z M96.8829903,44.424 C97.0059903,44.424 97.0879903,44.342 97.1289903,44.26 C97.0059903,44.26 96.9239903,44.342 96.8829903,44.424 Z M96.5549903,44.793 C96.6369903,44.793 96.7599903,44.711 96.8009903,44.547 C96.6369903,44.588 96.5959903,44.67 96.5549903,44.793 Z M96.2269903,45.121 C96.3499903,45.039 96.4729903,44.957 96.5139903,44.834 C96.3909903,44.875 96.2679903,44.957 96.2269903,45.121 Z" id="Fintech" fill="#575757"></path>
    </g>
</svg>