<?xml version="1.0" encoding="UTF-8"?>
<svg width="15px" height="25px" viewBox="0 0 15 25" version="1.1" xmlns="http://www.w3.org/2000/svg" xmlns:xlink="http://www.w3.org/1999/xlink">
    <!-- Generator: Sketch 52.3 (67297) - http://www.bohemiancoding.com/sketch -->
    <title>61752</title>
    <desc>Created with Sketch.</desc>
    <g id="Page-1" stroke="none" stroke-width="1" fill="none" fill-rule="evenodd">
        <g id="61752" transform="translate(7.500000, 12.500000) rotate(-270.000000) translate(-7.500000, -12.500000) translate(-5.000000, 5.000000)" fill="#000000">
            <path d="M23.9177608,6.45343004 L3.69471305,6.45343004 L8.5202273,1.78652161 C8.94297307,1.37793895 8.94297307,0.715140526 8.5202273,0.306618314 C8.09748153,-0.102206105 7.41211338,-0.102206105 6.9899926,0.306618314 L0.317059329,6.75992747 C-0.105686443,7.16851012 -0.105686443,7.83136899 0.317059329,8.23983076 L6.9899926,14.6934421 C7.20130299,14.8979148 7.47823772,15 7.75510995,15 C8.03198218,15 8.30891691,14.8979148 8.5202273,14.6934421 C8.94297307,14.2848595 8.94297307,13.622061 8.5202273,13.2135993 L3.69471305,8.54644908 L23.9177608,8.54644908 C24.5153798,8.54644908 25,8.07784829 25,7.49990934 C25,6.92197038 24.5154423,6.45343004 23.9177608,6.45343004 Z" id="Path"></path>
        </g>
    </g>
</svg>