<?xml version="1.0" encoding="UTF-8"?>
<svg width="119px" height="106px" viewBox="0 0 119 106" version="1.1" xmlns="http://www.w3.org/2000/svg" xmlns:xlink="http://www.w3.org/1999/xlink">
    <!-- Generator: Sketch 52.3 (67297) - http://www.bohemiancoding.com/sketch -->
    <title>social-media</title>
    <desc>Created with Sketch.</desc>
    <g id="Page-1" stroke="none" stroke-width="1" fill="none" fill-rule="evenodd">
        <g id="Group-3" transform="translate(-888.000000, -4.000000)">
            <g id="Group-6" transform="translate(675.000000, 5.000000)">
                <g id="social-media" transform="translate(214.000000, 0.000000)">
                    <polygon id="Rectangle-path" stroke="#FFFFFF" stroke-width="2" fill="#000000" fill-rule="nonzero" points="38 0 76 0 76 4 38 4"></polygon>
                    <path d="M93,61.8125 C93,58.1942188 90.0313459,55.25 86.3835616,55.25 L82.6027397,55.25 L82.6027397,29 L78.8219178,29 L78.8219178,55.25 L74.0958904,55.25 C70.4478699,55.25 67.4794521,58.1944531 67.4794521,61.8125 C67.4794521,63.6495313 68.2493219,65.3075 69.4799795,66.5 C68.2493219,67.6925 67.4794521,69.3504688 67.4794521,71.1875 C67.4794521,72.4514844 67.8587158,73.6226563 68.4858596,74.6253125 C66.2244555,75.6699219 64.6438356,77.93 64.6438356,80.5625 C64.6438356,81.5728906 64.8945514,82.5192969 65.3076062,83.375 L50.4657534,83.375 C50.4657534,77.6419531 47.5691712,72.5682031 43.1515171,69.5175781 C47.4233733,67.9025 50.4657534,63.7974219 50.4657534,59 C50.4657534,57.9645313 49.6202671,57.125 48.5753425,57.125 L33.4520548,57.125 L33.4520548,38.375 L29.6712329,38.375 L29.6712329,57.125 C26.5440205,57.125 24,59.6482813 24,62.75 L24,104 L27.7808219,104 L27.7808219,62.75 C27.7808219,61.7164063 28.6281986,60.875 29.6712329,60.875 L46.4448493,60.875 C45.6047979,64.1058594 42.6399247,66.5 39.1232877,66.5 L33.4520548,66.5 C32.4071301,66.5 31.5616438,67.3395313 31.5616438,68.375 C31.5616438,69.4104688 32.4071301,70.25 33.4520548,70.25 C40.7478596,70.25 46.6849315,76.1377344 46.6849315,83.375 L46.6849315,85.25 C46.6849315,86.2854688 47.5304178,87.125 48.5753425,87.125 L59.6363733,87.125 C59.2233185,87.9807031 58.9726027,88.9271094 58.9726027,89.9375 C58.9726027,93.5557813 61.9412568,96.5 65.5890411,96.5 L65.5890411,104 L69.369863,104 L69.369863,96.5 L76.9315068,96.5 L77.8767123,96.5 C81.5247329,96.5 84.4931507,93.5555469 84.4931507,89.9375 C84.4931507,88.9163281 84.2362911,87.9610156 83.8147295,87.0982813 C87.3368014,86.9557813 90.1643836,84.0900781 90.1643836,80.5625 C90.1643836,79.2985156 89.7851199,78.1273438 89.157976,77.1246875 C91.4193801,76.0800781 93,73.82 93,71.1875 C93,69.3504688 92.2301301,67.6925 90.9994726,66.5 C92.2301301,65.3075 93,63.6495313 93,61.8125 Z M77.8767123,92.75 L76.9315068,92.75 L67.4794521,92.75 L65.5890411,92.75 C64.0254349,92.75 62.7534247,91.4883594 62.7534247,89.9375 C62.7534247,88.3866406 64.0254349,87.125 65.5890411,87.125 L71.260274,87.125 L77.8767123,87.125 C79.4403185,87.125 80.7123288,88.3866406 80.7123288,89.9375 C80.7123288,91.4883594 79.4403185,92.75 77.8767123,92.75 Z M83.5479452,83.375 L77.8767123,83.375 L71.260274,83.375 C69.6966678,83.375 68.4246575,82.1133594 68.4246575,80.5625 C68.4246575,79.0116406 69.6966678,77.75 71.260274,77.75 L74.0958904,77.75 L83.5479452,77.75 C85.1115514,77.75 86.3835616,79.0116406 86.3835616,80.5625 C86.3835616,82.1133594 85.1115514,83.375 83.5479452,83.375 Z M86.3835616,74 L83.5479452,74 L74.0958904,74 C72.5322842,74 71.260274,72.7383594 71.260274,71.1875 C71.260274,69.6366406 72.5322842,68.375 74.0958904,68.375 L86.3835616,68.375 C87.9471678,68.375 89.2191781,69.6366406 89.2191781,71.1875 C89.2191781,72.7383594 87.9471678,74 86.3835616,74 Z M86.3835616,64.625 L74.0958904,64.625 C72.5322842,64.625 71.260274,63.3633594 71.260274,61.8125 C71.260274,60.2616406 72.5322842,59 74.0958904,59 L86.3835616,59 C87.9471678,59 89.2191781,60.2616406 89.2191781,61.8125 C89.2191781,63.3633594 87.9471678,64.625 86.3835616,64.625 Z" id="Shape" stroke="#FFFFFF" stroke-width="2" fill="#000000" fill-rule="nonzero"></path>
                    <path d="M27.9953875,15.0427222 C27.9581137,14.500375 27.6987879,14.0005278 27.2815029,13.6720972 L25.38872,12.1815278 C24.9359794,9.80034722 22.9241021,8 20.5181223,8 C17.8032697,8 15.5888865,10.292875 15.5534309,13.1252639 C14.1008882,12.8615278 12.7124383,12.2823472 11.4694472,11.4125139 L10.8355649,10.9679167 C10.2798668,10.5778611 9.55893648,10.5353611 8.96414627,10.8654444 C8.3711743,11.1929306 8.00002702,11.8349167 8.00002702,12.5330972 L8.00002702,14.0826944 C8.00002702,16.3590417 8.66050098,18.5300833 9.88576427,20.3535694 L8.52572429,21.7832222 C8.0091182,22.324625 7.85797739,23.1354306 8.1404857,23.8390417 C8.42253944,24.5417083 9.08483164,25 9.81826229,25 L18.6289758,25 C22.1429427,25 25.0478009,22.2174306 25.4384942,18.64625 L27.4751449,16.5056667 C27.8426557,16.1191528 28.0326613,15.5860139 27.9953875,15.0427222 Z M22.3718131,16.4945694 C22.0345305,16.8477917 21.8461158,17.3256806 21.8461158,17.8226944 C21.8461158,19.6969444 20.402437,21.2222222 18.6287485,21.2222222 L14.0033853,21.2222222 C14.291121,20.5341944 14.1667992,19.7040278 13.6288288,19.1387778 C12.7801675,18.2460417 12.172877,17.122625 11.8655952,15.9116111 C13.6004189,16.6716528 15.4647919,17.0664306 17.3718934,17.0664306 C18.376923,17.0664306 19.1901287,16.2206806 19.1901287,15.1775417 L19.1901287,13.1944444 C19.1901287,12.4131528 19.7867371,11.7777778 20.5183495,11.7777778 C21.249962,11.7777778 21.8465704,12.4131528 21.8465704,13.1944444 C21.8465704,13.7856667 22.1129419,14.3426528 22.5656824,14.6996528 L23.4322988,15.3813056 L22.3718131,16.4945694 Z" id="Shape" stroke="#FFFFFF" stroke-width="2" fill="#000000" fill-rule="nonzero"></path>
                    <path d="M108.8125,15.3125 L101.6875,15.3125 L101.6875,8.1875 C101.6875,7.53170773 101.155792,7 100.5,7 C95.2530823,7 91,11.2530823 91,16.5 C91,21.7469177 95.2530823,26 100.5,26 C105.746918,26 110,21.7469177 110,16.5 C110,15.8442077 109.468292,15.3125 108.8125,15.3125 Z M100.052076,22.9999968 C96.387187,23.0034387 93.3312015,20.1949496 93.0250295,16.5409309 C92.7182842,12.8863386 95.2634099,9.60804721 98.8778439,9 L98.8778439,15.95124 C98.8778439,16.6000147 99.403611,17.1260328 100.052076,17.1260328 L107,17.1260328 C106.422631,20.5156083 103.48877,22.9954078 100.052076,22.9999968 Z" id="Shape" fill="#000000" fill-rule="nonzero"></path>
                    <text id="$" font-family="Arial-BoldMT, Arial" font-size="18" font-weight="bold" fill="#303030">
                        <tspan x="51.4946289" y="34">$</tspan>
                    </text>
                    <path d="M67.3333333,11 L44.6666667,11 C41.5419722,11 39,13.5419722 39,16.6666667 L39,39.3333333 C39,42.4580278 41.5419722,45 44.6666667,45 L67.3333333,45 C70.4580278,45 73,42.4580278 73,39.3333333 L73,16.6666667 C73,13.5419722 70.4580278,11 67.3333333,11 Z M69.2222222,39.3333333 C69.2222222,40.3745833 68.3755278,41.2222222 67.3333333,41.2222222 L44.6666667,41.2222222 C43.6244722,41.2222222 42.7777778,40.3745833 42.7777778,39.3333333 L42.7777778,16.6666667 C42.7777778,15.6254167 43.6244722,14.7777778 44.6666667,14.7777778 L67.3333333,14.7777778 C68.3755278,14.7777778 69.2222222,15.6254167 69.2222222,16.6666667 L69.2222222,39.3333333 Z" id="Shape" stroke="#FFFFFF" stroke-width="2" fill="#000000" fill-rule="nonzero"></path>
                    <path d="M28.3333333,0 L5.66666667,0 C2.54197222,0 0,2.54197222 0,5.66666667 L0,28.3333333 C0,31.4580278 2.54197222,34 5.66666667,34 L28.3333333,34 C31.4580278,34 34,31.4580278 34,28.3333333 L34,5.66666667 C34,2.54197222 31.4580278,0 28.3333333,0 Z M30.2222222,28.3333333 C30.2222222,29.3745833 29.3755278,30.2222222 28.3333333,30.2222222 L5.66666667,30.2222222 C4.62447222,30.2222222 3.77777778,29.3745833 3.77777778,28.3333333 L3.77777778,5.66666667 C3.77777778,4.62541667 4.62447222,3.77777778 5.66666667,3.77777778 L28.3333333,3.77777778 C29.3755278,3.77777778 30.2222222,4.62541667 30.2222222,5.66666667 L30.2222222,28.3333333 Z" id="Shape" stroke="#FFFFFF" stroke-width="2" fill="#000000" fill-rule="nonzero"></path>
                    <path d="M111.333333,0 L88.6666667,0 C85.5419722,0 83,2.54197222 83,5.66666667 L83,28.3333333 C83,31.4580278 85.5419722,34 88.6666667,34 L111.333333,34 C114.458028,34 117,31.4580278 117,28.3333333 L117,5.66666667 C117,2.54197222 114.458028,0 111.333333,0 Z M113.222222,28.3333333 C113.222222,29.3745833 112.375528,30.2222222 111.333333,30.2222222 L88.6666667,30.2222222 C87.6244722,30.2222222 86.7777778,29.3745833 86.7777778,28.3333333 L86.7777778,5.66666667 C86.7777778,4.62541667 87.6244722,3.77777778 88.6666667,3.77777778 L111.333333,3.77777778 C112.375528,3.77777778 113.222222,4.62541667 113.222222,5.66666667 L113.222222,28.3333333 Z" id="Shape-Copy" stroke="#FFFFFF" stroke-width="2" fill="#000000" fill-rule="nonzero"></path>
                    <rect id="Rectangle-path" stroke="#FFFFFF" stroke-width="2" fill="#000000" fill-rule="nonzero" x="55" y="68" width="4" height="4"></rect>
                </g>
            </g>
        </g>
    </g>
</svg>