<?xml version="1.0" encoding="UTF-8"?>
<svg width="110px" height="110px" viewBox="0 0 110 110" version="1.1" xmlns="http://www.w3.org/2000/svg" xmlns:xlink="http://www.w3.org/1999/xlink">
    <!-- Generator: Sketch 52.3 (67297) - http://www.bohemiancoding.com/sketch -->
    <title>gadget</title>
    <desc>Created with Sketch.</desc>
    <g id="Page-1" stroke="none" stroke-width="1" fill="none" fill-rule="evenodd">
        <g id="gadget" transform="translate(1.000000, 1.000000)" fill="#000000" fill-rule="nonzero" stroke="#FFFFFF" stroke-width="2">
            <path d="M8.97435897,23.3684211 C8.97435897,22.3801911 9.77801978,21.5789474 10.7692308,21.5789474 L70,21.5789474 L70,18 L10.7692308,18 C7.79559801,18 5.38461538,20.4037316 5.38461538,23.3684211 L5.38461538,75.2631579 L1.79487179,75.2631579 C0.803660801,75.2631579 0,76.0644017 0,77.0526316 L0,82.4210526 C0,84.3975124 1.6073216,86 3.58974359,86 L35.8974359,86 L35.8974359,82.4210526 L3.58974359,82.4210526 L3.58974359,78.8421053 L35.8974359,78.8421053 L35.8974359,75.2631579 L8.97435897,75.2631579 L8.97435897,23.3684211 Z" id="Shape"></path>
            <polygon id="Shape" points="81 54 85 54 85 58 81 58"></polygon>
            <path d="M79.3333333,50 L100.666667,50 C103.611979,50 106,47.6013183 106,44.6428571 L106,5.35714286 C106,2.3986817 103.611979,0 100.666667,0 L79.3333333,0 C76.3880209,0 74,2.3986817 74,5.35714286 L74,44.6428571 C74,47.6013183 76.3880209,50 79.3333333,50 Z M100.666667,46.4285714 L79.3333333,46.4285714 C78.3515624,46.4285714 77.5555556,45.6290109 77.5555556,44.6428571 L77.5555556,39.2857143 L102.444444,39.2857143 L102.444444,44.6428571 C102.444444,45.6290109 101.648438,46.4285714 100.666667,46.4285714 Z M79.3333333,3.57142857 L100.666667,3.57142857 C101.648438,3.57142857 102.444444,4.37098906 102.444444,5.35714286 L102.444444,35.7142857 L77.5555556,35.7142857 L77.5555556,5.35714286 C77.5555556,4.37098906 78.3515624,3.57142857 79.3333333,3.57142857 Z" id="Shape"></path>
            <polygon id="Shape" points="88 41 92 41 92 45 88 45"></polygon>
            <path d="M48,41.2222222 C47.9913196,33.3715278 41.6284722,27.0086804 33.7777778,27 C32.7960069,27 32,27.7960069 32,28.7777778 L32,41.2222222 C32,42.2039931 32.7960069,43 33.7777778,43 L46.2222222,43 C47.2039931,43 48,42.2039931 48,41.2222222 Z M35.5555556,39.4444444 L35.5555556,30.7031249 C40.0286458,31.467882 43.532118,34.9713542 44.2968751,39.4444444 L35.5555556,39.4444444 Z" id="Shape"></path>
            <path d="M41.1875,44.6875 L30.3125,44.6875 L30.3125,33.8125 C30.3125,32.8115539 29.5009461,32 28.5,32 C20.4915467,32 14,38.4915467 14,46.5 C14,54.5084533 20.4915467,61 28.5,61 C36.5084533,61 43,54.5084533 43,46.5 C43,45.4990539 42.1884461,44.6875 41.1875,44.6875 Z M28.5,57.375 C22.8430176,57.3803102 18.1259156,53.0473024 17.6533203,47.40979 C17.17984,41.7713928 21.1083984,36.7135621 26.6875,35.7754515 L26.6875,46.5 C26.6875,47.5009461 27.4990539,48.3125 28.5,48.3125 L39.2245485,48.3125 C38.3333436,53.5420226 33.8047484,57.3679199 28.5,57.375 Z" id="Shape"></path>
            <path d="M55,27 L51.6008299,27 C51.1502074,27 50.7178423,27.199157 50.3991701,27.5532139 L47,31.3298209 L49.4033195,34 L52.3045643,30.776607 L55,30.776607 L55,27 Z" id="Shape"></path>
            <polygon id="Shape" points="59 27 66 27 66 31 59 31"></polygon>
            <polygon id="Shape" points="59 34 66 34 66 38 59 38"></polygon>
            <polygon id="Shape" points="13 67 35 67 35 71 13 71"></polygon>
            <polygon id="Shape" points="45 50 56 50 56 54 45 54"></polygon>
            <path d="M58,52.5 C58,55.5373535 60.4626465,58 63.5,58 C66.5373535,58 69,55.5373535 69,52.5 C69,49.4626465 66.5373535,47 63.5,47 C60.4626465,47 58,49.4626465 58,52.5 Z M63.5,50.6666667 C64.5124512,50.6666667 65.3333333,51.4875488 65.3333333,52.5 C65.3333333,53.5124512 64.5124512,54.3333333 63.5,54.3333333 C62.4875488,54.3333333 61.6666667,53.5124512 61.6666667,52.5 C61.6666667,51.4875488 62.4875488,50.6666667 63.5,50.6666667 Z" id="Shape"></path>
            <polygon id="Shape" points="88 9 99 9 99 13 88 13"></polygon>
            <polygon id="Shape" points="88 16 99 16 99 20 88 20"></polygon>
            <polygon id="Shape" points="88 23 92 23 92 27 88 27"></polygon>
            <polygon id="Shape" points="95 23 99 23 99 27 95 27"></polygon>
            <path d="M102.631579,61 L45.3684211,61 C42.4037316,61 40,63.4282039 40,66.4230769 L40,102.576923 C40,105.571796 42.4037316,108 45.3684211,108 L102.631579,108 C105.596268,108 108,105.571796 108,102.576923 L108,66.4230769 C108,63.4282039 105.596268,61 102.631579,61 Z M43.5789474,102.576923 L43.5789474,66.4230769 C43.5789474,65.4247859 44.3801911,64.6153846 45.3684211,64.6153846 L93.6842105,64.6153846 L93.6842105,104.384615 L45.3684211,104.384615 C44.3801911,104.384615 43.5789474,103.575214 43.5789474,102.576923 Z M104.421053,102.576923 C104.421053,103.575214 103.619809,104.384615 102.631579,104.384615 L97.2631579,104.384615 L97.2631579,64.6153846 L102.631579,64.6153846 C103.619809,64.6153846 104.421053,65.4247859 104.421053,66.4230769 L104.421053,102.576923 Z" id="Shape"></path>
            <polygon id="Shape" points="99 83 103 83 103 87 99 87"></polygon>
            <path d="M86.4166667,95.4 L86.4166667,75.6 L82.8333333,75.6 L82.8333333,95.4 L79.25,95.4 L79.25,81 L75.6666667,81 L75.6666667,95.4 L72.0833333,95.4 L72.0833333,84.6 L68.5,84.6 L68.5,95.4 L64.9166667,95.4 L64.9166667,79.2 L61.3333333,79.2 L61.3333333,95.4 L57.75,95.4 L57.75,88.2 L54.1666667,88.2 L54.1666667,95.4 L50.5833333,95.4 L50.5833333,72 L47,72 L47,97.2 C47,98.194043 47.8022257,99 48.7916667,99 L90,99 L90,95.4 L86.4166667,95.4 Z" id="Shape"></path>
        </g>
    </g>
</svg>