<?xml version="1.0" encoding="UTF-8"?>
<svg width="108px" height="108px" viewBox="0 0 108 108" version="1.1" xmlns="http://www.w3.org/2000/svg" xmlns:xlink="http://www.w3.org/1999/xlink">
    <!-- Generator: Sketch 52.3 (67297) - http://www.bohemiancoding.com/sketch -->
    <title>global</title>
    <desc>Created with Sketch.</desc>
    <g id="Page-1" stroke="none" stroke-width="1" fill="none" fill-rule="evenodd">
        <g id="global" transform="translate(1.000000, 1.000000)" fill="#000000" fill-rule="nonzero" stroke="#FFFFFF" stroke-width="2">
            <path d="M32.65625,84.7678125 L26.75,83.0679689 L26.75,80.8344532 C28.9451904,79.1861718 30.2423096,76.5951561 30.25,73.84 L30.25,72.08 C31.2164307,72.08 32,71.2919532 32,70.32 L32,68.56 C32,62.7282811 27.2985841,58 21.5,58 C15.7005617,58 11,62.7282811 11,68.56 L11,70.32 C11,71.2919532 11.7835695,72.08 12.75,72.08 L12.75,73.84 C12.7576904,76.5951561 14.0548096,79.1861718 16.25,80.8344532 L16.25,83.0679689 L10.3454591,84.7660939 C6.59338384,85.8566407 4.00769037,89.3078907 4,93.2352343 L4,100.24 C4,101.211953 4.7835695,102 5.75,102 L37.25,102 C38.2164307,102 39,101.211953 39,100.24 L39,93.2352343 C38.9914552,89.30875 36.4066164,85.8583593 32.65625,84.7678125 Z M21.5,61.52 C25.3477784,61.52 28.4735107,64.6429689 28.5,68.5127343 C27.9975586,68.3898439 27.5745851,68.0503907 27.3447266,67.5854689 L26.5662841,66.0153907 C26.3424073,65.5625 25.935669,65.2290625 25.4503174,65.0992968 C24.9641114,64.9695311 24.4462891,65.0554689 24.0284424,65.335625 L21.4248047,67.081875 C19.9884034,68.0478125 18.2982179,68.5625782 16.5704346,68.56 L14.5,68.5600096 C14.5,64.6721875 17.6342773,61.52 21.5,61.52 Z M16.5704346,72.08 C18.9895021,72.0834375 21.3547364,71.3624218 23.3653565,70.010625 L24.3240966,69.3678125 C24.8752443,70.3457811 25.7263185,71.1175 26.75,71.5678125 L26.75,73.84 C26.75,76.7558593 24.3992919,79.12 21.5,79.12 C18.6007081,79.12 16.25,76.7558593 16.25,73.84 L16.25,72.08 L16.5704346,72.08 Z M21.5,82.64 C22.0878906,82.6408593 22.6740724,82.5815625 23.25,82.4638282 L23.25,84.4 C23.2551271,84.9010157 23.4755859,85.37625 23.8532716,85.7028125 L21.5,87.48 L19.1458742,85.7028125 C19.5244141,85.37625 19.7448732,84.9010157 19.75,84.4 L19.75,82.4638282 C20.3259278,82.5815625 20.9121094,82.6408593 21.5,82.64 Z M35.5,98.48 L32,98.48 L32,93.2 L28.5,93.2 L28.5,98.48 L14.5,98.48 L14.5,93.2 L11,93.2 L11,98.48 L7.5,98.48 L7.5,93.2352343 C7.50427262,90.8779689 9.05432134,88.8060157 11.3059083,88.1503125 L15.1126711,87.0580468 L20.4498292,91.0885157 C21.0718995,91.5577343 21.9272461,91.5577343 22.5501711,91.0885157 L27.8873292,87.0597657 L31.6958008,88.1520311 C33.9465333,88.8077343 35.496582,90.8788282 35.5,93.2352343 L35.5,98.48 Z" id="Shape"></path>
            <path d="M73.3454591,30.7660939 C69.5933838,31.8566407 67.0076904,35.3078907 67,39.2352343 L67,46.24 C67,47.2119532 67.7835695,48 68.75,48 L100.25,48 C101.216431,48 102,47.2119532 102,46.24 L102,39.2352343 C101.991455,35.30875 99.4066164,31.8583593 95.65625,30.7678125 L89.75,29.0679689 L89.75,26.8344532 C91.9451904,25.1861718 93.2423096,22.5951561 93.25,19.84 L93.25,18.08 C94.2164307,18.08 95,17.2919532 95,16.32 L95,14.56 C95,8.72828114 90.2985841,4 84.5,4 C78.7005617,4 74,8.72828114 74,14.56 L74,16.32 C74,17.2919532 74.7835695,18.08 75.75,18.08 L75.75,19.84 C75.7576904,22.5951561 77.0548096,25.1861718 79.25,26.8344532 L79.25,29.0679689 L73.3454591,30.7660939 Z M98.5,39.2352343 L98.5,44.48 L95,44.48 L95,39.2 L91.5,39.2 L91.5,44.48 L77.5,44.48 L77.5,39.2 L74,39.2 L74,44.48 L70.5,44.48 L70.5,39.2352343 C70.5042726,36.8779689 72.0543213,34.8060157 74.3059083,34.1503125 L78.1126711,33.0580468 L83.4498292,37.0885157 C84.0718995,37.5577343 84.9272461,37.5577343 85.5501711,37.0885157 L90.8873292,33.0597657 L94.6958008,34.1520311 C96.9465333,34.8077343 98.496582,36.8788282 98.5,39.2352343 Z M84.5,7.52 C88.3477784,7.52 91.4735107,10.6429689 91.5,14.5127343 C90.9975586,14.3898439 90.5745851,14.0503907 90.3447266,13.5854689 L89.5748292,12.0153907 C89.3509523,11.5625 88.9442138,11.2290625 88.4588622,11.0992968 C87.9735107,10.9695311 87.4556885,11.0554689 87.0369872,11.335625 L84.4333497,13.081875 C82.9969482,14.0478125 81.3067628,14.5625782 79.5789794,14.56 L77.5,14.5600096 C77.5,10.6721875 80.6342773,7.52 84.5,7.52 Z M79.5704346,18.08 C81.9895021,18.0834375 84.3547364,17.3624218 86.3653565,16.010625 L87.3240966,15.3678125 C87.8752442,16.3457811 88.7263185,17.1175 89.75,17.5678125 L89.75,19.84 C89.75,22.7558593 87.3992919,25.12 84.5,25.12 C81.6007081,25.12 79.25,22.7558593 79.25,19.84 L79.25,18.08 L79.5704346,18.08 Z M84.5,28.64 C85.0878906,28.6408593 85.6740724,28.5815625 86.25,28.4638282 L86.25,30.4 C86.2551271,30.9010157 86.4755859,31.37625 86.8532716,31.7028125 L84.5,33.48 L82.1458742,31.7028125 C82.5244141,31.37625 82.7448732,30.9010157 82.75,30.4 L82.75,28.4638282 C83.3259278,28.5815625 83.9121094,28.6408593 84.5,28.64 Z" id="Shape"></path>
            <path d="M104.233199,51.2367796 L54.7629223,51.2367796 L54.7629223,29.9958496 C61.0588571,29.8034951 67.2702479,28.483754 73.1003282,26.0987318 L71.7614284,22.8269817 C66.3557932,25.0394887 60.5999044,26.2703845 54.7629223,26.4627389 L54.7629223,3.69677457 C59.8372836,4.44980344 64.745145,8.39608776 68.7437278,15.0491354 L71.7717807,13.2291003 C69.9868686,10.1721315 67.7404156,7.40843847 65.1126524,5.03635502 C67.3780845,5.60565507 69.5995195,6.33625687 71.7614284,7.22125957 L73.1003282,3.95295976 C51.5709576,-4.85739 26.8125264,1.3945597 12.0475331,19.3689152 C-2.71746047,37.3432705 -4.03824376,62.8410124 8.78914106,82.2455185 L11.7343754,80.2917843 C6.71005042,72.7011169 3.89076916,63.8666152 3.5896893,54.7698903 L51.2293311,54.7698903 L51.2293311,76.0108204 C44.9325339,76.2040373 38.7220057,77.5237785 32.8919252,79.9079381 L34.230825,83.1796882 C39.6355976,80.9671813 45.3923493,79.7362855 51.2293311,79.543931 L51.2293311,104.233439 C51.2293311,105.209013 52.0204209,105.999995 52.9961267,105.999995 C82.2742074,106.012933 106.012935,82.2782965 105.999995,53.003335 C105.999995,52.0277616 105.208905,51.2367796 104.233199,51.2367796 Z M77.7312651,70.6688882 C75.7798533,70.6688882 74.1976739,69.086924 74.1976739,67.1357776 C74.1976739,65.1846311 75.7798533,63.6026669 77.7312651,63.6026669 C79.6826772,63.6026669 81.2648563,65.1846311 81.2648563,67.1357776 C81.2648563,69.086924 79.6826772,70.6688882 77.7312651,70.6688882 Z M51.2293311,3.68469862 L51.2293311,26.4730898 C45.1611475,26.2600336 39.1835466,24.9316668 33.5967455,22.5535452 C37.9498953,11.5582909 44.3812729,4.69908781 51.2293311,3.68469862 Z M30.3935658,21.0397246 C27.1584665,19.3809912 24.1166103,17.370327 21.3223473,15.0439598 C27.0230238,10.2739155 33.7270122,6.85207711 40.933951,5.03462975 C36.2279597,9.48120828 32.6193142,14.96029 30.3935658,21.0397246 Z M18.6781926,17.4263944 C21.8917246,20.1598972 25.4201398,22.4992029 29.1883835,24.3960072 C28.355022,26.8681495 27.6476134,29.3808328 27.0678836,31.9245692 C24.0708877,32.4257257 21.7338519,34.7952216 21.2766244,37.7995731 C20.8185345,40.8030623 22.3437761,43.7616973 25.0560834,45.1314679 C24.8982105,47.1593836 24.8033141,49.1950626 24.7713945,51.2367796 L3.56984731,51.2367796 C4.02189852,38.4327038 9.44047423,26.3066128 18.6781926,17.4263944 Z M28.2609883,42.404003 C26.3095765,42.404003 24.7273971,40.8220388 24.7273971,38.8708924 C24.7273971,36.9197459 26.3095765,35.3377817 28.2609883,35.3377817 C30.2124004,35.3377817 31.7945795,36.9197459 31.7945795,38.8708924 C31.7945795,40.8220388 30.2124004,42.404003 28.2609883,42.404003 Z M28.3015349,51.2367796 C28.3334545,49.4572856 28.4128223,47.6812419 28.5396383,45.9086487 C31.9213955,45.7904757 34.7389514,43.2829679 35.2488029,39.9387612 C35.7586546,36.5945547 33.8158696,33.3607579 30.6230423,32.2411346 C31.1346193,30.0657182 31.7333282,27.9463694 32.4200322,25.8813627 C38.3855553,28.3914585 44.7608579,29.7862436 51.2293311,29.9975746 L51.2293311,51.2367796 L28.3015349,51.2367796 Z M77.6907185,54.7698903 C77.6587989,56.5485216 77.5794311,58.3245653 77.4517525,60.0980212 C74.0708582,60.2161943 71.2524396,62.7245646 70.7434505,66.0687713 C70.233599,69.4121153 72.1763838,72.645912 75.3692113,73.7655354 C74.858497,75.9409518 74.2597878,78.0611633 73.5722214,80.1253072 C67.6066981,77.6152114 61.2313958,76.2204263 54.7629223,76.0090953 L54.7629223,54.7698903 L77.6907185,54.7698903 Z M54.7629223,102.321971 L54.7629223,79.542206 C60.8311061,79.755262 66.808707,81.0844916 72.3955079,83.4626131 C68.0423581,94.448379 61.6109808,101.308445 54.7629223,102.321971 Z M75.5952368,84.9660829 C78.836375,86.6265413 81.8834075,88.6415185 84.6819839,90.9721985 C78.9847584,95.7362047 72.2868085,99.1545928 65.0859088,100.972903 C69.7772341,96.5185611 73.3738021,91.0403418 75.5952368,84.9660829 Z M87.3373535,88.5992523 C84.1177827,85.8579862 80.5816033,83.5117799 76.8038701,81.6106627 C77.636369,79.1385205 78.34464,76.6258371 78.9235072,74.0821008 C81.9213658,73.5818068 84.2575391,71.2114484 84.715629,68.2079594 C85.1728565,65.2036077 83.6484776,62.2458352 80.9361703,60.875202 C81.0931803,58.8472864 81.187214,56.8124699 81.2208591,54.7698903 L102.434484,54.7698903 C101.956552,67.5722411 96.5466031,79.6931566 87.3373535,88.5992523 Z" id="Shape"></path>
        </g>
    </g>
</svg>