<?xml version="1.0" encoding="UTF-8"?>
<svg width="163px" height="75px" viewBox="0 0 163 75" version="1.1" xmlns="http://www.w3.org/2000/svg" xmlns:xlink="http://www.w3.org/1999/xlink">
    <!-- Generator: Sketch 52.3 (67297) - http://www.bohemiancoding.com/sketch -->
    <title>Profession</title>
    <desc>Created with Sketch.</desc>
    <g id="Page-1" stroke="none" stroke-width="1" fill="none" fill-rule="evenodd">
        <path d="M44.69,7.488 C44.772,8.39 44.854,9.251 44.813,10.153 C44.813,10.809 44.772,11.465 44.731,12.162 C44.69,12.613 44.608,13.105 44.567,13.597 L44.362,14.909 C44.239,15.647 44.075,16.426 43.952,17.205 C43.911,17.328 43.87,17.451 43.87,17.615 C43.583,18.517 43.337,19.46 43.05,20.403 C42.927,20.854 42.763,21.264 42.599,21.715 C42.517,21.92 42.435,22.084 42.394,22.289 C42.148,23.109 41.779,23.929 41.41,24.708 C41.369,24.79 41.369,24.831 41.369,24.913 C40.836,25.733 40.467,26.553 40.098,27.414 C40.016,27.619 39.934,27.824 39.893,28.029 C39.852,27.988 39.811,27.988 39.77,28.029 C39.401,28.562 39.032,29.095 38.868,29.71 L38.868,29.669 C38.581,29.956 38.376,30.284 38.253,30.653 L38.294,30.612 C38.048,30.94 37.802,31.268 37.597,31.596 C37.023,32.375 36.49,33.154 35.957,33.933 C35.834,34.056 35.752,34.22 35.629,34.384 C35.588,34.466 35.547,34.507 35.465,34.589 C35.055,35.081 34.604,35.573 34.194,36.106 C33.866,36.557 33.456,36.926 33.046,37.336 C32.964,37.418 32.882,37.459 32.841,37.541 C32.472,38.074 31.939,38.484 31.447,38.935 C30.75,39.55 30.012,40.124 29.315,40.698 C28.495,41.354 27.593,41.928 26.732,42.461 C25.502,43.24 24.19,43.937 22.878,44.511 C20.582,45.536 18.245,46.274 15.908,46.684 C14.514,46.971 13.12,47.094 11.726,47.053 C11.48,47.053 11.193,47.053 10.906,47.217 L10.783,47.381 C10.004,49.267 9.266,51.112 8.487,52.957 C7.954,54.269 7.421,55.581 6.847,56.893 C6.232,58.451 5.617,59.968 5.043,61.485 C4.551,62.633 4.1,63.781 3.649,64.929 L3.526,65.38 C3.362,65.585 3.28,65.79 3.198,66.036 C2.788,66.979 2.378,67.963 2.009,68.947 C1.886,69.275 1.804,69.562 1.681,69.931 C1.558,70.095 1.353,70.218 1.107,70.095 C0.861,70.218 0.697,70.177 0.574,70.013 C0.451,69.931 0.328,69.931 0.205,69.849 C0.041,69.767 -0.041,69.603 0.041,69.398 C0.041,69.357 0.082,69.316 0.082,69.234 C0.656,68.168 1.066,67.061 1.476,65.954 C1.927,64.683 2.419,63.412 2.952,62.182 C3.198,61.608 3.362,61.075 3.526,60.542 C3.69,60.132 3.854,59.763 3.977,59.353 L5.207,56.114 C5.617,55.089 6.027,54.105 6.437,53.121 C6.765,52.26 7.134,51.399 7.462,50.579 L7.831,49.718 C8.159,48.898 8.487,48.078 8.815,47.299 L8.897,46.971 C8.815,46.93 8.733,46.889 8.61,46.848 C7.79,46.725 6.97,46.52 6.15,46.233 C4.756,45.782 3.485,45.126 2.378,44.224 C1.722,43.65 1.148,42.994 0.779,42.215 C0.615,41.928 0.492,41.6 0.533,41.272 L0.943,40.657 C1.025,40.534 1.148,40.411 1.312,40.37 C1.353,40.37 1.394,40.411 1.476,40.411 C1.394,40.534 1.312,40.616 1.23,40.698 C0.984,40.944 0.902,41.231 1.025,41.518 C1.066,41.723 1.189,41.969 1.312,42.174 C1.681,42.83 2.173,43.363 2.747,43.855 C3.936,44.88 5.33,45.495 6.888,45.864 C7.462,45.987 8.036,46.069 8.61,46.151 C9.266,46.233 9.348,46.192 9.594,45.577 C10.25,44.101 10.865,42.625 11.521,41.149 L13.53,36.803 C13.981,35.901 14.391,34.958 14.801,34.056 L16.646,30.243 C16.933,29.669 17.22,29.095 17.466,28.521 C17.712,28.111 17.876,27.66 18.163,27.291 C18.286,27.086 18.409,26.881 18.491,26.676 L20.213,23.355 C20.992,21.797 21.894,20.28 22.755,18.763 C23.124,18.066 23.534,17.41 23.944,16.754 C24.436,15.893 24.969,15.073 25.502,14.212 L26.363,12.859 C27.183,11.711 28.003,10.522 28.823,9.374 C29.151,8.882 29.561,8.39 29.93,7.939 C30.586,7.119 31.283,6.299 31.939,5.52 L32.554,4.823 C33.497,3.88 34.481,2.978 35.547,2.158 C36.162,1.666 36.818,1.215 37.515,0.928 C38.786,0.354 39.975,0.313 41.041,0.887 C42.189,1.502 43.05,2.363 43.624,3.511 C44.239,4.741 44.526,6.094 44.69,7.488 Z M42.763,13.761 C43.009,11.998 43.173,10.276 43.132,8.595 C43.091,7.406 42.968,6.217 42.722,5.11 C42.517,4.29 42.312,3.47 41.861,2.773 C41.369,1.953 40.467,1.666 39.401,1.994 C38.704,2.199 38.007,2.609 37.392,3.06 C36.49,3.757 35.588,4.454 34.727,5.233 C34.727,5.397 34.604,5.52 34.481,5.643 L34.481,5.479 C34.44,5.52 34.399,5.602 34.399,5.643 C33.866,6.012 33.456,6.463 33.087,6.996 C33.046,7.037 32.964,7.037 32.964,7.078 C32.472,7.652 31.98,8.226 31.529,8.8 C31.447,8.882 31.406,9.005 31.365,9.087 C30.955,9.456 30.627,9.866 30.422,10.317 C30.299,10.44 30.176,10.522 30.094,10.645 C29.684,11.219 29.315,11.793 28.905,12.326 C28.126,13.392 27.429,14.499 26.732,15.565 C26.65,15.77 26.568,15.975 26.445,16.18 L26.322,16.385 C26.158,16.59 25.994,16.754 25.871,16.959 L23.083,21.838 C23.001,21.961 22.919,22.166 22.878,22.33 C22.796,22.412 22.714,22.494 22.673,22.576 C22.386,23.109 22.058,23.642 21.771,24.216 L21.648,24.585 C21.566,24.708 21.443,24.831 21.402,24.954 C20.705,26.266 20.008,27.619 19.311,28.972 C19.229,29.136 19.188,29.3 19.106,29.505 C19.024,29.669 18.901,29.792 18.819,29.956 C18.696,30.12 18.614,30.325 18.532,30.489 C17.958,31.719 17.343,32.949 16.769,34.179 C16.072,35.573 15.416,37.008 14.76,38.402 C14.596,38.771 14.391,39.181 14.309,39.591 L14.35,39.55 C14.35,39.591 14.35,39.591 14.309,39.591 L14.022,40.083 L11.931,44.757 L11.439,45.946 C11.685,46.233 11.685,46.233 11.972,46.233 L13.776,46.028 C15.211,45.823 16.605,45.495 18.04,45.044 C19.065,44.675 20.09,44.306 21.074,43.855 C23.247,42.871 25.297,41.682 27.265,40.206 C28.208,39.509 29.151,38.73 30.012,37.951 C31.365,36.721 32.595,35.409 33.743,33.974 C34.071,33.564 34.44,33.154 34.768,32.703 C35.752,31.309 36.695,29.915 37.515,28.439 L38.745,26.184 C38.991,25.692 39.155,25.2 39.401,24.749 C39.729,24.134 39.975,23.519 40.221,22.863 C40.754,21.551 41.246,20.239 41.615,18.886 C42.066,17.164 42.517,15.483 42.763,13.761 Z M31.4167083,7.3111501 L31.611,7.078 C31.57,7.078 31.529,7.119 31.488,7.119 C31.529,6.996 31.611,6.914 31.734,6.832 C31.734,6.873 31.693,6.955 31.652,7.037 C31.734,6.955 31.816,6.832 31.857,6.75 C31.816,6.791 31.816,6.791 31.775,6.791 C31.775,6.75 31.775,6.668 31.816,6.627 L32.021,6.504 L31.898,6.75 C32.062,6.668 32.185,6.545 32.226,6.422 C32.226,6.381 32.267,6.381 32.267,6.381 L32.267,6.34 C32.39,6.258 32.472,6.176 32.513,6.012 C32.431,6.094 32.349,6.135 32.267,6.176 C32.308,6.135 32.308,6.053 32.349,6.012 L32.677,5.766 C32.636,5.848 32.595,5.889 32.554,5.971 C32.718,5.93 32.841,5.807 32.923,5.684 L33.292,5.274 C33.538,5.11 33.743,4.905 33.825,4.659 C34.153,4.536 34.399,4.29 34.563,4.003 C34.604,3.798 34.768,3.634 34.891,3.511 L35.588,2.896 C35.629,2.855 35.711,2.814 35.629,2.732 L35.383,2.896 C34.317,3.716 33.374,4.7 32.472,5.684 C32.431,5.766 32.349,5.848 32.308,5.971 C32.062,6.135 31.898,6.34 31.775,6.586 C31.447,6.873 31.16,7.16 30.996,7.529 L30.75,7.857 C30.422,8.062 30.217,8.349 30.094,8.636 C30.176,8.636 30.217,8.595 30.299,8.554 C30.299,8.636 30.299,8.718 30.258,8.8 L30.381,8.595 L30.422,8.595 L30.422,8.513 L30.668,8.267 L30.914,7.939 L31.201,7.652 C31.242,7.57 31.283,7.488 31.365,7.406 C31.324,7.406 31.283,7.406 31.242,7.447 C31.283,7.283 31.365,7.201 31.488,7.119 C31.4509204,7.19315923 31.4473749,7.26731846 31.4167083,7.3111501 Z M11.07,46.069 C11.111,45.987 11.193,45.946 11.193,45.905 C11.439,45.372 11.644,44.88 11.849,44.388 C12.751,42.42 13.612,40.452 14.514,38.525 C15.375,36.639 16.277,34.753 17.138,32.867 L18.778,29.546 C19.352,28.357 19.967,27.209 20.582,26.061 C21.73,23.847 22.878,21.674 24.149,19.501 L25.338,17.41 C26.609,15.401 27.839,13.392 29.233,11.465 C30.217,10.153 31.201,8.841 32.267,7.57 C33.661,5.971 35.137,4.413 36.818,3.101 C36.859,3.019 36.941,2.937 36.982,2.896 C36.982,2.855 36.941,2.855 36.941,2.814 C36.859,2.896 36.777,2.937 36.695,2.978 C35.711,3.675 34.809,4.495 33.989,5.397 C32.759,6.627 31.652,7.939 30.627,9.292 L29.028,11.465 C28.29,12.572 27.593,13.638 26.855,14.745 C25.789,16.303 24.846,17.943 23.944,19.583 C23.042,21.1 22.222,22.658 21.361,24.175 C20.377,25.938 19.516,27.783 18.614,29.546 C17.835,31.063 17.097,32.621 16.359,34.138 C15.662,35.655 14.924,37.172 14.227,38.689 L12.013,43.65 C11.685,44.347 11.357,45.085 11.07,45.823 C11.029,45.905 10.947,45.987 11.07,46.069 Z M33.8962917,4.4668499 C33.8656251,4.51068154 33.8620796,4.58484077 33.825,4.659 C33.784,4.659 33.743,4.7 33.702,4.7 L33.8962917,4.4668499 Z M33.2907576,5.07025489 C33.2501759,5.11165238 33.21,5.19241414 33.21,5.233 L33.251,5.233 C33.251,5.17833333 33.2692222,5.14188889 33.2813704,5.11151852 L33.2907576,5.07025489 Z M32.9095597,5.49380195 C32.8730398,5.53743086 32.8365199,5.6064801 32.8,5.643 L32.882,5.643 C32.882,5.61054167 32.882,5.55238715 32.9023428,5.50922208 L32.9095597,5.49380195 Z M32.226,6.422 C32.144,6.422 32.103,6.463 32.021,6.504 L32.267,6.176 L32.267,6.34 C32.267,6.381 32.226,6.381 32.226,6.381 L32.226,6.422 Z M31.201,7.652 C31.119,7.693 31.037,7.693 30.955,7.734 C30.955,7.693 30.996,7.611 30.996,7.529 L31.242,7.406 C31.201,7.488 31.201,7.57 31.201,7.652 Z M30.914,7.939 C30.873,7.98 30.791,8.021 30.709,8.062 C30.709,7.98 30.709,7.898 30.75,7.857 L30.955,7.734 C30.955,7.816 30.955,7.898 30.914,7.939 Z M30.504,8.267 C30.586,8.185 30.627,8.103 30.709,8.062 C30.709,8.103 30.668,8.185 30.668,8.267 L30.504,8.267 Z M30.4439894,8.33512067 C30.422,8.37975419 30.422,8.4463771 30.422,8.513 C30.422,8.554 30.381,8.554 30.381,8.554 L30.381,8.595 L30.299,8.595 C30.3348058,8.52338831 30.3706117,8.4205069 30.4337258,8.3409723 L30.4439894,8.33512067 Z M29.561,9.251 L29.561,9.333 C29.602,9.333 29.602,9.333 29.643,9.292 C29.643,9.251 29.643,9.21 29.684,9.21 C29.889,9.087 30.012,8.882 30.053,8.718 C29.848,8.841 29.725,8.964 29.684,9.21 C29.643,9.21 29.602,9.251 29.561,9.251 Z M28.356625,10.978125 C28.331,11.014 28.3105,11.055 28.29,11.096 C28.249,11.137 28.208,11.219 28.167,11.301 C28.126,11.342 28.044,11.424 28.003,11.506 C28.085,11.424 28.126,11.383 28.167,11.301 L28.29,11.096 C28.3105,11.055 28.34125,11.014 28.372,10.978125 L28.356625,10.978125 Z M27.552,12.08 L27.47,12.203 C27.47,12.244 27.511,12.244 27.511,12.244 L27.593,12.121 L27.552,12.08 Z M26.732,13.351 L26.732,13.392 C26.814,13.31 26.855,13.228 26.896,13.187 C26.937,13.105 26.978,13.023 27.019,12.982 L27.06,12.941 L27.019,12.941 C26.978,13.023 26.937,13.105 26.896,13.146 C26.855,13.228 26.814,13.31 26.732,13.351 Z M26.24,14.253 C26.158,14.212 26.117,14.253 26.117,14.253 C26.076,14.294 26.076,14.335 26.076,14.376 C26.117,14.335 26.158,14.294 26.24,14.253 Z M26.65,16.057 C26.609,16.098 26.609,16.139 26.568,16.18 L26.65,16.057 Z M26.568,16.18 C26.527,16.262 26.486,16.303 26.404,16.385 C26.445,16.303 26.445,16.221 26.445,16.18 L26.568,16.18 Z M24.272,17.328 L24.149,17.533 C24.19,17.492 24.231,17.41 24.272,17.328 Z M22.796,19.829 L22.632,20.116 C22.714,20.034 22.755,19.911 22.796,19.829 Z M21.7709897,24.626 C21.7299931,24.626 21.6889966,24.6259966 21.648,24.585 C21.648,24.7079758 21.6070161,24.8309517 21.607,24.9539275 C21.6514445,24.8209959 21.6920057,24.7062439 21.7690454,24.6279703 L21.7709897,24.626 Z M37.064,32.006 C37.31,31.678 37.474,31.35 37.679,30.981 C37.474,31.104 37.392,31.268 37.269,31.473 C35.834,33.564 34.276,35.532 32.472,37.377 C32.308,37.5 32.226,37.664 32.103,37.787 C31.898,37.992 31.693,38.156 31.488,38.32 L31.365,38.484 C31.693,38.32 31.939,38.115 32.144,37.869 C32.267,37.746 32.431,37.623 32.595,37.5 L33.825,36.188 C35.014,34.876 36.08,33.441 37.064,32.006 Z M16.482,31.883 L16.482,31.924 L16.523,31.883 C16.523,31.842 16.523,31.842 16.564,31.801 L16.482,31.883 Z M31.6595049,37.4029995 C31.6980033,37.3261461 31.7365016,37.2514984 31.775,37.213 C31.857,37.131 31.939,37.049 31.98,36.967 L32.185,36.721 L32.185,36.885 C32.308,36.762 32.431,36.639 32.431,36.475 L32.513,36.475 C32.718,36.434 32.841,36.229 32.964,36.065 C33.21,35.86 33.456,35.614 33.62,35.327 C33.743,35.245 33.825,35.163 33.866,34.999 C33.989,34.958 34.071,34.835 34.112,34.712 C34.194,34.589 34.276,34.507 34.399,34.384 L34.522,34.179 L34.399,34.179 C34.44,34.097 34.44,34.056 34.481,33.974 C34.522,33.933 34.604,33.892 34.686,33.851 C34.768,33.728 34.809,33.646 34.85,33.482 C34.686,33.605 34.522,33.769 34.44,33.974 L34.481,33.974 C34.317,34.015 34.235,34.138 34.194,34.261 L33.825,34.63 C32.8,35.819 31.775,36.967 30.586,38.033 C30.545,38.074 30.545,38.115 30.504,38.197 L30.545,38.197 C30.791,38.033 31.037,37.828 31.324,37.623 C31.447,37.459 31.57,37.336 31.693,37.213 C31.693,37.2799902 31.693,37.3196165 31.6706449,37.3765889 L31.6595049,37.4029995 Z M34.153,34.507 C34.153,34.425 34.194,34.343 34.194,34.302 L34.44,34.179 C34.399,34.261 34.399,34.302 34.399,34.384 L34.153,34.507 Z M33.989,34.712 C34.071,34.63 34.112,34.548 34.153,34.507 C34.153,34.548 34.153,34.63 34.112,34.712 L33.989,34.712 Z M33.9016603,34.8051759 C33.866,34.8833685 33.866,34.9598633 33.866,34.999 L33.743,34.999 C33.7784101,34.9635899 33.8444025,34.8975975 33.8881518,34.8274355 L33.9016603,34.8051759 Z M13.53,38.156 C13.448,38.279 13.325,38.443 13.325,38.689 C13.489,38.484 13.489,38.32 13.53,38.156 Z M12.3,40.821 L12.3,40.903 C12.3,40.903 12.3,40.862 12.341,40.821 L12.341,40.78 L12.3,40.821 Z M10.496,47.545 C10.537,47.463 10.578,47.381 10.496,47.258 C10.414,47.381 10.332,47.504 10.291,47.627 C9.799,48.775 9.307,49.923 8.856,51.03 C8.405,52.096 7.995,53.162 7.585,54.187 L5.371,59.64 C4.92,60.829 4.469,62.018 3.977,63.248 L1.763,68.701 C1.722,68.783 1.681,68.865 1.64,68.988 C1.845,68.947 1.886,68.783 1.927,68.701 C2.296,67.758 2.665,66.856 2.993,65.954 C3.69,64.232 4.387,62.551 5.043,60.87 C5.699,59.271 6.314,57.631 6.97,56.032 L8.446,52.383 C8.856,51.399 9.307,50.374 9.717,49.349 C9.963,48.775 10.25,48.16 10.496,47.545 Z M8.405,49.759 L8.405,49.841 C8.405,49.8 8.446,49.8 8.446,49.759 L8.446,49.718 C8.446,49.759 8.446,49.759 8.405,49.759 Z M31.452123,52.137 C31.446998,52.12675 31.446998,52.1165 31.446998,52.096 L31.364998,52.178 C31.364998,52.219 31.323998,52.26 31.282998,52.301 C31.159998,52.342 31.077998,52.383 31.036998,52.506 C30.995998,52.547 30.954998,52.588 30.913998,52.588 C30.913998,52.629 30.872998,52.67 30.831998,52.711 C30.831998,52.752 30.790998,52.752 30.790998,52.793 C30.462998,52.957 30.257998,53.244 30.052998,53.531 L30.257998,53.531 C30.175998,53.654 30.052998,53.777 29.929998,53.941 C29.929998,53.859 29.929998,53.777 29.888998,53.736 C29.765998,53.818 29.642998,53.982 29.560998,54.146 C29.191998,54.515 28.863998,54.884 28.658998,55.376 L28.576998,55.458 C28.535998,55.499 28.494998,55.54 28.494998,55.581 C28.453998,55.622 28.412998,55.622 28.412998,55.622 C28.371998,55.704 28.412998,55.868 28.248998,55.909 C28.084998,55.95 27.920998,55.991 27.715998,55.909 C27.428998,55.786 27.182998,55.704 27.059998,55.376 C27.018998,55.253 26.895998,55.171 26.813998,55.089 C26.608998,54.884 26.567998,54.679 26.649998,54.433 C27.018998,53.326 27.305998,52.219 27.674998,51.071 C28.002998,50.087 28.371998,49.144 28.658998,48.16 C28.781998,47.709 28.904998,47.258 29.109998,46.848 L29.232998,46.602 C29.273998,46.52 29.355998,46.52 29.437998,46.561 C29.642998,46.684 29.806998,46.848 29.888998,47.094 C30.011998,47.422 29.970998,47.75 29.929998,48.078 C29.806998,48.939 29.437998,49.718 29.437998,50.538 C29.437998,50.661 29.355998,50.743 29.355998,50.825 C29.355998,50.907 29.355998,50.948 29.437998,51.03 C29.519998,51.112 29.601998,51.03 29.642998,50.989 L30.052998,50.62 C30.708998,49.964 31.446998,49.513 32.184998,48.98 C32.758998,48.57 33.332998,48.283 33.947998,47.914 C34.726998,47.463 35.546998,47.053 36.407998,46.643 C36.940998,46.397 37.555998,46.192 38.170998,46.11 C38.744998,46.028 39.236998,46.192 39.687998,46.643 C39.933998,46.889 40.179998,47.135 40.343998,47.422 C40.384998,47.504 40.343998,47.586 40.261998,47.668 C40.179998,47.75 40.138998,47.627 40.015998,47.627 C39.974998,47.627 39.974998,47.627 39.933998,47.586 C39.605998,47.258 39.359998,47.176 39.031998,47.299 C38.785998,47.381 38.580998,47.422 38.375998,47.504 C37.719998,47.75 37.104998,48.078 36.489998,48.365 C36.161998,48.529 35.874998,48.734 35.587998,48.939 C35.464998,49.021 35.300998,49.103 35.136998,49.185 C35.054998,49.226 34.931998,49.226 34.890998,49.349 C34.849998,49.513 34.603998,49.595 34.439998,49.718 L34.357998,49.8 L34.357998,49.841 C34.234998,49.882 34.111998,49.964 33.988998,50.005 L33.988998,50.046 C33.9498016,50.0851964 33.9106052,50.0869207 33.9072325,50.1228202 C33.9058044,50.0869912 33.865998,50.0863988 33.865998,50.046 L33.865998,50.005 C33.783998,50.046 33.660998,50.087 33.619998,50.21 C33.537998,50.292 33.414998,50.333 33.332998,50.415 C33.250998,50.497 33.127998,50.538 33.045998,50.661 L32.963998,50.743 C32.840998,50.784 32.758998,50.866 32.676998,50.948 L32.717998,50.948 C32.676998,50.989 32.635998,51.03 32.635998,51.071 C32.553998,51.071 32.512998,51.112 32.430998,51.153 L32.348998,51.276 C32.184998,51.317 32.061998,51.44 31.979998,51.563 L31.897998,51.686 C31.692998,51.768 31.528998,51.891 31.487998,52.096 L31.446998,52.096 C31.467498,52.1165 31.477748,52.12675 31.482873,52.137 L31.452123,52.137 Z M37.033248,46.873625 C36.992248,46.889 36.961498,46.9095 36.940998,46.93 C37.022998,46.93 37.094748,46.9095 37.140873,46.889 L37.033248,46.873625 Z M37.719998,47.504 C37.842998,47.463 38.006998,47.381 38.088998,47.258 C37.596998,47.381 37.186998,47.545 36.735998,47.791 C35.177998,48.652 33.701998,49.513 32.389998,50.62 C30.995998,51.768 30.011998,53.203 28.740998,54.474 C28.658998,54.556 28.535998,54.679 28.535998,54.843 L28.535998,54.884 L28.576998,54.884 C28.822998,54.72 28.945998,54.474 29.109998,54.269 C30.216998,52.916 31.405998,51.604 32.840998,50.497 C34.316998,49.349 35.874998,48.119 37.719998,47.504 Z M34.070998,48.529 L34.070998,48.57 C34.111998,48.57 34.193998,48.57 34.234998,48.611 C34.234998,48.57 34.234998,48.529 34.193998,48.488 C34.152998,48.529 34.111998,48.529 34.070998,48.529 Z M33.373998,49.021 L33.578998,49.021 L33.578998,48.898 L33.373998,49.021 Z M33.209998,49.021 L33.209998,49.103 L33.414998,49.103 C33.414998,49.062 33.373998,49.021 33.373998,49.021 L33.209998,49.021 Z M32.922998,49.308 L33.127998,49.308 L33.127998,49.185 L32.922998,49.308 Z M32.471998,49.636 L32.676998,49.636 L32.676998,49.513 C32.594998,49.554 32.512998,49.595 32.471998,49.636 Z M33.619998,50.333 L33.619998,50.21 C33.578998,50.251 33.619998,50.251 33.619998,50.333 Z M30.995998,50.661 C30.872998,50.661 30.790998,50.743 30.749998,50.825 L30.954998,50.825 C30.954998,50.784 30.995998,50.702 30.995998,50.661 Z M33.086998,50.743 L33.004998,50.825 C33.004998,50.825 32.963998,50.784 32.963998,50.743 L33.086998,50.743 Z M32.922998,50.948 L32.881998,50.948 L33.004998,50.825 L33.004998,50.866 C32.963998,50.907 32.922998,50.907 32.922998,50.948 Z M30.534748,51.08125 C30.575748,51.0505 30.606498,51.0095 30.626998,50.948 C30.585998,50.9685 30.544998,50.99925 30.503998,51.035125 L30.534748,51.08125 Z M32.717998,51.071 L32.717998,50.948 L32.881998,50.948 L32.717998,51.071 Z M32.430998,51.153 L32.635998,51.153 L32.430998,51.276 L32.430998,51.153 Z M32.348998,51.358 L32.266998,51.481 C32.307998,51.44 32.348998,51.399 32.348998,51.358 Z M32.020998,51.686 C32.020998,51.645 31.979998,51.604 31.979998,51.563 L32.184998,51.563 C32.102998,51.604 32.061998,51.645 32.020998,51.686 Z M29.919748,51.701375 C29.960748,51.67575 29.991498,51.645 30.011998,51.604 C29.970998,51.604 29.929998,51.6245 29.888998,51.65525 L29.919748,51.701375 Z M31.774998,52.014 L31.733998,52.014 L31.815998,51.891 C31.815998,51.932 31.774998,51.973 31.774998,52.014 Z M31.405998,52.301 C31.405998,52.26 31.405998,52.219 31.364998,52.178 L31.487998,52.178 C31.446998,52.219 31.446998,52.26 31.405998,52.301 Z M31.323681,52.3769624 C31.319871,52.3418906 31.282998,52.3398818 31.282998,52.301 L31.405998,52.301 C31.3657041,52.3412939 31.3254101,52.3419878 31.3240343,52.3809179 L31.323681,52.3769624 Z M31.241998,52.506 L31.200998,52.506 L31.323998,52.383 C31.282998,52.424 31.241998,52.465 31.241998,52.506 Z M31.036998,52.588 L31.036998,52.506 L31.200998,52.506 C31.159998,52.547 31.118998,52.547 31.036998,52.588 Z M30.954998,52.711 L30.954998,52.588 L31.036998,52.588 L30.954998,52.711 Z M30.544998,53.203 C30.503998,53.244 30.462998,53.285 30.462998,53.326 L30.339998,53.408 L30.421998,53.326 L30.503998,53.203 L30.708998,52.998 C30.667998,53.039 30.626998,53.08 30.626998,53.121 C30.585998,53.162 30.544998,53.162 30.544998,53.203 Z M30.3374392,53.4261951 C30.3278679,53.4611301 30.292933,53.496065 30.257998,53.531 L30.298998,53.531 C30.298998,53.4966744 30.3277357,53.4623489 30.3370921,53.4280233 L30.3374392,53.4261951 Z M29.437998,54.556 C29.396998,54.556 29.396998,54.597 29.355998,54.638 L29.437998,54.515 L29.478998,54.515 L29.437998,54.556 Z M29.273998,54.761 C29.232998,54.802 29.232998,54.843 29.191998,54.843 C29.191998,54.802 29.232998,54.802 29.232998,54.761 L29.355998,54.638 C29.314998,54.679 29.273998,54.72 29.273998,54.761 Z M29.150998,54.884 C29.150998,54.925 29.150998,54.925 29.109998,54.966 L29.027998,55.048 C29.027998,55.007 29.068998,55.007 29.068998,54.966 L29.150998,54.884 Z M28.8694859,55.2117621 C28.9085773,55.2084207 28.945998,55.171 28.945998,55.171 L29.027998,55.048 L28.945998,55.13 C28.9068213,55.1691767 28.9050791,55.2083534 28.8692319,55.2117604 L28.8694859,55.2117621 Z M28.576998,55.581 L28.576998,55.458 L28.658998,55.458 C28.658998,55.499 28.617998,55.54 28.576998,55.581 Z M56.251996,48.57 L56.661996,48.57 C56.579996,48.693 56.456996,48.816 56.333996,48.857 C56.169996,48.898 56.046996,48.898 55.923996,48.939 C54.324996,49.472 54.324996,49.636 52.684996,49.923 C51.823996,50.087 50.921996,50.21 50.060996,50.169 C49.486996,50.169 48.994996,50.046 48.543996,49.759 L48.297996,49.636 C48.215996,49.595 48.133996,49.636 48.092996,49.718 C48.051996,49.841 47.969996,49.964 47.928996,50.087 C47.723996,50.661 47.477996,51.194 47.231996,51.727 C47.026996,52.096 46.862996,52.424 46.575996,52.711 C46.534996,52.752 46.493996,52.793 46.493996,52.834 C46.370996,53.162 46.083996,53.326 45.878996,53.572 C45.837996,53.613 45.796996,53.654 45.796996,53.695 L45.673996,53.818 L45.673996,53.777 C45.427996,54.023 45.140996,54.228 44.976996,54.556 C44.976996,54.597 44.976996,54.597 44.935996,54.638 C44.402996,54.925 43.910996,55.294 43.254996,55.212 C42.885996,55.171 42.557996,54.966 42.311996,54.679 C41.696996,54.023 41.573996,53.244 41.819996,52.383 C41.942996,52.014 42.106996,51.645 42.270996,51.235 C42.721996,50.169 43.336996,49.185 43.992996,48.242 C44.361996,47.75 44.771996,47.299 45.140996,46.848 C45.222996,46.766 45.304996,46.684 45.427996,46.602 C45.509996,46.52 45.632996,46.438 45.796996,46.52 C45.919996,46.602 46.083996,46.725 46.083996,46.971 C46.042996,47.176 46.001996,47.381 45.878996,47.586 C45.550996,48.078 45.181996,48.611 44.853996,49.144 C44.607996,49.513 44.361996,49.923 44.156996,50.333 C43.787996,51.194 43.377996,52.014 43.172996,52.957 C43.090996,53.162 43.049996,53.408 43.049996,53.654 C43.008996,53.777 43.131996,53.859 43.295996,53.818 C43.418996,53.777 43.541996,53.654 43.664996,53.572 C44.566996,52.793 45.304996,51.932 45.919996,50.948 C46.411996,50.128 46.780996,49.226 47.067996,48.324 C47.190996,47.955 47.354996,47.586 47.436996,47.217 C47.559996,46.848 47.805996,46.889 47.969996,47.094 C48.256996,47.422 48.543996,47.75 48.666996,48.201 C48.707996,48.488 48.871996,48.57 49.117996,48.57 C49.732996,48.611 50.306996,48.611 50.921996,48.529 C55.144996,47.996 54.160996,47.955 55.472996,47.627 C55.554996,47.586 55.677996,47.586 55.800996,47.586 C56.005996,47.586 56.292996,47.627 56.292996,47.832 L56.292996,47.873 C56.374996,48.037 56.620996,48.078 56.579996,48.242 C56.538996,48.447 56.333996,48.406 56.251996,48.57 Z M44.033996,54.105 L44.156996,53.982 C44.197996,53.982 44.279996,53.941 44.320996,53.9 L44.115996,53.9 C44.156996,53.859 44.156996,53.818 44.156996,53.818 C44.074996,53.818 44.033996,53.859 43.992996,53.859 C43.910996,53.9 43.787996,53.982 43.746996,54.105 L44.033996,54.105 Z M44.361996,54.638 C44.730996,54.515 45.017996,54.269 45.140996,53.9 C44.853996,54.105 44.566996,54.31 44.320996,54.597 C44.320996,54.597 44.279996,54.638 44.279996,54.679 C44.320996,54.638 44.320996,54.638 44.361996,54.638 Z M71.011994,47.791 C71.052994,47.791 71.052994,47.914 71.093994,47.955 C71.093994,48.078 71.093994,48.201 70.970994,48.242 L70.560994,48.365 C69.576994,48.529 68.592994,48.693 67.567994,48.857 C66.624994,49.021 65.640994,49.144 64.697994,49.308 C64.410994,49.349 64.164994,49.39 63.959994,49.513 C63.590994,49.677 63.344994,49.923 63.303994,50.374 C63.221994,50.948 63.098994,51.522 63.016994,52.096 L62.442994,55.745 C62.401994,56.114 62.278994,56.524 62.196994,56.893 C62.114994,57.139 62.073994,57.344 62.032994,57.59 C61.909994,58.246 61.745994,58.902 61.499994,59.517 L61.376994,59.845 C61.335994,60.337 61.171994,60.788 60.966994,61.198 C60.679994,61.895 60.392994,62.551 60.187994,63.248 C60.064994,63.453 59.982994,63.658 59.941994,63.863 C59.613994,64.478 59.326994,65.134 59.080994,65.831 C59.080994,65.872 59.039994,65.954 58.998994,66.036 C58.916994,66.118 58.875994,66.241 58.834994,66.323 C58.629994,66.692 58.424994,67.02 58.260994,67.43 C58.055994,67.922 57.768994,68.332 57.522994,68.783 L57.522994,68.906 C57.112994,69.357 56.866994,69.89 56.538994,70.382 C55.718994,71.53 54.816994,72.596 53.750994,73.58 C53.463994,73.867 53.135994,74.072 52.766994,74.277 C52.110994,74.646 51.331994,74.359 50.798994,73.949 C50.634994,73.826 50.593994,73.703 50.552994,73.539 C50.429994,73.252 50.429994,72.965 50.429994,72.678 C50.511994,71.817 50.593994,70.956 50.798994,70.136 C51.044994,68.947 51.331994,67.758 51.700994,66.569 C52.028994,65.339 52.438994,64.15 52.889994,62.92 C53.217994,62.059 53.504994,61.198 53.832994,60.337 C54.324994,59.066 54.816994,57.795 55.349994,56.524 C55.841994,55.253 56.374994,53.982 56.907994,52.752 L58.383994,49.431 C58.916994,48.242 59.490994,47.012 60.064994,45.823 C60.720994,44.47 61.376994,43.117 62.073994,41.764 C62.565994,40.78 63.057994,39.796 63.590994,38.812 C64.041994,38.033 64.410994,37.254 64.861994,36.475 C65.066994,36.065 65.312994,35.655 65.558994,35.286 C66.091994,34.343 66.624994,33.441 67.198994,32.539 C67.731994,31.719 68.264994,30.899 68.879994,30.12 L69.207994,29.751 C69.371994,29.628 69.535994,29.71 69.658994,29.874 C69.740994,29.915 69.740994,29.997 69.699994,30.038 C69.248994,30.407 69.084994,30.94 68.838994,31.432 C68.715994,31.637 68.633994,31.842 68.469994,32.047 C68.100994,32.621 67.854994,33.236 67.526994,33.851 L66.419994,35.983 C66.173994,36.434 65.968994,36.885 65.722994,37.295 L64.123994,40.493 C63.754994,41.231 63.385994,41.969 63.057994,42.789 C62.934994,43.117 62.770994,43.404 62.606994,43.691 C62.155994,44.593 61.704994,45.495 61.335994,46.438 C61.294994,46.643 61.171994,46.848 61.048994,47.012 C60.638994,47.873 60.310994,48.734 59.941994,49.595 C59.859994,49.718 59.777994,49.841 59.736994,50.005 L58.998994,51.809 C58.957994,51.932 58.834994,52.055 58.793994,52.178 L58.547994,52.793 L58.588994,52.793 C58.465994,52.998 58.342994,53.203 58.260994,53.449 C58.096994,54.105 57.768994,54.72 57.522994,55.335 C57.112994,56.319 56.743994,57.303 56.374994,58.328 C56.251994,58.533 56.169994,58.738 56.087994,58.984 C56.087994,59.025 56.087994,59.107 56.046994,59.148 C55.636994,59.845 55.472994,60.624 55.226994,61.362 L54.857994,62.141 C54.857994,62.182 54.816994,62.223 54.816994,62.264 C54.652994,63.002 54.406994,63.658 54.119994,64.355 C53.955994,64.765 53.791994,65.257 53.668994,65.708 C53.545994,66.241 53.340994,66.774 53.135994,67.307 L53.012994,67.84 C52.807994,68.619 52.561994,69.357 52.356994,70.136 L52.315994,70.423 C52.233994,70.833 52.151994,71.243 52.069994,71.612 C52.028994,71.735 52.069994,71.858 52.028994,71.981 C51.946994,72.145 51.987994,72.309 51.987994,72.473 C51.905994,72.637 51.905994,72.801 51.946994,72.965 C51.987994,73.088 52.151994,73.17 52.233994,73.088 C52.438994,72.924 52.684994,72.719 52.848994,72.514 C54.037994,71.243 55.103994,69.931 55.964994,68.414 C56.415994,67.676 56.825994,66.938 57.235994,66.2 C57.481994,65.831 57.645994,65.421 57.850994,65.011 C58.301994,64.068 58.711994,63.125 59.080994,62.141 C59.449994,61.239 59.777994,60.337 60.064994,59.435 C60.556994,58 60.925994,56.524 61.212994,54.966 C61.499994,53.367 61.745994,51.768 61.991994,50.169 C62.032994,49.841 62.073994,49.554 62.196994,49.267 C62.360994,48.816 62.688994,48.488 63.180994,48.365 L63.959994,48.201 C65.517994,47.996 67.116994,47.791 68.674994,47.586 L70.273994,47.463 C70.560994,47.463 70.806994,47.627 71.011994,47.791 Z M62.483994,43.486 C62.319994,43.609 62.237994,43.773 62.237994,43.937 C62.360994,43.855 62.401994,43.65 62.483994,43.486 Z M61.981744,44.56225 C62.002244,44.511 62.012494,44.4495 62.032994,44.388 C61.991994,44.429 61.950994,44.47 61.920244,44.516125 L61.981744,44.56225 Z M51.700994,72.637 C51.741994,72.596 51.741994,72.514 51.741994,72.473 C51.946994,70.833 52.356994,69.275 52.807994,67.717 C53.586994,65.011 54.529994,62.387 55.513994,59.763 C56.661994,56.729 57.932994,53.736 59.203994,50.784 C59.572994,49.964 59.900994,49.144 60.269994,48.324 C60.638994,47.627 60.925994,46.889 61.253994,46.192 C61.294994,46.151 61.253994,46.069 61.294994,46.028 C61.499994,45.741 61.622994,45.454 61.704994,45.085 C61.827994,45.003 61.868994,44.839 61.868994,44.716 C61.745994,44.798 61.704994,44.921 61.663994,45.085 C61.458994,45.331 61.335994,45.659 61.253994,45.987 C61.130994,46.069 61.089994,46.192 61.048994,46.274 C60.925994,46.52 60.802994,46.766 60.720994,47.012 C60.515994,47.422 60.351994,47.832 60.187994,48.242 C60.105994,48.365 60.023994,48.488 59.982994,48.652 C59.490994,49.718 58.998994,50.784 58.547994,51.85 C57.440994,54.474 56.333994,57.098 55.308994,59.804 C54.283994,62.51 53.340994,65.216 52.520994,68.004 C52.192994,69.152 51.905994,70.341 51.700994,71.571 C51.659994,71.94 51.577994,72.309 51.618994,72.719 C51.659994,72.678 51.700994,72.678 51.700994,72.637 Z M60.720994,45.536 C60.679994,45.577 60.638994,45.659 60.638994,45.7 L60.720994,45.7 L60.720994,45.536 Z M60.039369,47.006875 C60.064994,46.96075 60.085494,46.9095 60.105994,46.848 L60.187994,46.848 L60.187994,46.643 L60.269994,46.643 L60.269994,46.438 L60.187994,46.643 C60.146994,46.725 60.146994,46.766 60.105994,46.848 C60.044494,46.889 60.003494,46.93 59.977869,46.976125 L60.039369,47.006875 Z M59.8166258,47.3727226 C59.8073364,47.4344863 59.7721652,47.4746576 59.736994,47.545 L59.859994,47.545 C59.859994,47.4668859 59.8227878,47.425978 59.8192615,47.3513902 L59.8166258,47.3727226 Z M59.695994,47.791 C59.531994,47.914 59.449994,48.078 59.408994,48.242 C59.449994,48.242 59.490994,48.283 59.490994,48.283 L59.613994,48.16 C59.613994,48.037 59.654994,47.914 59.695994,47.791 Z M63.001619,49.0005 C63.016994,48.96975 63.037494,48.939 63.057994,48.898 C62.975994,48.9185 62.934994,48.939 62.924744,48.96975 L63.001619,49.0005 Z M58.752994,50.21 L58.752994,50.005 L58.629994,50.005 C58.629994,50.087 58.629994,50.169 58.670994,50.21 L58.752994,50.21 Z M58.670994,50.21 C58.629994,50.21 58.588994,50.251 58.547994,50.21 L58.670994,50.333 L58.670994,50.21 Z M57.891994,51.973 L57.973994,51.973 L57.973994,51.768 L57.891994,51.768 L57.891994,51.973 Z M54.898994,59.148 L55.021994,59.148 C55.021994,59.066 55.021994,59.025 54.980994,58.943 C54.980994,59.025 54.939994,59.107 54.898994,59.148 Z M54.3355602,60.855344 C54.3068837,60.8056486 54.283994,60.7672691 54.283994,60.706 L54.324994,60.706 C54.324994,60.7675 54.324994,60.8059375 54.3422909,60.8559062 L54.3355602,60.855344 Z M56.200744,70.356375 C56.241744,70.28975 56.272494,70.218 56.292994,70.136 C56.497994,70.054 56.620994,69.849 56.702994,69.644 C56.825994,69.562 56.907994,69.398 56.989994,69.275 L57.850994,67.799 C58.014994,67.512 58.219994,67.225 58.301994,66.897 C58.424994,66.733 58.547994,66.569 58.506994,66.323 C58.588994,66.282 58.629994,66.241 58.629994,66.159 C58.793994,66.036 58.834994,65.831 58.875994,65.667 C58.711994,65.749 58.629994,65.913 58.588994,66.118 C58.547994,66.2 58.506994,66.241 58.506994,66.323 C58.342994,66.446 58.301994,66.651 58.219994,66.815 L57.235994,68.537 C57.030994,68.865 56.825994,69.234 56.620994,69.603 C56.456994,69.767 56.333994,69.931 56.292994,70.136 C56.210994,70.177 56.159744,70.2385 56.123869,70.31025 L56.200744,70.356375 Z M57.522994,66.651 C57.440994,66.733 57.358994,66.815 57.358994,66.938 L57.440994,66.938 C57.481994,66.938 57.522994,66.897 57.563994,66.856 C57.522994,66.774 57.522994,66.733 57.522994,66.651 L57.604994,66.651 L57.604994,66.446 L57.522994,66.651 Z M57.317994,66.979 L57.276994,67.143 L57.358994,67.143 C57.358994,67.102 57.358994,67.02 57.317994,66.979 Z M55.683119,69.802875 C55.708744,69.75675 55.718994,69.7055 55.718994,69.644 C55.677994,69.685 55.636994,69.726 55.606244,69.772125 L55.683119,69.802875 Z M86.919992,47.504 C87.083992,47.668 87.329992,47.832 87.288992,48.16 C86.263992,48.529 85.320992,49.103 84.418992,49.718 C84.008992,50.005 83.557992,50.251 83.147992,50.497 C82.409992,51.071 81.548992,51.522 80.769992,52.055 C80.072992,52.588 79.334992,53.08 78.637992,53.654 C78.309992,53.9 77.981992,54.187 77.653992,54.474 L77.612992,54.474 C77.120992,54.843 76.628992,55.171 76.136992,55.499 C75.316992,56.073 74.455992,56.565 73.594992,57.016 C73.102992,57.262 72.610992,57.426 72.077992,57.467 C71.421992,57.508 70.888992,57.344 70.437992,56.893 C69.822992,56.237 69.617992,55.458 69.781992,54.515 C69.945992,53.408 70.355992,52.383 70.847992,51.358 C71.257992,50.497 71.790992,49.677 72.364992,48.857 C72.446992,48.734 72.528992,48.611 72.569992,48.447 C72.733992,48.037 73.020992,47.709 73.389992,47.463 C73.635992,47.299 73.840992,47.094 74.004992,46.848 C74.496992,46.315 75.070992,45.864 75.644992,45.413 C75.931992,45.249 76.259992,45.085 76.546992,44.962 C77.038992,44.798 77.448992,44.839 77.817992,45.208 C78.391992,45.782 78.432992,46.274 77.735992,47.012 C77.202992,47.586 76.628992,48.16 75.972992,48.611 C75.316992,49.021 74.701992,49.431 73.922992,49.554 C73.717992,49.554 73.553992,49.677 73.389992,49.882 C73.266992,50.005 73.143992,50.169 73.061992,50.333 C72.610992,51.112 72.159992,51.891 71.831992,52.67 C71.790992,52.752 71.790992,52.834 71.749992,52.916 L71.749992,53.039 C71.544992,53.367 71.503992,53.695 71.421992,54.064 C71.298992,54.474 71.216992,54.884 71.175992,55.335 C71.134992,55.581 71.134992,55.868 71.175992,56.114 C71.216992,56.319 71.339992,56.36 71.503992,56.319 C71.790992,56.278 72.077992,56.155 72.323992,56.032 C72.938992,55.745 73.512992,55.417 74.045992,55.048 C75.029992,54.433 75.972992,53.777 76.915992,53.162 C78.391992,52.178 79.826992,51.194 81.302992,50.251 C82.450992,49.513 83.598992,48.775 84.787992,48.119 C85.074992,47.955 85.402992,47.791 85.730992,47.627 C85.935992,47.504 86.099992,47.422 86.304992,47.34 C86.550992,47.299 86.755992,47.299 86.919992,47.504 Z M75.480992,46.069 L75.357992,46.151 L75.480992,46.151 L75.480992,46.274 C75.480992,46.233 75.521992,46.192 75.562992,46.151 L75.685992,46.069 C75.808992,46.028 75.931992,45.946 76.013992,45.864 C76.136992,45.782 76.259992,45.741 76.341992,45.659 C76.341992,45.618 76.341992,45.577 76.382992,45.536 C76.341992,45.495 76.341992,45.454 76.341992,45.454 C76.054992,45.577 75.808992,45.7 75.603992,45.946 L75.480992,46.069 Z M76.874992,45.946 C76.341992,46.069 75.726992,46.52 75.357992,47.053 C75.890992,46.684 76.341992,46.315 76.874992,45.946 Z M75.562992,46.151 L75.480992,46.151 L75.480992,46.069 L75.562992,46.069 C75.603992,46.028 75.603992,45.987 75.603992,45.946 L75.685992,46.069 L75.603992,46.069 C75.603992,46.11 75.562992,46.11 75.562992,46.151 Z M75.357992,46.192 C75.316992,46.192 75.275992,46.233 75.234992,46.274 L75.357992,46.274 L75.357992,46.192 Z M75.562992,47.217 C75.234992,47.463 74.947992,47.75 74.742992,48.119 C75.029992,48.078 75.275992,47.955 75.480992,47.75 C75.685992,47.586 75.890992,47.463 76.054992,47.299 C76.341992,47.053 76.587992,46.766 76.874992,46.479 C76.915992,46.438 76.915992,46.356 76.874992,46.315 C76.833992,46.274 76.792992,46.274 76.751992,46.315 C76.341992,46.479 75.931992,46.725 75.685992,47.094 L75.644992,47.094 C75.644992,47.135 75.603992,47.176 75.562992,47.176 L75.562992,47.217 Z M75.808992,47.996 C75.931992,47.955 75.972992,47.832 75.972992,47.709 C75.767992,47.873 75.521992,47.996 75.316992,48.201 C75.521992,48.242 75.685992,48.119 75.808992,47.996 Z M85.771992,47.914 C85.771992,47.955 85.730992,47.996 85.730992,47.996 L85.812992,47.996 L85.853992,47.955 C85.853992,47.914 85.812992,47.914 85.771992,47.914 Z M85.484992,48.119 L85.279992,48.201 C85.361992,48.201 85.443992,48.201 85.484992,48.119 Z M76.218992,54.146 C76.054992,54.228 75.890992,54.31 75.808992,54.474 C75.890992,54.433 76.013992,54.392 76.095992,54.392 C76.136992,54.31 76.218992,54.269 76.259992,54.187 L76.423992,54.187 L76.546992,54.064 L76.546992,54.146 C76.587992,54.146 76.628992,54.105 76.669992,54.064 L76.546992,54.064 C76.587992,54.023 76.628992,53.982 76.669992,53.982 C76.669992,53.941 76.710992,53.941 76.710992,53.9 L76.874992,53.859 C76.915992,53.818 76.956992,53.818 76.997992,53.777 L76.997992,53.859 L77.079992,53.777 L76.997992,53.777 L76.997992,53.736 C77.038992,53.736 77.079992,53.695 77.120992,53.654 L77.120992,53.736 C77.161992,53.736 77.161992,53.695 77.202992,53.654 C77.284992,53.613 77.366992,53.572 77.407992,53.572 L77.530992,53.449 L77.448992,53.449 L77.571992,53.367 L77.571992,53.449 C77.571992,53.408 77.612992,53.367 77.653992,53.367 C77.776992,53.326 77.899992,53.244 77.981992,53.162 L77.981992,53.08 L78.022992,53.121 L78.063992,53.08 L78.063992,53.039 L78.104992,53.039 C78.227992,52.998 78.350992,52.957 78.432992,52.834 L78.432992,52.793 L78.473992,52.793 L78.473992,52.834 C78.473992,52.793 78.514992,52.752 78.555992,52.752 L78.678992,52.629 C78.801992,52.629 78.924992,52.547 79.006992,52.424 C79.047992,52.383 79.088992,52.342 79.129992,52.342 C79.252992,52.301 79.375992,52.219 79.457992,52.137 L79.580992,52.014 C79.662992,51.973 79.703992,51.932 79.785992,51.932 L79.908992,51.809 C79.949992,51.768 79.990992,51.727 80.031992,51.727 C79.990992,51.686 79.949992,51.686 79.949992,51.686 L79.949992,51.645 C79.990992,51.645 79.990992,51.686 80.031992,51.686 C80.113992,51.686 80.154992,51.645 80.236992,51.604 L80.359992,51.481 C80.482992,51.44 80.564992,51.358 80.687992,51.317 L80.810992,51.194 C80.933992,51.153 81.056992,51.071 81.138992,50.989 C81.179992,50.948 81.220992,50.907 81.261992,50.907 C81.220992,50.866 81.179992,50.866 81.179992,50.866 L81.179992,50.825 C81.220992,50.825 81.220992,50.866 81.261992,50.866 C81.343992,50.866 81.384992,50.825 81.466992,50.784 C81.507992,50.743 81.548992,50.702 81.589992,50.702 L81.466992,50.702 C81.507992,50.661 81.507992,50.62 81.507992,50.579 C81.548992,50.62 81.548992,50.661 81.589992,50.661 C81.671992,50.62 81.753992,50.538 81.794992,50.456 L81.917992,50.456 C82.040992,50.415 82.122992,50.333 82.245992,50.292 L82.368992,50.169 C82.450992,50.087 82.532992,50.046 82.573992,49.964 C82.614992,49.923 82.614992,49.923 82.614992,49.882 L82.696992,49.964 C82.778992,49.882 82.860992,49.841 82.942992,49.759 L82.942992,49.677 C82.983992,49.718 83.024992,49.718 83.024992,49.759 C83.147992,49.677 83.270992,49.595 83.393992,49.554 L83.352992,49.554 C83.475992,49.472 83.598992,49.39 83.721992,49.349 L83.680992,49.349 C83.803992,49.267 83.926992,49.226 84.008992,49.144 L84.377992,48.939 C84.459992,48.857 84.582992,48.816 84.705992,48.734 C84.787992,48.652 84.869992,48.611 84.910992,48.529 C84.951992,48.488 84.951992,48.488 84.951992,48.447 L85.033992,48.529 C85.115992,48.447 85.197992,48.406 85.279992,48.324 C85.238992,48.283 85.238992,48.242 85.238992,48.201 C85.156992,48.242 85.033992,48.283 84.951992,48.406 C84.787992,48.447 84.705992,48.488 84.582992,48.611 C84.459992,48.652 84.336992,48.693 84.295992,48.816 C84.131992,48.857 84.008992,48.898 83.926992,49.021 C83.557992,49.185 83.229992,49.349 82.942992,49.636 C82.819992,49.677 82.696992,49.718 82.614992,49.841 C82.450992,49.882 82.368992,49.923 82.245992,50.046 C81.958992,50.169 81.712992,50.333 81.466992,50.579 C81.343992,50.579 81.261992,50.661 81.138992,50.784 C80.974992,50.825 80.810992,50.948 80.687992,51.071 C80.400992,51.194 80.154992,51.358 79.908992,51.604 C79.744992,51.645 79.580992,51.768 79.457992,51.891 C79.293992,51.932 79.129992,52.055 79.006992,52.178 C78.842992,52.26 78.678992,52.342 78.555992,52.506 C78.268992,52.67 77.940992,52.875 77.653992,53.121 C77.448992,53.203 77.284992,53.367 77.079992,53.531 C76.915992,53.613 76.792992,53.695 76.669992,53.818 C76.505992,53.9 76.341992,54.023 76.218992,54.146 Z M75.414367,55.63225 C75.470742,55.6015 75.521992,55.5605 75.562992,55.499 C75.685992,55.499 75.808992,55.417 75.890992,55.294 C76.136992,55.253 76.300992,55.089 76.505992,54.966 C77.120992,54.556 77.694992,54.105 78.309992,53.695 C78.760992,53.367 79.170992,52.998 79.621992,52.67 C80.564992,52.096 81.425992,51.481 82.327992,50.825 C82.614992,50.702 82.860992,50.538 83.106992,50.292 C83.188992,50.251 83.270992,50.251 83.352992,50.169 C84.049992,49.759 84.787992,49.308 85.484992,48.857 C85.607992,48.775 85.689992,48.734 85.730992,48.652 L85.976992,48.529 C86.038492,48.5085 86.099992,48.488 86.151242,48.45725 C86.058992,48.41625 86.017992,48.4675 85.976992,48.529 C85.894992,48.529 85.812992,48.529 85.730992,48.611 C85.648992,48.652 85.525992,48.652 85.443992,48.734 C84.623992,49.226 83.803992,49.677 83.065992,50.251 C82.778992,50.374 82.491992,50.538 82.245992,50.743 C82.081992,50.866 81.876992,50.948 81.712992,51.071 C80.974992,51.563 80.236992,52.055 79.580992,52.588 L79.170992,52.834 C78.227992,53.531 77.284992,54.228 76.341992,54.884 C76.177992,55.007 75.972992,55.13 75.890992,55.294 C75.726992,55.294 75.644992,55.376 75.562992,55.499 C75.501492,55.5195 75.439992,55.55025 75.383617,55.586125 L75.414367,55.63225 Z M86.151242,48.45725 C86.202492,48.4265 86.243492,48.3855 86.263992,48.324 C86.202492,48.324 86.151242,48.3445 86.105117,48.380375 L86.151242,48.45725 Z M75.778242,48.575125 C75.829492,48.5495 75.870492,48.5085 75.890992,48.447 C75.829492,48.447 75.778242,48.4675 75.732117,48.49825 L75.778242,48.575125 Z M82.245992,50.169 C82.286992,50.128 82.286992,50.128 82.286992,50.087 L82.368992,50.169 L82.245992,50.169 Z M80.687992,51.194 C80.728992,51.153 80.728992,51.153 80.728992,51.112 L80.810992,51.194 L80.687992,51.194 Z M79.785992,51.809 L79.908992,51.727 L79.908992,51.809 L79.785992,51.809 Z M79.457992,52.014 C79.498992,52.014 79.498992,51.973 79.498992,51.932 L79.580992,52.014 L79.457992,52.014 Z M77.571992,53.367 C77.612992,53.326 77.653992,53.285 77.653992,53.244 L77.653992,53.367 L77.571992,53.367 Z M75.655242,54.622625 C75.706492,54.58675 75.747492,54.5355 75.767992,54.474 C75.706492,54.4945 75.655242,54.515 75.609117,54.54575 L75.655242,54.622625 Z M75.188867,54.930125 C75.234992,54.9045 75.275992,54.8635 75.316992,54.802 C75.255492,54.802 75.204242,54.8225 75.158117,54.85325 L75.188867,54.930125 Z M100.20399,49.103 C101.26999,48.529 102.37699,49.185 98.85099,50.866 C97.29299,51.604 93.97199,53.613 92.61899,54.679 C92.57799,54.72 92.49599,54.761 92.45499,54.843 C92.20899,55.007 92.12699,55.212 92.20899,55.499 C92.33199,55.909 92.41399,56.36 92.49599,56.77 C92.74199,57.836 92.90599,58.902 92.94699,59.968 C92.98799,60.542 92.94699,61.075 92.90599,61.608 C92.82399,62.059 92.78299,62.469 92.65999,62.879 C92.61899,63.002 92.61899,63.084 92.61899,63.207 C92.61899,63.412 92.57799,63.576 92.45499,63.781 C92.45499,63.74 92.49599,63.699 92.45499,63.699 L92.45499,63.781 C92.41399,63.945 92.45499,64.109 92.24999,64.191 C92.20899,64.232 92.16799,64.314 92.12699,64.396 L91.63499,65.626 C91.47099,65.79 91.42999,65.954 91.34799,66.159 L91.47099,66.159 C91.42999,66.2 91.38899,66.282 91.34799,66.323 L91.34799,66.364 C91.26599,66.405 91.22499,66.487 91.18399,66.569 L91.22499,66.569 C91.14299,66.651 91.10199,66.733 91.06099,66.815 C89.50299,69.152 87.57599,71.079 85.19799,72.637 C84.37799,73.17 83.51699,73.539 82.57399,73.744 C82.08199,73.867 81.58999,73.867 81.17999,73.703 C80.85199,73.58 80.56499,73.416 80.27799,73.252 C79.74499,72.965 79.45799,72.514 79.41699,71.899 C79.33499,71.161 79.41699,70.464 79.62199,69.726 C79.94999,68.537 80.40099,67.348 81.01599,66.2 C81.79499,64.601 82.77899,63.125 83.84499,61.649 C84.45999,60.829 85.15699,60.05 85.85399,59.271 C86.75599,58.246 87.73999,57.262 88.76499,56.36 C89.25699,55.909 89.70799,55.458 90.24099,55.048 C90.44599,54.843 90.52799,54.638 90.44599,54.392 L90.11799,53.203 C89.87199,52.301 89.58499,51.358 89.33899,50.456 C89.17499,49.882 89.09299,49.267 89.17499,48.652 C89.21599,47.873 89.46199,47.176 89.99499,46.52 C90.44599,45.905 90.97899,45.331 91.55299,44.839 C92.41399,44.06 93.39799,43.404 94.50499,43.076 C94.75099,42.994 94.95599,42.953 95.20199,42.912 C95.44799,42.912 95.61199,43.035 95.77599,43.199 C95.85799,43.281 95.81699,43.445 95.69399,43.527 C95.36599,43.65 95.07899,43.814 94.75099,43.978 C94.29999,44.265 93.84899,44.511 93.39799,44.88 C93.23399,45.044 93.02899,45.208 92.78299,45.29 C92.82399,45.249 92.82399,45.167 92.86499,45.126 C92.90599,45.085 92.90599,45.044 92.94699,45.044 L93.06999,44.921 C93.31599,44.798 93.56199,44.634 93.76699,44.388 C93.93099,44.347 94.05399,44.224 94.21799,44.101 C94.25899,44.06 94.34099,44.06 94.38199,43.978 C94.29999,43.978 94.21799,43.978 94.17699,44.06 C93.97199,44.101 93.84899,44.224 93.68499,44.347 C93.43899,44.47 93.23399,44.634 93.02899,44.839 L92.90599,44.962 C92.86499,45.003 92.82399,45.044 92.78299,45.044 C92.70099,45.126 92.61899,45.208 92.57799,45.29 C92.53699,45.29 92.49599,45.331 92.45499,45.372 C92.29099,45.495 92.16799,45.618 92.12699,45.782 C92.24999,45.7 92.41399,45.577 92.49599,45.413 C92.53699,45.413 92.57799,45.372 92.61899,45.331 C92.65999,45.331 92.74199,45.331 92.78299,45.29 C92.74199,45.454 92.65999,45.577 92.53699,45.659 C92.37299,45.782 92.24999,45.946 92.16799,46.11 L92.04499,46.233 C91.88099,46.356 91.75799,46.561 91.67599,46.725 L91.67599,46.848 C91.63499,46.93 91.59399,46.971 91.55299,47.053 L91.42999,47.053 C91.22499,47.504 90.97899,47.996 90.81499,48.447 C90.60999,48.939 90.56899,49.431 90.60999,49.923 C90.69199,50.579 90.85599,51.235 91.06099,51.85 C91.18399,52.301 91.34799,52.752 91.51199,53.203 C91.51199,53.326 91.55299,53.408 91.59399,53.49 C91.71699,53.736 91.79899,53.777 92.08599,53.572 C92.33199,53.408 92.57799,53.244 92.82399,53.039 C93.72599,52.424 94.70999,51.891 95.69399,51.358 C98.44099,49.923 99.38399,49.554 100.20399,49.103 Z M92.57799,44.47 C92.41399,44.511 92.29099,44.634 92.16799,44.757 C92.16799,44.798 92.16799,44.839 92.20899,44.839 C92.20899,44.839 92.24999,44.798 92.29099,44.798 L92.33199,44.798 L92.45499,44.675 L92.45499,44.798 C92.49599,44.757 92.53699,44.716 92.53699,44.675 L92.45499,44.675 C92.49599,44.634 92.53699,44.634 92.57799,44.593 L92.57799,44.675 C92.57799,44.634 92.61899,44.634 92.65999,44.593 L92.78299,44.47 C93.06999,44.347 93.31599,44.142 93.56199,43.978 C93.60299,43.896 93.68499,43.855 93.64399,43.814 C93.56199,43.732 93.52099,43.773 93.47999,43.855 C93.15199,43.937 92.90599,44.142 92.70099,44.347 L92.57799,44.47 Z M92.61899,44.511 C92.61899,44.511 92.65999,44.511 92.70099,44.47 C92.70099,44.511 92.70099,44.552 92.65999,44.593 L92.57799,44.593 C92.57799,44.552 92.57799,44.511 92.61899,44.511 Z M91.79899,46.11 L91.79899,46.151 C91.83999,46.11 91.83999,46.069 91.88099,46.028 L91.79899,46.11 Z M95.032865,52.705875 C95.07899,52.67 95.11999,52.629 95.16099,52.588 C95.09949,52.6085 95.04824,52.63925 95.002115,52.675125 L95.032865,52.705875 Z M93.679865,52.92625 C93.72599,52.8955 93.76699,52.8545 93.80799,52.793 C93.74649,52.8135 93.69524,52.84425 93.649115,52.880125 L93.679865,52.92625 Z M94.704865,52.92625 C94.75099,52.8955 94.79199,52.8545 94.83299,52.793 C94.77149,52.8135 94.72024,52.84425 94.674115,52.880125 L94.704865,52.92625 Z M93.02899,53.326 C92.98799,53.367 92.94699,53.367 92.94699,53.408 L93.02899,53.408 L93.02899,53.531 L93.11099,53.408 L93.02899,53.408 L93.02899,53.326 C93.06999,53.326 93.11099,53.367 93.15199,53.408 C93.19299,53.326 93.27499,53.203 93.35699,53.121 C93.23399,53.162 93.11099,53.203 93.02899,53.326 Z M94.253865,53.23375 C94.29999,53.203 94.34099,53.162 94.38199,53.121 C94.32049,53.121 94.25899,53.1415 94.20774,53.17225 L94.253865,53.23375 Z M92.04499,54.105 L92.16799,54.105 C92.24999,54.105 92.29099,54.064 92.33199,54.023 L92.45499,53.941 L92.33199,53.941 C92.37299,53.9 92.37299,53.859 92.37299,53.859 C92.41399,53.859 92.45499,53.818 92.45499,53.818 L92.45499,53.9 C92.49599,53.9 92.53699,53.859 92.57799,53.818 C92.70099,53.736 92.78299,53.613 92.90599,53.531 L92.90599,53.408 C92.74199,53.449 92.57799,53.572 92.45499,53.695 L92.33199,53.818 C92.24999,53.859 92.16799,53.9 92.12699,53.941 C92.04499,53.982 92.00399,54.023 92.04499,54.105 Z M93.52099,53.736 C93.68499,53.654 93.84899,53.572 93.93099,53.408 C93.76699,53.449 93.60299,53.572 93.47999,53.695 C93.27499,53.777 93.06999,53.941 92.90599,54.105 C92.61899,54.269 92.33199,54.433 92.12699,54.72 L92.12699,54.761 L92.16799,54.761 C92.45499,54.638 92.70099,54.392 92.94699,54.146 C93.15199,54.064 93.35699,53.941 93.52099,53.736 Z M92.4966605,53.7445436 C92.5021213,53.7772292 92.5400556,53.7800656 92.57799,53.818 L92.45499,53.818 C92.4946367,53.7783533 92.4959453,53.7770447 92.4959885,53.7399288 L92.4966605,53.7445436 Z M86.7094852,58.9842427 C86.6703201,58.9876699 86.6311551,59.0268349 86.59199,59.066 C86.46899,59.148 86.38699,59.23 86.34599,59.353 L86.22299,59.476 C86.09999,59.517 86.01799,59.64 85.97699,59.763 L86.09999,59.763 L86.09999,59.886 C86.09999,59.845 86.14099,59.804 86.18199,59.763 C86.22299,59.722 86.26399,59.64 86.30499,59.558 L86.42799,59.476 L86.55099,59.353 L86.67399,59.271 L86.55099,59.271 C86.55099,59.189 86.59199,59.148 86.59199,59.066 L86.67399,59.066 L86.67399,59.23 L86.79699,59.066 C86.83799,59.025 86.87899,58.984 86.87899,58.943 L86.79699,58.943 C86.83799,58.902 86.87899,58.902 86.91999,58.861 L86.91999,58.943 L87.00199,58.861 L86.91999,58.861 L87.04299,58.738 L87.04299,58.861 C87.08399,58.82 87.08399,58.779 87.12499,58.738 L87.24799,58.533 C87.24799,58.492 87.20699,58.492 87.16599,58.451 L87.28899,58.451 L87.28899,58.533 C87.28899,58.492 87.32999,58.492 87.37099,58.451 L87.49399,58.328 C87.53499,58.287 87.57599,58.287 87.61699,58.246 L87.73999,58.123 C87.82199,58.041 87.90399,57.959 87.94499,57.836 L87.98599,57.836 C88.02699,57.795 88.02699,57.754 88.06799,57.713 L87.98599,57.713 C87.98599,57.713 88.02699,57.672 88.02699,57.631 L88.10899,57.631 L88.10899,57.713 C88.10899,57.672 88.14999,57.672 88.19099,57.631 L88.31399,57.508 C88.35499,57.467 88.39599,57.426 88.43699,57.426 C88.76499,57.18 89.01099,56.893 89.25699,56.606 L89.46199,56.401 C89.46199,56.401 89.4248764,56.3638864 89.38596,56.3602808 C89.42099,56.358683 89.42099,56.319 89.42099,56.319 L89.46199,56.319 C89.46199,56.319 89.46199,56.36 89.50299,56.401 C89.50299,56.36 89.54399,56.319 89.58499,56.278 L89.70799,56.196 L89.83099,56.073 L89.95399,55.991 L89.83099,55.991 C89.87199,55.95 89.87199,55.909 89.87199,55.909 C89.91299,55.909 89.91299,55.909 89.95399,55.868 L89.95399,55.95 C89.99499,55.95 89.99499,55.909 90.03599,55.868 L89.95399,55.868 C89.95399,55.868 89.99499,55.827 89.99499,55.786 L90.07699,55.786 L90.07699,55.868 C90.07699,55.827 90.11799,55.827 90.15899,55.786 L90.07699,55.786 C90.07699,55.745 90.11799,55.704 90.11799,55.704 C90.11799,55.704 90.15899,55.704 90.19999,55.663 C90.19999,55.7019758 90.19999,55.7409517 90.1647676,55.7447051 C90.2036599,55.7413301 90.2428249,55.7021651 90.28199,55.663 C90.32299,55.622 90.36399,55.581 90.40499,55.581 L90.52799,55.458 L90.44599,55.458 L90.44599,55.376 L90.52799,55.376 C90.52799,55.253 90.48699,55.294 90.40499,55.335 C90.36399,55.376 90.32299,55.417 90.28199,55.417 L90.15899,55.54 C90.11799,55.581 90.07699,55.622 90.07699,55.663 C90.03599,55.663 89.99499,55.704 89.95399,55.745 C89.91299,55.786 89.87199,55.827 89.83099,55.827 L89.70799,55.95 C89.66699,55.991 89.62599,56.032 89.58499,56.032 L89.46199,56.155 C89.46199,56.196 89.42099,56.237 89.37999,56.278 C89.33899,56.278 89.29799,56.319 89.25699,56.36 L89.13399,56.483 C88.72399,56.77 88.39599,57.098 88.06799,57.508 C88.06799,57.549 88.02699,57.549 87.98599,57.59 L87.86299,57.713 C87.61699,57.877 87.41199,58.082 87.28899,58.328 L87.16599,58.451 C86.96099,58.574 86.79699,58.738 86.71499,58.943 L86.79699,58.943 L86.79699,59.066 L86.67399,59.066 C86.67399,59.0270242 86.67399,58.9880483 86.7092124,58.9842949 L86.7094852,58.9842427 Z M82.86099,65.134 C82.73799,65.339 82.65599,65.503 82.57399,65.708 C82.77899,65.585 82.86099,65.38 82.94299,65.216 C83.43499,64.355 83.96799,63.576 84.54199,62.797 C85.68999,61.239 86.91999,59.763 88.27299,58.369 L90.44599,56.278 C90.52799,56.237 90.60999,56.155 90.65099,56.073 L90.65099,55.991 L90.60999,55.991 C90.52799,56.032 90.44599,56.073 90.40499,56.155 C89.33899,57.057 88.39599,58.041 87.45299,59.025 C85.68999,60.911 84.13199,62.92 82.86099,65.134 Z M89.66699,56.114 C89.66699,56.114 89.70799,56.114 89.70799,56.073 L89.70799,56.196 C89.66699,56.196 89.66699,56.155 89.62599,56.155 C89.62599,56.155 89.62599,56.114 89.66699,56.114 Z M87.86299,67.963 C88.64199,67.061 89.25699,66.077 89.83099,65.052 C90.65099,63.535 91.10199,61.936 91.14299,60.296 C91.18399,59.107 91.10199,57.877 90.93799,56.729 C90.89699,56.647 90.89699,56.565 90.85599,56.483 C90.81499,56.401 90.69199,56.36 90.60999,56.401 C90.28199,56.688 89.95399,56.934 89.66699,57.221 C89.01099,57.877 88.31399,58.533 87.69899,59.271 L87.20699,59.763 L87.20699,59.804 C87.16599,59.804 87.12499,59.845 87.12499,59.886 L87.08399,59.886 C87.00199,60.009 86.91999,60.091 86.83799,60.173 C86.46899,60.501 86.22299,60.952 85.89499,61.321 C85.73099,61.444 85.60799,61.608 85.52599,61.813 L85.52599,61.854 C85.48499,61.854 85.44399,61.895 85.40299,61.936 C85.11599,62.264 84.82899,62.592 84.66499,62.961 L84.54199,63.166 C84.37799,63.289 84.25499,63.494 84.17299,63.699 L84.17299,63.658 L84.04999,63.904 L84.04999,63.863 C83.68099,64.232 83.51699,64.683 83.27099,65.134 L83.27099,65.093 L83.14799,65.339 L83.14799,65.298 C83.10699,65.38 83.06599,65.462 83.02499,65.503 C82.73799,65.954 82.49199,66.364 82.32799,66.856 C82.20499,67.061 82.12299,67.266 82.04099,67.471 L82.08199,67.471 C81.91799,67.676 81.79499,67.922 81.79499,68.168 C81.63099,68.291 81.67199,68.455 81.58999,68.578 C81.30299,69.234 81.13899,69.89 81.13899,70.546 C81.09799,70.71 81.09799,70.874 81.09799,71.038 C81.01599,71.448 81.09799,71.817 81.17999,72.227 C81.22099,72.391 81.30299,72.514 81.38499,72.637 C81.50799,72.801 81.63099,72.842 81.83599,72.76 C82.32799,72.555 82.77899,72.35 83.22999,72.063 C84.00899,71.571 84.74699,71.038 85.48499,70.423 C86.34599,69.685 87.12499,68.865 87.86299,67.963 Z M88.10899,57.549 C88.14999,57.549 88.19099,57.508 88.23199,57.508 C88.23199,57.549 88.19099,57.59 88.19099,57.631 L88.10899,57.631 L88.10899,57.549 Z M87.9125336,57.7546705 C87.9452192,57.7601313 87.9480556,57.7980656 87.98599,57.836 L87.98599,57.713 C87.9463433,57.7526467 87.9450347,57.7539553 87.9079188,57.7539985 L87.9125336,57.7546705 Z M87.49399,58.246 L87.61699,58.123 L87.61699,58.246 L87.49399,58.246 Z M87.37099,58.451 L87.28899,58.451 L87.28899,58.328 L87.41199,58.328 C87.41199,58.369 87.37099,58.41 87.37099,58.451 Z M86.42799,59.476 L86.34599,59.476 L86.34599,59.353 L86.42799,59.353 C86.46899,59.312 86.50999,59.312 86.55099,59.271 L86.55099,59.353 L86.46899,59.353 C86.42799,59.394 86.42799,59.435 86.42799,59.476 Z M86.34599,59.476 C86.34599,59.517 86.34599,59.517 86.30499,59.558 L86.22299,59.476 L86.34599,59.476 Z M85.85399,59.886 C85.68999,59.968 85.56699,60.132 85.52599,60.296 L85.60799,60.296 L85.73099,60.173 L85.73099,60.296 C85.77199,60.255 85.81299,60.214 85.81299,60.173 L85.73099,60.173 C85.77199,60.132 85.81299,60.132 85.85399,60.091 L85.85399,59.886 Z M85.03399,60.911 C84.99299,60.952 84.95199,60.993 84.91099,60.993 L84.99299,60.993 C84.99299,60.993 85.03399,60.952 85.03399,60.911 L85.11599,60.911 L85.11599,60.993 L85.23899,60.911 L85.11599,60.911 L85.23899,60.788 C85.23899,60.747 85.23899,60.665 85.27999,60.583 L85.36199,60.583 C85.40299,60.583 85.44399,60.542 85.48499,60.501 L85.48499,60.296 C85.40299,60.378 85.32099,60.46 85.27999,60.583 C85.15699,60.665 85.07499,60.788 85.03399,60.911 Z M84.91099,61.034 C84.78799,61.075 84.74699,61.198 84.66499,61.28 C84.74699,61.28 84.82899,61.239 84.86999,61.198 L84.91099,61.034 Z M85.11599,61.034 L85.03399,61.034 C84.99299,61.075 84.99299,61.157 84.99299,61.198 L85.11599,61.034 Z M84.54199,61.526 C84.50099,61.567 84.45999,61.608 84.41899,61.608 L84.54199,61.608 L84.54199,61.526 L84.66499,61.526 L84.66499,61.321 L84.54199,61.526 Z M84.41899,61.649 C84.37799,61.69 84.33699,61.731 84.29599,61.813 L84.37799,61.813 C84.41899,61.772 84.41899,61.69 84.41899,61.649 Z M84.62399,61.649 L84.54199,61.649 C84.54199,61.69 84.50099,61.772 84.50099,61.813 L84.62399,61.649 Z M91.06099,66.118 C91.30699,65.708 91.51199,65.298 91.63499,64.847 C91.42999,64.97 91.38899,65.175 91.26599,65.339 C90.81499,66.2 90.32299,67.061 89.70799,67.84 C89.62599,67.963 89.50299,68.127 89.46199,68.291 C89.58499,68.209 89.70799,68.127 89.78999,68.004 C90.28199,67.43 90.69199,66.774 91.06099,66.118 Z M89.09299,67.389 C89.29799,67.225 89.42099,66.938 89.62599,66.774 C89.66699,66.692 89.70799,66.61 89.78999,66.569 C89.74899,66.61 89.74899,66.692 89.74899,66.733 C89.83099,66.692 89.87199,66.651 89.87199,66.569 L89.74899,66.569 C89.83099,66.487 89.87199,66.405 89.91299,66.364 L89.87199,66.528 C89.95399,66.487 89.99499,66.446 89.99499,66.364 C90.07699,66.323 90.11799,66.241 90.15899,66.159 C90.24099,66.118 90.24099,66.036 90.24099,65.954 C90.40499,65.79 90.48699,65.626 90.52799,65.421 L90.44599,65.421 C90.40499,65.503 90.36399,65.585 90.28199,65.626 L90.40499,65.421 C90.44599,65.339 90.44599,65.216 90.44599,65.134 C90.32299,65.216 90.28199,65.339 90.19999,65.462 C89.99499,65.831 89.74899,66.159 89.54399,66.528 L89.05199,67.348 C88.92899,67.43 88.84699,67.553 88.80599,67.676 C88.92899,67.635 89.01099,67.512 89.09299,67.389 Z M90.24099,65.954 L90.15899,65.954 C90.19999,65.831 90.19999,65.708 90.28199,65.626 C90.28199,65.749 90.28199,65.831 90.24099,65.954 Z M91.75799,65.667 L91.59399,65.913 C91.59399,65.831 91.63499,65.708 91.63499,65.626 C91.67599,65.626 91.71699,65.667 91.75799,65.667 Z M82.48174,65.877125 C82.46124,65.92325 82.45099,65.9745 82.45099,66.036 C82.49199,65.995 82.52274,65.94375 82.54324,65.8925 L82.48174,65.877125 Z M91.47099,66.159 L91.47099,66.118 C91.51199,66.077 91.55299,65.995 91.59399,65.913 L91.59399,65.954 C91.55299,65.995 91.51199,66.077 91.47099,66.159 Z M90.15899,65.954 L90.11799,66.118 C90.07699,66.118 90.07699,66.118 90.03599,66.159 C90.07699,66.077 90.11799,65.995 90.15899,65.954 Z M82.45099,66.077 C82.24599,66.241 82.12299,66.487 82.04099,66.733 C82.28699,66.569 82.36899,66.323 82.45099,66.077 Z M89.91299,66.364 C89.95399,66.282 89.99499,66.2 90.03599,66.159 C90.03599,66.2 89.99499,66.282 89.99499,66.364 L89.91299,66.364 Z M89.74899,66.774 L89.66699,66.774 C89.62599,66.815 89.62599,66.897 89.62599,66.938 L89.74899,66.774 Z M81.83599,67.266 L81.83599,67.348 L81.79499,67.389 L81.75399,67.348 C81.79499,67.307 81.79499,67.266 81.83599,67.266 Z M115.086988,49.103 C116.152988,48.529 117.259988,49.185 113.733988,50.866 C112.175988,51.604 108.854988,53.613 107.501988,54.679 C107.460988,54.72 107.378988,54.761 107.337988,54.843 C107.091988,55.007 107.009988,55.212 107.091988,55.499 C107.214988,55.909 107.296988,56.36 107.378988,56.77 C107.624988,57.836 107.788988,58.902 107.829988,59.968 C107.870988,60.542 107.829988,61.075 107.788988,61.608 C107.706988,62.059 107.665988,62.469 107.542988,62.879 C107.501988,63.002 107.501988,63.084 107.501988,63.207 C107.501988,63.412 107.460988,63.576 107.337988,63.781 C107.337988,63.74 107.378988,63.699 107.337988,63.699 L107.337988,63.781 C107.296988,63.945 107.337988,64.109 107.132988,64.191 C107.091988,64.232 107.050988,64.314 107.009988,64.396 L106.517988,65.626 C106.353988,65.79 106.312988,65.954 106.230988,66.159 L106.353988,66.159 C106.312988,66.2 106.271988,66.282 106.230988,66.323 L106.230988,66.364 C106.148988,66.405 106.107988,66.487 106.066988,66.569 L106.107988,66.569 C106.025988,66.651 105.984988,66.733 105.943988,66.815 C104.385988,69.152 102.458988,71.079 100.080988,72.637 C99.260988,73.17 98.399988,73.539 97.456988,73.744 C96.964988,73.867 96.472988,73.867 96.062988,73.703 C95.734988,73.58 95.447988,73.416 95.160988,73.252 C94.627988,72.965 94.340988,72.514 94.299988,71.899 C94.217988,71.161 94.299988,70.464 94.504988,69.726 C94.832988,68.537 95.283988,67.348 95.898988,66.2 C96.677988,64.601 97.661988,63.125 98.727988,61.649 C99.342988,60.829 100.039988,60.05 100.736988,59.271 C101.638988,58.246 102.622988,57.262 103.647988,56.36 C104.139988,55.909 104.590988,55.458 105.123988,55.048 C105.328988,54.843 105.410988,54.638 105.328988,54.392 L105.000988,53.203 C104.754988,52.301 104.467988,51.358 104.221988,50.456 C104.057988,49.882 103.975988,49.267 104.057988,48.652 C104.098988,47.873 104.344988,47.176 104.877988,46.52 C105.328988,45.905 105.861988,45.331 106.435988,44.839 C107.296988,44.06 108.280988,43.404 109.387988,43.076 C109.633988,42.994 109.838988,42.953 110.084988,42.912 C110.330988,42.912 110.494988,43.035 110.658988,43.199 C110.740988,43.281 110.699988,43.445 110.576988,43.527 C110.248988,43.65 109.961988,43.814 109.633988,43.978 C109.182988,44.265 108.731988,44.511 108.280988,44.88 C108.116988,45.044 107.911988,45.208 107.665988,45.29 C107.706988,45.249 107.706988,45.167 107.747988,45.126 C107.788988,45.085 107.788988,45.044 107.829988,45.044 L107.952988,44.921 C108.198988,44.798 108.444988,44.634 108.649988,44.388 C108.813988,44.347 108.936988,44.224 109.100988,44.101 C109.141988,44.06 109.223988,44.06 109.264988,43.978 C109.182988,43.978 109.100988,43.978 109.059988,44.06 C108.854988,44.101 108.731988,44.224 108.567988,44.347 C108.321988,44.47 108.116988,44.634 107.911988,44.839 L107.788988,44.962 C107.747988,45.003 107.706988,45.044 107.665988,45.044 C107.583988,45.126 107.501988,45.208 107.460988,45.29 C107.419988,45.29 107.378988,45.331 107.337988,45.372 C107.173988,45.495 107.050988,45.618 107.009988,45.782 C107.132988,45.7 107.296988,45.577 107.378988,45.413 C107.419988,45.413 107.460988,45.372 107.501988,45.331 C107.542988,45.331 107.624988,45.331 107.665988,45.29 C107.624988,45.454 107.542988,45.577 107.419988,45.659 C107.255988,45.782 107.132988,45.946 107.050988,46.11 L106.927988,46.233 C106.763988,46.356 106.640988,46.561 106.558988,46.725 L106.558988,46.848 C106.517988,46.93 106.476988,46.971 106.435988,47.053 L106.312988,47.053 C106.107988,47.504 105.861988,47.996 105.697988,48.447 C105.492988,48.939 105.451988,49.431 105.492988,49.923 C105.574988,50.579 105.738988,51.235 105.943988,51.85 C106.066988,52.301 106.230988,52.752 106.394988,53.203 C106.394988,53.326 106.435988,53.408 106.476988,53.49 C106.599988,53.736 106.681988,53.777 106.968988,53.572 C107.214988,53.408 107.460988,53.244 107.706988,53.039 C108.608988,52.424 109.592988,51.891 110.576988,51.358 C113.323988,49.923 114.266988,49.554 115.086988,49.103 Z M107.460988,44.47 C107.296988,44.511 107.173988,44.634 107.050988,44.757 C107.050988,44.798 107.050988,44.839 107.091988,44.839 C107.091988,44.839 107.132988,44.798 107.173988,44.798 L107.214988,44.798 L107.337988,44.675 L107.337988,44.798 C107.378988,44.757 107.419988,44.716 107.419988,44.675 L107.337988,44.675 C107.378988,44.634 107.419988,44.634 107.460988,44.593 L107.460988,44.675 C107.460988,44.634 107.501988,44.634 107.542988,44.593 L107.665988,44.47 C107.952988,44.347 108.198988,44.142 108.444988,43.978 C108.485988,43.896 108.567988,43.855 108.526988,43.814 C108.444988,43.732 108.403988,43.773 108.362988,43.855 C108.034988,43.937 107.788988,44.142 107.583988,44.347 L107.460988,44.47 Z M107.501988,44.511 C107.501988,44.511 107.542988,44.511 107.583988,44.47 C107.583988,44.511 107.583988,44.552 107.542988,44.593 L107.460988,44.593 C107.460988,44.552 107.460988,44.511 107.501988,44.511 Z M106.681988,46.11 L106.681988,46.151 C106.722988,46.11 106.722988,46.069 106.763988,46.028 L106.681988,46.11 Z M109.915863,52.705875 C109.961988,52.67 110.002988,52.629 110.043988,52.588 C109.982488,52.6085 109.931238,52.63925 109.885113,52.675125 L109.915863,52.705875 Z M108.562863,52.92625 C108.608988,52.8955 108.649988,52.8545 108.690988,52.793 C108.629488,52.8135 108.578238,52.84425 108.532113,52.880125 L108.562863,52.92625 Z M109.587863,52.92625 C109.633988,52.8955 109.674988,52.8545 109.715988,52.793 C109.654488,52.8135 109.603238,52.84425 109.557113,52.880125 L109.587863,52.92625 Z M107.911988,53.326 C107.870988,53.367 107.829988,53.367 107.829988,53.408 L107.911988,53.408 L107.911988,53.531 L107.993988,53.408 L107.911988,53.408 L107.911988,53.326 C107.952988,53.326 107.993988,53.367 108.034988,53.408 C108.075988,53.326 108.157988,53.203 108.239988,53.121 C108.116988,53.162 107.993988,53.203 107.911988,53.326 Z M109.136863,53.23375 C109.182988,53.203 109.223988,53.162 109.264988,53.121 C109.203488,53.121 109.141988,53.1415 109.090738,53.17225 L109.136863,53.23375 Z M106.927988,54.105 L107.050988,54.105 C107.132988,54.105 107.173988,54.064 107.214988,54.023 L107.337988,53.941 L107.214988,53.941 C107.255988,53.9 107.255988,53.859 107.255988,53.859 C107.296988,53.859 107.337988,53.818 107.337988,53.818 L107.337988,53.9 C107.378988,53.9 107.419988,53.859 107.460988,53.818 C107.583988,53.736 107.665988,53.613 107.788988,53.531 L107.788988,53.408 C107.624988,53.449 107.460988,53.572 107.337988,53.695 L107.214988,53.818 C107.132988,53.859 107.050988,53.9 107.009988,53.941 C106.927988,53.982 106.886988,54.023 106.927988,54.105 Z M108.403988,53.736 C108.567988,53.654 108.731988,53.572 108.813988,53.408 C108.649988,53.449 108.485988,53.572 108.362988,53.695 C108.157988,53.777 107.952988,53.941 107.788988,54.105 C107.501988,54.269 107.214988,54.433 107.009988,54.72 L107.009988,54.761 L107.050988,54.761 C107.337988,54.638 107.583988,54.392 107.829988,54.146 C108.034988,54.064 108.239988,53.941 108.403988,53.736 Z M107.378987,53.7399288 C107.378943,53.7770447 107.377635,53.7783533 107.337988,53.818 L107.460988,53.818 C107.423054,53.7800656 107.385119,53.7772292 107.379659,53.7445436 L107.378987,53.7399288 Z M101.592483,58.9842427 C101.553318,58.9876699 101.514153,59.0268349 101.474988,59.066 C101.351988,59.148 101.269988,59.23 101.228988,59.353 L101.105988,59.476 C100.982988,59.517 100.900988,59.64 100.859988,59.763 L100.982988,59.763 L100.982988,59.886 C100.982988,59.845 101.023988,59.804 101.064988,59.763 C101.105988,59.722 101.146988,59.64 101.187988,59.558 L101.310988,59.476 L101.433988,59.353 L101.556988,59.271 L101.433988,59.271 C101.433988,59.189 101.474988,59.148 101.474988,59.066 L101.556988,59.066 L101.556988,59.23 L101.679988,59.066 C101.720988,59.025 101.761988,58.984 101.761988,58.943 L101.679988,58.943 C101.720988,58.902 101.761988,58.902 101.802988,58.861 L101.802988,58.943 L101.884988,58.861 L101.802988,58.861 L101.925988,58.738 L101.925988,58.861 C101.966988,58.82 101.966988,58.779 102.007988,58.738 L102.130988,58.533 C102.130988,58.492 102.089988,58.492 102.048988,58.451 L102.171988,58.451 L102.171988,58.533 C102.171988,58.492 102.212988,58.492 102.253988,58.451 L102.376988,58.328 C102.417988,58.287 102.458988,58.287 102.499988,58.246 L102.622988,58.123 C102.704988,58.041 102.786988,57.959 102.827988,57.836 L102.868988,57.836 C102.909988,57.795 102.909988,57.754 102.950988,57.713 L102.868988,57.713 C102.868988,57.713 102.909988,57.672 102.909988,57.631 L102.991988,57.631 L102.991988,57.713 C102.991988,57.672 103.032988,57.672 103.073988,57.631 L103.196988,57.508 C103.237988,57.467 103.278988,57.426 103.319988,57.426 C103.647988,57.18 103.893988,56.893 104.139988,56.606 L104.344988,56.401 C104.344988,56.401 104.307874,56.3638864 104.268958,56.3602808 C104.303988,56.358683 104.303988,56.319 104.303988,56.319 L104.344988,56.319 C104.344988,56.319 104.344988,56.36 104.385988,56.401 C104.385988,56.36 104.426988,56.319 104.467988,56.278 L104.590988,56.196 L104.713988,56.073 L104.836988,55.991 L104.713988,55.991 C104.754988,55.95 104.754988,55.909 104.754988,55.909 C104.795988,55.909 104.795988,55.909 104.836988,55.868 C104.83699,55.8679981 104.877988,55.8269991 104.877988,55.786 L104.959988,55.786 L104.959988,55.868 C104.959988,55.827 105.000988,55.827 105.041988,55.786 L104.959988,55.786 C104.959988,55.745 105.000988,55.704 105.000988,55.704 C105.000988,55.704 105.041988,55.704 105.082988,55.663 C105.082988,55.7019758 105.082988,55.7409517 105.047766,55.7447051 C105.086658,55.7413301 105.125823,55.7021651 105.164988,55.663 C105.205988,55.622 105.246988,55.581 105.287988,55.581 L105.410988,55.458 L105.328988,55.458 L105.328988,55.376 L105.410988,55.376 C105.410988,55.253 105.369988,55.294 105.287988,55.335 C105.246988,55.376 105.205988,55.417 105.164988,55.417 L105.041988,55.54 C105.000988,55.581 104.959988,55.622 104.959988,55.663 C104.918988,55.663 104.877988,55.704 104.836988,55.745 C104.795988,55.786 104.754988,55.827 104.713988,55.827 L104.590988,55.95 C104.549988,55.991 104.508988,56.032 104.467988,56.032 L104.344988,56.155 C104.344988,56.196 104.303988,56.237 104.262988,56.278 C104.221988,56.278 104.180988,56.319 104.139988,56.36 L104.016988,56.483 C103.606988,56.77 103.278988,57.098 102.950988,57.508 C102.950988,57.549 102.909988,57.549 102.868988,57.59 L102.745988,57.713 C102.499988,57.877 102.294988,58.082 102.171988,58.328 L102.048988,58.451 C101.843988,58.574 101.679988,58.738 101.597988,58.943 L101.679988,58.943 L101.679988,59.066 L101.556988,59.066 C101.556988,59.0270242 101.556988,58.9880483 101.59221,58.9842949 L101.592483,58.9842427 Z M97.743988,65.134 C97.620988,65.339 97.538988,65.503 97.456988,65.708 C97.661988,65.585 97.743988,65.38 97.825988,65.216 C98.317988,64.355 98.850988,63.576 99.424988,62.797 C100.572988,61.239 101.802988,59.763 103.155988,58.369 L105.328988,56.278 C105.410988,56.237 105.492988,56.155 105.533988,56.073 L105.533988,55.991 L105.492988,55.991 C105.410988,56.032 105.328988,56.073 105.287988,56.155 C104.221988,57.057 103.278988,58.041 102.335988,59.025 C100.572988,60.911 99.014988,62.92 97.743988,65.134 Z M104.549988,56.114 C104.549988,56.114 104.590988,56.114 104.590988,56.073 L104.590988,56.196 C104.549988,56.196 104.549988,56.155 104.508988,56.155 C104.508988,56.155 104.508988,56.114 104.549988,56.114 Z M102.745988,67.963 C103.524988,67.061 104.139988,66.077 104.713988,65.052 C105.533988,63.535 105.984988,61.936 106.025988,60.296 C106.066988,59.107 105.984988,57.877 105.820988,56.729 C105.779988,56.647 105.779988,56.565 105.738988,56.483 C105.697988,56.401 105.574988,56.36 105.492988,56.401 C105.164988,56.688 104.836988,56.934 104.549988,57.221 C103.893988,57.877 103.196988,58.533 102.581988,59.271 L102.089988,59.763 L102.089988,59.804 C102.048988,59.804 102.007988,59.845 102.007988,59.886 L101.966988,59.886 C101.884988,60.009 101.802988,60.091 101.720988,60.173 C101.351988,60.501 101.105988,60.952 100.777988,61.321 C100.613988,61.444 100.490988,61.608 100.408988,61.813 L100.408988,61.854 C100.367988,61.854 100.326988,61.895 100.285988,61.936 C99.998988,62.264 99.711988,62.592 99.547988,62.961 L99.424988,63.166 C99.260988,63.289 99.137988,63.494 99.055988,63.699 L99.055988,63.658 L98.932988,63.904 L98.932988,63.863 C98.563988,64.232 98.399988,64.683 98.153988,65.134 L98.153988,65.093 L98.030988,65.339 L98.030988,65.298 C97.989988,65.38 97.948988,65.462 97.907988,65.503 C97.620988,65.954 97.374988,66.364 97.210988,66.856 C97.087988,67.061 97.005988,67.266 96.923988,67.471 L96.964988,67.471 C96.800988,67.676 96.677988,67.922 96.677988,68.168 C96.513988,68.291 96.554988,68.455 96.472988,68.578 C96.185988,69.234 96.021988,69.89 96.021988,70.546 C95.980988,70.71 95.980988,70.874 95.980988,71.038 C95.898988,71.448 95.980988,71.817 96.062988,72.227 C96.103988,72.391 96.185988,72.514 96.267988,72.637 C96.390988,72.801 96.513988,72.842 96.718988,72.76 C97.210988,72.555 97.661988,72.35 98.112988,72.063 C98.891988,71.571 99.629988,71.038 100.367988,70.423 C101.228988,69.685 102.007988,68.865 102.745988,67.963 Z M102.991988,57.549 C103.032988,57.549 103.073988,57.508 103.114988,57.508 C103.114988,57.549 103.073988,57.59 103.073988,57.631 L102.991988,57.631 L102.991988,57.549 Z M102.790917,57.7539985 C102.828033,57.7539553 102.829341,57.7526467 102.868988,57.713 L102.868988,57.836 C102.831054,57.7980656 102.828217,57.7601313 102.795532,57.7546705 L102.790917,57.7539985 Z M102.376988,58.246 L102.499988,58.123 L102.499988,58.246 L102.376988,58.246 Z M102.253988,58.451 L102.171988,58.451 L102.171988,58.328 L102.294988,58.328 C102.294988,58.369 102.253988,58.41 102.253988,58.451 Z M101.310988,59.476 L101.228988,59.476 L101.228988,59.353 L101.310988,59.353 C101.351988,59.312 101.392988,59.312 101.433988,59.271 L101.433988,59.353 L101.351988,59.353 C101.310988,59.394 101.310988,59.435 101.310988,59.476 Z M101.228988,59.476 C101.228988,59.517 101.228988,59.517 101.187988,59.558 L101.105988,59.476 L101.228988,59.476 Z M100.736988,59.886 C100.572988,59.968 100.449988,60.132 100.408988,60.296 L100.490988,60.296 L100.613988,60.173 L100.613988,60.296 C100.654988,60.255 100.695988,60.214 100.695988,60.173 L100.613988,60.173 C100.654988,60.132 100.695988,60.132 100.736988,60.091 L100.736988,59.886 Z M99.916988,60.911 C99.875988,60.952 99.834988,60.993 99.793988,60.993 L99.875988,60.993 C99.875988,60.993 99.916988,60.952 99.916988,60.911 L99.998988,60.911 L99.998988,60.993 L100.121988,60.911 L99.998988,60.911 L100.121988,60.788 C100.121988,60.747 100.121988,60.665 100.162988,60.583 L100.244988,60.583 C100.285988,60.583 100.326988,60.542 100.367988,60.501 L100.367988,60.296 C100.285988,60.378 100.203988,60.46 100.162988,60.583 C100.039988,60.665 99.957988,60.788 99.916988,60.911 Z M99.793988,61.034 C99.670988,61.075 99.629988,61.198 99.547988,61.28 C99.629988,61.28 99.711988,61.239 99.752988,61.198 L99.793988,61.034 Z M99.998988,61.034 L99.916988,61.034 C99.875988,61.075 99.875988,61.157 99.875988,61.198 L99.998988,61.034 Z M99.424988,61.526 C99.383988,61.567 99.342988,61.608 99.301988,61.608 L99.424988,61.608 L99.424988,61.526 L99.547988,61.526 L99.547988,61.321 L99.424988,61.526 Z M99.301988,61.649 C99.260988,61.69 99.219988,61.731 99.178988,61.813 L99.260988,61.813 C99.301988,61.772 99.301988,61.69 99.301988,61.649 Z M99.506988,61.649 L99.424988,61.649 C99.424988,61.69 99.383988,61.772 99.383988,61.813 L99.506988,61.649 Z M105.943988,66.118 C106.189988,65.708 106.394988,65.298 106.517988,64.847 C106.312988,64.97 106.271988,65.175 106.148988,65.339 C105.697988,66.2 105.205988,67.061 104.590988,67.84 C104.508988,67.963 104.385988,68.127 104.344988,68.291 C104.467988,68.209 104.590988,68.127 104.672988,68.004 C105.164988,67.43 105.574988,66.774 105.943988,66.118 Z M103.975988,67.389 C104.180988,67.225 104.303988,66.938 104.508988,66.774 C104.549988,66.692 104.590988,66.61 104.672988,66.569 C104.631988,66.61 104.631988,66.692 104.631988,66.733 C104.713988,66.692 104.754988,66.651 104.754988,66.569 L104.631988,66.569 C104.713988,66.487 104.754988,66.405 104.795988,66.364 L104.754988,66.528 C104.836988,66.487 104.877988,66.446 104.877988,66.364 C104.959988,66.323 105.000988,66.241 105.041988,66.159 C105.123988,66.118 105.123988,66.036 105.123988,65.954 C105.287988,65.79 105.369988,65.626 105.410988,65.421 L105.328988,65.421 C105.287988,65.503 105.246988,65.585 105.164988,65.626 L105.287988,65.421 C105.328988,65.339 105.328988,65.216 105.328988,65.134 C105.205988,65.216 105.164988,65.339 105.082988,65.462 C104.877988,65.831 104.631988,66.159 104.426988,66.528 L103.934988,67.348 C103.811988,67.43 103.729988,67.553 103.688988,67.676 C103.811988,67.635 103.893988,67.512 103.975988,67.389 Z M105.123988,65.954 L105.041988,65.954 C105.082988,65.831 105.082988,65.708 105.164988,65.626 C105.164988,65.749 105.164988,65.831 105.123988,65.954 Z M106.640988,65.667 L106.476988,65.913 C106.476988,65.831 106.517988,65.708 106.517988,65.626 C106.558988,65.626 106.599988,65.667 106.640988,65.667 Z M97.364738,65.877125 C97.344238,65.92325 97.333988,65.9745 97.333988,66.036 C97.374988,65.995 97.405738,65.94375 97.426238,65.8925 L97.364738,65.877125 Z M106.353988,66.159 L106.353988,66.118 C106.394988,66.077 106.435988,65.995 106.476988,65.913 L106.476988,65.954 C106.435988,65.995 106.394988,66.077 106.353988,66.159 Z M105.041988,65.954 L105.000988,66.118 C104.959988,66.118 104.959988,66.118 104.918988,66.159 C104.959988,66.077 105.000988,65.995 105.041988,65.954 Z M97.333988,66.077 C97.128988,66.241 97.005988,66.487 96.923988,66.733 C97.169988,66.569 97.251988,66.323 97.333988,66.077 Z M104.795988,66.364 C104.836988,66.282 104.877988,66.2 104.918988,66.159 C104.918988,66.2 104.877988,66.282 104.877988,66.364 L104.795988,66.364 Z M104.631988,66.774 L104.549988,66.774 C104.508988,66.815 104.508988,66.897 104.508988,66.938 L104.631988,66.774 Z M96.718988,67.266 C96.677988,67.266 96.677988,67.307 96.636988,67.348 L96.677988,67.389 L96.718988,67.348 L96.718988,67.266 Z M125.857501,39.962266 C125.898861,39.9197485 125.951238,39.8988742 125.992986,39.878 C126.074986,39.673 126.197986,39.591 126.361986,39.509 C126.484986,39.386 126.566986,39.263 126.689986,39.099 C126.566986,39.017 126.443986,38.935 126.320986,38.812 C126.156986,38.689 125.992986,38.689 125.828986,38.812 C125.664986,38.935 125.500986,39.058 125.377986,39.222 C124.844986,39.837 124.311986,40.493 123.901986,41.19 C123.819986,41.354 123.737986,41.518 123.696986,41.723 C123.614986,41.969 123.778986,42.133 123.901986,42.338 C124.024986,42.502 124.188986,42.502 124.393986,42.461 C124.598986,42.256 124.762986,42.01 124.926986,41.764 C125.131986,41.313 125.418986,40.903 125.705986,40.493 C125.951986,40.124 126.279986,39.796 126.648986,39.591 C126.689986,39.55 126.689986,39.509 126.812986,39.386 C126.607986,39.427 126.525986,39.468 126.361986,39.509 C126.238986,39.632 126.115986,39.755 126.033986,39.878 C125.956999,39.9293246 125.912137,39.9645868 125.869239,40.0240009 L125.857501,39.962266 Z M125.869986,39.14 C125.828986,39.181 125.828986,39.222 125.828986,39.263 L125.869986,39.263 C125.951986,39.304 126.074986,39.222 126.074986,39.099 L126.033986,39.099 C125.951986,39.058 125.910986,39.058 125.869986,39.14 Z M129.723986,47.135 L129.846986,47.217 C129.846986,47.34 129.805986,47.422 129.764986,47.545 C129.764986,47.586 129.723986,47.627 129.682986,47.668 C129.026986,48.201 128.329986,48.734 127.632986,49.267 C126.689986,50.005 125.705986,50.743 124.803986,51.481 C123.204986,52.67 121.646986,53.9 120.047986,55.089 C119.555986,55.458 119.063986,55.786 118.530986,56.073 C118.284986,56.196 118.079986,56.319 117.792986,56.36 C117.464986,56.401 117.218986,56.36 117.013986,56.155 L116.808986,56.032 C116.439986,55.786 116.275986,55.417 116.357986,54.925 C116.439986,54.31 116.521986,53.654 116.808986,53.08 C116.972986,52.834 117.095986,52.588 117.177986,52.301 C117.546986,51.44 118.038986,50.579 118.530986,49.759 C119.022986,48.857 119.514986,47.996 120.047986,47.135 C120.621986,46.315 121.195986,45.454 121.851986,44.634 C121.933986,44.552 122.015986,44.429 122.179986,44.388 C122.630986,44.634 122.712986,44.798 122.507986,45.29 C122.343986,45.782 122.097986,46.274 121.810986,46.766 C121.605986,47.094 121.441986,47.422 121.277986,47.75 C121.236986,47.791 121.195986,47.873 121.195986,47.914 L121.277986,47.914 C121.195986,47.996 121.154986,48.037 121.154986,48.119 C120.990986,48.242 120.908986,48.365 120.785986,48.529 C120.662986,48.857 120.457986,49.185 120.252986,49.513 C120.211986,49.636 120.170986,49.759 120.088986,49.882 C120.047986,49.964 120.006986,50.005 120.006986,50.046 C120.047986,50.087 120.047986,50.087 120.088986,50.087 L120.006986,50.087 C119.760986,50.292 119.637986,50.579 119.555986,50.866 C119.432986,51.03 119.268986,51.235 119.268986,51.481 C119.104986,51.645 118.981986,51.891 118.940986,52.096 C118.735986,52.383 118.571986,52.629 118.530986,52.957 C118.530986,52.998 118.530986,53.039 118.448986,53.08 C118.079986,53.572 117.956986,54.146 117.751986,54.679 C117.710986,54.843 117.710986,55.007 117.710986,55.171 C117.710986,55.253 117.833986,55.294 117.915986,55.294 C117.997986,55.253 118.079986,55.212 118.120986,55.171 L118.899986,54.679 C119.268986,54.433 119.596986,54.146 119.965986,53.9 C120.826986,53.244 121.728986,52.588 122.589986,51.973 C123.245986,51.481 123.901986,51.071 124.516986,50.579 C125.459986,49.882 126.443986,49.185 127.386986,48.447 L129.108986,47.217 C129.313986,47.053 129.477986,47.012 129.723986,47.135 Z M119.248486,50.8865 C119.258736,50.85575 119.268986,50.825 119.268986,50.784 C119.268986,50.8045 119.258736,50.83525 119.248486,50.871125 L119.248486,50.8865 Z M118.45376,52.4140622 C118.452232,52.4173748 118.450642,52.4206874 118.448986,52.424 C118.407986,52.506 118.407986,52.547 118.325986,52.629 L118.325986,52.67 C118.407986,52.588 118.407986,52.506 118.448986,52.424 C118.450644,52.4206838 118.452235,52.4173676 118.453765,52.4140542 L118.45376,52.4140622 Z M143.581984,48.57 L143.991984,48.57 C143.909984,48.693 143.786984,48.816 143.663984,48.857 C143.499984,48.898 143.376984,48.898 143.253984,48.939 C141.654984,49.472 141.654984,49.636 140.014984,49.923 C139.153984,50.087 138.251984,50.21 137.390984,50.169 C136.816984,50.169 136.324984,50.046 135.873984,49.759 L135.627984,49.636 C135.545984,49.595 135.463984,49.636 135.422984,49.718 C135.381984,49.841 135.299984,49.964 135.258984,50.087 C135.053984,50.661 134.807984,51.194 134.561984,51.727 C134.356984,52.096 134.192984,52.424 133.905984,52.711 C133.864984,52.752 133.823984,52.793 133.823984,52.834 C133.700984,53.162 133.413984,53.326 133.208984,53.572 C133.167984,53.613 133.126984,53.654 133.126984,53.695 L133.003984,53.818 L133.003984,53.777 C132.757984,54.023 132.470984,54.228 132.306984,54.556 C132.306984,54.597 132.306984,54.597 132.265984,54.638 C131.732984,54.925 131.240984,55.294 130.584984,55.212 C130.215984,55.171 129.887984,54.966 129.641984,54.679 C129.026984,54.023 128.903984,53.244 129.149984,52.383 C129.272984,52.014 129.436984,51.645 129.600984,51.235 C130.051984,50.169 130.666984,49.185 131.322984,48.242 C131.691984,47.75 132.101984,47.299 132.470984,46.848 C132.552984,46.766 132.634984,46.684 132.757984,46.602 C132.839984,46.52 132.962984,46.438 133.126984,46.52 C133.249984,46.602 133.413984,46.725 133.413984,46.971 C133.372984,47.176 133.331984,47.381 133.208984,47.586 C132.880984,48.078 132.511984,48.611 132.183984,49.144 C131.937984,49.513 131.691984,49.923 131.486984,50.333 C131.117984,51.194 130.707984,52.014 130.502984,52.957 C130.420984,53.162 130.379984,53.408 130.379984,53.654 C130.338984,53.777 130.461984,53.859 130.625984,53.818 C130.748984,53.777 130.871984,53.654 130.994984,53.572 C131.896984,52.793 132.634984,51.932 133.249984,50.948 C133.741984,50.128 134.110984,49.226 134.397984,48.324 C134.520984,47.955 134.684984,47.586 134.766984,47.217 C134.889984,46.848 135.135984,46.889 135.299984,47.094 C135.586984,47.422 135.873984,47.75 135.996984,48.201 C136.037984,48.488 136.201984,48.57 136.447984,48.57 C137.062984,48.611 137.636984,48.611 138.251984,48.529 C142.474984,47.996 141.490984,47.955 142.802984,47.627 C142.884984,47.586 143.007984,47.586 143.130984,47.586 C143.335984,47.586 143.622984,47.627 143.622984,47.832 L143.622984,47.873 C143.704984,48.037 143.950984,48.078 143.909984,48.242 C143.868984,48.447 143.663984,48.406 143.581984,48.57 Z M131.363984,54.105 L131.486984,53.982 C131.527984,53.982 131.609984,53.941 131.650984,53.9 L131.445984,53.9 C131.486984,53.859 131.486984,53.818 131.486984,53.818 C131.404984,53.818 131.363984,53.859 131.322984,53.859 C131.240984,53.9 131.117984,53.982 131.076984,54.105 L131.363984,54.105 Z M131.691984,54.638 C132.060984,54.515 132.347984,54.269 132.470984,53.9 C132.183984,54.105 131.896984,54.31 131.650984,54.597 C131.650984,54.597 131.609984,54.638 131.609984,54.679 C131.650984,54.638 131.650984,54.638 131.691984,54.638 Z M162.933982,48.365 C162.892982,48.406 162.769982,48.447 162.769982,48.57 L162.974982,48.57 C162.933982,48.652 162.851982,48.734 162.769982,48.775 C162.605982,48.898 162.441982,48.98 162.236982,49.103 C161.416982,49.472 160.637982,49.964 159.858982,50.415 L159.325982,50.702 C158.546982,51.194 157.726982,51.645 156.947982,52.137 C156.455982,52.424 156.004982,52.67 155.512982,52.916 C155.225982,52.998 154.979982,53.121 154.692982,53.162 C154.036982,53.326 153.503982,53.162 153.093982,52.629 C152.970982,52.465 152.847982,52.342 152.765982,52.178 C152.560982,51.85 152.437982,51.563 152.560982,51.153 C152.683982,50.661 152.847982,50.169 153.093982,49.718 L153.339982,49.062 C153.380982,48.939 153.298982,48.857 153.134982,48.898 C153.011982,48.939 152.847982,48.98 152.683982,49.062 C152.068982,49.349 151.453982,49.677 150.838982,50.005 C150.510982,50.251 150.182982,50.456 149.895982,50.62 C149.813982,50.661 149.731982,50.743 149.690982,50.784 C149.485982,50.907 149.280982,51.071 149.075982,51.235 L149.116982,51.235 C148.460982,51.768 147.804982,52.301 147.107982,52.793 C146.861982,52.998 146.615982,53.162 146.287982,53.244 C145.918982,53.449 145.139982,53.285 144.934982,52.916 L144.729982,52.67 C144.442982,52.383 144.360982,52.096 144.483982,51.727 C144.606982,51.194 144.852982,50.661 145.098982,50.21 C145.344982,49.8 145.549982,49.431 145.754982,49.021 C146.287982,48.119 146.902982,47.217 147.558982,46.356 C148.050982,45.7 148.624982,45.044 149.198982,44.388 C149.444982,44.142 149.731982,43.896 150.018982,43.65 C150.141982,43.568 150.223982,43.527 150.346982,43.691 C150.387982,43.773 150.551982,43.691 150.551982,43.855 C150.551982,43.978 150.592982,44.101 150.510982,44.265 L150.264982,44.593 C149.690982,45.454 149.116982,46.233 148.542982,47.094 C148.419982,47.258 148.337982,47.422 148.296982,47.586 C147.886982,48.078 147.558982,48.611 147.271982,49.185 C147.271982,49.226 147.271982,49.267 147.230982,49.349 C147.189982,49.431 147.148982,49.431 147.107982,49.513 L147.107982,49.636 C147.066982,49.718 146.984982,49.8 146.943982,49.882 C146.861982,49.964 146.820982,50.046 146.861982,50.169 C146.779982,50.251 146.738982,50.333 146.697982,50.415 C146.492982,50.497 146.451982,50.661 146.492982,50.866 C146.533982,50.948 146.615982,50.989 146.697982,50.948 C146.861982,50.866 146.984982,50.702 147.189982,50.579 C148.091982,49.8 149.034982,49.103 150.100982,48.529 C150.715982,48.201 151.371982,47.832 152.068982,47.586 C152.314982,47.463 152.601982,47.34 152.847982,47.299 C153.380982,47.135 153.790982,47.258 154.200982,47.586 C154.446982,47.832 154.733982,48.119 154.897982,48.406 C155.020982,48.693 155.061982,48.939 154.979982,49.226 C154.938982,49.677 154.774982,50.087 154.610982,50.497 C154.487982,50.784 154.405982,51.112 154.241982,51.44 C154.241982,51.481 154.241982,51.522 154.282982,51.563 L154.446982,51.563 C154.569982,51.522 154.692982,51.44 154.815982,51.399 C155.430982,51.071 156.045982,50.784 156.578982,50.497 C157.644982,49.964 158.710982,49.472 159.694982,48.898 C160.104982,48.693 160.555982,48.529 160.924982,48.365 C161.129982,48.242 161.334982,48.16 161.498982,48.078 C161.662982,47.996 161.785982,47.955 161.908982,47.873 C162.318982,47.709 162.646982,47.873 162.892982,48.16 C162.974982,48.201 162.974982,48.283 162.933982,48.365 Z M161.744982,49.062 C161.744982,49.021 161.744982,49.021 161.785982,48.98 C161.744982,48.98 161.744982,49.021 161.703982,49.021 L161.662982,49.062 C161.662982,49.103 161.703982,49.103 161.744982,49.062 Z M149.844732,49.29775 C149.885732,49.267 149.916482,49.226 149.936982,49.185 C149.895982,49.185 149.854982,49.19525 149.813982,49.220875 L149.844732,49.29775 Z M147.107982,52.39325 C147.148982,52.37275 147.189982,52.342 147.230982,52.301 C147.476982,52.219 147.640982,52.014 147.804982,51.85 C148.583982,51.276 149.321982,50.62 150.141982,50.087 L150.223982,49.964 C150.428982,49.964 150.551982,49.841 150.674982,49.718 C150.469982,49.718 150.346982,49.8 150.223982,49.964 C150.141982,49.964 150.018982,50.005 149.936982,50.087 C148.993982,50.661 148.173982,51.399 147.312982,52.096 C147.271982,52.137 147.271982,52.219 147.230982,52.301 C147.169482,52.301 147.118232,52.3215 147.077232,52.347125 L147.107982,52.39325 Z M149.239982,49.882 L149.116982,49.882 L149.116982,49.964 L149.239982,49.882 Z M158.628982,49.964 C158.669982,49.964 158.710982,49.964 158.751982,49.882 L158.628982,49.964 Z M159.407982,50.292 C159.489982,50.292 159.530982,50.251 159.530982,50.251 C159.530982,50.251 159.448982,50.251 159.407982,50.292 Z M159.310607,50.389375 C159.336232,50.374 159.366982,50.3535 159.407982,50.333 C159.366982,50.333 159.325982,50.34325 159.295232,50.358625 L159.310607,50.389375 Z M158.792982,50.702 C158.956982,50.62 159.079982,50.538 159.202982,50.415 C159.038982,50.497 158.874982,50.497 158.792982,50.702 Z M158.628982,50.784 L158.751982,50.702 C158.710982,50.702 158.669982,50.743 158.628982,50.784 Z M158.316357,50.97875 C158.362482,50.95825 158.403482,50.9275 158.423982,50.866 C158.362482,50.8865 158.311232,50.907 158.270232,50.932625 L158.316357,50.97875 Z M147.271982,51.317 L147.394982,51.317 L147.394982,51.235 C147.353982,51.276 147.312982,51.276 147.271982,51.317 Z M157.521982,51.399 C157.583482,51.3785 157.634732,51.358 157.675732,51.332375 C157.603982,51.32725 157.562982,51.358 157.521982,51.399 Z M157.675732,51.332375 C157.716732,51.30675 157.747482,51.276 157.767982,51.235 C157.726982,51.2555 157.685982,51.276 157.644982,51.301625 L157.675732,51.332375 Z M157.234982,51.578375 C157.275982,51.55275 157.316982,51.522 157.357982,51.481 C157.296482,51.5015 157.245232,51.522 157.204232,51.547625 L157.234982,51.578375 Z" id="Profession" fill="#B7792A"></path>
    </g>
</svg>