<?xml version="1.0" encoding="UTF-8"?>
<svg width="104px" height="60px" viewBox="0 0 104 60" version="1.1" xmlns="http://www.w3.org/2000/svg" xmlns:xlink="http://www.w3.org/1999/xlink">
    <!-- Generator: Sketch 52.3 (67297) - http://www.bohemiancoding.com/sketch -->
    <title>scroll</title>
    <desc>Created with Sketch.</desc>
    <g id="Page-1" stroke="none" stroke-width="1" fill="none" fill-rule="evenodd">
        <path d="M21.489,35.103 C22.555,34.529 23.662,35.185 20.136,36.866 C18.578,37.604 15.257,39.613 13.904,40.679 C13.863,40.72 13.781,40.761 13.74,40.843 C13.494,41.007 13.412,41.212 13.494,41.499 C13.617,41.909 13.699,42.36 13.781,42.77 C14.027,43.836 14.191,44.902 14.232,45.968 C14.273,46.542 14.232,47.075 14.191,47.608 C14.109,48.059 14.068,48.469 13.945,48.879 C13.904,49.002 13.904,49.084 13.904,49.207 C13.904,49.412 13.863,49.576 13.74,49.781 C13.74,49.74 13.781,49.699 13.74,49.699 L13.74,49.781 C13.699,49.945 13.74,50.109 13.535,50.191 C13.494,50.232 13.453,50.314 13.412,50.396 L12.92,51.626 C12.756,51.79 12.715,51.954 12.633,52.159 L12.756,52.159 C12.715,52.2 12.674,52.282 12.633,52.323 L12.633,52.364 C12.551,52.405 12.51,52.487 12.469,52.569 L12.51,52.569 C12.428,52.651 12.387,52.733 12.346,52.815 C10.788,55.152 8.861,57.079 6.483,58.637 C5.663,59.17 4.802,59.539 3.859,59.744 C3.367,59.867 2.875,59.867 2.465,59.703 C2.137,59.58 1.85,59.416 1.563,59.252 C1.03,58.965 0.743,58.514 0.702,57.899 C0.62,57.161 0.702,56.464 0.907,55.726 C1.235,54.537 1.686,53.348 2.301,52.2 C3.08,50.601 4.064,49.125 5.13,47.649 C5.745,46.829 6.442,46.05 7.139,45.271 C8.041,44.246 9.025,43.262 10.05,42.36 C10.542,41.909 10.993,41.458 11.526,41.048 C11.731,40.843 11.813,40.638 11.731,40.392 L11.403,39.203 C11.157,38.301 10.87,37.358 10.624,36.456 C10.46,35.882 10.378,35.267 10.46,34.652 C10.501,33.873 10.747,33.176 11.28,32.52 C11.731,31.905 12.264,31.331 12.838,30.839 C13.699,30.06 14.683,29.404 15.79,29.076 C16.036,28.994 16.241,28.953 16.487,28.912 C16.733,28.912 16.897,29.035 17.061,29.199 C17.143,29.281 17.102,29.445 16.979,29.527 C16.651,29.65 16.364,29.814 16.036,29.978 C15.585,30.265 15.134,30.511 14.683,30.88 C14.519,31.044 14.314,31.208 14.068,31.29 C14.109,31.249 14.109,31.167 14.15,31.126 C14.191,31.085 14.191,31.044 14.232,31.044 L14.355,30.921 C14.601,30.798 14.847,30.634 15.052,30.388 C15.216,30.347 15.339,30.224 15.503,30.101 C15.544,30.06 15.626,30.06 15.667,29.978 C15.585,29.978 15.503,29.978 15.462,30.06 C15.257,30.101 15.134,30.224 14.97,30.347 C14.724,30.47 14.519,30.634 14.314,30.839 L14.191,30.962 C14.15,31.003 14.109,31.044 14.068,31.044 C13.986,31.126 13.904,31.208 13.863,31.29 C13.822,31.29 13.781,31.331 13.74,31.372 C13.576,31.495 13.453,31.618 13.412,31.782 C13.535,31.7 13.699,31.577 13.781,31.413 C13.822,31.413 13.863,31.372 13.904,31.331 C13.945,31.331 14.027,31.331 14.068,31.29 C14.027,31.454 13.945,31.577 13.822,31.659 C13.658,31.782 13.535,31.946 13.453,32.11 L13.33,32.233 C13.166,32.356 13.043,32.561 12.961,32.725 L12.961,32.848 C12.92,32.93 12.879,32.971 12.838,33.053 L12.715,33.053 C12.51,33.504 12.264,33.996 12.1,34.447 C11.895,34.939 11.854,35.431 11.895,35.923 C11.977,36.579 12.141,37.235 12.346,37.85 C12.469,38.301 12.633,38.752 12.797,39.203 C12.797,39.326 12.838,39.408 12.879,39.49 C13.002,39.736 13.084,39.777 13.371,39.572 C13.617,39.408 13.863,39.244 14.109,39.039 C15.011,38.424 15.995,37.891 16.979,37.358 C19.726,35.923 20.669,35.554 21.489,35.103 Z M13.863,30.47 C13.699,30.511 13.576,30.634 13.453,30.757 C13.453,30.798 13.453,30.839 13.494,30.839 C13.494,30.839 13.535,30.798 13.576,30.798 L13.617,30.798 L13.74,30.675 L13.74,30.798 C13.781,30.757 13.822,30.716 13.822,30.675 L13.74,30.675 C13.781,30.634 13.822,30.634 13.863,30.593 L13.863,30.675 C13.863,30.634 13.904,30.634 13.945,30.593 L14.068,30.47 C14.355,30.347 14.601,30.142 14.847,29.978 C14.888,29.896 14.97,29.855 14.929,29.814 C14.847,29.732 14.806,29.773 14.765,29.855 C14.437,29.937 14.191,30.142 13.986,30.347 L13.863,30.47 Z M13.904,30.511 C13.904,30.511 13.945,30.511 13.986,30.47 C13.986,30.511 13.986,30.552 13.945,30.593 L13.863,30.593 C13.863,30.552 13.863,30.511 13.904,30.511 Z M13.084,32.11 L13.084,32.151 C13.125,32.11 13.125,32.069 13.166,32.028 L13.084,32.11 Z M16.317875,38.705875 C16.364,38.67 16.405,38.629 16.446,38.588 C16.3845,38.6085 16.33325,38.63925 16.287125,38.675125 L16.317875,38.705875 Z M14.964875,38.92625 C15.011,38.8955 15.052,38.8545 15.093,38.793 C15.0315,38.8135 14.98025,38.84425 14.934125,38.880125 L14.964875,38.92625 Z M15.989875,38.92625 C16.036,38.8955 16.077,38.8545 16.118,38.793 C16.0565,38.8135 16.00525,38.84425 15.959125,38.880125 L15.989875,38.92625 Z M14.314,39.326 C14.273,39.367 14.232,39.367 14.232,39.408 L14.314,39.408 L14.314,39.531 L14.396,39.408 L14.314,39.408 L14.314,39.326 C14.355,39.326 14.396,39.367 14.437,39.408 C14.478,39.326 14.56,39.203 14.642,39.121 C14.519,39.162 14.396,39.203 14.314,39.326 Z M15.538875,39.23375 C15.585,39.203 15.626,39.162 15.667,39.121 C15.6055,39.121 15.544,39.1415 15.49275,39.17225 L15.538875,39.23375 Z M13.33,40.105 L13.453,40.105 C13.535,40.105 13.576,40.064 13.617,40.023 L13.74,39.941 L13.617,39.941 C13.658,39.9 13.658,39.859 13.658,39.859 C13.699,39.859 13.74,39.818 13.74,39.818 L13.74,39.9 C13.781,39.9 13.822,39.859 13.863,39.818 C13.986,39.736 14.068,39.613 14.191,39.531 L14.191,39.408 C14.027,39.449 13.863,39.572 13.74,39.695 L13.617,39.818 C13.535,39.859 13.453,39.9 13.412,39.941 C13.33,39.982 13.289,40.023 13.33,40.105 Z M14.806,39.736 C14.97,39.654 15.134,39.572 15.216,39.408 C15.052,39.449 14.888,39.572 14.765,39.695 C14.56,39.777 14.355,39.941 14.191,40.105 C13.904,40.269 13.617,40.433 13.412,40.72 L13.412,40.761 L13.453,40.761 C13.74,40.638 13.986,40.392 14.232,40.146 C14.437,40.064 14.642,39.941 14.806,39.736 Z M13.7809985,39.7399288 C13.7809553,39.7770447 13.7796467,39.7783533 13.74,39.818 L13.863,39.818 C13.8250656,39.7800656 13.7871313,39.7772292 13.7816705,39.7445436 L13.7809985,39.7399288 Z M7.99449516,44.9842427 C7.95533011,44.9876699 7.91616505,45.0268349 7.877,45.066 C7.754,45.148 7.672,45.23 7.631,45.353 L7.508,45.476 C7.385,45.517 7.303,45.64 7.262,45.763 L7.385,45.763 L7.385,45.886 C7.385,45.845 7.426,45.804 7.467,45.763 C7.508,45.722 7.549,45.64 7.59,45.558 L7.713,45.476 L7.836,45.353 L7.959,45.271 L7.836,45.271 C7.836,45.189 7.877,45.148 7.877,45.066 L7.959,45.066 L7.959,45.23 L8.082,45.066 C8.123,45.025 8.164,44.984 8.164,44.943 L8.082,44.943 C8.123,44.902 8.164,44.902 8.205,44.861 L8.205,44.943 L8.287,44.861 L8.205,44.861 L8.328,44.738 L8.328,44.861 C8.369,44.82 8.369,44.779 8.41,44.738 L8.533,44.533 C8.533,44.492 8.492,44.492 8.451,44.451 L8.574,44.451 L8.574,44.533 C8.574,44.492 8.615,44.492 8.656,44.451 L8.779,44.328 C8.82,44.287 8.861,44.287 8.902,44.246 L9.025,44.123 C9.107,44.041 9.189,43.959 9.23,43.836 L9.271,43.836 C9.312,43.795 9.312,43.754 9.353,43.713 L9.271,43.713 C9.271,43.713 9.312,43.672 9.312,43.631 L9.394,43.631 L9.394,43.713 C9.394,43.672 9.435,43.672 9.476,43.631 L9.599,43.508 C9.64,43.467 9.681,43.426 9.722,43.426 C10.05,43.18 10.296,42.893 10.542,42.606 L10.747,42.401 C10.747,42.401 10.7098864,42.3638864 10.67097,42.3602808 C10.706,42.358683 10.706,42.319 10.706,42.319 L10.747,42.319 C10.747,42.319 10.747,42.36 10.788,42.401 C10.788,42.36 10.829,42.319 10.87,42.278 L10.993,42.196 L11.116,42.073 L11.239,41.991 L11.116,41.991 C11.157,41.95 11.157,41.909 11.157,41.909 C11.198,41.909 11.198,41.909 11.239,41.868 L11.239,41.95 C11.28,41.95 11.28,41.909 11.321,41.868 L11.239,41.868 C11.239,41.868 11.28,41.827 11.28,41.786 L11.362,41.786 L11.362,41.868 C11.362,41.827 11.403,41.827 11.444,41.786 L11.362,41.786 C11.362,41.745 11.403,41.704 11.403,41.704 C11.403,41.704 11.444,41.704 11.485,41.663 C11.485,41.7019758 11.485,41.7409517 11.4497776,41.7447051 C11.4886699,41.7413301 11.5278349,41.7021651 11.567,41.663 C11.608,41.622 11.649,41.581 11.69,41.581 L11.813,41.458 L11.731,41.458 L11.731,41.376 L11.813,41.376 C11.813,41.253 11.772,41.294 11.69,41.335 C11.649,41.376 11.608,41.417 11.567,41.417 L11.444,41.54 C11.403,41.581 11.362,41.622 11.362,41.663 C11.321,41.663 11.28,41.704 11.239,41.745 C11.198,41.786 11.157,41.827 11.116,41.827 L10.993,41.95 C10.952,41.991 10.911,42.032 10.87,42.032 L10.747,42.155 C10.747,42.196 10.706,42.237 10.665,42.278 C10.624,42.278 10.583,42.319 10.542,42.36 L10.419,42.483 C10.009,42.77 9.681,43.098 9.353,43.508 C9.353,43.549 9.312,43.549 9.271,43.59 L9.148,43.713 C8.902,43.877 8.697,44.082 8.574,44.328 L8.451,44.451 C8.246,44.574 8.082,44.738 8,44.943 L8.082,44.943 L8.082,45.066 L7.959,45.066 C7.959,45.0270242 7.959,44.9880483 7.99422238,44.9842949 L7.99449516,44.9842427 Z M4.146,51.134 C4.023,51.339 3.941,51.503 3.859,51.708 C4.064,51.585 4.146,51.38 4.228,51.216 C4.72,50.355 5.253,49.576 5.827,48.797 C6.975,47.239 8.205,45.763 9.558,44.369 L11.731,42.278 C11.813,42.237 11.895,42.155 11.936,42.073 L11.936,41.991 L11.895,41.991 C11.813,42.032 11.731,42.073 11.69,42.155 C10.624,43.057 9.681,44.041 8.738,45.025 C6.975,46.911 5.417,48.92 4.146,51.134 Z M10.952,42.114 C10.952,42.114 10.993,42.114 10.993,42.073 L10.993,42.196 C10.952,42.196 10.952,42.155 10.911,42.155 C10.911,42.155 10.911,42.114 10.952,42.114 Z M9.148,53.963 C9.927,53.061 10.542,52.077 11.116,51.052 C11.936,49.535 12.387,47.936 12.428,46.296 C12.469,45.107 12.387,43.877 12.223,42.729 C12.182,42.647 12.182,42.565 12.141,42.483 C12.1,42.401 11.977,42.36 11.895,42.401 C11.567,42.688 11.239,42.934 10.952,43.221 C10.296,43.877 9.599,44.533 8.984,45.271 L8.492,45.763 L8.492,45.804 C8.451,45.804 8.41,45.845 8.41,45.886 L8.369,45.886 C8.287,46.009 8.205,46.091 8.123,46.173 C7.754,46.501 7.508,46.952 7.18,47.321 C7.016,47.444 6.893,47.608 6.811,47.813 L6.811,47.854 C6.77,47.854 6.729,47.895 6.688,47.936 C6.401,48.264 6.114,48.592 5.95,48.961 L5.827,49.166 C5.663,49.289 5.54,49.494 5.458,49.699 L5.458,49.658 L5.335,49.904 L5.335,49.863 C4.966,50.232 4.802,50.683 4.556,51.134 L4.556,51.093 L4.433,51.339 L4.433,51.298 C4.392,51.38 4.351,51.462 4.31,51.503 C4.023,51.954 3.777,52.364 3.613,52.856 C3.49,53.061 3.408,53.266 3.326,53.471 L3.367,53.471 C3.203,53.676 3.08,53.922 3.08,54.168 C2.916,54.291 2.957,54.455 2.875,54.578 C2.588,55.234 2.424,55.89 2.424,56.546 C2.383,56.71 2.383,56.874 2.383,57.038 C2.301,57.448 2.383,57.817 2.465,58.227 C2.506,58.391 2.588,58.514 2.67,58.637 C2.793,58.801 2.916,58.842 3.121,58.76 C3.613,58.555 4.064,58.35 4.515,58.063 C5.294,57.571 6.032,57.038 6.77,56.423 C7.631,55.685 8.41,54.865 9.148,53.963 Z M9.394,43.549 C9.435,43.549 9.476,43.508 9.517,43.508 C9.517,43.549 9.476,43.59 9.476,43.631 L9.394,43.631 L9.394,43.549 Z M9.19292875,43.7539985 C9.23004467,43.7539553 9.23135327,43.7526467 9.271,43.713 L9.271,43.836 C9.23306565,43.7980656 9.23022922,43.7601313 9.19754356,43.7546705 L9.19292875,43.7539985 Z M8.779,44.246 L8.902,44.123 L8.902,44.246 L8.779,44.246 Z M8.656,44.451 L8.574,44.451 L8.574,44.328 L8.697,44.328 C8.697,44.369 8.656,44.41 8.656,44.451 Z M7.713,45.476 L7.631,45.476 L7.631,45.353 L7.713,45.353 C7.754,45.312 7.795,45.312 7.836,45.271 L7.836,45.353 L7.754,45.353 C7.713,45.394 7.713,45.435 7.713,45.476 Z M7.631,45.476 C7.631,45.517 7.631,45.517 7.59,45.558 L7.508,45.476 L7.631,45.476 Z M7.139,45.886 C6.975,45.968 6.852,46.132 6.811,46.296 L6.893,46.296 L7.016,46.173 L7.016,46.296 C7.057,46.255 7.098,46.214 7.098,46.173 L7.016,46.173 C7.057,46.132 7.098,46.132 7.139,46.091 L7.139,45.886 Z M6.319,46.911 C6.278,46.952 6.237,46.993 6.196,46.993 L6.278,46.993 C6.278,46.993 6.319,46.952 6.319,46.911 L6.401,46.911 L6.401,46.993 L6.524,46.911 L6.401,46.911 L6.524,46.788 C6.524,46.747 6.524,46.665 6.565,46.583 L6.647,46.583 C6.688,46.583 6.729,46.542 6.77,46.501 L6.77,46.296 C6.688,46.378 6.606,46.46 6.565,46.583 C6.442,46.665 6.36,46.788 6.319,46.911 Z M6.196,47.034 C6.073,47.075 6.032,47.198 5.95,47.28 C6.032,47.28 6.114,47.239 6.155,47.198 L6.196,47.034 Z M6.401,47.034 L6.319,47.034 C6.278,47.075 6.278,47.157 6.278,47.198 L6.401,47.034 Z M5.827,47.526 C5.786,47.567 5.745,47.608 5.704,47.608 L5.827,47.608 L5.827,47.526 L5.95,47.526 L5.95,47.321 L5.827,47.526 Z M5.704,47.649 C5.663,47.69 5.622,47.731 5.581,47.813 L5.663,47.813 C5.704,47.772 5.704,47.69 5.704,47.649 Z M5.909,47.649 L5.827,47.649 C5.827,47.69 5.786,47.772 5.786,47.813 L5.909,47.649 Z M12.346,52.118 C12.592,51.708 12.797,51.298 12.92,50.847 C12.715,50.97 12.674,51.175 12.551,51.339 C12.1,52.2 11.608,53.061 10.993,53.84 C10.911,53.963 10.788,54.127 10.747,54.291 C10.87,54.209 10.993,54.127 11.075,54.004 C11.567,53.43 11.977,52.774 12.346,52.118 Z M10.378,53.389 C10.583,53.225 10.706,52.938 10.911,52.774 C10.952,52.692 10.993,52.61 11.075,52.569 C11.034,52.61 11.034,52.692 11.034,52.733 C11.116,52.692 11.157,52.651 11.157,52.569 L11.034,52.569 C11.116,52.487 11.157,52.405 11.198,52.364 L11.157,52.528 C11.239,52.487 11.28,52.446 11.28,52.364 C11.362,52.323 11.403,52.241 11.444,52.159 C11.526,52.118 11.526,52.036 11.526,51.954 C11.69,51.79 11.772,51.626 11.813,51.421 L11.731,51.421 C11.69,51.503 11.649,51.585 11.567,51.626 L11.69,51.421 C11.731,51.339 11.731,51.216 11.731,51.134 C11.608,51.216 11.567,51.339 11.485,51.462 C11.28,51.831 11.034,52.159 10.829,52.528 L10.337,53.348 C10.214,53.43 10.132,53.553 10.091,53.676 C10.214,53.635 10.296,53.512 10.378,53.389 Z M11.526,51.954 L11.444,51.954 C11.485,51.831 11.485,51.708 11.567,51.626 C11.567,51.749 11.567,51.831 11.526,51.954 Z M13.043,51.667 L12.879,51.913 C12.879,51.831 12.92,51.708 12.92,51.626 C12.961,51.626 13.002,51.667 13.043,51.667 Z M3.82825,51.8925 C3.84875,51.84125 3.859,51.79 3.859,51.749 C3.818,51.79 3.78725,51.831 3.76675,51.877125 L3.82825,51.8925 Z M12.756,52.159 L12.756,52.118 C12.797,52.077 12.838,51.995 12.879,51.913 L12.879,51.954 C12.838,51.995 12.797,52.077 12.756,52.159 Z M11.444,51.954 L11.403,52.118 C11.362,52.118 11.362,52.118 11.321,52.159 C11.362,52.077 11.403,51.995 11.444,51.954 Z M3.736,52.077 C3.531,52.241 3.408,52.487 3.326,52.733 C3.572,52.569 3.654,52.323 3.736,52.077 Z M11.198,52.364 C11.239,52.282 11.28,52.2 11.321,52.159 C11.321,52.2 11.28,52.282 11.28,52.364 L11.198,52.364 Z M11.034,52.774 L10.952,52.774 C10.911,52.815 10.911,52.897 10.911,52.938 L11.034,52.774 Z M3.121,53.266 C3.08,53.266 3.08,53.307 3.039,53.348 L3.08,53.389 L3.121,53.348 L3.121,53.266 Z M38.585998,35.062 C38.626998,35.103 38.708998,35.144 38.708998,35.185 C38.667998,35.267 38.626998,35.349 38.585998,35.349 C38.421998,35.472 38.257998,35.554 38.052998,35.677 L35.223998,37.44 C34.198998,38.096 33.132998,38.752 32.107998,39.408 C31.451998,39.777 30.877998,40.228 30.262998,40.597 C29.278998,41.212 28.335998,41.868 27.269998,42.319 C26.859998,42.483 26.408998,42.647 25.957998,42.729 C25.670998,42.77 25.424998,42.77 25.137998,42.77 C25.014998,42.77 24.850998,42.729 24.727998,42.647 C24.235998,42.401 23.784998,42.073 23.497998,41.54 C23.251998,41.089 23.251998,40.597 23.292998,40.105 C23.374998,39.039 23.702998,38.055 24.071998,37.071 C24.358998,36.374 24.809998,35.759 25.096998,35.103 C25.670998,34.365 26.121998,33.545 26.818998,32.889 C27.146998,32.561 27.474998,32.233 27.884998,31.946 L28.417998,31.7 C28.868998,31.495 29.319998,31.536 29.729998,31.782 C30.016998,31.987 30.262998,32.233 30.508998,32.479 C30.795998,32.807 30.918998,33.217 30.918998,33.668 C30.959998,34.201 30.836998,34.775 30.672998,35.308 L30.426998,35.677 C30.344998,35.841 30.180998,35.923 30.016998,35.882 C29.852998,35.8 29.770998,35.718 29.729998,35.554 C29.729998,35.431 29.729998,35.349 29.770998,35.226 C29.770998,34.775 29.811998,34.283 29.852998,33.791 C29.852998,33.545 29.811998,33.258 29.770998,33.012 C29.770998,32.93 29.729998,32.889 29.688998,32.807 C29.565998,32.766 29.442998,32.848 29.319998,32.93 L28.622998,33.299 C28.581998,33.34 28.499998,33.381 28.458998,33.422 C27.884998,33.955 27.392998,34.57 26.941998,35.185 C26.900998,35.267 26.900998,35.308 26.859998,35.349 L26.777998,35.554 C26.736998,35.595 26.695998,35.677 26.654998,35.718 C26.367998,36.046 26.121998,36.456 25.957998,36.907 C25.916998,37.03 25.834998,37.194 25.752998,37.317 L25.793998,37.317 L25.670998,37.522 C25.629998,37.604 25.629998,37.686 25.588998,37.768 L25.465998,38.055 L25.465998,38.014 C25.465998,38.137 25.424998,38.219 25.383998,38.301 L25.260998,38.588 C25.178998,38.711 25.096998,38.834 25.178998,38.998 C25.219998,39.121 25.137998,39.203 25.055998,39.285 C25.096998,39.408 25.096998,39.531 25.055998,39.654 C24.932998,40.146 24.891998,40.638 24.932998,41.13 C24.932998,41.294 24.932998,41.458 25.055998,41.622 C25.178998,41.581 25.301998,41.581 25.383998,41.54 C25.711998,41.376 25.998998,41.253 26.285998,41.13 C27.064998,40.679 27.843998,40.31 28.622998,39.777 C29.155998,39.449 29.729998,39.121 30.303998,38.793 L32.189998,37.645 L32.558998,37.399 L36.002998,35.39 L37.355998,34.652 L37.683998,34.529 C37.888998,34.447 38.134998,34.447 38.339998,34.611 L38.708998,34.816 L38.585998,35.062 Z M26.9424497,33.4627291 C27.1472389,33.3399397 27.3110884,33.2989398 27.433998,33.217 C27.433998,33.135 27.474998,33.053 27.474998,32.971 L27.720998,32.971 C27.761998,32.889 27.843998,32.848 27.884998,32.766 C28.048998,32.725 28.048998,32.725 28.007998,32.602 L28.130998,32.397 C27.802998,32.52 27.761998,32.561 27.433998,32.93 L27.187998,33.135 C27.1088771,33.2141209 27.0679276,33.3314133 26.9546559,33.450046 L26.9424497,33.4627291 Z M28.868998,32.766 L28.950998,32.766 C28.9901093,32.766 28.991911,32.7286904 28.991994,32.725253 C28.9613082,32.7045002 28.950998,32.7044399 28.950998,32.725 C28.909998,32.725 28.909998,32.766 28.868998,32.766 Z M28.868998,32.766 C28.786998,32.807 28.663998,32.848 28.581998,32.93 C28.376998,33.053 28.212998,33.176 28.089998,33.34 C27.515998,33.832 27.064998,34.447 26.654998,35.062 C26.572998,35.144 26.572998,35.226 26.531998,35.308 C26.654998,35.226 26.736998,35.144 26.818998,35.021 C27.351998,34.283 27.925998,33.627 28.622998,33.053 C28.745998,32.971 28.786998,32.848 28.868998,32.766 Z M26.859998,35.554 C26.818998,35.595 26.777998,35.677 26.777998,35.718 L26.777998,35.554 L26.859998,35.554 Z M26.654998,35.882 L26.654998,35.718 L26.777998,35.718 L26.654998,35.882 Z M26.121998,36.005 C26.080998,36.046 26.039998,36.087 25.998998,36.169 L26.121998,36.005 Z M35.838998,36.702 C35.920998,36.661 36.043998,36.62 36.084998,36.538 L35.838998,36.702 Z M25.875998,37.358 L25.793998,37.481 L25.793998,37.317 C25.793998,37.358 25.834998,37.358 25.875998,37.358 Z M34.731998,37.399 L34.813998,37.317 C34.772998,37.358 34.772998,37.358 34.731998,37.358 L34.690998,37.399 L34.731998,37.399 Z M33.389248,38.265125 C33.440498,38.2395 33.481498,38.1985 33.501998,38.137 C33.460998,38.178 33.419998,38.20875 33.373873,38.234375 L33.389248,38.265125 Z M32.348873,38.941625 C32.415498,38.90575 32.476998,38.8545 32.517998,38.752 C32.415498,38.7725 32.343748,38.8135 32.287373,38.86475 L32.348873,38.941625 Z M44.085121,38.137 C44.079996,38.12675 44.079996,38.1165 44.079996,38.096 L43.997996,38.178 C43.997996,38.219 43.956996,38.26 43.915996,38.301 C43.792996,38.342 43.710996,38.383 43.669996,38.506 C43.628996,38.547 43.587996,38.588 43.546996,38.588 C43.546996,38.629 43.505996,38.67 43.464996,38.711 C43.464996,38.752 43.423996,38.752 43.423996,38.793 C43.095996,38.957 42.890996,39.244 42.685996,39.531 L42.890996,39.531 C42.808996,39.654 42.685996,39.777 42.562996,39.941 C42.562996,39.859 42.562996,39.777 42.521996,39.736 C42.398996,39.818 42.275996,39.982 42.193996,40.146 C41.824996,40.515 41.496996,40.884 41.291996,41.376 L41.209996,41.458 C41.168996,41.499 41.127996,41.54 41.127996,41.581 C41.086996,41.622 41.045996,41.622 41.045996,41.622 C41.004996,41.704 41.045996,41.868 40.881996,41.909 C40.717996,41.95 40.553996,41.991 40.348996,41.909 C40.061996,41.786 39.815996,41.704 39.692996,41.376 C39.651996,41.253 39.528996,41.171 39.446996,41.089 C39.241996,40.884 39.200996,40.679 39.282996,40.433 C39.651996,39.326 39.938996,38.219 40.307996,37.071 C40.635996,36.087 41.004996,35.144 41.291996,34.16 C41.414996,33.709 41.537996,33.258 41.742996,32.848 L41.865996,32.602 C41.906996,32.52 41.988996,32.52 42.070996,32.561 C42.275996,32.684 42.439996,32.848 42.521996,33.094 C42.644996,33.422 42.603996,33.75 42.562996,34.078 C42.439996,34.939 42.070996,35.718 42.070996,36.538 C42.070996,36.661 41.988996,36.743 41.988996,36.825 C41.988996,36.907 41.988996,36.948 42.070996,37.03 C42.152996,37.112 42.234996,37.03 42.275996,36.989 L42.685996,36.62 C43.341996,35.964 44.079996,35.513 44.817996,34.98 C45.391996,34.57 45.965996,34.283 46.580996,33.914 C47.359996,33.463 48.179996,33.053 49.040996,32.643 C49.573996,32.397 50.188996,32.192 50.803996,32.11 C51.377996,32.028 51.869996,32.192 52.320996,32.643 C52.566996,32.889 52.812996,33.135 52.976996,33.422 C53.017996,33.504 52.976996,33.586 52.894996,33.668 C52.812996,33.75 52.771996,33.627 52.648996,33.627 C52.607996,33.627 52.607996,33.627 52.566996,33.586 C52.238996,33.258 51.992996,33.176 51.664996,33.299 C51.418996,33.381 51.213996,33.422 51.008996,33.504 C50.352996,33.75 49.737996,34.078 49.122996,34.365 C48.794996,34.529 48.507996,34.734 48.220996,34.939 C48.097996,35.021 47.933996,35.103 47.769996,35.185 C47.687996,35.226 47.564996,35.226 47.523996,35.349 C47.482996,35.513 47.236996,35.595 47.072996,35.718 L46.990996,35.8 L46.990996,35.841 C46.867996,35.882 46.744996,35.964 46.621996,36.005 L46.621996,36.046 C46.5827996,36.0851964 46.5436032,36.0869207 46.5402305,36.1228202 C46.5388024,36.0869912 46.498996,36.0863988 46.498996,36.046 L46.498996,36.005 C46.416996,36.046 46.293996,36.087 46.252996,36.21 C46.170996,36.292 46.047996,36.333 45.965996,36.415 C45.883996,36.497 45.760996,36.538 45.678996,36.661 L45.596996,36.743 C45.473996,36.784 45.391996,36.866 45.309996,36.948 L45.350996,36.948 C45.309996,36.989 45.268996,37.03 45.268996,37.071 C45.186996,37.071 45.145996,37.112 45.063996,37.153 L44.981996,37.276 C44.817996,37.317 44.694996,37.44 44.612996,37.563 L44.530996,37.686 C44.325996,37.768 44.161996,37.891 44.120996,38.096 L44.079996,38.096 C44.100496,38.1165 44.110746,38.12675 44.115871,38.137 L44.085121,38.137 Z M49.773871,32.889 C49.819996,32.8685 49.840496,32.848 49.819996,32.848 C49.758496,32.848 49.707246,32.85825 49.666246,32.873625 L49.773871,32.889 Z M47.031996,34.40601 C47.031996,34.447 47.0319993,34.4470033 47.072996,34.488 C47.113996,34.488 47.195996,34.447 47.236996,34.406 L47.072996,34.365 C47.113996,34.365 47.154996,34.324 47.236996,34.283 L47.236996,34.365 C47.441996,34.324 47.605996,34.242 47.687996,34.078 L47.892996,33.996 C47.974996,33.955 48.015996,33.955 48.056996,33.873 C48.138996,33.873 48.220996,33.832 48.261996,33.791 C48.384996,33.75 48.425996,33.627 48.548996,33.545 L48.548996,33.586 L48.712996,33.463 L48.712996,33.381 C48.794996,33.381 48.835996,33.381 48.917996,33.34 L48.917996,33.258 C49.122996,33.34 49.245996,33.217 49.368996,33.135 L49.368996,33.053 L49.573996,33.053 C49.573996,33.012 49.573996,32.971 49.532996,32.971 C49.491996,32.971 49.409996,32.971 49.368996,33.053 C49.163996,33.053 48.999996,33.094 48.876996,33.258 C48.794996,33.258 48.712996,33.258 48.671996,33.34 C47.933996,33.627 47.277996,34.037 46.621996,34.447 C46.293996,34.57 46.006996,34.775 45.801996,34.98 C45.596996,35.021 45.432996,35.144 45.309996,35.267 C45.145996,35.349 44.981996,35.472 44.858996,35.595 C44.776996,35.636 44.653996,35.718 44.571996,35.8 C44.489996,35.841 44.366996,35.882 44.325996,36.046 C44.202996,36.046 44.120996,36.128 44.079996,36.251 C43.915996,36.292 43.792996,36.374 43.710996,36.538 C43.710996,36.5744997 43.6785027,36.578506 43.6713695,36.6078725 C43.6808139,36.6098957 43.7164049,36.579 43.751996,36.579 C43.792996,36.538 43.874996,36.538 43.915996,36.538 C43.915996,36.579 43.956996,36.62 43.956996,36.62 C44.079996,36.62 44.161996,36.538 44.202996,36.456 L43.997996,36.456 C44.038996,36.374 44.038996,36.292 44.079996,36.251 L44.284996,36.251 L44.284996,36.333 L44.489996,36.251 L44.284996,36.251 C44.284996,36.169 44.325996,36.087 44.366996,36.046 L44.571996,36.046 L44.571996,36.128 C44.612996,36.087 44.694996,36.046 44.735996,36.046 L44.571996,36.046 C44.571996,35.964 44.612996,35.923 44.653996,35.882 C44.694996,35.841 44.776996,35.841 44.817996,35.841 C44.817996,35.841 44.858996,35.882 44.858996,35.923 C44.940996,35.923 44.981996,35.882 45.022996,35.841 L44.817996,35.841 C44.858996,35.759 44.899996,35.718 44.940996,35.636 L45.104996,35.636 L45.104996,35.718 C45.186996,35.718 45.268996,35.677 45.309996,35.636 C45.432996,35.595 45.514996,35.513 45.555996,35.431 L45.350996,35.431 C45.391996,35.39 45.391996,35.39 45.391996,35.349 L45.555996,35.308 C45.555996,35.349 45.555996,35.39 45.596996,35.431 C45.637996,35.39 45.719996,35.39 45.760996,35.308 C45.883996,35.267 45.965996,35.226 46.047996,35.103 C46.129996,35.103 46.170996,35.062 46.211996,35.021 C46.416996,34.939 46.580996,34.857 46.662996,34.693 L46.662996,34.611 C46.662996,34.652 46.662996,34.652 46.703996,34.693 C46.744996,34.693 46.826996,34.652 46.867996,34.611 C46.949996,34.57 47.031996,34.57 47.031996,34.488 L46.867996,34.488 C46.908713,34.447283 46.989866,34.447002 47.0311412,34.4068432 L47.031996,34.40601 Z M50.352996,33.504 C50.475996,33.463 50.639996,33.381 50.721996,33.258 C50.229996,33.381 49.819996,33.545 49.368996,33.791 C47.810996,34.652 46.334996,35.513 45.022996,36.62 C43.628996,37.768 42.644996,39.203 41.373996,40.474 C41.291996,40.556 41.168996,40.679 41.168996,40.843 L41.168996,40.884 L41.209996,40.884 C41.455996,40.72 41.578996,40.474 41.742996,40.269 C42.849996,38.916 44.038996,37.604 45.473996,36.497 C46.949996,35.349 48.507996,34.119 50.352996,33.504 Z M46.703996,34.529 C46.744996,34.529 46.785996,34.529 46.826996,34.488 C46.867996,34.529 46.867996,34.57 46.867996,34.611 C46.826996,34.57 46.744996,34.57 46.703996,34.57 L46.703996,34.529 Z M46.006996,35.021 L46.211996,34.898 L46.211996,35.021 L46.006996,35.021 Z M45.842996,35.021 L46.006996,35.021 C46.006996,35.021 46.047996,35.062 46.047996,35.103 L45.842996,35.103 L45.842996,35.021 Z M45.555996,35.308 L45.760996,35.185 L45.760996,35.308 L45.555996,35.308 Z M45.104996,35.636 C45.145996,35.595 45.227996,35.554 45.309996,35.513 L45.309996,35.636 L45.104996,35.636 Z M46.252996,36.333 L46.252996,36.21 C46.211996,36.251 46.252996,36.251 46.252996,36.333 Z M43.628996,36.661 C43.505996,36.661 43.423996,36.743 43.382996,36.825 L43.587996,36.825 C43.587996,36.784 43.628996,36.702 43.628996,36.661 Z M45.719996,36.743 L45.637996,36.825 C45.637996,36.825 45.596996,36.784 45.596996,36.743 L45.719996,36.743 Z M45.555996,36.948 L45.514996,36.948 L45.637996,36.825 L45.637996,36.866 C45.596996,36.907 45.555996,36.907 45.555996,36.948 Z M43.167746,37.08125 C43.208746,37.0505 43.239496,37.0095 43.259996,36.948 C43.218996,36.9685 43.177996,36.99925 43.136996,37.035125 L43.167746,37.08125 Z M45.350996,37.071 L45.350996,36.948 L45.514996,36.948 L45.350996,37.071 Z M45.063996,37.153 L45.268996,37.153 L45.063996,37.276 L45.063996,37.153 Z M44.981996,37.358 L44.899996,37.481 C44.940996,37.44 44.981996,37.399 44.981996,37.358 Z M44.653996,37.686 C44.653996,37.645 44.612996,37.604 44.612996,37.563 L44.817996,37.563 C44.735996,37.604 44.694996,37.645 44.653996,37.686 Z M42.552746,37.701375 C42.593746,37.67575 42.624496,37.645 42.644996,37.604 C42.603996,37.604 42.562996,37.6245 42.521996,37.65525 L42.552746,37.701375 Z M44.407996,38.014 L44.366996,38.014 L44.448996,37.891 C44.448996,37.932 44.407996,37.973 44.407996,38.014 Z M44.038996,38.301 C44.038996,38.26 44.038996,38.219 43.997996,38.178 L44.120996,38.178 C44.079996,38.219 44.079996,38.26 44.038996,38.301 Z M43.956679,38.3769624 C43.952869,38.3418906 43.915996,38.3398818 43.915996,38.301 L44.038996,38.301 C43.9987021,38.3412939 43.9584081,38.3419878 43.9570323,38.3809179 L43.956679,38.3769624 Z M43.874996,38.506 L43.833996,38.506 L43.956996,38.383 C43.915996,38.424 43.874996,38.465 43.874996,38.506 Z M43.669996,38.588 L43.669996,38.506 L43.833996,38.506 C43.792996,38.547 43.751996,38.547 43.669996,38.588 Z M43.587996,38.711 L43.587996,38.588 L43.669996,38.588 L43.587996,38.711 Z M43.177996,39.203 C43.136996,39.244 43.095996,39.285 43.095996,39.326 L42.972996,39.408 L43.054996,39.326 L43.136996,39.203 L43.341996,38.998 C43.300996,39.039 43.259996,39.08 43.259996,39.121 C43.218996,39.162 43.177996,39.162 43.177996,39.203 Z M42.9704372,39.4261951 C42.9608659,39.4611301 42.925931,39.496065 42.890996,39.531 L42.931996,39.531 C42.931996,39.4966744 42.9607337,39.4623489 42.9700901,39.4280233 L42.9704372,39.4261951 Z M42.070996,40.556 C42.029996,40.556 42.029996,40.597 41.988996,40.638 L42.070996,40.515 L42.111996,40.515 L42.070996,40.556 Z M41.906996,40.761 C41.865996,40.802 41.865996,40.843 41.824996,40.843 C41.824996,40.802 41.865996,40.802 41.865996,40.761 L41.988996,40.638 C41.947996,40.679 41.906996,40.72 41.906996,40.761 Z M41.783996,40.884 C41.783996,40.925 41.783996,40.925 41.742996,40.966 L41.660996,41.048 C41.660996,41.007 41.701996,41.007 41.701996,40.966 L41.783996,40.884 Z M41.5022299,41.2117604 C41.5380771,41.2083534 41.5398193,41.1691767 41.578996,41.13 L41.660996,41.048 L41.578996,41.171 C41.578996,41.171 41.5415753,41.2084207 41.5024839,41.2117621 L41.5022299,41.2117604 Z M41.209996,41.581 L41.209996,41.458 L41.291996,41.458 C41.291996,41.499 41.250996,41.54 41.209996,41.581 Z M68.884994,34.57 L69.294994,34.57 C69.212994,34.693 69.089994,34.816 68.966994,34.857 C68.802994,34.898 68.679994,34.898 68.556994,34.939 C66.957994,35.472 66.957994,35.636 65.317994,35.923 C64.456994,36.087 63.554994,36.21 62.693994,36.169 C62.119994,36.169 61.627994,36.046 61.176994,35.759 L60.930994,35.636 C60.848994,35.595 60.766994,35.636 60.725994,35.718 C60.684994,35.841 60.602994,35.964 60.561994,36.087 C60.356994,36.661 60.110994,37.194 59.864994,37.727 C59.659994,38.096 59.495994,38.424 59.208994,38.711 C59.167994,38.752 59.126994,38.793 59.126994,38.834 C59.003994,39.162 58.716994,39.326 58.511994,39.572 C58.470994,39.613 58.429994,39.654 58.429994,39.695 L58.306994,39.818 L58.306994,39.777 C58.060994,40.023 57.773994,40.228 57.609994,40.556 C57.609994,40.597 57.609994,40.597 57.568994,40.638 C57.035994,40.925 56.543994,41.294 55.887994,41.212 C55.518994,41.171 55.190994,40.966 54.944994,40.679 C54.329994,40.023 54.206994,39.244 54.452994,38.383 C54.575994,38.014 54.739994,37.645 54.903994,37.235 C55.354994,36.169 55.969994,35.185 56.625994,34.242 C56.994994,33.75 57.404994,33.299 57.773994,32.848 C57.855994,32.766 57.937994,32.684 58.060994,32.602 C58.142994,32.52 58.265994,32.438 58.429994,32.52 C58.552994,32.602 58.716994,32.725 58.716994,32.971 C58.675994,33.176 58.634994,33.381 58.511994,33.586 C58.183994,34.078 57.814994,34.611 57.486994,35.144 C57.240994,35.513 56.994994,35.923 56.789994,36.333 C56.420994,37.194 56.010994,38.014 55.805994,38.957 C55.723994,39.162 55.682994,39.408 55.682994,39.654 C55.641994,39.777 55.764994,39.859 55.928994,39.818 C56.051994,39.777 56.174994,39.654 56.297994,39.572 C57.199994,38.793 57.937994,37.932 58.552994,36.948 C59.044994,36.128 59.413994,35.226 59.700994,34.324 C59.823994,33.955 59.987994,33.586 60.069994,33.217 C60.192994,32.848 60.438994,32.889 60.602994,33.094 C60.889994,33.422 61.176994,33.75 61.299994,34.201 C61.340994,34.488 61.504994,34.57 61.750994,34.57 C62.365994,34.611 62.939994,34.611 63.554994,34.529 C67.777994,33.996 66.793994,33.955 68.105994,33.627 C68.187994,33.586 68.310994,33.586 68.433994,33.586 C68.638994,33.586 68.925994,33.627 68.925994,33.832 L68.925994,33.873 C69.007994,34.037 69.253994,34.078 69.212994,34.242 C69.171994,34.447 68.966994,34.406 68.884994,34.57 Z M56.666994,40.105 L56.789994,39.982 C56.830994,39.982 56.912994,39.941 56.953994,39.9 L56.748994,39.9 C56.789994,39.859 56.789994,39.818 56.789994,39.818 C56.707994,39.818 56.666994,39.859 56.625994,39.859 C56.543994,39.9 56.420994,39.982 56.379994,40.105 L56.666994,40.105 Z M56.994994,40.638 C57.363994,40.515 57.650994,40.269 57.773994,39.9 C57.486994,40.105 57.199994,40.31 56.953994,40.597 C56.953994,40.597 56.912994,40.638 56.912994,40.679 C56.953994,40.638 56.953994,40.638 56.994994,40.638 Z M74.2949721,31.7330383 C74.2867188,31.8040255 74.255992,31.8750128 74.255992,31.946 L74.214992,31.946 C74.173992,31.987 74.132992,31.987 74.091992,32.028 L73.968992,32.356 C73.927992,32.438 73.886992,32.479 73.845992,32.561 L73.886992,32.52 C73.886992,32.52 73.927992,32.52 73.968992,32.561 L73.886992,32.561 C73.804992,32.725 73.763992,32.848 73.681992,32.971 L73.599992,33.176 C73.435992,33.381 73.353992,33.627 73.312992,33.873 C73.107992,34.242 72.943992,34.611 72.902992,35.021 C72.738992,35.144 72.738992,35.267 72.697992,35.472 C72.738992,35.472 72.779992,35.513 72.820992,35.513 L72.697992,35.513 L72.697992,35.472 C72.533992,35.923 72.410992,36.333 72.246992,36.743 C72.205992,36.825 72.164992,36.907 72.246992,37.03 L72.164992,37.153 C72.041992,37.276 72.000992,37.399 72.000992,37.522 C71.795992,37.973 71.631992,38.465 71.549992,38.957 C71.508992,39.039 71.508992,39.162 71.467992,39.244 C71.426992,39.367 71.385992,39.49 71.385992,39.613 L71.385992,39.572 C71.344992,39.695 71.303992,39.777 71.303992,39.859 C71.221992,39.941 71.180992,40.064 71.139992,40.187 C70.975992,40.802 70.770992,41.458 70.688992,42.073 L70.565992,43.016 C70.483992,43.426 70.483992,43.795 70.524992,44.205 C70.524992,44.328 70.565992,44.492 70.688992,44.574 C70.770992,44.574 70.852992,44.574 70.934992,44.533 C71.139992,44.369 71.385992,44.246 71.590992,44.082 C72.041992,43.713 72.492992,43.303 72.943992,42.893 C73.722992,42.155 74.501992,41.417 75.280992,40.638 C75.895992,40.105 76.469992,39.49 77.043992,38.916 C77.494992,38.465 77.986992,37.973 78.478992,37.522 L80.692992,35.513 C81.348992,34.939 82.004992,34.365 82.660992,33.832 C82.701992,33.791 82.742992,33.75 82.824992,33.709 C83.029992,33.504 83.275992,33.422 83.562992,33.668 C83.685992,33.791 83.644992,33.955 83.480992,34.078 C83.193992,34.324 82.906992,34.611 82.578992,34.857 C80.979992,36.333 79.421992,37.85 77.904992,39.408 L76.674992,40.679 C76.182992,41.171 75.731992,41.663 75.239992,42.114 C74.337992,42.934 73.476992,43.795 72.492992,44.574 C72.287992,44.738 72.041992,44.902 71.795992,45.066 C71.590992,45.189 71.344992,45.271 71.139992,45.353 C70.360992,45.558 69.499992,45.025 69.294992,44.246 C69.171992,43.672 69.212992,43.098 69.294992,42.565 C69.376992,41.458 69.581992,40.433 69.868992,39.408 L70.606992,36.825 C70.647992,36.579 70.729992,36.374 70.770992,36.169 C70.934992,35.8 71.016992,35.431 71.180992,35.062 C71.344992,34.734 71.426992,34.365 71.549992,34.037 C71.795992,33.34 72.082992,32.643 72.328992,31.946 C72.533992,31.454 72.697992,30.962 72.943992,30.47 C73.148992,30.101 73.271992,29.65 73.476992,29.24 C73.968992,28.133 74.501992,27.026 75.034992,25.919 C75.444992,25.058 75.895992,24.197 76.346992,23.336 C76.551992,22.926 76.715992,22.516 76.920992,22.106 L77.863992,20.384 L78.601992,18.908 C78.929992,18.293 79.257992,17.678 79.544992,17.063 L81.266992,13.947 C81.799992,13.004 82.250992,12.02 82.783992,11.036 C83.029992,10.544 83.316992,10.093 83.562992,9.601 L84.054992,8.699 C84.423992,7.879 84.874992,7.141 85.284992,6.362 C86.145992,4.845 87.047992,3.369 87.990992,1.893 C88.072992,1.811 88.113992,1.688 88.195992,1.606 C88.441992,1.278 88.687992,0.991 88.892992,0.704 C89.015992,0.663 89.056992,0.745 89.097992,0.827 C89.138992,0.991 89.138992,1.196 89.097992,1.36 C88.974992,1.811 88.769992,2.262 88.564992,2.713 C88.359992,3.205 88.113992,3.697 87.867992,4.189 L87.252992,5.419 C87.129992,5.747 86.965992,6.034 86.801992,6.362 L86.432992,7.1 C85.940992,8.043 85.448992,8.945 85.038992,9.888 C85.038992,9.97 84.997992,10.011 84.956992,10.093 C84.915992,10.134 84.915992,10.216 84.874992,10.257 C84.833992,10.339 84.792992,10.38 84.792992,10.462 L84.792992,10.421 C84.505992,10.831 84.300992,11.241 84.177992,11.692 C84.136992,11.774 84.095992,11.815 84.054992,11.856 C83.890992,12.102 83.767992,12.307 83.726992,12.594 C83.685992,12.635 83.685992,12.717 83.644992,12.758 C83.562992,12.881 83.480992,12.922 83.398992,13.045 C83.193992,13.455 82.988992,13.906 82.742992,14.357 L82.742992,14.48 C82.701992,14.521 82.660992,14.603 82.619992,14.644 C82.455992,14.849 82.291992,15.095 82.250992,15.382 L82.168992,15.464 C81.963992,15.915 81.717992,16.407 81.471992,16.899 C81.430992,16.94 81.389992,17.022 81.389992,17.063 L81.266992,17.227 C81.143992,17.391 81.020992,17.596 81.020992,17.801 C80.610992,18.375 80.282992,18.99 80.036992,19.646 L79.954992,19.851 C79.913992,19.892 79.872992,19.974 79.872992,20.015 L79.749992,20.179 L79.790992,20.179 L79.667992,20.384 C79.585992,20.507 79.462992,20.671 79.380992,20.794 L78.027992,23.5 C77.904992,23.787 77.699992,24.074 77.617992,24.402 C77.576992,24.443 77.576992,24.525 77.535992,24.566 C77.494992,24.689 77.412992,24.812 77.371992,24.935 L77.248992,25.099 C77.207992,25.222 77.125992,25.345 77.084992,25.468 C77.0442761,25.5494319 77.043994,25.5904299 77.0038383,25.6311478 C77.043992,25.632 77.0439937,25.6320017 77.084992,25.673 L77.002992,25.673 L77.002992,25.632 L76.797992,26.001 L76.838992,26.001 C76.797992,26.083 76.756992,26.124 76.756992,26.165 C76.756992,26.165 76.797992,26.206 76.838992,26.206 L76.715992,26.206 L76.715992,26.165 C76.510992,26.493 76.387992,26.821 76.264992,27.149 L76.305992,27.149 C76.264992,27.231 76.223992,27.313 76.182992,27.354 C76.182992,27.395 76.141992,27.477 76.100992,27.518 L76.018992,27.723 C75.977992,27.764 75.936992,27.846 75.936992,27.887 C75.854992,27.969 75.772992,28.092 75.731992,28.174 C75.444992,28.871 75.157992,29.527 74.829992,30.183 C74.788992,30.265 74.788992,30.388 74.747992,30.47 C74.747992,30.552 74.706992,30.593 74.665992,30.675 L74.747992,30.675 C74.747992,30.716 74.706992,30.798 74.665992,30.839 C74.419992,31.085 74.255992,31.372 74.173992,31.7 C74.132992,31.782 74.173992,31.864 74.214992,31.905 C74.2504281,31.8695639 74.2858642,31.8035005 74.2948293,31.7332808 L74.2949721,31.7330383 Z M83.199117,12.99375 C83.224742,12.9425 83.234992,12.881 83.234992,12.799 C83.193992,12.8605 83.152992,12.91175 83.122242,12.963 L83.199117,12.99375 Z M82.937742,13.511375 C82.958242,13.455 82.968492,13.3935 82.988992,13.332 C82.968492,13.3935 82.937742,13.44475 82.906992,13.496 L82.937742,13.511375 Z M82.461117,14.444125 C82.496992,14.3775 82.517492,14.2955 82.537992,14.193 C82.455992,14.2545 82.404742,14.32625 82.368867,14.398 L82.461117,14.444125 Z M82.373992,15.382 C82.332992,15.423 82.291992,15.464 82.291992,15.505 L82.291992,15.382 L82.373992,15.382 Z M81.584742,16.0995 C81.615492,16.04825 81.635992,15.997 81.635992,15.956 C81.574492,15.997 81.533492,16.038 81.507867,16.084125 L81.584742,16.0995 Z M81.225992,16.817 C81.307992,16.694 81.348992,16.571 81.389992,16.448 C81.225992,16.53 81.184992,16.694 81.102992,16.817 C80.692992,17.637 80.241992,18.457 79.831992,19.236 C79.175992,20.507 78.519992,21.737 77.904992,22.967 C77.207992,24.402 76.469992,25.837 75.772992,27.313 C75.157992,28.584 74.583992,29.855 74.009992,31.167 C73.353992,32.684 72.738992,34.242 72.205992,35.841 C71.754992,37.112 71.344992,38.383 70.975992,39.695 L70.893992,40.146 C70.811992,40.351 70.729992,40.556 70.729992,40.761 C70.688992,40.802 70.647992,40.884 70.729992,41.007 L70.729992,40.761 C70.893992,40.556 70.934992,40.351 70.893992,40.146 C71.057992,39.941 71.057992,39.736 71.139992,39.531 C71.631992,37.932 72.123992,36.374 72.738992,34.816 C73.476992,32.807 74.337992,30.798 75.239992,28.83 C75.772992,27.723 76.264992,26.616 76.797992,25.55 L78.396992,22.352 L81.225992,16.817 Z M81.471992,17.063 C81.430992,17.104 81.430992,17.186 81.389992,17.227 L81.389992,17.063 L81.471992,17.063 Z M80.036992,19.851 C79.995992,19.892 79.995992,19.933 79.954992,20.015 L79.954992,19.851 L80.036992,19.851 Z M79.872992,20.179 L79.872992,20.015 L79.954992,20.015 C79.913992,20.056 79.872992,20.138 79.872992,20.179 Z M79.790992,20.22 L79.872992,20.22 C79.831992,20.261 79.790992,20.302 79.790992,20.384 L79.790992,20.22 Z M79.790992,20.384 C79.749992,20.425 79.708992,20.466 79.667992,20.548 L79.667992,20.384 L79.790992,20.384 Z M76.316242,24.59675 C76.346992,24.5455 76.367492,24.484 76.387992,24.402 C76.326492,24.443 76.275242,24.484 76.239367,24.53525 L76.316242,24.59675 Z M77.371992,25.099 L77.371992,25.14 C77.330992,25.14 77.289992,25.099 77.248992,25.099 L77.371992,25.099 Z M75.403992,26.37 C75.157992,26.657 75.034992,26.985 74.952992,27.354 L75.198992,26.985 C75.239992,26.944 75.239992,26.903 75.280992,26.862 L75.280992,26.985 L75.321992,26.985 L75.321992,26.821 L75.280992,26.862 L75.280992,26.821 C75.321992,26.657 75.362992,26.534 75.403992,26.37 C75.444992,26.329 75.485992,26.329 75.567992,26.288 L75.567992,26.001 C75.526992,26.124 75.444992,26.247 75.403992,26.37 Z M76.182992,27.354 L76.264992,27.354 C76.264992,27.313 76.264992,27.231 76.305992,27.149 L76.305992,27.354 C76.264992,27.395 76.223992,27.477 76.182992,27.518 L76.182992,27.354 Z M76.100992,27.723 L76.100992,27.518 L76.182992,27.518 C76.182992,27.6 76.141992,27.641 76.100992,27.723 Z M76.018992,27.887 L76.018992,27.723 L76.100992,27.723 C76.059992,27.764 76.059992,27.805 76.018992,27.887 Z M74.665992,28.174 L74.665992,27.887 C74.501992,28.051 74.419992,28.215 74.419992,28.461 C74.501992,28.338 74.583992,28.256 74.665992,28.174 Z M74.214992,28.871 C73.968992,29.158 73.845992,29.486 73.763992,29.855 C73.845992,29.732 73.927992,29.65 73.968992,29.527 L74.214992,29.158 L74.214992,28.871 Z M74.870992,30.511 C74.829992,30.552 74.788992,30.593 74.747992,30.675 L74.747992,30.47 C74.788992,30.47 74.829992,30.47 74.870992,30.511 Z M73.230992,31.126 C73.107992,31.208 73.066992,31.372 73.066992,31.536 L73.230992,31.372 L73.230992,31.126 C73.394992,31.003 73.394992,30.839 73.435992,30.675 C73.312992,30.798 73.230992,30.921 73.230992,31.126 Z M72.9661287,31.7785788 C72.9314164,31.8471868 72.8967042,31.9112878 72.861992,31.946 C72.861992,31.987 72.902992,31.987 72.902992,31.987 C72.9398001,31.9133837 72.9435634,31.8397674 72.9736145,31.7661511 L72.9661287,31.7785788 Z M73.804992,33.012 C73.763992,33.053 73.722992,33.094 73.681992,33.176 L73.681992,32.971 C73.722992,32.971 73.763992,33.012 73.804992,33.012 Z M72.380242,33.314375 C72.410992,33.24775 72.431492,33.176 72.451992,33.094 C72.410992,33.1555 72.380242,33.22725 72.349492,33.299 L72.380242,33.314375 Z M71.965117,34.380375 C71.990742,34.3445 72.000992,34.3035 71.959992,34.242 C71.939492,34.283 71.929242,34.324 71.918992,34.365 L71.965117,34.380375 Z M72.369992,36.784 L72.246992,37.03 L72.246992,36.743 C72.287992,36.743 72.328992,36.743 72.369992,36.784 Z M88.5219701,31.7330383 C88.5137168,31.8040255 88.48299,31.8750128 88.48299,31.946 L88.44199,31.946 C88.40099,31.987 88.35999,31.987 88.31899,32.028 L88.19599,32.356 C88.15499,32.438 88.11399,32.479 88.07299,32.561 L88.11399,32.52 C88.11399,32.52 88.15499,32.52 88.19599,32.561 L88.11399,32.561 C88.03199,32.725 87.99099,32.848 87.90899,32.971 L87.82699,33.176 C87.66299,33.381 87.58099,33.627 87.53999,33.873 C87.33499,34.242 87.17099,34.611 87.12999,35.021 C86.96599,35.144 86.96599,35.267 86.92499,35.472 C86.96599,35.472 87.00699,35.513 87.04799,35.513 L86.92499,35.513 L86.92499,35.472 C86.76099,35.923 86.63799,36.333 86.47399,36.743 C86.43299,36.825 86.39199,36.907 86.47399,37.03 L86.39199,37.153 C86.26899,37.276 86.22799,37.399 86.22799,37.522 C86.02299,37.973 85.85899,38.465 85.77699,38.957 C85.73599,39.039 85.73599,39.162 85.69499,39.244 C85.65399,39.367 85.61299,39.49 85.61299,39.613 L85.61299,39.572 C85.57199,39.695 85.53099,39.777 85.53099,39.859 C85.44899,39.941 85.40799,40.064 85.36699,40.187 C85.20299,40.802 84.99799,41.458 84.91599,42.073 L84.79299,43.016 C84.71099,43.426 84.71099,43.795 84.75199,44.205 C84.75199,44.328 84.79299,44.492 84.91599,44.574 C84.99799,44.574 85.07999,44.574 85.16199,44.533 C85.36699,44.369 85.61299,44.246 85.81799,44.082 C86.26899,43.713 86.71999,43.303 87.17099,42.893 C87.94999,42.155 88.72899,41.417 89.50799,40.638 C90.12299,40.105 90.69699,39.49 91.27099,38.916 C91.72199,38.465 92.21399,37.973 92.70599,37.522 L94.91999,35.513 C95.57599,34.939 96.23199,34.365 96.88799,33.832 C96.92899,33.791 96.96999,33.75 97.05199,33.709 C97.25699,33.504 97.50299,33.422 97.78999,33.668 C97.91299,33.791 97.87199,33.955 97.70799,34.078 C97.42099,34.324 97.13399,34.611 96.80599,34.857 C95.20699,36.333 93.64899,37.85 92.13199,39.408 L90.90199,40.679 C90.40999,41.171 89.95899,41.663 89.46699,42.114 C88.56499,42.934 87.70399,43.795 86.71999,44.574 C86.51499,44.738 86.26899,44.902 86.02299,45.066 C85.81799,45.189 85.57199,45.271 85.36699,45.353 C84.58799,45.558 83.72699,45.025 83.52199,44.246 C83.39899,43.672 83.43999,43.098 83.52199,42.565 C83.60399,41.458 83.80899,40.433 84.09599,39.408 L84.83399,36.825 C84.87499,36.579 84.95699,36.374 84.99799,36.169 C85.16199,35.8 85.24399,35.431 85.40799,35.062 C85.57199,34.734 85.65399,34.365 85.77699,34.037 C86.02299,33.34 86.30999,32.643 86.55599,31.946 C86.76099,31.454 86.92499,30.962 87.17099,30.47 C87.37599,30.101 87.49899,29.65 87.70399,29.24 C88.19599,28.133 88.72899,27.026 89.26199,25.919 C89.67199,25.058 90.12299,24.197 90.57399,23.336 C90.77899,22.926 90.94299,22.516 91.14799,22.106 L92.09099,20.384 L92.82899,18.908 C93.15699,18.293 93.48499,17.678 93.77199,17.063 L95.49399,13.947 C96.02699,13.004 96.47799,12.02 97.01099,11.036 C97.25699,10.544 97.54399,10.093 97.78999,9.601 L98.28199,8.699 C98.65099,7.879 99.10199,7.141 99.51199,6.362 C100.37299,4.845 101.27499,3.369 102.21799,1.893 C102.29999,1.811 102.34099,1.688 102.42299,1.606 C102.66899,1.278 102.91499,0.991 103.11999,0.704 C103.24299,0.663 103.28399,0.745 103.32499,0.827 C103.36599,0.991 103.36599,1.196 103.32499,1.36 C103.20199,1.811 102.99699,2.262 102.79199,2.713 C102.58699,3.205 102.34099,3.697 102.09499,4.189 L101.47999,5.419 C101.35699,5.747 101.19299,6.034 101.02899,6.362 L100.65999,7.1 C100.16799,8.043 99.67599,8.945 99.26599,9.888 C99.26599,9.97 99.22499,10.011 99.18399,10.093 C99.14299,10.134 99.14299,10.216 99.10199,10.257 C99.06099,10.339 99.01999,10.38 99.01999,10.462 L99.01999,10.421 C98.73299,10.831 98.52799,11.241 98.40499,11.692 C98.36399,11.774 98.32299,11.815 98.28199,11.856 C98.11799,12.102 97.99499,12.307 97.95399,12.594 C97.91299,12.635 97.91299,12.717 97.87199,12.758 C97.78999,12.881 97.70799,12.922 97.62599,13.045 C97.42099,13.455 97.21599,13.906 96.96999,14.357 L96.96999,14.48 C96.92899,14.521 96.88799,14.603 96.84699,14.644 C96.68299,14.849 96.51899,15.095 96.47799,15.382 L96.39599,15.464 C96.19099,15.915 95.94499,16.407 95.69899,16.899 C95.65799,16.94 95.61699,17.022 95.61699,17.063 L95.49399,17.227 C95.37099,17.391 95.24799,17.596 95.24799,17.801 C94.83799,18.375 94.50999,18.99 94.26399,19.646 L94.18199,19.851 C94.14099,19.892 94.09999,19.974 94.09999,20.015 L93.97699,20.179 L94.01799,20.179 L93.89499,20.384 C93.81299,20.507 93.68999,20.671 93.60799,20.794 L92.25499,23.5 C92.13199,23.787 91.92699,24.074 91.84499,24.402 C91.80399,24.443 91.80399,24.525 91.76299,24.566 C91.72199,24.689 91.63999,24.812 91.59899,24.935 L91.47599,25.099 C91.43499,25.222 91.35299,25.345 91.31199,25.468 C91.2712741,25.5494319 91.270992,25.5904299 91.2308363,25.6311478 C91.27099,25.632 91.2709917,25.6320017 91.31199,25.673 L91.22999,25.673 L91.22999,25.632 L91.02499,26.001 L91.06599,26.001 C91.02499,26.083 90.98399,26.124 90.98399,26.165 C90.98399,26.165 91.02499,26.206 91.06599,26.206 L90.94299,26.206 L90.94299,26.165 C90.73799,26.493 90.61499,26.821 90.49199,27.149 L90.53299,27.149 C90.49199,27.231 90.45099,27.313 90.40999,27.354 C90.40999,27.395 90.36899,27.477 90.32799,27.518 L90.24599,27.723 C90.20499,27.764 90.16399,27.846 90.16399,27.887 C90.08199,27.969 89.99999,28.092 89.95899,28.174 C89.67199,28.871 89.38499,29.527 89.05699,30.183 C89.01599,30.265 89.01599,30.388 88.97499,30.47 C88.97499,30.552 88.93399,30.593 88.89299,30.675 L88.97499,30.675 C88.97499,30.716 88.93399,30.798 88.89299,30.839 C88.64699,31.085 88.48299,31.372 88.40099,31.7 C88.35999,31.782 88.40099,31.864 88.44199,31.905 C88.4774261,31.8695639 88.5128622,31.8035005 88.5218273,31.7332808 L88.5219701,31.7330383 Z M97.426115,12.99375 C97.45174,12.9425 97.46199,12.881 97.46199,12.799 C97.42099,12.8605 97.37999,12.91175 97.34924,12.963 L97.426115,12.99375 Z M97.16474,13.511375 C97.18524,13.455 97.19549,13.3935 97.21599,13.332 C97.19549,13.3935 97.16474,13.44475 97.13399,13.496 L97.16474,13.511375 Z M96.688115,14.444125 C96.72399,14.3775 96.74449,14.2955 96.76499,14.193 C96.68299,14.2545 96.63174,14.32625 96.595865,14.398 L96.688115,14.444125 Z M96.60099,15.382 C96.55999,15.423 96.51899,15.464 96.51899,15.505 L96.51899,15.382 L96.60099,15.382 Z M95.81174,16.0995 C95.84249,16.04825 95.86299,15.997 95.86299,15.956 C95.80149,15.997 95.76049,16.038 95.734865,16.084125 L95.81174,16.0995 Z M95.45299,16.817 C95.53499,16.694 95.57599,16.571 95.61699,16.448 C95.45299,16.53 95.41199,16.694 95.32999,16.817 C94.91999,17.637 94.46899,18.457 94.05899,19.236 C93.40299,20.507 92.74699,21.737 92.13199,22.967 C91.43499,24.402 90.69699,25.837 89.99999,27.313 C89.38499,28.584 88.81099,29.855 88.23699,31.167 C87.58099,32.684 86.96599,34.242 86.43299,35.841 C85.98199,37.112 85.57199,38.383 85.20299,39.695 L85.12099,40.146 C85.03899,40.351 84.95699,40.556 84.95699,40.761 C84.91599,40.802 84.87499,40.884 84.95699,41.007 L84.95699,40.761 C85.12099,40.556 85.16199,40.351 85.12099,40.146 C85.28499,39.941 85.28499,39.736 85.36699,39.531 C85.85899,37.932 86.35099,36.374 86.96599,34.816 C87.70399,32.807 88.56499,30.798 89.46699,28.83 C89.99999,27.723 90.49199,26.616 91.02499,25.55 L92.62399,22.352 L95.45299,16.817 Z M95.69899,17.063 C95.65799,17.104 95.65799,17.186 95.61699,17.227 L95.61699,17.063 L95.69899,17.063 Z M94.26399,19.851 C94.22299,19.892 94.22299,19.933 94.18199,20.015 L94.18199,19.851 L94.26399,19.851 Z M94.09999,20.179 L94.09999,20.015 L94.18199,20.015 C94.14099,20.056 94.09999,20.138 94.09999,20.179 Z M94.01799,20.22 L94.09999,20.22 C94.05899,20.261 94.01799,20.302 94.01799,20.384 L94.01799,20.22 Z M94.01799,20.384 C93.97699,20.425 93.93599,20.466 93.89499,20.548 L93.89499,20.384 L94.01799,20.384 Z M90.54324,24.59675 C90.57399,24.5455 90.59449,24.484 90.61499,24.402 C90.55349,24.443 90.50224,24.484 90.466365,24.53525 L90.54324,24.59675 Z M91.59899,25.099 L91.59899,25.14 C91.55799,25.14 91.51699,25.099 91.47599,25.099 L91.59899,25.099 Z M89.63099,26.37 C89.38499,26.657 89.26199,26.985 89.17999,27.354 L89.42599,26.985 C89.46699,26.944 89.46699,26.903 89.50799,26.862 L89.50799,26.985 L89.54899,26.985 L89.54899,26.821 L89.50799,26.862 L89.50799,26.821 C89.54899,26.657 89.58999,26.534 89.63099,26.37 C89.67199,26.329 89.71299,26.329 89.79499,26.288 L89.79499,26.001 C89.75399,26.124 89.67199,26.247 89.63099,26.37 Z M90.40999,27.354 L90.49199,27.354 C90.49199,27.313 90.49199,27.231 90.53299,27.149 L90.53299,27.354 C90.49199,27.395 90.45099,27.477 90.40999,27.518 L90.40999,27.354 Z M90.32799,27.723 L90.32799,27.518 L90.40999,27.518 C90.40999,27.6 90.36899,27.641 90.32799,27.723 Z M90.24599,27.887 L90.24599,27.723 L90.32799,27.723 C90.28699,27.764 90.28699,27.805 90.24599,27.887 Z M88.89299,28.174 L88.89299,27.887 C88.72899,28.051 88.64699,28.215 88.64699,28.461 C88.72899,28.338 88.81099,28.256 88.89299,28.174 Z M88.44199,28.871 C88.19599,29.158 88.07299,29.486 87.99099,29.855 C88.07299,29.732 88.15499,29.65 88.19599,29.527 L88.44199,29.158 L88.44199,28.871 Z M89.09799,30.511 C89.05699,30.552 89.01599,30.593 88.97499,30.675 L88.97499,30.47 C89.01599,30.47 89.05699,30.47 89.09799,30.511 Z M87.45799,31.126 C87.33499,31.208 87.29399,31.372 87.29399,31.536 L87.45799,31.372 L87.45799,31.126 C87.62199,31.003 87.62199,30.839 87.66299,30.675 C87.53999,30.798 87.45799,30.921 87.45799,31.126 Z M87.1931267,31.7785788 C87.1584144,31.8471868 87.1237022,31.9112878 87.08899,31.946 C87.08899,31.987 87.12999,31.987 87.12999,31.987 C87.1667981,31.9133837 87.1705614,31.8397674 87.2006125,31.7661511 L87.1931267,31.7785788 Z M88.03199,33.012 C87.99099,33.053 87.94999,33.094 87.90899,33.176 L87.90899,32.971 C87.94999,32.971 87.99099,33.012 88.03199,33.012 Z M86.60724,33.314375 C86.63799,33.24775 86.65849,33.176 86.67899,33.094 C86.63799,33.1555 86.60724,33.22725 86.57649,33.299 L86.60724,33.314375 Z M86.192115,34.380375 C86.21774,34.3445 86.22799,34.3035 86.18699,34.242 C86.16649,34.283 86.15624,34.324 86.14599,34.365 L86.192115,34.380375 Z M86.59699,36.784 L86.47399,37.03 C86.47399,36.907 86.47399,36.825 86.47399,36.743 C86.51499,36.743 86.55599,36.743 86.59699,36.784 Z" id="scroll" fill="#464646"></path>
    </g>
</svg>