<?xml version="1.0" encoding="UTF-8"?>
<svg width="63px" height="54px" viewBox="0 0 63 54" version="1.1" xmlns="http://www.w3.org/2000/svg" xmlns:xlink="http://www.w3.org/1999/xlink">
    <!-- Generator: Sketch 52.3 (67297) - http://www.bohemiancoding.com/sketch -->
    <title>step 1</title>
    <desc>Created with Sketch.</desc>
    <g id="Page-1" stroke="none" stroke-width="1" fill="none" fill-rule="evenodd">
        <path d="M19.528,32.056 C20.36,31.608 21.224,32.12 18.472,33.432 C17.256,34.008 14.664,35.576 13.608,36.408 C13.576,36.44 13.512,36.472 13.48,36.536 C13.288,36.664 13.224,36.824 13.288,37.048 C13.384,37.368 13.448,37.72 13.512,38.04 C13.704,38.872 13.832,39.704 13.864,40.536 C13.896,40.984 13.864,41.4 13.832,41.816 C13.768,42.168 13.736,42.488 13.64,42.808 C13.608,42.904 13.608,42.968 13.608,43.064 C13.608,43.224 13.576,43.352 13.48,43.512 C13.48,43.48 13.512,43.448 13.48,43.448 L13.48,43.512 C13.448,43.64 13.48,43.768 13.32,43.832 C13.288,43.864 13.256,43.928 13.224,43.992 L12.84,44.952 C12.712,45.08 12.68,45.208 12.616,45.368 L12.712,45.368 C12.68,45.4 12.648,45.464 12.616,45.496 L12.616,45.528 C12.552,45.56 12.52,45.624 12.488,45.688 L12.52,45.688 C12.456,45.752 12.424,45.816 12.392,45.88 C11.176,47.704 9.672,49.208 7.816,50.424 C7.176,50.84 6.504,51.128 5.768,51.288 C5.384,51.384 5,51.384 4.68,51.256 C4.424,51.16 4.2,51.032 3.976,50.904 C3.56,50.68 3.336,50.328 3.304,49.848 C3.24,49.272 3.304,48.728 3.464,48.152 C3.72,47.224 4.072,46.296 4.552,45.4 C5.16,44.152 5.928,43 6.76,41.848 C7.24,41.208 7.784,40.6 8.328,39.992 C9.032,39.192 9.8,38.424 10.6,37.72 C10.984,37.368 11.336,37.016 11.752,36.696 C11.912,36.536 11.976,36.376 11.912,36.184 L11.656,35.256 C11.464,34.552 11.24,33.816 11.048,33.112 C10.92,32.664 10.856,32.184 10.92,31.704 C10.952,31.096 11.144,30.552 11.56,30.04 C11.912,29.56 12.328,29.112 12.776,28.728 C13.448,28.12 14.216,27.608 15.08,27.352 C15.272,27.288 15.432,27.256 15.624,27.224 C15.816,27.224 15.944,27.32 16.072,27.448 C16.136,27.512 16.104,27.64 16.008,27.704 C15.752,27.8 15.528,27.928 15.272,28.056 C14.92,28.28 14.568,28.472 14.216,28.76 C14.088,28.888 13.928,29.016 13.736,29.08 C13.768,29.048 13.768,28.984 13.8,28.952 C13.832,28.92 13.832,28.888 13.864,28.888 L13.96,28.792 C14.152,28.696 14.344,28.568 14.504,28.376 C14.632,28.344 14.728,28.248 14.856,28.152 C14.888,28.12 14.952,28.12 14.984,28.056 C14.92,28.056 14.856,28.056 14.824,28.12 C14.664,28.152 14.568,28.248 14.44,28.344 C14.248,28.44 14.088,28.568 13.928,28.728 L13.832,28.824 C13.8,28.856 13.768,28.888 13.736,28.888 C13.672,28.952 13.608,29.016 13.576,29.08 C13.544,29.08 13.512,29.112 13.48,29.144 C13.352,29.24 13.256,29.336 13.224,29.464 C13.32,29.4 13.448,29.304 13.512,29.176 C13.544,29.176 13.576,29.144 13.608,29.112 C13.64,29.112 13.704,29.112 13.736,29.08 C13.704,29.208 13.64,29.304 13.544,29.368 C13.416,29.464 13.32,29.592 13.256,29.72 L13.16,29.816 C13.032,29.912 12.936,30.072 12.872,30.2 L12.872,30.296 C12.84,30.36 12.808,30.392 12.776,30.456 L12.68,30.456 C12.52,30.808 12.328,31.192 12.2,31.544 C12.04,31.928 12.008,32.312 12.04,32.696 C12.104,33.208 12.232,33.72 12.392,34.2 C12.488,34.552 12.616,34.904 12.744,35.256 C12.744,35.352 12.776,35.416 12.808,35.48 C12.904,35.672 12.968,35.704 13.192,35.544 C13.384,35.416 13.576,35.288 13.768,35.128 C14.472,34.648 15.24,34.232 16.008,33.816 C18.152,32.696 18.888,32.408 19.528,32.056 Z M13.576,28.44 C13.448,28.472 13.352,28.568 13.256,28.664 C13.256,28.696 13.256,28.728 13.288,28.728 C13.288,28.728 13.32,28.696 13.352,28.696 L13.384,28.696 L13.48,28.6 L13.48,28.696 C13.512,28.664 13.544,28.632 13.544,28.6 L13.48,28.6 C13.512,28.568 13.544,28.568 13.576,28.536 L13.576,28.6 C13.576,28.568 13.608,28.568 13.64,28.536 L13.736,28.44 C13.96,28.344 14.152,28.184 14.344,28.056 C14.376,27.992 14.44,27.96 14.408,27.928 C14.344,27.864 14.312,27.896 14.28,27.96 C14.024,28.024 13.832,28.184 13.672,28.344 L13.576,28.44 Z M15.492,34.868 C15.528,34.84 15.56,34.808 15.592,34.776 C15.544,34.792 15.504,34.816 15.468,34.844 L15.492,34.868 Z M14.436,35.04 C14.472,35.016 14.504,34.984 14.536,34.936 C14.488,34.952 14.448,34.976 14.412,35.004 L14.436,35.04 Z M15.236,35.04 C15.272,35.016 15.304,34.984 15.336,34.936 C15.288,34.952 15.248,34.976 15.212,35.004 L15.236,35.04 Z M13.928,35.352 C13.896,35.384 13.864,35.384 13.864,35.416 L13.928,35.416 L13.928,35.512 L13.992,35.416 L13.928,35.416 L13.928,35.352 C13.96,35.352 13.992,35.384 14.024,35.416 C14.056,35.352 14.12,35.256 14.184,35.192 C14.088,35.224 13.992,35.256 13.928,35.352 Z M14.884,35.28 C14.92,35.256 14.952,35.224 14.984,35.192 C14.936,35.192 14.888,35.208 14.848,35.232 L14.884,35.28 Z M13.16,35.96 L13.256,35.96 C13.32,35.96 13.352,35.928 13.384,35.896 L13.48,35.832 L13.384,35.832 C13.416,35.8 13.416,35.768 13.416,35.768 C13.448,35.768 13.48,35.736 13.48,35.736 L13.48,35.8 C13.512,35.8 13.544,35.768 13.576,35.736 C13.672,35.672 13.736,35.576 13.832,35.512 L13.832,35.416 C13.704,35.448 13.576,35.544 13.48,35.64 L13.384,35.736 C13.32,35.768 13.256,35.8 13.224,35.832 C13.16,35.864 13.128,35.896 13.16,35.96 Z M14.312,35.672 C14.44,35.608 14.568,35.544 14.632,35.416 C14.504,35.448 14.376,35.544 14.28,35.64 C14.12,35.704 13.96,35.832 13.832,35.96 C13.608,36.088 13.384,36.216 13.224,36.44 L13.224,36.472 L13.256,36.472 C13.48,36.376 13.672,36.184 13.864,35.992 C14.024,35.928 14.184,35.832 14.312,35.672 Z M8.99570354,39.7681894 C8.9651357,39.7708643 8.93456785,39.8014322 8.904,39.832 C8.808,39.896 8.744,39.96 8.712,40.056 L8.616,40.152 C8.52,40.184 8.456,40.28 8.424,40.376 L8.52,40.376 L8.52,40.472 C8.52,40.44 8.552,40.408 8.584,40.376 C8.616,40.344 8.648,40.28 8.68,40.216 L8.776,40.152 L8.872,40.056 L8.968,39.992 L8.872,39.992 C8.872,39.928 8.904,39.896 8.904,39.832 L8.968,39.832 L8.968,39.96 L9.064,39.832 C9.096,39.8 9.128,39.768 9.128,39.736 L9.064,39.736 C9.096,39.704 9.128,39.704 9.16,39.672 L9.16,39.736 L9.224,39.672 L9.16,39.672 L9.256,39.576 L9.256,39.672 C9.288,39.64 9.288,39.608 9.32,39.576 L9.416,39.416 C9.416,39.384 9.384,39.384 9.352,39.352 L9.448,39.352 L9.448,39.416 C9.448,39.384 9.48,39.384 9.512,39.352 L9.608,39.256 C9.64,39.224 9.672,39.224 9.704,39.192 L9.8,39.096 C9.864,39.032 9.928,38.968 9.96,38.872 L9.992,38.872 C10.024,38.84 10.024,38.808 10.056,38.776 L9.992,38.776 C9.992,38.776 10.024,38.744 10.024,38.712 L10.088,38.712 L10.088,38.776 C10.088,38.744 10.12,38.744 10.152,38.712 L10.248,38.616 C10.28,38.584 10.312,38.552 10.344,38.552 C10.6,38.36 10.792,38.136 10.984,37.912 L11.144,37.752 C11.144,37.752 11.1150333,37.7230333 11.0846595,37.7202192 C11.112,37.7189721 11.112,37.688 11.112,37.688 L11.144,37.688 C11.144,37.688 11.144,37.72 11.176,37.752 C11.176,37.72 11.208,37.688 11.24,37.656 L11.336,37.592 L11.432,37.496 L11.528,37.432 L11.432,37.432 C11.464,37.4 11.464,37.368 11.464,37.368 C11.496,37.368 11.496,37.368 11.528,37.336 L11.528,37.4 C11.56,37.4 11.56,37.368 11.592,37.336 L11.528,37.336 C11.528,37.336 11.56,37.304 11.56,37.272 L11.624,37.272 L11.624,37.336 C11.624,37.304 11.656,37.304 11.688,37.272 L11.624,37.272 C11.624,37.24 11.656,37.208 11.656,37.208 C11.656,37.208 11.688,37.208 11.72,37.176 C11.72,37.2064202 11.72,37.2368403 11.6925094,37.2397699 C11.7228643,37.2371357 11.7534322,37.2065678 11.784,37.176 C11.816,37.144 11.848,37.112 11.88,37.112 L11.976,37.016 L11.912,37.016 L11.912,36.952 L11.976,36.952 C11.976,36.856 11.944,36.888 11.88,36.92 C11.848,36.952 11.816,36.984 11.784,36.984 L11.688,37.08 C11.656,37.112 11.624,37.144 11.624,37.176 C11.592,37.176 11.56,37.208 11.528,37.24 C11.496,37.272 11.464,37.304 11.432,37.304 L11.336,37.4 C11.304,37.432 11.272,37.464 11.24,37.464 L11.144,37.56 C11.144,37.592 11.112,37.624 11.08,37.656 C11.048,37.656 11.016,37.688 10.984,37.72 L10.888,37.816 C10.568,38.04 10.312,38.296 10.056,38.616 C10.056,38.648 10.024,38.648 9.992,38.68 L9.896,38.776 C9.704,38.904 9.544,39.064 9.448,39.256 L9.352,39.352 C9.192,39.448 9.064,39.576 9,39.736 L9.064,39.736 L9.064,39.832 L8.968,39.832 C8.968,39.8015798 8.968,39.7711597 8.99549064,39.7682301 L8.99570354,39.7681894 Z M5.992,44.568 C5.896,44.728 5.832,44.856 5.768,45.016 C5.928,44.92 5.992,44.76 6.056,44.632 C6.44,43.96 6.856,43.352 7.304,42.744 C8.2,41.528 9.16,40.376 10.216,39.288 L11.912,37.656 C11.976,37.624 12.04,37.56 12.072,37.496 L12.072,37.432 L12.04,37.432 C11.976,37.464 11.912,37.496 11.88,37.56 C11.048,38.264 10.312,39.032 9.576,39.8 C8.2,41.272 6.984,42.84 5.992,44.568 Z M9.896,46.776 C10.504,46.072 10.984,45.304 11.432,44.504 C12.072,43.32 12.424,42.072 12.456,40.792 C12.488,39.864 12.424,38.904 12.296,38.008 C12.264,37.944 12.264,37.88 12.232,37.816 C12.2,37.752 12.104,37.72 12.04,37.752 C11.784,37.976 11.528,38.168 11.304,38.392 C10.792,38.904 10.248,39.416 9.768,39.992 L9.384,40.376 L9.384,40.408 C9.352,40.408 9.32,40.44 9.32,40.472 L9.288,40.472 C9.224,40.568 9.16,40.632 9.096,40.696 C8.808,40.952 8.616,41.304 8.36,41.592 C8.232,41.688 8.136,41.816 8.072,41.976 L8.072,42.008 C8.04,42.008 8.008,42.04 7.976,42.072 C7.752,42.328 7.528,42.584 7.4,42.872 L7.304,43.032 C7.176,43.128 7.08,43.288 7.016,43.448 L7.016,43.416 L6.92,43.608 L6.92,43.576 C6.632,43.864 6.504,44.216 6.312,44.568 L6.312,44.536 L6.216,44.728 L6.216,44.696 C6.184,44.76 6.152,44.824 6.12,44.856 C5.896,45.208 5.704,45.528 5.576,45.912 C5.48,46.072 5.416,46.232 5.352,46.392 L5.384,46.392 C5.256,46.552 5.16,46.744 5.16,46.936 C5.032,47.032 5.064,47.16 5,47.256 C4.776,47.768 4.648,48.28 4.648,48.792 C4.616,48.92 4.616,49.048 4.616,49.176 C4.552,49.496 4.616,49.784 4.68,50.104 C4.712,50.232 4.776,50.328 4.84,50.424 C4.936,50.552 5.032,50.584 5.192,50.52 C5.576,50.36 5.928,50.2 6.28,49.976 C6.888,49.592 7.464,49.176 8.04,48.696 C8.712,48.12 9.32,47.48 9.896,46.776 Z M8.776,40.152 L8.712,40.152 L8.712,40.056 L8.776,40.056 C8.808,40.024 8.84,40.024 8.872,39.992 L8.872,40.056 L8.808,40.056 C8.776,40.088 8.776,40.12 8.776,40.152 Z M8.328,40.472 C8.2,40.536 8.104,40.664 8.072,40.792 L8.136,40.792 L8.232,40.696 L8.232,40.792 C8.264,40.76 8.296,40.728 8.296,40.696 L8.232,40.696 C8.264,40.664 8.296,40.664 8.328,40.632 L8.328,40.472 Z M7.688,41.272 C7.656,41.304 7.624,41.336 7.592,41.336 L7.656,41.336 C7.656,41.336 7.688,41.304 7.688,41.272 L7.752,41.272 L7.752,41.336 L7.848,41.272 L7.752,41.272 L7.848,41.176 C7.848,41.144 7.848,41.08 7.88,41.016 L7.944,41.016 C7.976,41.016 8.008,40.984 8.04,40.952 L8.04,40.792 C7.976,40.856 7.912,40.92 7.88,41.016 C7.784,41.08 7.72,41.176 7.688,41.272 Z M7.592,41.368 C7.496,41.4 7.464,41.496 7.4,41.56 C7.464,41.56 7.528,41.528 7.56,41.496 L7.592,41.368 Z M7.752,41.368 L7.688,41.368 C7.656,41.4 7.656,41.464 7.656,41.496 L7.752,41.368 Z M7.304,41.752 C7.272,41.784 7.24,41.816 7.208,41.816 L7.304,41.816 L7.304,41.752 L7.4,41.752 L7.4,41.592 L7.304,41.752 Z M7.208,41.848 C7.176,41.88 7.144,41.912 7.112,41.976 L7.176,41.976 C7.208,41.944 7.208,41.88 7.208,41.848 Z M7.368,41.848 L7.304,41.848 C7.304,41.88 7.272,41.944 7.272,41.976 L7.368,41.848 Z M12.392,45.336 C12.584,45.016 12.744,44.696 12.84,44.344 C12.68,44.44 12.648,44.6 12.552,44.728 C12.2,45.4 11.816,46.072 11.336,46.68 C11.272,46.776 11.176,46.904 11.144,47.032 C11.24,46.968 11.336,46.904 11.4,46.808 C11.784,46.36 12.104,45.848 12.392,45.336 Z M10.856,46.328 C11.016,46.2 11.112,45.976 11.272,45.848 C11.304,45.784 11.336,45.72 11.4,45.688 C11.368,45.72 11.368,45.784 11.368,45.816 C11.432,45.784 11.464,45.752 11.464,45.688 L11.368,45.688 C11.432,45.624 11.464,45.56 11.496,45.528 L11.464,45.656 C11.528,45.624 11.56,45.592 11.56,45.528 C11.624,45.496 11.656,45.432 11.688,45.368 C11.752,45.336 11.752,45.272 11.752,45.208 C11.88,45.08 11.944,44.952 11.976,44.792 L11.912,44.792 C11.88,44.856 11.848,44.92 11.784,44.952 L11.88,44.792 C11.912,44.728 11.912,44.632 11.912,44.568 C11.816,44.632 11.784,44.728 11.72,44.824 C11.56,45.112 11.368,45.368 11.208,45.656 L10.824,46.296 C10.728,46.36 10.664,46.456 10.632,46.552 C10.728,46.52 10.792,46.424 10.856,46.328 Z M11.752,45.208 L11.688,45.208 C11.72,45.112 11.72,45.016 11.784,44.952 C11.784,45.048 11.784,45.112 11.752,45.208 Z M12.936,44.984 L12.808,45.176 C12.808,45.112 12.84,45.016 12.84,44.952 C12.872,44.952 12.904,44.984 12.936,44.984 Z M5.696,45.148 C5.68,45.184 5.672,45.224 5.672,45.272 C5.704,45.24 5.728,45.2 5.744,45.16 L5.696,45.148 Z M12.712,45.368 L12.712,45.336 C12.744,45.304 12.776,45.24 12.808,45.176 L12.808,45.208 C12.776,45.24 12.744,45.304 12.712,45.368 Z M11.688,45.208 L11.656,45.336 C11.624,45.336 11.624,45.336 11.592,45.368 C11.624,45.304 11.656,45.24 11.688,45.208 Z M5.672,45.304 C5.512,45.432 5.416,45.624 5.352,45.816 C5.544,45.688 5.608,45.496 5.672,45.304 Z M11.496,45.528 C11.528,45.464 11.56,45.4 11.592,45.368 C11.592,45.4 11.56,45.464 11.56,45.528 L11.496,45.528 Z M11.368,45.848 L11.304,45.848 C11.272,45.88 11.272,45.944 11.272,45.976 L11.368,45.848 Z M24.2960076,23.832 C24.328005,23.832 24.36,23.8320025 24.36,23.864 L24.296,23.864 L24.2,24.056 C24.136,24.152 24.168,24.216 24.232,24.28 L24.04,24.472 C23.976,24.6 23.912,24.728 23.912,24.888 C23.848,24.952 23.816,25.016 23.816,25.112 C23.72,25.24 23.656,25.368 23.656,25.528 C23.624,25.592 23.592,25.624 23.592,25.688 C23.496,25.752 23.496,25.848 23.496,25.944 C23.464,25.976 23.432,26.04 23.4,26.104 C23.368,26.168 23.336,26.264 23.336,26.328 C23.24,26.456 23.176,26.616 23.144,26.744 C23.112,26.84 23.144,26.936 23.176,27 C23.112,27.064 23.048,27.128 23.016,27.224 C22.984,27.256 22.984,27.32 23.016,27.384 L22.92,27.608 C22.888,27.576 22.888,27.576 22.856,27.608 C22.76,27.768 22.696,27.928 22.664,28.088 L22.6,28.344 C22.632,28.408 22.632,28.44 22.6,28.472 L22.6,28.504 C22.6,28.632 22.408,28.664 22.44,28.824 C22.408,28.856 22.408,28.92 22.376,28.984 C22.344,29.048 22.312,29.112 22.312,29.208 C22.28,29.24 22.248,29.304 22.248,29.336 C22.248,29.496 22.216,29.656 22.088,29.784 C21.992,29.88 21.96,30.008 21.96,30.168 C21.736,30.584 21.608,31.064 21.48,31.544 C21.384,31.672 21.32,31.832 21.32,32.024 C21.288,32.152 21.224,32.28 21.16,32.408 C21.096,32.536 21.064,32.664 21.032,32.792 L20.936,33.144 C20.84,33.304 20.776,33.496 20.776,33.688 L20.776,33.784 C20.744,33.912 20.616,33.976 20.616,34.104 C20.52,34.264 20.488,34.424 20.456,34.584 C20.296,34.936 20.2,35.288 20.136,35.64 C20.04,35.736 19.976,35.864 19.944,36.024 L19.656,37.08 C19.624,37.144 19.592,37.24 19.56,37.304 C19.528,37.4 19.496,37.464 19.496,37.56 L19.4,37.784 C19.272,38.2 19.144,38.648 19.016,39.064 C18.92,39.224 18.856,39.416 18.824,39.64 L18.856,39.64 L18.76,39.896 L18.76,39.864 C18.664,40.024 18.632,40.184 18.6,40.344 C18.504,40.536 18.44,40.728 18.44,40.92 C18.408,40.984 18.376,41.08 18.376,41.144 C18.312,41.24 18.28,41.368 18.28,41.464 C18.248,41.56 18.216,41.624 18.216,41.72 L18.12,41.976 L18.12,41.944 C18.056,42.232 17.96,42.488 17.896,42.776 L17.896,42.744 C17.8,42.936 17.736,43.128 17.736,43.32 C17.64,43.512 17.576,43.672 17.576,43.896 C17.48,43.992 17.448,44.088 17.416,44.216 L17.256,44.856 C17.192,45.048 17.16,45.24 17.16,45.464 C17.16,45.688 17.096,45.944 17.032,46.168 C17,46.328 16.936,46.456 16.808,46.552 C16.776,46.584 16.712,46.584 16.68,46.52 C16.648,46.456 16.616,46.456 16.584,46.52 C16.424,46.648 16.424,46.648 16.296,46.552 C16.2,46.456 16.136,46.392 15.976,46.36 C15.784,46.36 15.72,46.232 15.784,46.008 C15.944,45.336 16.104,44.632 16.296,43.96 C16.552,43.096 16.776,42.2 17.032,41.336 C17.352,40.28 17.608,39.192 17.992,38.168 C18.088,37.816 18.152,37.496 18.28,37.144 C18.44,36.6 18.632,36.056 18.792,35.48 C18.92,34.968 19.08,34.456 19.24,33.944 C19.4,33.368 19.624,32.824 19.784,32.28 L20.52,30.008 C20.712,29.4 20.936,28.824 21.128,28.216 C21.48,27.256 21.864,26.296 22.184,25.368 C22.408,24.76 22.664,24.184 22.888,23.608 C23.112,23.096 23.304,22.584 23.528,22.04 L24.392,20.12 C24.712,19.288 25.16,18.488 25.544,17.656 C26.056,16.472 26.664,15.32 27.272,14.168 L27.912,12.952 C28.104,12.6 28.04,12.536 27.688,12.568 C26.984,12.568 26.28,12.632 25.608,12.664 L22.344,12.856 C21.864,12.888 21.384,12.952 20.936,12.984 L19.848,13.08 C18.856,13.176 17.864,13.24 16.904,13.336 C15.848,13.464 14.792,13.56 13.768,13.688 L11.624,13.976 C11.016,14.04 10.408,14.136 9.8,14.2 C9.224,14.296 8.648,14.36 8.072,14.456 C7.432,14.552 6.792,14.616 6.152,14.712 C5.384,14.808 4.648,14.904 3.912,15.032 C3.208,15.128 2.472,15.16 1.768,15.224 C1.416,15.256 1.064,15.224 0.744,15.16 C0.488,15.128 0.264,15.064 0.136,14.808 L0.136,14.68 C0.168,14.68 0.232,14.648 0.264,14.648 C0.52,14.744 0.808,14.744 1.096,14.712 C1.672,14.68 2.248,14.552 2.824,14.456 C3.912,14.296 5,14.104 6.056,13.912 C6.696,13.816 7.304,13.688 7.912,13.592 C9.352,13.336 10.824,13.112 12.264,12.888 C13,12.792 13.704,12.696 14.44,12.568 C15.048,12.472 15.688,12.408 16.296,12.344 L18.088,12.152 C18.568,12.088 19.016,12.056 19.496,12.024 L21.672,11.832 C22.28,11.768 22.856,11.736 23.432,11.704 C24.296,11.64 25.16,11.608 25.992,11.544 L26.632,11.544 C27.24,11.512 27.88,11.48 28.488,11.448 C28.648,11.448 28.776,11.384 28.84,11.256 C28.936,11.128 29.064,10.968 29.128,10.808 C29.32,10.424 29.576,10.072 29.8,9.688 C30.088,9.176 30.408,8.664 30.728,8.184 C31.048,7.672 31.368,7.128 31.72,6.616 C32.04,6.2 32.296,5.752 32.584,5.336 C33.032,4.696 33.48,4.088 33.96,3.448 C34.44,2.776 34.984,2.136 35.528,1.496 C35.816,1.144 36.136,0.792 36.456,0.44 C36.488,0.408 36.52,0.376 36.584,0.344 C36.648,0.28 36.712,0.216 36.808,0.28 C36.936,0.344 37,0.408 37,0.568 C37,0.664 36.968,0.728 36.936,0.824 C36.84,0.984 36.744,1.144 36.616,1.304 C36.104,2.072 35.56,2.808 35.016,3.608 C34.536,4.344 34.024,5.08 33.544,5.848 C33.48,5.944 33.416,6.104 33.352,6.232 L33.352,6.296 C33.224,6.424 33.096,6.552 33.032,6.712 C32.904,6.808 32.84,6.968 32.776,7.096 C32.616,7.224 32.552,7.416 32.456,7.576 C32.264,7.832 32.104,8.088 31.976,8.376 C31.816,8.6 31.688,8.824 31.56,9.048 C31.432,9.208 31.336,9.4 31.272,9.592 C31.24,9.624 31.208,9.688 31.176,9.752 C31.048,9.848 30.952,9.976 30.952,10.136 C30.76,10.296 30.696,10.52 30.632,10.712 L30.536,10.872 C30.472,10.904 30.472,10.968 30.472,11.032 C30.44,11.064 30.408,11.096 30.376,11.096 L30.376,11.128 C30.344,11.16 30.344,11.224 30.312,11.256 C30.344,11.256 30.344,11.288 30.376,11.288 C30.472,11.384 30.6,11.384 30.696,11.384 C31.368,11.352 32.04,11.352 32.712,11.352 C33.544,11.32 34.344,11.288 35.176,11.288 C37.32,11.224 39.432,11.224 41.544,11.192 C43.976,11.192 46.376,11.192 48.808,11.224 C49.864,11.256 50.92,11.32 52.008,11.384 C52.68,11.448 53.384,11.544 54.056,11.736 C54.504,11.864 54.888,12.152 55.176,12.504 C55.208,12.568 55.24,12.6 55.24,12.664 C55.304,12.728 55.336,12.792 55.304,12.888 C55.208,12.984 55.112,12.92 55.048,12.856 C54.536,12.6 53.992,12.536 53.448,12.472 C52.712,12.376 51.976,12.312 51.24,12.28 C49,12.152 46.76,12.12 44.552,12.152 L40.808,12.152 C39.432,12.184 38.024,12.216 36.616,12.248 C34.92,12.28 33.192,12.344 31.496,12.408 C31.016,12.408 30.504,12.44 30.024,12.44 C29.768,12.472 29.576,12.536 29.448,12.76 C29.16,13.272 28.904,13.784 28.616,14.328 L28.616,14.392 C28.584,14.456 28.552,14.488 28.52,14.552 L28.552,14.552 C28.52,14.616 28.488,14.648 28.456,14.712 C28.392,14.744 28.392,14.808 28.36,14.872 C28.328,14.904 28.296,14.968 28.296,15.032 C28.232,15.064 28.232,15.128 28.2,15.192 C28.168,15.224 28.136,15.288 28.136,15.352 L28.04,15.512 C28.008,15.544 27.976,15.608 27.976,15.672 C27.912,15.704 27.912,15.768 27.88,15.832 C27.88,15.896 27.848,15.96 27.816,15.992 C27.752,16.056 27.752,16.088 27.72,16.152 C27.688,16.184 27.656,16.248 27.656,16.312 L27.56,16.472 C27.56,16.536 27.528,16.6 27.496,16.632 C27.464,16.696 27.432,16.76 27.4,16.792 C27.24,16.984 27.144,17.208 27.08,17.432 C27.08,17.496 27.048,17.56 27.016,17.592 C26.824,17.88 26.696,18.168 26.6,18.488 C26.568,18.52 26.536,18.584 26.536,18.648 C26.472,18.68 26.472,18.744 26.44,18.808 C26.44,18.872 26.408,18.904 26.376,18.968 C26.248,19.128 26.152,19.352 26.088,19.544 C26.024,19.64 25.992,19.736 26.056,19.864 C26.024,19.896 25.992,19.96 25.96,20.024 L25.992,19.992 C25.928,20.088 25.832,20.12 25.8,20.248 C25.8,20.312 25.768,20.344 25.736,20.408 C25.608,20.568 25.512,20.76 25.48,20.984 L25.48,20.952 C25.48,21.016 25.448,21.048 25.416,21.112 C25.32,21.24 25.256,21.368 25.256,21.528 C25.192,21.56 25.192,21.624 25.16,21.688 C25.096,21.816 25,21.912 25.032,22.072 C24.904,22.168 24.872,22.328 24.84,22.488 L24.776,22.648 C24.584,22.968 24.424,23.32 24.36,23.704 C24.3282491,23.7357509 24.3280019,23.7990055 24.2967415,23.8312469 L24.2960076,23.832 Z M31.56,9.048 L31.688,9.048 C31.656,9.016 31.592,9.016 31.56,9.048 Z M30.696,10.712 L30.632,10.872 L30.632,10.712 L30.696,10.712 Z M30.472,11.128 L30.376,11.256 L30.376,11.128 L30.472,11.128 Z M28.648,13.88 C28.872,13.528 29.096,13.144 29.256,12.728 C29.256,12.728 29.256,12.696 29.224,12.664 C29.16,12.792 29.064,12.92 29,13.016 C28.84,13.336 28.648,13.624 28.552,13.976 L28.648,13.88 Z M28.456,14.168 C28.52,14.136 28.552,14.072 28.552,14.008 C28.488,14.04 28.456,14.072 28.456,14.136 C28.392,14.2 28.392,14.264 28.392,14.328 C28.328,14.36 28.296,14.392 28.296,14.456 C28.168,14.552 28.136,14.68 28.072,14.808 C27.368,16.184 26.664,17.56 26.024,18.968 C25.32,20.472 24.68,22.008 24.04,23.576 C23.336,25.368 22.632,27.192 21.992,29.048 C21.32,30.936 20.68,32.856 20.072,34.776 C19.112,37.688 18.184,40.632 17.352,43.608 C17.256,43.896 17.16,44.216 17.096,44.536 C17.064,44.632 17.064,44.632 17.096,44.824 C17.192,44.632 17.256,44.472 17.288,44.28 C17.736,42.584 18.248,40.92 18.76,39.256 C19.208,37.848 19.688,36.44 20.136,35.032 C20.712,33.208 21.32,31.416 21.96,29.624 C22.536,27.896 23.176,26.136 23.88,24.408 C24.456,22.904 25.064,21.432 25.736,19.96 C26.088,19.128 26.472,18.36 26.856,17.56 C27.24,16.728 27.624,15.896 28.04,15.096 C28.136,14.904 28.264,14.712 28.296,14.488 C28.36,14.456 28.392,14.392 28.392,14.328 C28.456,14.296 28.456,14.232 28.456,14.168 Z M27.592,16.472 L27.592,16.632 C27.592,16.6 27.592,16.536 27.56,16.472 L27.592,16.472 Z M27.112,17.592 L27.112,17.432 C27.112,17.432 27.144,17.464 27.176,17.464 C27.144,17.496 27.112,17.56 27.112,17.592 Z M26.472,18.968 L26.472,18.808 L26.536,18.808 C26.504,18.872 26.472,18.904 26.472,18.968 Z M25.344,19.0793519 C25.3146667,19.1333333 25.2853333,19.1626667 25.256,19.192 L25.32,19.192 C25.32,19.1602418 25.3515183,19.1284836 25.3519945,19.0654452 L25.344,19.0793519 Z M24.936,19.928 C24.904,19.96 24.872,20.024 24.872,20.056 C24.904,20.024 24.904,19.992 24.936,19.928 Z M25.832,20.408 L25.8,20.408 L25.8,20.248 C25.832,20.312 25.832,20.344 25.832,20.408 Z M24.648,20.536 C24.616,20.568 24.616,20.6 24.616,20.632 L24.68,20.536 L24.68,20.472 C24.648,20.504 24.648,20.504 24.648,20.536 Z M24.296,21.368 C24.2,21.496 24.136,21.624 24.136,21.752 L24.2,21.752 C24.232,21.72 24.232,21.656 24.296,21.592 L24.296,21.368 L24.36,21.368 L24.36,21.208 L24.456,21.208 L24.456,21.368 L24.392,21.368 L24.392,21.592 C24.392,21.528 24.424,21.432 24.456,21.368 L24.52,21.208 L24.456,21.208 C24.456,21.144 24.488,21.08 24.52,21.048 L24.52,20.824 C24.424,20.92 24.36,21.048 24.36,21.208 C24.328,21.24 24.296,21.304 24.296,21.368 Z M24.36,21.624 L24.296,21.624 L24.296,21.752 C24.328,21.72 24.328,21.656 24.36,21.624 Z M24.04,21.944 C23.944,22.04 23.912,22.168 23.88,22.296 C23.944,22.264 24.008,22.2 24.072,22.136 C24.072,22.072 24.04,22.008 24.04,21.944 Z M23.836,22.396 C23.824,22.424 23.816,22.456 23.816,22.488 C23.768,22.552 23.728,22.616 23.7,22.68 C23.8,22.64 23.816,22.568 23.816,22.488 C23.848,22.472 23.864,22.448 23.872,22.42 L23.836,22.396 Z M23.7,22.68 C23.672,22.744 23.656,22.808 23.656,22.872 C23.704,22.824 23.744,22.768 23.772,22.704 L23.7,22.68 Z M24.872,22.648 L24.872,22.488 L24.936,22.488 C24.904,22.552 24.872,22.584 24.872,22.648 Z M23.176,24.088 C23.08,24.216 23.016,24.344 23.016,24.472 L23.144,24.344 C23.144,24.248 23.176,24.184 23.176,24.088 C23.208,24.024 23.272,23.992 23.304,23.928 C23.336,23.864 23.336,23.8 23.336,23.704 C23.4,23.64 23.432,23.576 23.464,23.544 C23.496,23.448 23.496,23.384 23.496,23.288 C23.528,23.224 23.592,23.192 23.656,23.128 C23.688,23.16 23.72,23.16 23.72,23.128 L23.656,23.128 L23.656,22.904 C23.528,23 23.496,23.128 23.496,23.288 C23.4,23.416 23.336,23.544 23.336,23.704 C23.208,23.8 23.176,23.928 23.176,24.088 Z M22.74,25.068 C22.72,25.136 22.712,25.208 22.696,25.272 C22.744,25.224 22.784,25.168 22.812,25.104 L22.74,25.068 Z M22.62,25.404 C22.608,25.44 22.6,25.48 22.6,25.528 C22.632,25.496 22.656,25.456 22.668,25.416 L22.62,25.404 Z M18.384,38.06 C18.376,38.104 18.376,38.152 18.376,38.2 C18.216,38.456 18.152,38.712 18.12,39 C17.992,39.256 17.896,39.512 17.896,39.8 C17.8,39.864 17.8,39.928 17.8,40.024 L17.896,40.024 L17.896,40.088 C17.96,40.088 17.96,40.056 17.96,40.024 C18.024,39.96 18.056,39.864 17.96,39.8 L18.056,39.544 C18.056,39.48 18.056,39.416 18.12,39.384 C18.184,39.352 18.184,39.288 18.216,39.224 C18.248,39.16 18.248,39.064 18.216,39 C18.216,38.904 18.248,38.808 18.28,38.744 C18.312,38.648 18.312,38.584 18.376,38.52 L18.376,38.2 C18.408,38.168 18.424,38.128 18.432,38.084 L18.384,38.06 Z M22.6,26.008 L22.6,25.784 C22.536,25.848 22.536,25.912 22.536,26.008 L22.6,26.008 Z M22.28,26.648 L22.376,26.648 L22.376,26.424 L22.28,26.648 Z M22.056,27.288 L22.12,27.288 L22.12,27.064 L22.056,27.064 L22.056,27.288 Z M21.8,27.928 L21.896,27.928 L21.896,27.704 L21.8,27.928 Z M21.736,28.184 L21.8,28.184 L21.8,27.928 C21.736,27.992 21.736,28.088 21.736,28.184 Z M22.696,28.088 C22.728,28.088 22.76,28.088 22.792,28.12 C22.76,28.12 22.728,28.12 22.664,28.088 L22.696,28.088 Z M21.64,28.408 L21.736,28.408 L21.736,28.184 C21.672,28.248 21.672,28.344 21.64,28.408 Z M21.48,29.048 L21.48,28.824 L21.416,28.824 L21.416,29.048 L21.48,29.048 Z M21.32,29.304 L21.416,29.304 L21.416,29.048 L21.32,29.304 Z M21.256,29.528 L21.32,29.528 L21.32,29.304 C21.256,29.368 21.256,29.464 21.256,29.528 Z M21.16,29.784 L21.256,29.784 L21.256,29.528 L21.16,29.784 Z M21.096,30.008 L21.16,30.008 L21.16,29.784 C21.096,29.848 21.096,29.944 21.096,30.008 Z M21,30.264 L21.096,30.264 L21.096,30.008 C21.032,30.104 21.032,30.168 21,30.264 Z M20.936,30.488 L21,30.488 L21,30.264 C20.936,30.328 20.936,30.424 20.936,30.488 Z M20.84,30.712 C20.872,30.744 20.904,30.744 20.936,30.744 L20.936,30.488 C20.872,30.552 20.872,30.648 20.84,30.712 Z M20.2,32.664 L20.296,32.664 L20.296,32.44 C20.264,32.504 20.232,32.6 20.2,32.664 Z M20.04,33.144 L20.136,33.144 L20.136,32.92 C20.104,32.984 20.072,33.08 20.04,33.144 Z M17.736,40.376 C17.544,40.664 17.48,41.016 17.416,41.368 C17.448,41.304 17.512,41.24 17.576,41.144 C17.576,41.112 17.576,41.016 17.64,40.984 C17.704,40.952 17.704,40.888 17.736,40.856 L17.704,40.856 C17.8,40.696 17.896,40.536 17.8,40.376 L17.8,40.056 C17.736,40.152 17.736,40.248 17.736,40.376 Z M17.104,42.392 C17.096,42.432 17.096,42.472 17.096,42.52 C17.112,42.488 17.128,42.448 17.14,42.404 L17.104,42.392 Z M17.024,42.668 C17.008,42.712 17,42.76 17,42.808 C17.032,42.776 17.048,42.736 17.06,42.692 L17.024,42.668 Z M16.944,42.956 C16.936,43 16.936,43.048 16.936,43.096 C16.872,43.192 16.84,43.288 16.84,43.384 L16.936,43.384 L16.936,43.096 C16.952,43.048 16.968,43.008 16.98,42.968 L16.944,42.956 Z M16.744,43.704 C16.84,43.736 16.872,43.704 16.872,43.64 C16.84,43.544 16.84,43.48 16.84,43.416 C16.776,43.512 16.776,43.608 16.744,43.704 Z M16.744,43.96 L16.744,43.736 C16.712,43.8 16.712,43.864 16.68,43.928 C16.712,43.96 16.744,43.96 16.744,43.96 Z M35.432,30.808 C35.56,30.936 35.752,31.064 35.72,31.32 C34.92,31.608 34.184,32.056 33.48,32.536 C33.16,32.76 32.808,32.952 32.488,33.144 C31.912,33.592 31.24,33.944 30.632,34.36 C30.088,34.776 29.512,35.16 28.968,35.608 C28.712,35.8 28.456,36.024 28.2,36.248 L28.168,36.248 C27.784,36.536 27.4,36.792 27.016,37.048 C26.376,37.496 25.704,37.88 25.032,38.232 C24.648,38.424 24.264,38.552 23.848,38.584 C23.336,38.616 22.92,38.488 22.568,38.136 C22.088,37.624 21.928,37.016 22.056,36.28 C22.184,35.416 22.504,34.616 22.888,33.816 C23.208,33.144 23.624,32.504 24.072,31.864 C24.136,31.768 24.2,31.672 24.232,31.544 C24.36,31.224 24.584,30.968 24.872,30.776 C25.064,30.648 25.224,30.488 25.352,30.296 C25.736,29.88 26.184,29.528 26.632,29.176 C26.856,29.048 27.112,28.92 27.336,28.824 C27.72,28.696 28.04,28.728 28.328,29.016 C28.776,29.464 28.808,29.848 28.264,30.424 C27.848,30.872 27.4,31.32 26.888,31.672 C26.376,31.992 25.896,32.312 25.288,32.408 C25.128,32.408 25,32.504 24.872,32.664 C24.776,32.76 24.68,32.888 24.616,33.016 C24.264,33.624 23.912,34.232 23.656,34.84 C23.624,34.904 23.624,34.968 23.592,35.032 L23.592,35.128 C23.432,35.384 23.4,35.64 23.336,35.928 C23.24,36.248 23.176,36.568 23.144,36.92 C23.112,37.112 23.112,37.336 23.144,37.528 C23.176,37.688 23.272,37.72 23.4,37.688 C23.624,37.656 23.848,37.56 24.04,37.464 C24.52,37.24 24.968,36.984 25.384,36.696 C26.152,36.216 26.888,35.704 27.624,35.224 C28.776,34.456 29.896,33.688 31.048,32.952 C31.944,32.376 32.84,31.8 33.768,31.288 C33.992,31.16 34.248,31.032 34.504,30.904 C34.664,30.808 34.792,30.744 34.952,30.68 C35.144,30.648 35.304,30.648 35.432,30.808 Z M26.504,29.688 L26.408,29.752 L26.504,29.752 L26.504,29.848 C26.504,29.816 26.536,29.784 26.568,29.752 L26.664,29.688 C26.76,29.656 26.856,29.592 26.92,29.528 C27.016,29.464 27.112,29.432 27.176,29.368 C27.176,29.336 27.176,29.304 27.208,29.272 C27.176,29.24 27.176,29.208 27.176,29.208 C26.952,29.304 26.76,29.4 26.6,29.592 L26.504,29.688 Z M27.592,29.592 C27.176,29.688 26.696,30.04 26.408,30.456 C26.824,30.168 27.176,29.88 27.592,29.592 Z M26.568,29.752 L26.504,29.752 L26.504,29.688 L26.568,29.688 C26.6,29.656 26.6,29.624 26.6,29.592 L26.664,29.688 L26.6,29.688 C26.6,29.72 26.568,29.72 26.568,29.752 Z M26.568,30.584 C26.312,30.776 26.088,31 25.928,31.288 C26.152,31.256 26.344,31.16 26.504,31 C26.664,30.872 26.824,30.776 26.952,30.648 C27.176,30.456 27.368,30.232 27.592,30.008 C27.624,29.976 27.624,29.912 27.592,29.88 C27.56,29.848 27.528,29.848 27.496,29.88 C27.176,30.008 26.856,30.2 26.664,30.488 L26.632,30.488 C26.632,30.52 26.6,30.552 26.568,30.552 L26.568,30.584 Z M26.76,31.192 C26.856,31.16 26.888,31.064 26.888,30.968 C26.728,31.096 26.536,31.192 26.376,31.352 C26.536,31.384 26.664,31.288 26.76,31.192 Z M34.312,31.288 L34.152,31.352 C34.216,31.352 34.28,31.352 34.312,31.288 Z M27.08,35.992 C26.952,36.056 26.824,36.12 26.76,36.248 C26.824,36.216 26.92,36.184 26.984,36.184 C27.016,36.12 27.08,36.088 27.112,36.024 L27.24,36.024 L27.336,35.928 L27.336,35.992 C27.368,35.992 27.4,35.96 27.432,35.928 L27.336,35.928 C27.368,35.896 27.4,35.864 27.432,35.864 C27.432,35.832 27.464,35.832 27.464,35.8 L27.592,35.768 C27.624,35.736 27.656,35.736 27.688,35.704 L27.688,35.768 L27.752,35.704 L27.688,35.704 L27.688,35.672 C27.72,35.672 27.752,35.64 27.784,35.608 L27.784,35.672 C27.816,35.672 27.816,35.64 27.848,35.608 C27.912,35.576 27.976,35.544 28.008,35.544 L28.104,35.448 L28.04,35.448 L28.136,35.384 L28.136,35.448 C28.136,35.416 28.168,35.384 28.2,35.384 C28.296,35.352 28.392,35.288 28.456,35.224 L28.456,35.16 L28.488,35.192 L28.52,35.16 L28.52,35.128 L28.552,35.128 C28.648,35.096 28.744,35.064 28.808,34.968 L28.808,34.936 L28.84,34.936 L28.84,34.968 C28.84,34.936 28.872,34.904 28.904,34.904 L29,34.808 C29.096,34.808 29.192,34.744 29.256,34.648 C29.288,34.616 29.32,34.584 29.352,34.584 C29.448,34.552 29.544,34.488 29.608,34.424 L29.704,34.328 C29.768,34.296 29.8,34.264 29.864,34.264 L29.96,34.168 C29.992,34.136 30.024,34.104 30.056,34.104 C30.024,34.072 29.992,34.072 29.992,34.072 L29.992,34.04 C30.024,34.04 30.024,34.072 30.056,34.072 C30.12,34.072 30.152,34.04 30.216,34.008 L30.312,33.912 C30.408,33.88 30.472,33.816 30.568,33.784 L30.664,33.688 C30.76,33.656 30.856,33.592 30.92,33.528 C30.952,33.496 30.984,33.464 31.016,33.464 C30.984,33.432 30.952,33.432 30.952,33.432 L30.952,33.4 C30.984,33.4 30.984,33.432 31.016,33.432 C31.08,33.432 31.112,33.4 31.176,33.368 C31.208,33.336 31.24,33.304 31.272,33.304 L31.176,33.304 C31.208,33.272 31.208,33.24 31.208,33.208 C31.24,33.24 31.24,33.272 31.272,33.272 C31.336,33.24 31.4,33.176 31.432,33.112 L31.528,33.112 C31.624,33.08 31.688,33.016 31.784,32.984 L31.88,32.888 C31.944,32.824 32.008,32.792 32.04,32.728 C32.072,32.696 32.072,32.696 32.072,32.664 L32.136,32.728 C32.2,32.664 32.264,32.632 32.328,32.568 L32.328,32.504 C32.36,32.536 32.392,32.536 32.392,32.568 C32.488,32.504 32.584,32.44 32.68,32.408 L32.648,32.408 C32.744,32.344 32.84,32.28 32.936,32.248 L32.904,32.248 C33,32.184 33.096,32.152 33.16,32.088 L33.448,31.928 C33.512,31.864 33.608,31.832 33.704,31.768 C33.768,31.704 33.832,31.672 33.864,31.608 C33.896,31.576 33.896,31.576 33.896,31.544 L33.96,31.608 C34.024,31.544 34.088,31.512 34.152,31.448 C34.12,31.416 34.12,31.384 34.12,31.352 C34.056,31.384 33.96,31.416 33.896,31.512 C33.768,31.544 33.704,31.576 33.608,31.672 C33.512,31.704 33.416,31.736 33.384,31.832 C33.256,31.864 33.16,31.896 33.096,31.992 C32.808,32.12 32.552,32.248 32.328,32.472 C32.232,32.504 32.136,32.536 32.072,32.632 C31.944,32.664 31.88,32.696 31.784,32.792 C31.56,32.888 31.368,33.016 31.176,33.208 C31.08,33.208 31.016,33.272 30.92,33.368 C30.792,33.4 30.664,33.496 30.568,33.592 C30.344,33.688 30.152,33.816 29.96,34.008 C29.832,34.04 29.704,34.136 29.608,34.232 C29.48,34.264 29.352,34.36 29.256,34.456 C29.128,34.52 29,34.584 28.904,34.712 C28.68,34.84 28.424,35 28.2,35.192 C28.04,35.256 27.912,35.384 27.752,35.512 C27.624,35.576 27.528,35.64 27.432,35.736 C27.304,35.8 27.176,35.896 27.08,35.992 Z M34.952,31.448 C34.984,31.384 35.048,31.384 35.08,31.384 C35.048,31.384 34.984,31.416 34.952,31.448 Z M26.452,37.152 C26.496,37.128 26.536,37.096 26.568,37.048 C26.664,37.048 26.76,36.984 26.824,36.888 C27.016,36.856 27.144,36.728 27.304,36.632 C27.784,36.312 28.232,35.96 28.712,35.64 C29.064,35.384 29.384,35.096 29.736,34.84 C30.472,34.392 31.144,33.912 31.848,33.4 C32.072,33.304 32.264,33.176 32.456,32.984 C32.52,32.952 32.584,32.952 32.648,32.888 C33.192,32.568 33.768,32.216 34.312,31.864 C34.408,31.8 34.472,31.768 34.504,31.704 L34.696,31.608 C34.744,31.592 34.792,31.576 34.832,31.552 C34.76,31.52 34.728,31.56 34.696,31.608 C34.632,31.608 34.568,31.608 34.504,31.672 C34.44,31.704 34.344,31.704 34.28,31.768 C33.64,32.152 33,32.504 32.424,32.952 C32.2,33.048 31.976,33.176 31.784,33.336 C31.656,33.432 31.496,33.496 31.368,33.592 C30.792,33.976 30.216,34.36 29.704,34.776 L29.384,34.968 C28.648,35.512 27.912,36.056 27.176,36.568 C27.048,36.664 26.888,36.76 26.824,36.888 C26.696,36.888 26.632,36.952 26.568,37.048 C26.52,37.064 26.472,37.088 26.428,37.116 L26.452,37.152 Z M34.796,31.492 C34.832,31.464 34.872,31.448 34.92,31.448 C34.904,31.496 34.872,31.528 34.832,31.552 L34.796,31.492 Z M26.736,31.644 C26.776,31.624 26.808,31.592 26.824,31.544 C26.776,31.544 26.736,31.56 26.7,31.584 L26.736,31.644 Z M26.64,36.364 C26.68,36.336 26.712,36.296 26.728,36.248 C26.68,36.264 26.64,36.28 26.604,36.304 L26.64,36.364 Z M26.276,36.604 C26.312,36.584 26.344,36.552 26.376,36.504 C26.328,36.504 26.288,36.52 26.252,36.544 L26.276,36.604 Z M46.088,31.736 C46.12,31.832 46.12,31.864 46.056,31.928 C46.056,31.96 46.024,31.96 45.992,31.992 C45.832,32.088 45.704,32.216 45.576,32.312 C45.32,32.504 45.064,32.728 44.84,32.952 C44.552,33.176 44.264,33.4 44.008,33.624 C43.624,33.944 43.24,34.264 42.856,34.52 L42.152,34.936 C41.8,35.128 41.448,35.256 41.096,35.416 C40.808,35.512 40.52,35.608 40.232,35.672 C40.104,35.704 39.976,35.704 39.88,35.704 L39.464,35.704 C39.24,35.704 39.016,35.64 38.792,35.608 L38.504,35.512 C38.216,35.448 37.992,35.256 37.8,34.968 C37.8,34.936 37.736,34.904 37.736,34.872 C37.704,34.84 37.704,34.776 37.704,34.712 C37.672,34.616 37.704,34.552 37.736,34.488 L37.8,34.424 C37.928,34.36 38.056,34.264 38.184,34.232 C38.408,34.136 38.6,33.976 38.792,33.816 C38.92,33.72 39.048,33.592 39.144,33.464 C39.208,33.368 39.272,33.304 39.336,33.24 C39.592,32.952 39.816,32.632 39.976,32.312 L40.36,31.736 C40.456,31.512 40.552,31.32 40.648,31.128 L40.84,30.712 C40.968,30.36 41.096,30.008 41.224,29.624 C41.352,29.208 41.448,28.792 41.512,28.344 C41.544,28.216 41.544,28.12 41.544,28.024 L41.544,27.96 C41.544,27.864 41.512,27.832 41.448,27.864 C41.416,27.864 41.352,27.896 41.352,27.928 C41.16,28.056 41.032,28.152 40.872,28.28 C40.84,28.28 40.808,28.344 40.776,28.376 C40.744,28.44 40.712,28.472 40.648,28.504 C40.584,28.536 40.52,28.568 40.488,28.664 C40.488,28.728 40.424,28.728 40.424,28.76 C40.2,29.048 39.976,29.304 39.752,29.56 C39.688,29.624 39.656,29.656 39.624,29.72 C39.624,29.752 39.56,29.816 39.56,29.848 C39.432,29.976 39.304,30.104 39.176,30.264 C39.176,30.296 39.144,30.296 39.112,30.36 C39.08,30.424 39.048,30.52 38.984,30.584 C38.92,30.616 38.856,30.712 38.792,30.776 C38.76,30.84 38.696,30.872 38.632,30.936 C38.6,30.936 38.568,31 38.504,31.064 L38.568,31.064 L38.568,31.096 L38.44,31.288 C38.408,31.32 38.376,31.352 38.376,31.384 C38.344,31.448 38.312,31.512 38.248,31.544 C38.216,31.608 38.184,31.64 38.12,31.64 C38.056,31.672 38.024,31.736 37.992,31.8 C38.024,31.832 38.056,31.832 38.056,31.832 C38.056,31.864 38.024,31.896 37.992,31.928 C37.96,31.96 37.928,31.992 37.896,32.056 C37.864,32.12 37.832,32.184 37.8,32.216 C37.736,32.28 37.704,32.312 37.704,32.376 C37.64,32.44 37.608,32.504 37.544,32.504 C37.48,32.536 37.448,32.6 37.384,32.728 C37.448,32.696 37.448,32.696 37.48,32.696 C37.48,32.728 37.448,32.728 37.448,32.76 C37.384,32.824 37.32,32.952 37.256,33.048 C37.192,33.176 37.16,33.24 37.064,33.272 C37,33.304 36.936,33.4 36.936,33.496 C36.936,33.56 36.936,33.624 36.872,33.656 L36.648,34.04 C36.648,34.04 36.648,34.072 36.616,34.104 C36.52,34.2 36.456,34.328 36.392,34.456 C36.36,34.488 36.328,34.552 36.264,34.584 C36.2,34.616 36.2,34.616 36.2,34.712 C36.2,34.808 36.168,34.904 36.104,34.936 C36.04,34.936 36.008,35 35.944,35.064 C35.944,35.096 35.912,35.128 35.976,35.16 C35.816,35.224 35.784,35.352 35.72,35.48 L35.72,35.512 C35.72,35.64 35.688,35.704 35.592,35.736 C35.528,35.8 35.496,35.864 35.464,35.928 L35.464,35.992 C35.464,36.056 35.464,36.088 35.432,36.152 C35.368,36.28 35.272,36.376 35.208,36.504 C35.208,36.568 35.176,36.6 35.112,36.632 C35.08,36.664 35.048,36.696 35.016,36.76 C35.016,36.76 35.048,36.792 35.08,36.792 C35.048,36.824 35.016,36.824 35.016,36.824 C34.952,36.856 34.92,36.888 34.952,36.952 C34.952,37.048 34.92,37.08 34.888,37.112 C34.856,37.144 34.824,37.144 34.824,37.144 C34.792,37.176 34.76,37.208 34.792,37.272 C34.792,37.272 34.76,37.336 34.76,37.368 C34.728,37.432 34.696,37.496 34.664,37.528 C34.664,37.56 34.632,37.592 34.6,37.592 C34.536,37.624 34.472,37.72 34.472,37.816 C34.44,37.88 34.408,37.912 34.344,37.976 L34.248,38.2 L34.248,38.264 C34.28,38.328 34.216,38.36 34.184,38.424 L34.12,38.488 C34.088,38.488 34.088,38.52 34.088,38.552 L34.088,38.712 C34.056,38.712 34.024,38.776 34.024,38.808 C33.96,38.808 33.928,38.808 33.896,38.872 C33.896,38.936 33.864,38.968 33.896,39.032 C33.896,39.096 33.864,39.16 33.8,39.16 C33.768,39.16 33.768,39.192 33.768,39.192 C33.704,39.224 33.704,39.256 33.704,39.32 C33.736,39.384 33.704,39.448 33.64,39.48 C33.608,39.512 33.576,39.544 33.544,39.608 C33.512,39.672 33.48,39.704 33.512,39.768 C33.544,39.8 33.512,39.864 33.48,39.896 C33.416,39.928 33.384,40.024 33.352,40.088 C33.352,40.152 33.288,40.248 33.288,40.344 C33.256,40.376 33.224,40.44 33.192,40.504 C33.192,40.536 33.16,40.568 33.16,40.568 C33.096,40.6 33.064,40.696 33,40.76 C32.968,40.792 32.968,40.824 32.968,40.856 C33,40.92 32.968,40.984 32.904,41.016 C32.84,41.048 32.84,41.112 32.776,41.176 L32.68,41.432 C32.648,41.464 32.648,41.496 32.648,41.56 L32.648,41.624 C32.616,41.688 32.584,41.784 32.552,41.848 C32.488,41.88 32.488,41.912 32.456,41.976 C32.424,42.04 32.424,42.104 32.36,42.136 C32.328,42.2 32.328,42.232 32.296,42.264 C32.264,42.328 32.264,42.392 32.296,42.456 C32.296,42.552 32.232,42.584 32.168,42.648 C32.136,42.68 32.104,42.744 32.072,42.808 L31.944,43.128 C31.944,43.192 31.912,43.224 31.912,43.256 C31.848,43.352 31.784,43.448 31.784,43.544 C31.784,43.576 31.752,43.672 31.72,43.704 C31.72,43.736 31.688,43.768 31.656,43.8 C31.592,43.832 31.592,43.896 31.592,44.024 C31.592,44.12 31.528,44.248 31.496,44.344 C31.4,44.504 31.336,44.664 31.24,44.792 C31.208,44.92 31.144,45.048 31.112,45.176 C31.08,45.24 31.048,45.272 31.048,45.336 C31.048,45.368 31.048,45.4 31.016,45.432 C30.952,45.528 30.92,45.656 30.856,45.784 C30.824,45.912 30.76,46.008 30.728,46.136 C30.696,46.2 30.664,46.232 30.664,46.328 C30.664,46.392 30.632,46.456 30.6,46.52 C30.536,46.552 30.504,46.648 30.504,46.712 C30.504,46.84 30.44,46.936 30.408,47.032 C30.376,47.096 30.376,47.16 30.344,47.224 C30.312,47.256 30.312,47.32 30.28,47.352 C30.184,47.448 30.152,47.608 30.088,47.768 C29.992,48.12 29.864,48.44 29.704,48.76 C29.672,48.824 29.672,48.888 29.64,48.92 C29.544,49.144 29.48,49.336 29.416,49.56 C29.32,49.784 29.192,50.008 29.128,50.232 C29.064,50.328 29.032,50.456 29,50.552 C28.744,51.064 28.552,51.576 28.264,52.088 C28.104,52.408 27.944,52.696 27.752,53.016 C27.688,53.112 27.592,53.208 27.496,53.336 L27.4,53.432 C27.272,53.528 27.144,53.56 26.984,53.496 C26.856,53.464 26.728,53.432 26.632,53.368 C26.568,53.336 26.504,53.304 26.472,53.208 C26.44,53.208 26.44,53.176 26.408,53.144 L26.408,52.568 C26.44,52.536 26.44,52.472 26.44,52.44 C26.504,52.056 26.568,51.704 26.664,51.352 C26.792,50.744 26.952,50.136 27.144,49.56 C27.208,49.24 27.336,48.92 27.4,48.6 C27.464,48.408 27.56,48.216 27.624,47.992 C27.688,47.768 27.784,47.512 27.88,47.256 C27.944,46.936 28.072,46.648 28.168,46.328 L28.456,45.496 C28.488,45.336 28.552,45.24 28.616,45.08 C28.68,44.984 28.68,44.856 28.744,44.728 C28.808,44.504 28.904,44.28 29,44.024 C29.128,43.672 29.256,43.352 29.384,42.968 L29.608,42.456 C29.672,42.232 29.768,42.008 29.864,41.784 C29.96,41.528 30.056,41.304 30.12,41.048 L30.504,40.248 C30.76,39.512 31.08,38.808 31.368,38.136 C31.496,37.848 31.624,37.592 31.72,37.304 C31.784,37.144 31.88,37.016 31.944,36.888 C32.008,36.696 32.104,36.504 32.168,36.344 C32.296,36.056 32.456,35.768 32.584,35.48 C32.648,35.384 32.712,35.256 32.744,35.128 L33.032,34.52 C33.16,34.264 33.288,34.04 33.416,33.784 C33.544,33.528 33.64,33.24 33.768,32.984 L34.12,32.344 C34.344,31.96 34.536,31.512 34.76,31.128 L35.336,30.008 C35.528,29.688 35.688,29.336 35.88,29.016 L36.168,28.504 C36.328,28.216 36.456,27.96 36.584,27.704 C36.616,27.672 36.648,27.64 36.648,27.608 C36.712,27.512 36.776,27.512 36.872,27.512 C36.936,27.576 36.968,27.64 37,27.736 C37,27.8 37.032,27.896 37,27.96 C37,28.056 36.968,28.184 36.936,28.248 C36.904,28.312 36.872,28.408 36.872,28.472 C36.808,28.632 36.744,28.792 36.648,28.952 C36.584,29.112 36.52,29.304 36.456,29.432 C36.36,29.624 36.264,29.816 36.2,30.008 C36.104,30.168 36.008,30.392 35.944,30.552 C35.816,30.84 35.656,31.096 35.528,31.352 L35.432,31.608 C35.4,31.672 35.4,31.736 35.336,31.8 C35.336,31.832 35.272,31.864 35.304,31.928 C35.304,31.96 35.272,31.96 35.272,31.96 C35.24,32.024 35.208,32.056 35.176,32.152 L35.08,32.376 L35.048,32.376 C34.984,32.568 34.888,32.696 34.824,32.824 L34.632,33.272 C34.632,33.304 34.6,33.336 34.6,33.368 C34.536,33.4 34.536,33.464 34.568,33.496 C34.536,33.496 34.536,33.528 34.504,33.592 L34.312,33.944 C34.216,34.104 34.152,34.264 34.088,34.392 C34.024,34.488 33.992,34.616 33.96,34.712 L33.832,34.936 C33.736,35.064 33.672,35.256 33.608,35.416 C33.576,35.512 33.544,35.608 33.48,35.704 C33.448,35.768 33.448,35.832 33.48,35.832 L33.352,35.96 L33.352,36.088 C33.384,36.152 33.352,36.184 33.32,36.216 C33.256,36.28 33.224,36.344 33.192,36.376 C33.16,36.44 33.16,36.472 33.16,36.472 C33.096,36.568 33.032,36.664 33,36.76 C32.936,36.888 32.904,37.016 32.84,37.144 C32.84,37.176 32.808,37.208 32.84,37.24 C32.84,37.272 32.84,37.336 32.808,37.368 C32.776,37.4 32.776,37.432 32.776,37.496 C32.744,37.496 32.712,37.528 32.712,37.56 C32.648,37.592 32.648,37.592 32.616,37.656 C32.616,37.72 32.584,37.72 32.584,37.752 C32.552,37.816 32.552,37.88 32.552,37.944 C32.552,38.008 32.52,38.04 32.488,38.04 C32.456,38.072 32.424,38.104 32.424,38.136 C32.392,38.232 32.36,38.296 32.296,38.36 L32.296,38.392 C32.264,38.552 32.168,38.68 32.136,38.808 C32.104,38.84 32.104,38.904 32.104,38.936 C32.104,39.032 32.072,39.128 32.008,39.16 C31.976,39.192 31.976,39.224 31.976,39.256 C31.912,39.288 31.88,39.352 31.848,39.448 C31.816,39.544 31.784,39.64 31.72,39.736 C31.656,39.8 31.656,39.928 31.656,40.024 C31.656,40.056 31.656,40.12 31.592,40.152 C31.496,40.216 31.464,40.312 31.464,40.408 C31.464,40.536 31.432,40.6 31.4,40.696 C31.368,40.728 31.368,40.76 31.368,40.76 C31.272,40.824 31.24,40.92 31.208,41.016 C31.208,41.048 31.176,41.08 31.176,41.144 C31.144,41.176 31.112,41.24 31.144,41.304 C31.144,41.368 31.112,41.4 31.112,41.432 C31.08,41.464 31.048,41.464 31.048,41.496 C30.984,41.528 30.984,41.592 30.952,41.624 C30.952,41.72 30.92,41.816 30.888,41.88 C30.856,41.944 30.856,42.008 30.824,42.072 C30.728,42.168 30.696,42.296 30.664,42.424 C30.664,42.52 30.6,42.584 30.568,42.648 C30.536,42.712 30.536,42.808 30.536,42.872 L30.504,43 C30.44,43.128 30.408,43.224 30.344,43.32 L30.312,43.352 C30.312,43.384 30.312,43.48 30.28,43.512 C30.248,43.576 30.216,43.608 30.216,43.672 C30.184,43.736 30.184,43.8 30.152,43.864 C30.12,43.896 30.12,43.928 30.088,43.992 C30.056,44.024 30.056,44.056 30.056,44.12 C30.056,44.184 30.024,44.248 29.992,44.312 C29.96,44.408 29.928,44.504 29.864,44.632 C29.864,44.696 29.8,44.792 29.768,44.888 C29.736,44.92 29.736,44.952 29.736,45.016 C29.704,45.08 29.672,45.112 29.672,45.208 C29.64,45.24 29.608,45.336 29.576,45.368 L29.48,45.656 C29.448,45.848 29.384,46.04 29.288,46.232 C29.256,46.296 29.256,46.36 29.192,46.456 C29.192,46.552 29.16,46.616 29.128,46.712 C29.096,46.776 29.064,46.808 29.064,46.904 C29.064,47 29,47.096 28.968,47.192 C28.936,47.224 28.936,47.224 28.936,47.256 C28.872,47.576 28.744,47.896 28.648,48.184 C28.616,48.344 28.552,48.44 28.488,48.6 C28.456,48.664 28.456,48.728 28.424,48.792 C28.328,49.112 28.264,49.4 28.168,49.688 C28.136,49.816 28.072,49.944 28.04,50.072 C28.04,50.136 28.008,50.2 28.008,50.232 C28.008,50.264 28.008,50.264 28.04,50.328 C28.072,50.264 28.072,50.232 28.072,50.232 C28.232,49.88 28.392,49.528 28.52,49.144 L28.84,48.312 C28.936,48.056 29.032,47.8 29.128,47.576 C29.192,47.416 29.256,47.288 29.288,47.128 C29.384,46.936 29.448,46.744 29.544,46.52 C29.64,46.264 29.736,46.008 29.8,45.784 C29.896,45.56 29.992,45.368 30.056,45.176 C30.184,44.92 30.28,44.6 30.376,44.344 C30.44,44.12 30.536,43.96 30.6,43.8 C30.696,43.576 30.792,43.352 30.856,43.128 C31.048,42.68 31.176,42.296 31.368,41.912 L31.656,41.24 C31.656,41.24 31.688,41.176 31.72,41.144 C31.816,40.92 31.912,40.664 32.04,40.408 C32.104,40.248 32.168,40.12 32.264,39.928 C32.392,39.672 32.552,39.352 32.648,39.096 C32.744,38.936 32.84,38.744 32.904,38.584 C33.064,38.264 33.224,37.912 33.416,37.592 C33.544,37.336 33.64,37.08 33.8,36.824 C33.896,36.632 33.96,36.472 34.088,36.28 C34.28,35.928 34.504,35.544 34.696,35.16 C34.792,35 34.888,34.84 34.984,34.648 L35.08,34.424 C35.144,34.296 35.24,34.168 35.304,34.04 C35.368,33.944 35.432,33.88 35.464,33.784 C35.688,33.4 35.944,32.984 36.2,32.6 L37.064,31.256 C37.256,31 37.416,30.744 37.576,30.52 C37.704,30.328 37.832,30.168 37.992,29.976 L38.376,29.4 C38.504,29.304 38.6,29.176 38.696,29.048 C38.824,28.856 38.984,28.696 39.112,28.504 C39.368,28.248 39.592,27.96 39.816,27.736 C40.072,27.448 40.328,27.192 40.616,27 C40.744,26.904 40.84,26.84 40.968,26.808 C40.968,26.808 41,26.776 41.032,26.776 L41.448,26.776 L41.48,26.808 C41.672,26.872 41.832,27.032 41.992,27.192 C42.088,27.288 42.216,27.384 42.28,27.512 C42.344,27.608 42.408,27.736 42.44,27.832 C42.472,27.96 42.472,28.056 42.472,28.184 C42.472,28.28 42.504,28.44 42.472,28.568 C42.472,28.728 42.472,28.888 42.44,29.048 C42.344,29.496 42.28,29.912 42.12,30.328 C42.088,30.488 42.024,30.616 41.992,30.744 C41.96,30.744 41.96,30.808 41.96,30.84 C41.896,30.904 41.864,31 41.832,31.128 C41.832,31.224 41.8,31.288 41.736,31.352 C41.672,31.384 41.64,31.48 41.672,31.544 L41.672,31.608 C41.608,31.768 41.544,31.928 41.48,32.056 L41.384,32.056 C41.288,32.12 41.256,32.216 41.224,32.344 L41.224,32.504 C41.192,32.536 41.16,32.504 41.16,32.504 C41.128,32.504 41.128,32.536 41.096,32.568 C41.032,32.632 40.808,33.048 40.744,33.176 C40.776,33.176 40.776,33.176 40.808,33.208 L40.616,33.56 C40.584,33.624 40.552,33.624 40.52,33.688 C40.36,33.88 40.168,34.072 39.976,34.264 C39.944,34.36 39.88,34.392 39.816,34.456 L39.464,34.712 C39.432,34.712 39.432,34.744 39.432,34.744 C39.4,34.776 39.368,34.808 39.4,34.84 C39.4,34.84 39.432,34.872 39.464,34.872 L39.496,34.84 C39.912,34.808 40.296,34.648 40.712,34.488 C41.128,34.296 41.544,34.072 41.896,33.816 C42.344,33.592 42.728,33.304 43.112,33.016 C43.368,32.824 43.656,32.664 43.912,32.504 C44.2,32.28 44.488,32.056 44.776,31.864 C45,31.704 45.256,31.544 45.512,31.384 C45.64,31.352 45.736,31.352 45.832,31.448 L46.024,31.64 C46.056,31.672 46.056,31.736 46.088,31.736 Z M39.432,28.632 C39.432,28.696 39.368,28.728 39.368,28.792 C39.496,28.696 39.56,28.632 39.656,28.536 C39.816,28.344 39.976,28.152 40.168,27.96 C40.2,27.896 40.232,27.864 40.296,27.832 C40.36,27.768 40.424,27.736 40.456,27.64 C40.488,27.64 40.488,27.608 40.456,27.608 C40.296,27.704 39.88,28.12 39.432,28.632 Z M40.968,27.896 L40.968,27.864 L40.904,27.864 C40.872,27.928 40.808,27.96 40.744,27.992 L40.456,28.312 C40.296,28.472 40.136,28.632 40.008,28.792 C39.752,29.08 39.496,29.4 39.24,29.72 C39.24,29.72 39.208,29.72 39.208,29.752 L38.888,30.168 C38.792,30.296 38.696,30.392 38.632,30.52 C38.504,30.68 38.376,30.84 38.248,31.032 C38.12,31.224 37.992,31.384 37.864,31.608 C37.64,31.96 37.384,32.312 37.128,32.664 C37,32.888 36.84,33.144 36.712,33.4 C36.392,33.88 36.072,34.392 35.784,34.904 C35.4,35.576 35.016,36.248 34.664,36.92 C34.536,37.208 34.376,37.496 34.216,37.784 C33.96,38.232 33.736,38.712 33.544,39.16 C33.416,39.384 33.288,39.672 33.16,39.928 C33,40.248 32.84,40.568 32.712,40.888 C32.648,40.984 32.584,41.112 32.552,41.24 C32.392,41.56 32.232,41.88 32.104,42.2 L31.048,44.696 C30.952,44.92 30.856,45.112 30.792,45.336 L30.6,45.784 C30.536,45.976 30.472,46.136 30.408,46.36 C30.344,46.488 30.28,46.68 30.184,46.84 C30.152,46.968 30.12,47.096 30.056,47.224 C29.928,47.512 29.832,47.8 29.736,48.056 C29.672,48.216 29.608,48.408 29.512,48.568 L29.128,49.624 C29,49.912 28.872,50.232 28.744,50.552 C28.712,50.552 28.712,50.584 28.712,50.616 C28.744,50.616 28.744,50.584 28.744,50.584 C28.808,50.456 28.872,50.264 28.936,50.104 C29.128,49.72 29.288,49.336 29.448,48.92 C29.448,48.888 29.448,48.888 29.48,48.888 C29.544,48.664 29.608,48.44 29.704,48.248 C29.8,48.088 29.864,47.896 29.928,47.704 C29.992,47.576 30.024,47.448 30.056,47.352 C30.152,47.128 30.248,46.936 30.312,46.744 L30.504,46.232 L31.272,44.312 C31.432,43.992 31.56,43.672 31.656,43.352 L32.232,42.04 C32.36,41.752 32.488,41.464 32.584,41.208 L32.776,40.792 C32.904,40.6 33,40.344 33.128,40.12 C33.192,39.928 33.288,39.768 33.352,39.576 C33.48,39.352 33.608,39.128 33.704,38.872 L34.28,37.784 C34.472,37.464 34.632,37.144 34.792,36.824 C34.952,36.472 35.144,36.152 35.336,35.832 C35.656,35.256 36.008,34.648 36.36,34.072 C36.52,33.784 36.712,33.464 36.904,33.176 C37.128,32.824 37.352,32.472 37.576,32.152 L37.928,31.608 C38.088,31.384 38.28,31.128 38.472,30.872 L38.856,30.328 C38.984,30.136 39.144,29.944 39.304,29.752 C39.432,29.624 39.528,29.464 39.624,29.336 C39.88,29.016 40.136,28.728 40.424,28.44 L40.424,28.408 C40.616,28.248 40.776,28.056 40.968,27.896 Z M40.128,28.124 C40.16,28.088 40.184,28.04 40.2,27.992 C40.152,28.024 40.112,28.056 40.08,28.088 L40.128,28.124 Z M38.76,29.56 L38.76,29.592 C38.76,29.56 38.792,29.528 38.792,29.528 C38.952,29.368 39.112,29.176 39.24,29.016 C39.272,28.984 39.304,28.952 39.304,28.92 L39.304,28.856 C39.304,28.856 39.272,28.856 39.272,28.888 C39.112,29.048 38.984,29.208 38.856,29.4 C38.792,29.432 38.76,29.496 38.76,29.56 Z M39.176,29.208 C39.08,29.304 38.984,29.4 38.856,29.496 C38.856,29.528 38.856,29.56 38.824,29.56 C38.824,29.592 38.792,29.624 38.824,29.624 C38.92,29.528 39.048,29.368 39.176,29.208 Z M38.248,30.168 L38.248,30.232 C38.376,30.104 38.44,30.008 38.536,29.912 C38.568,29.88 38.568,29.848 38.568,29.848 L38.568,29.816 L38.536,29.816 L38.504,29.848 C38.44,29.944 38.344,30.072 38.248,30.168 Z M38.6,29.944 L38.568,29.944 C38.568,29.944 38.504,29.976 38.504,30.008 C38.472,30.072 38.44,30.072 38.408,30.136 L38.408,30.168 L38.44,30.168 C38.504,30.104 38.568,30.04 38.6,29.944 Z M37.96,30.552 L37.96,30.616 C38.024,30.552 38.152,30.424 38.184,30.36 L38.184,30.296 C38.184,30.328 38.152,30.328 38.152,30.328 L37.96,30.552 Z M37.8,30.84 C37.736,30.872 37.704,30.936 37.704,30.968 C37.736,30.936 37.8,30.936 37.8,30.872 L37.8,30.84 Z M37.192,31.736 C37.128,31.768 37.128,31.8 37.096,31.864 C37.16,31.832 37.192,31.832 37.192,31.768 L37.192,31.736 Z M45.216,31.944 C45.24,31.928 45.256,31.896 45.256,31.832 C45.224,31.848 45.208,31.872 45.192,31.896 L45.216,31.944 Z M45.444,32.156 C45.4,32.192 45.368,32.232 45.352,32.28 C45.4,32.248 45.448,32.216 45.492,32.18 L45.444,32.156 Z M44.712,32.792 C44.84,32.696 44.968,32.6 45.096,32.472 L45.064,32.472 C44.936,32.568 44.84,32.632 44.712,32.728 C44.712,32.728 44.68,32.76 44.712,32.792 Z M40.488,33.176 C40.296,33.464 40.072,33.72 39.848,34.008 C39.816,34.04 39.752,34.104 39.72,34.168 C39.72,34.168 39.688,34.168 39.72,34.2 C39.752,34.2 39.752,34.168 39.784,34.168 C39.848,34.072 39.944,33.976 40.04,33.88 C40.104,33.816 40.168,33.72 40.2,33.656 L40.456,33.304 L40.84,32.728 L40.84,32.632 L40.744,32.728 C40.68,32.888 40.552,33.016 40.488,33.176 Z M39.968,32.992 C39.944,33.032 39.928,33.08 39.912,33.144 C39.944,33.096 39.976,33.056 40.004,33.016 L39.968,32.992 Z M44.392,33.048 C44.424,33.016 44.456,32.984 44.456,32.952 C44.072,33.24 43.72,33.528 43.368,33.816 C43.464,33.816 43.944,33.4 44.392,33.048 Z M39.816,33.24 C39.656,33.4 39.496,33.624 39.336,33.816 C39.368,33.816 39.432,33.784 39.464,33.72 L39.816,33.368 C39.816,33.304 39.848,33.272 39.848,33.208 C39.816,33.208 39.816,33.208 39.816,33.24 Z M39.88,33.336 C39.848,33.336 39.848,33.336 39.848,33.368 L39.56,33.688 L39.56,33.72 C39.592,33.72 39.624,33.72 39.624,33.688 L39.848,33.432 C39.848,33.4 39.848,33.4 39.88,33.336 Z M33.704,34.84 C33.64,34.904 33.608,34.936 33.608,35.064 L33.704,34.84 Z M35.176,35.092 C35.208,35.032 35.24,34.968 35.272,34.904 C35.208,34.952 35.16,35 35.128,35.056 L35.176,35.092 Z M34.216,36.696 L34.216,36.824 C34.248,36.824 34.248,36.792 34.216,36.696 Z M31.72,38.136 C31.656,38.232 31.496,38.584 31.464,38.776 C31.496,38.744 31.496,38.744 31.496,38.712 L31.688,38.264 C31.72,38.232 31.72,38.2 31.72,38.168 L31.72,38.136 Z M33.096,38.936 L33.096,38.968 C33.16,38.936 33.192,38.84 33.224,38.744 C33.128,38.84 33.128,38.872 33.096,38.936 Z M31.336,39.032 L31.304,39.032 C31.176,39.288 31.112,39.544 31.016,39.8 C31.048,39.8 31.048,39.768 31.08,39.704 L31.176,39.448 C31.24,39.352 31.272,39.224 31.336,39.096 C31.336,39.096 31.368,39.064 31.336,39.032 Z M32.872,39.384 C32.776,39.576 32.68,39.768 32.616,39.96 C32.616,39.96 32.616,39.992 32.648,39.992 C32.648,39.928 32.68,39.896 32.712,39.832 C32.744,39.8 32.776,39.704 32.776,39.672 L32.872,39.512 C32.904,39.48 32.936,39.416 32.936,39.352 C32.904,39.352 32.904,39.352 32.872,39.384 Z M30.9460085,39.9351073 C30.92,39.964303 30.92,39.9765949 30.92,40.024 L30.952,39.992 C30.952,39.9501706 30.9656695,39.9356802 30.9751402,39.9217263 L30.9460085,39.9351073 Z M30.312,41.528 C30.28,41.592 30.28,41.592 30.28,41.624 C30.312,41.592 30.312,41.56 30.344,41.496 L30.568,40.984 C30.6,40.92 30.6,40.888 30.6,40.824 L30.6,40.792 L30.568,40.792 C30.44,41.016 30.376,41.272 30.312,41.528 Z M31.592,42.168 L31.592,42.232 L31.656,42.232 C31.784,41.944 31.88,41.688 31.976,41.4 L32.008,41.368 L31.976,41.368 L31.592,42.168 Z M30.028,42.416 C30.008,42.464 29.992,42.52 29.992,42.584 C30.04,42.504 30.064,42.456 30.076,42.416 L30.028,42.416 Z M30.952,43.768 L30.952,43.8 C30.984,43.8 30.984,43.8 30.984,43.768 C31.08,43.576 31.144,43.352 31.24,43.128 L31.272,43.128 C31.304,43.032 31.368,42.904 31.432,42.776 C31.432,42.712 31.464,42.68 31.496,42.584 L31.496,42.552 C31.432,42.584 31.432,42.584 31.432,42.616 C31.304,42.968 31.144,43.288 30.984,43.64 C30.984,43.672 30.984,43.704 30.952,43.768 Z M30.5387532,44.8416073 C30.5465129,44.824 30.568,44.824 30.568,44.824 C30.6,44.696 30.664,44.568 30.728,44.44 L30.728,44.344 C30.664,44.408 30.664,44.472 30.632,44.504 C30.6013942,44.5958173 30.5415162,44.7169068 30.5363565,44.8392717 L30.5387532,44.8416073 Z M28.456,50.232 C28.52,50.072 28.616,49.912 28.68,49.784 L28.776,49.56 C28.84,49.4 28.904,49.24 28.968,49.112 C29,49.048 29,49.016 29.032,48.92 L29.128,48.664 C29.16,48.6 29.192,48.568 29.192,48.504 C29.256,48.44 29.256,48.344 29.32,48.28 L29.416,47.992 C29.416,47.928 29.448,47.896 29.448,47.896 C29.48,47.8 29.544,47.672 29.576,47.544 L29.672,47.352 L29.672,47.224 C29.768,47.096 29.8,46.936 29.864,46.808 C29.928,46.744 29.928,46.68 29.96,46.616 C29.992,46.552 29.992,46.552 29.992,46.488 C29.992,46.456 29.96,46.456 29.96,46.424 C29.992,46.36 29.992,46.296 30.024,46.232 L30.088,46.136 C30.184,46.104 30.216,46.008 30.248,45.912 L30.248,45.784 C30.216,45.72 30.216,45.688 30.248,45.656 C30.28,45.56 30.312,45.496 30.344,45.464 C30.344,45.4 30.376,45.368 30.376,45.368 C30.504,45.272 30.536,45.144 30.536,45.016 C30.568,45.016 30.568,45.016 30.568,44.984 C30.504,44.952 30.504,44.952 30.472,45.016 L30.376,45.144 L30.184,45.624 C30.056,45.912 29.96,46.232 29.832,46.552 C29.768,46.712 29.704,46.872 29.672,47 L29.48,47.448 C29.416,47.64 29.352,47.8 29.256,47.992 C29.128,48.344 29,48.728 28.84,49.08 L28.552,49.88 C28.488,49.976 28.456,50.072 28.424,50.2 C28.392,50.232 28.392,50.264 28.392,50.296 L28.456,50.232 Z M58.388,24.996 C58.424,24.928 58.456,24.856 58.504,24.792 C58.536,24.728 58.568,24.664 58.568,24.6 C58.6,24.584 58.616,24.552 58.624,24.516 C58.576,24.536 58.568,24.568 58.568,24.6 C58.472,24.632 58.472,24.728 58.504,24.792 C58.424,24.824 58.368,24.872 58.328,24.936 L58.388,24.996 Z M58.328,24.936 C58.288,25 58.264,25.08 58.248,25.176 C58.024,25.368 57.928,25.624 57.8,25.88 C57.512,26.264 57.32,26.712 57.064,27.16 C57.032,27.192 57.032,27.288 57.032,27.352 C56.936,27.384 56.872,27.512 56.84,27.608 L54.824,31.352 C53.896,33.144 52.968,34.968 52.04,36.76 C51.24,38.296 50.44,39.8 49.608,41.304 C49.544,41.432 49.48,41.56 49.384,41.688 C49.224,41.88 49.128,41.88 48.968,41.624 L48.968,41.656 L48.872,41.464 L48.872,41.496 L48.744,41.528 C48.648,41.496 48.616,41.432 48.616,41.368 C48.552,41.272 48.584,41.144 48.648,41.048 C48.904,40.472 49.192,39.896 49.448,39.32 L50.76,36.728 C51.112,35.992 51.496,35.256 51.848,34.552 L52.328,33.592 C52.712,32.888 53.064,32.216 53.448,31.512 C53.576,31.256 53.736,31 53.864,30.712 C54.024,30.36 54.216,30.008 54.44,29.656 L55.368,27.928 C55.784,27.16 56.232,26.392 56.648,25.656 L57.16,24.76 C57.8,23.672 58.472,22.552 59.144,21.464 C59.592,20.664 60.104,19.896 60.616,19.128 C60.904,18.712 61.256,18.296 61.576,17.88 C61.64,17.784 61.736,17.72 61.832,17.656 C61.992,17.56 62.12,17.592 62.248,17.688 C62.376,17.784 62.408,17.912 62.376,18.04 C62.344,18.2 62.312,18.36 62.248,18.488 L61.768,19.352 L61.8,19.352 L61.8,19.448 C61.64,19.768 61.48,20.12 61.224,20.408 L61.224,20.504 C61.192,20.536 61.16,20.6 61.128,20.664 L61.128,20.632 C61.096,20.696 61.064,20.76 61.064,20.792 L60.968,20.984 L60.968,20.952 C60.936,21.016 60.872,21.08 60.808,21.112 C60.776,21.176 60.776,21.24 60.744,21.304 L60.744,21.368 C60.712,21.432 60.68,21.496 60.648,21.528 C60.648,21.688 60.488,21.752 60.424,21.848 L60.424,21.944 C60.328,22.04 60.232,22.136 60.168,22.264 C60.136,22.296 60.104,22.36 60.072,22.424 L60.104,22.424 C60.072,22.488 60.04,22.52 60.008,22.584 C59.976,22.648 59.944,22.68 59.944,22.744 L59.848,22.84 L59.848,22.808 L59.752,23 L59.784,22.968 L59.688,23.128 C59.72,23.128 59.752,23.128 59.784,23.16 L59.752,23.16 C59.752,23.256 59.688,23.32 59.624,23.384 L59.528,23.384 C59.496,23.448 59.464,23.48 59.432,23.544 C59.4,23.576 59.368,23.64 59.368,23.704 L59.272,23.864 L59.304,23.864 L59.304,23.96 L59.272,23.96 C59.272,24.024 59.24,24.056 59.208,24.12 L59.112,24.12 C59.112,24.152 59.08,24.216 59.048,24.248 C59.08,24.248 59.112,24.28 59.144,24.28 L59.112,24.28 C59.08,24.44 59.016,24.568 58.888,24.664 L58.888,24.696 L58.792,24.696 L58.792,24.664 C58.76,24.728 58.76,24.792 58.728,24.856 L58.728,24.824 L58.632,25.016 L58.632,24.984 L58.568,25.144 C58.6,25.144 58.632,25.144 58.632,25.176 L58.504,25.4 C58.472,25.464 58.44,25.496 58.44,25.56 C58.344,25.752 58.248,25.976 58.088,26.136 L57.992,26.136 C57.96,26.168 57.928,26.232 57.896,26.296 L57.928,26.296 L57.832,26.456 C57.8,26.52 57.768,26.552 57.736,26.616 L57.768,26.616 L57.768,26.712 L57.736,26.712 C57.736,26.744 57.704,26.808 57.672,26.84 L57.672,26.872 L57.608,26.872 L57.608,27.032 L57.576,27.032 C57.512,27.192 57.448,27.352 57.352,27.512 C57.32,27.48 57.32,27.48 57.288,27.512 L57.352,27.512 C57.32,27.576 57.256,27.672 57.224,27.736 C57.16,27.864 57.128,27.992 57.032,28.056 L57.032,27.928 C57,27.992 56.968,28.024 56.936,28.056 L56.84,28.216 L56.872,28.216 L56.872,28.184 C56.904,28.216 56.936,28.216 56.936,28.248 C56.904,28.44 56.744,28.6 56.648,28.792 C56.616,28.856 56.584,28.92 56.552,28.952 L56.584,28.952 C56.456,29.176 56.328,29.368 56.232,29.592 C56.2,29.56 56.168,29.56 56.136,29.592 C56.104,29.656 56.072,29.72 56.04,29.752 L56.072,29.752 L56.072,29.848 L56.04,29.848 C56.04,29.88 56.008,29.944 55.976,30.008 L55.912,30.008 L55.912,30.168 L55.88,30.168 L55.752,30.488 C55.72,30.456 55.688,30.456 55.656,30.488 L55.56,30.648 L55.592,30.648 L55.592,30.808 L55.56,30.808 C55.464,31.064 55.336,31.32 55.176,31.512 L55.176,31.544 C55.144,31.576 55.144,31.64 55.08,31.704 C55.08,31.768 55.08,31.832 55.016,31.864 C55.016,31.928 54.984,31.992 54.92,32.024 L54.92,31.864 C54.888,31.896 54.856,31.96 54.824,31.992 C54.856,31.992 54.824,32.024 54.824,32.024 L54.856,31.992 C54.888,31.992 54.92,32.024 54.92,32.024 C54.824,32.344 54.632,32.664 54.472,32.952 L53.704,34.488 C53.576,34.776 53.416,35.064 53.224,35.32 L53.256,35.32 C53.224,35.384 53.192,35.448 53.16,35.48 L53.16,35.32 C53.128,35.384 53.096,35.448 53.064,35.48 C53.032,35.544 53,35.576 52.968,35.608 L52.968,35.64 L53,35.608 C53.032,35.64 53.032,35.64 53.064,35.64 C53.032,35.768 53,35.864 52.904,35.96 L52.936,35.96 C52.872,36.024 52.872,36.088 52.84,36.12 L52.84,35.96 C52.808,36.024 52.776,36.056 52.744,36.088 L52.84,36.152 C52.744,36.28 52.68,36.44 52.584,36.6 L52.584,36.632 C52.552,36.568 52.552,36.568 52.52,36.632 L52.52,36.6 L52.424,36.76 C52.456,36.76 52.488,36.76 52.52,36.792 C52.456,36.92 52.392,37.048 52.296,37.176 L52.2,37.336 C52.168,37.4 52.168,37.464 52.104,37.496 C51.944,37.944 51.72,38.328 51.496,38.712 L50.792,39.96 C50.536,40.536 50.152,41.08 49.832,41.624 C49.8,41.72 49.704,41.784 49.608,41.816 C49.576,41.848 49.544,41.848 49.512,41.816 L49.512,41.752 C49.512,41.72 49.544,41.688 49.544,41.656 C50.056,40.824 50.472,39.992 50.92,39.16 C51.624,37.848 52.296,36.504 53,35.16 C53.352,34.488 53.704,33.784 54.056,33.08 L55.592,30.136 C56.008,29.336 56.456,28.536 56.872,27.768 C56.936,27.608 57.032,27.512 57.032,27.352 L57.16,27.256 C57.384,26.808 57.672,26.392 57.864,25.912 C57.992,25.688 58.184,25.464 58.248,25.176 C58.312,25.128 58.352,25.064 58.388,24.996 L58.328,24.936 Z M59.368,23.192 L59.368,23.16 C59.336,23.192 59.304,23.224 59.272,23.288 L59.368,23.192 Z M57.352,25.368 L57.352,25.336 L57.256,25.464 L57.352,25.368 Z M57.032,25.912 L57.032,25.88 L57,25.912 C57,25.944 56.968,25.976 56.936,26.008 L56.936,26.04 C56.968,25.976 57,25.944 57.032,25.912 Z M56.26,27.256 C56.256,27.296 56.248,27.336 56.232,27.384 C56.248,27.336 56.264,27.296 56.272,27.256 L56.26,27.256 Z M56.104,27.608 C56.104,27.576 56.104,27.512 56.136,27.48 C56.104,27.512 56.104,27.576 56.104,27.608 Z M56.072,27.96 C56.072,27.928 56.104,27.896 56.136,27.864 L56.04,27.96 L56.04,27.992 L56.072,27.96 Z M55.272,29.144 C55.304,29.08 55.336,28.984 55.304,28.92 C55.464,28.856 55.496,28.728 55.56,28.6 C55.432,28.696 55.4,28.792 55.304,28.92 C55.272,28.984 55.272,29.08 55.272,29.144 Z M54.792,29.976 C54.824,29.944 54.824,29.88 54.824,29.848 L54.792,29.976 Z M54.648,30.248 C54.64,30.288 54.632,30.328 54.632,30.36 C54.648,30.328 54.656,30.288 54.66,30.248 L54.648,30.248 Z M54.248,31.512 C54.248,31.448 54.28,31.384 54.28,31.32 C54.248,31.32 54.248,31.288 54.216,31.288 C54.216,31.352 54.216,31.416 54.248,31.512 Z M53.744,31.944 C53.736,31.968 53.736,31.992 53.736,32.024 C53.704,32.04 53.68,32.056 53.664,32.076 C53.712,32.088 53.72,32.056 53.736,32.024 C53.752,32.008 53.768,31.984 53.78,31.956 L53.744,31.944 Z M53.064,33.176 C53.128,33.208 53.16,33.176 53.224,33.144 C53.192,33.08 53.288,33.016 53.224,32.984 L53.128,33.08 C53.096,33.112 53.064,33.144 53.064,33.176 Z M53,33.4 C53.064,33.336 53.064,33.304 53.064,33.24 L53,33.4 C52.968,33.432 52.936,33.464 52.936,33.496 L53,33.4 Z M52.68,34.04 L52.776,33.912 C52.712,33.944 52.68,33.976 52.68,34.04 Z M52.552,34.36 C52.552,34.328 52.584,34.296 52.616,34.232 C52.616,34.168 52.648,34.136 52.648,34.072 C52.616,34.136 52.616,34.168 52.616,34.232 C52.584,34.264 52.552,34.296 52.552,34.36 Z M53.096,35.608 L53.064,35.48 L53.16,35.48 C53.128,35.512 53.128,35.576 53.096,35.608 Z M52.52,36.792 L52.52,36.632 L52.584,36.632 C52.584,36.696 52.552,36.728 52.52,36.792 Z M51.256,36.776 L51.208,36.824 C51.176,36.888 51.176,36.984 51.144,37.048 C51.208,36.984 51.208,36.888 51.208,36.824 L51.256,36.776 Z M50.96,37.428 C50.976,37.408 50.984,37.384 50.984,37.368 C51.016,37.336 51.032,37.296 51.04,37.256 C51.008,37.304 51,37.336 50.984,37.368 C50.952,37.368 50.936,37.376 50.924,37.392 L50.96,37.428 Z M50.76,37.784 C50.792,37.784 50.824,37.752 50.824,37.688 C50.856,37.624 50.888,37.592 50.888,37.496 C50.856,37.56 50.824,37.624 50.824,37.688 C50.792,37.72 50.76,37.752 50.76,37.784 Z M50.444,38.424 C50.44,38.456 50.44,38.488 50.44,38.52 C50.408,38.552 50.344,38.552 50.344,38.616 C50.28,38.68 50.28,38.712 50.248,38.776 L50.344,38.616 L50.44,38.52 C50.456,38.488 50.464,38.456 50.468,38.424 L50.444,38.424 Z" id="step-1" fill="#FFFFFF"></path>
    </g>
</svg>